<svg xmlns="http://www.w3.org/2000/svg" xmlns:xlink="http://www.w3.org/1999/xlink" viewBox="251 208 486 376"><path fill="#FFFBC5" d="M679 451.6H540.1V556H679V451.6z"/><path fill="#2B282A" d="M680.5 450.4H538.7v106.8h141.8V450.4zM543.1 552.8v-98h132.4v98H543.1z"/><path fill="#0C0B0C" d="M678.3 452.1H540.4v103.8h137.9V452.1zm-133.5 99.4v-95h129v95h-129z"/><path fill="#1F1D1E" d="M679.8 451.1H539.4v105.7h140.4V451.1zm-136 101.4v-96.9h131v96.9h-131z"/><linearGradient id="a" gradientUnits="userSpaceOnUse" x1="2363.425" y1="2578.212" x2="2413.508" y2="2578.212" gradientTransform="rotate(90 2583.822 671.544)"><stop offset="0"/><stop offset=".631" stop-color="#343434" stop-opacity=".368"/><stop offset="1" stop-color="#4D4D4D" stop-opacity="0"/></linearGradient><path fill="url(#a)" d="M679.6 501.2v-50.1l-4.9 4.4v45.7h4.9z"/><linearGradient id="b" gradientUnits="userSpaceOnUse" x1="4078.375" y1="2578.212" x2="4128.18" y2="2578.212" gradientTransform="matrix(0 -1 -1 0 3255.366 4635.223)"><stop offset="0"/><stop offset=".631" stop-color="#343434" stop-opacity=".368"/><stop offset="1" stop-color="#4D4D4D" stop-opacity="0"/></linearGradient><path fill="url(#b)" d="M674.7 507v45.4l4.9 4.4V507h-4.9z"/><linearGradient id="c" gradientUnits="userSpaceOnUse" x1="4033.875" y1="-1362.338" x2="4083.68" y2="-1362.338" gradientTransform="rotate(-90 3247.544 1343.18)"><stop offset="0"/><stop offset=".631" stop-color="#343434" stop-opacity=".368"/><stop offset="1" stop-color="#4D4D4D" stop-opacity="0"/></linearGradient><path fill="url(#c)" d="M539.6 507v49.8l4.9-4.4V507h-4.9z"/><linearGradient id="d" gradientUnits="userSpaceOnUse" x1="2407.925" y1="-1362.34" x2="2458.008" y2="-1362.34" gradientTransform="matrix(0 1 1 0 1904.367 -1956.777)"><stop offset="0"/><stop offset=".631" stop-color="#343434" stop-opacity=".368"/><stop offset="1" stop-color="#4D4D4D" stop-opacity="0"/></linearGradient><path fill="url(#d)" d="M544.5 501.2v-45.7l-4.9-4.4v50.1h4.9z"/><path opacity=".1" fill="#1F1D1E" d="M556 467.6h107.7v73H556z"/><path fill="#1C75BC" d="M557.6 469.2H662v69.2H557.6z"/><path fill="#FFFBC5" d="M386.6 277.7V528h192.1V277.7H386.6z"/><path fill="#2B282A" d="M384.4 275.1v255.6h196.7V275.1H384.4zM573 522.5H392.6V284H573v238.5z"/><path fill="#0C0B0C" d="M387.5 279.1v248.5h191.1V279.1H387.5zm183.1 240.4h-175V287h174.9l.1 232.5z"/><path fill="#1F1D1E" d="M385.7 276.4v252.9h194.7V276.4H385.7zm186.7 244.9H393.8v-236h178.5v236z"/><linearGradient id="e" gradientUnits="userSpaceOnUse" x1="281.699" y1="169.487" x2="373.659" y2="169.487" gradientTransform="translate(104.04 111.34)"><stop offset="0"/><stop offset=".631" stop-color="#343434" stop-opacity=".368"/><stop offset="1" stop-color="#4D4D4D" stop-opacity="0"/></linearGradient><path fill="url(#e)" d="M477.7 276.4h-92l8.1 8.9h83.9v-8.9z"/><linearGradient id="f" gradientUnits="userSpaceOnUse" x1="6071.114" y1="169.487" x2="6163.074" y2="169.487" gradientTransform="matrix(-1 0 0 1 6651.54 111.34)"><stop offset="0"/><stop offset=".631" stop-color="#343434" stop-opacity=".368"/><stop offset="1" stop-color="#4D4D4D" stop-opacity="0"/></linearGradient><path fill="url(#f)" d="M488.5 285.3h83.9l8.1-8.9h-92v8.9z"/><linearGradient id="g" gradientUnits="userSpaceOnUse" x1="6026.614" y1="937.495" x2="6118.574" y2="937.495" gradientTransform="rotate(180 3303.52 731.17)"><stop offset="0"/><stop offset=".631" stop-color="#343434" stop-opacity=".368"/><stop offset="1" stop-color="#4D4D4D" stop-opacity="0"/></linearGradient><path fill="url(#g)" d="M488.5 529.3h92l-8.1-8.9h-83.9v8.9z"/><linearGradient id="h" gradientUnits="userSpaceOnUse" x1="326.199" y1="937.495" x2="418.159" y2="937.495" gradientTransform="matrix(1 0 0 -1 59.54 1462.34)"><stop offset="0"/><stop offset=".631" stop-color="#343434" stop-opacity=".368"/><stop offset="1" stop-color="#4D4D4D" stop-opacity="0"/></linearGradient><path fill="url(#h)" d="M477.7 520.4h-83.9l-8.1 8.9h92v-8.9z"/><g><path fill="#8C8678" d="M415.9 305.4h134.8v193.7H415.9z" opacity=".1"/><path fill="#00A79D" d="M419.1 308.3h127.4v188.1H419.1z"/></g><g><path fill="#FFFBC5" d="M308.9 425.5v156.3h120V425.5h-120z"/><path fill="#2B282A" d="M307.5 423.8v159.6h122.9V423.8H307.5zm117.8 154.6H312.6v-149h112.7v149z"/><path fill="#0C0B0C" d="M309.5 426.3v155.2h119.4V426.3H309.5zm114.3 150.3H314.5V431.3h109.3v145.3z"/><path fill="#1F1D1E" d="M308.3 424.7v158H430v-158H308.3zm116.6 153H313.4V430.2h111.5v147.5z"/><linearGradient id="i" gradientUnits="userSpaceOnUse" x1="204.305" y1="316.107" x2="261.753" y2="316.107" gradientTransform="translate(104.04 111.34)"><stop offset="0"/><stop offset=".631" stop-color="#343434" stop-opacity=".368"/><stop offset="1" stop-color="#4D4D4D" stop-opacity="0"/></linearGradient><path fill="url(#i)" d="M365.8 424.7h-57.4l5 5.5h52.4v-5.5z"/><linearGradient id="j" gradientUnits="userSpaceOnUse" x1="6221.573" y1="316.107" x2="6279.02" y2="316.107" gradientTransform="matrix(-1 0 0 1 6651.54 111.34)"><stop offset="0"/><stop offset=".631" stop-color="#343434" stop-opacity=".368"/><stop offset="1" stop-color="#4D4D4D" stop-opacity="0"/></linearGradient><path fill="url(#j)" d="M372.5 430.2h52.4l5-5.5h-57.4v5.5z"/><linearGradient id="k" gradientUnits="userSpaceOnUse" x1="6177.073" y1="882.455" x2="6234.521" y2="882.455" gradientTransform="rotate(180 3303.52 731.17)"><stop offset="0"/><stop offset=".631" stop-color="#343434" stop-opacity=".368"/><stop offset="1" stop-color="#4D4D4D" stop-opacity="0"/></linearGradient><path fill="url(#k)" d="M372.5 582.7H430l-5-5.5h-52.4l-.1 5.5z"/><linearGradient id="l" gradientUnits="userSpaceOnUse" x1="248.805" y1="882.454" x2="306.252" y2="882.454" gradientTransform="matrix(1 0 0 -1 59.54 1462.34)"><stop offset="0"/><stop offset=".631" stop-color="#343434" stop-opacity=".368"/><stop offset="1" stop-color="#4D4D4D" stop-opacity="0"/></linearGradient><path fill="url(#l)" d="M365.8 577.1h-52.4l-5 5.5h57.4v-5.5z"/><g><path opacity=".1" fill="#1F1D1E" d="M327.3 442.8h84V564h-84z"/><path fill="#9E1F63" d="M329.2 444.6h79.6v117.5h-79.6z"/></g></g><g fill="#FFFBC5"><path d="M561.2 303.4v3.9h-1.4v-3.9l-2.7-3.9h1.4l2 2.7 2-2.7h1.4l-2.7 3.9zM572.3 300.9v5c0 .4-.1.7-.4 1-.3.3-.6.4-1 .4h-5.1c-.4 0-.7-.1-1-.4s-.4-.6-.4-1v-5c0-.4.1-.7.4-1 .3-.3.6-.4 1-.4h5.2c.4 0 .7.1 1 .4.2.3.3.6.3 1zm-1.4 5v-5.1h-5.2v5.1h5.2zM580.2 305.9c0 .4-.1.7-.4 1-.3.3-.6.4-1 .4h-4c-.4 0-.7-.1-1-.4-.3-.3-.4-.6-.4-1v-6.4h1.4v6.4h4.1v-6.4h1.4l-.1 6.4zM588 307.3h-1.9l-2.4-3.1h-1.2v3.1h-1.4v-7.8h5.4c.4 0 .7.1 1 .4.3.3.4.6.4 1v1.9c0 .4-.1.7-.4 1-.3.3-.6.4-1 .4h-.9l2.4 3.1zm-1.4-6.5h-4.1v2h4.1v-2zM599.2 300.8h-2.7v6.4h-1.4v-6.4h-2.7v-1.3h6.8v1.3zM606.6 307.3h-5.4c-.4 0-.7-.1-1-.4-.3-.3-.4-.6-.4-1v-5c0-.4.1-.7.4-1 .3-.3.6-.4 1-.4h5.4v1.3h-5.5v1.9h5.5v1.3h-5.5v1.9h5.5v1.4zM611.3 303.4l2.6 3.9h-1.6l-1.8-2.7-1.8 2.7h-1.6l2.6-3.9-2.6-3.9h1.6l1.8 2.7 1.8-2.7h1.6l-2.6 3.9zM621.2 300.8h-2.7v6.4h-1.4v-6.4h-2.7v-1.3h6.8v1.3z"/></g><g fill="#FFFBC5"><path d="M581.1 318.1h-1.4v-3.2h-4.1v3.2h-1.4v-7.8h1.4v3.2h4.1v-3.2h1.4v7.8zM589 318.1h-5.4c-.4 0-.7-.1-1-.4-.3-.3-.4-.6-.4-1v-5c0-.4.1-.7.4-1 .3-.3.6-.4 1-.4h5.4v1.3h-5.5v1.9h5.5v1.3h-5.5v1.9h5.5v1.4zM596.5 318.1h-1.9l-2.4-3.1H591v3.1h-1.4v-7.8h5.4c.4 0 .7.1 1 .4.3.3.4.6.4 1v1.9c0 .4-.1.7-.4 1-.3.3-.6.4-1 .4h-.9l2.4 3.1zm-1.4-6.5H591v2h4.1v-2zM604.3 318.1h-5.4c-.4 0-.7-.1-1-.4-.3-.3-.4-.6-.4-1v-5c0-.4.1-.7.4-1 .3-.3.6-.4 1-.4h5.4v1.3h-5.5v1.9h5.5v1.3h-5.5v1.9h5.5v1.4z"/></g><ellipse fill="#1F1D1E" cx="366.9" cy="387.1" rx="2.7" ry="2.7"/><path fill="#1F1D1E" d="M323.1 426c-.2 0-.4-.1-.5-.2-.4-.3-.5-.8-.2-1.2 1-1.3 23.7-32.7 44.2-38.5.2-.1.4 0 .6 0 .7.3 17.9 7.1 42.8 38.2.3.4.2.9-.1 1.2-.4.3-.9.2-1.2-.1-22.9-28.6-39.5-36.6-41.8-37.6-19.9 5.8-42.8 37.4-43 37.7-.2.4-.5.5-.8.5z"/><path opacity=".3" fill="#999" d="M324.8 428c-.2 0-.4-.1-.5-.2-.4-.3-.5-.8-.2-1.2 1-1.3 23.7-32.7 44.2-38.5.2-.1.4 0 .6 0 .7.3 17.9 7.1 42.8 38.2.3.4.2.9-.1 1.2-.4.3-.9.2-1.2-.1-22.9-28.6-39.5-36.6-41.8-37.6-19.9 5.8-42.8 37.4-43 37.7-.3.3-.6.5-.8.5z"/><ellipse fill="#1F1D1E" cx="490.8" cy="234.6" rx="3.3" ry="3.3"/><path fill="#1F1D1E" d="M437.4 282.2c-.2 0-.4-.1-.6-.2-.5-.3-.6-1-.3-1.5 1.2-1.6 28.9-39.9 54-46.9.2-.1.5-.1.7 0 .9.3 21.9 8.7 52.2 46.6.4.5.3 1.1-.2 1.5-.5.4-1.1.3-1.5-.2-28-35-48.3-44.6-51-45.8-24.3 7.1-52.2 45.6-52.5 46-.1.3-.5.5-.8.5z"/><path opacity=".3" fill="#999" d="M439.4 284.5c-.2 0-.4-.1-.6-.2-.5-.3-.6-1-.3-1.5 1.2-1.6 28.9-39.9 54-46.9.2-.1.5-.1.7 0 .9.3 21.9 8.7 52.2 46.6.4.5.3 1.1-.2 1.5-.5.4-1.1.3-1.5-.2-28-35-48.3-44.6-51-45.8-24.3 7.1-52.2 45.6-52.5 46-.1.3-.5.5-.8.5z"/><g><path fill="#FFFBC5" d="M530.7 231.5v156.3h120V231.5h-120z"/><path fill="#2B282A" d="M529.3 229.9v159.6h122.9V229.9H529.3zm117.8 154.6H534.4v-149h112.7v149z"/><path fill="#0C0B0C" d="M531.2 232.4v155.2h119.4V232.4H531.2zm114.4 150.2H536.3V237.4h109.3v145.2z"/><path fill="#1F1D1E" d="M530.1 230.7v158h121.6v-158H530.1zm116.6 153H535.1V236.2h111.5v147.5z"/><linearGradient id="m" gradientUnits="userSpaceOnUse" x1="426.055" y1="122.136" x2="483.504" y2="122.136" gradientTransform="translate(104.04 111.34)"><stop offset="0"/><stop offset=".631" stop-color="#343434" stop-opacity=".368"/><stop offset="1" stop-color="#4D4D4D" stop-opacity="0"/></linearGradient><path fill="url(#m)" d="M587.5 230.7h-57.4l5 5.5h52.4v-5.5z"/><linearGradient id="n" gradientUnits="userSpaceOnUse" x1="5999.822" y1="122.136" x2="6057.27" y2="122.136" gradientTransform="matrix(-1 0 0 1 6651.54 111.34)"><stop offset="0"/><stop offset=".631" stop-color="#343434" stop-opacity=".368"/><stop offset="1" stop-color="#4D4D4D" stop-opacity="0"/></linearGradient><path fill="url(#n)" d="M594.3 236.2h52.4l5-5.5h-57.4v5.5z"/><linearGradient id="o" gradientUnits="userSpaceOnUse" x1="5955.324" y1="1076.426" x2="6012.771" y2="1076.426" gradientTransform="rotate(180 3303.52 731.17)"><stop offset="0"/><stop offset=".631" stop-color="#343434" stop-opacity=".368"/><stop offset="1" stop-color="#4D4D4D" stop-opacity="0"/></linearGradient><path fill="url(#o)" d="M594.3 388.7h57.4l-5-5.5h-52.4v5.5z"/><linearGradient id="p" gradientUnits="userSpaceOnUse" x1="470.554" y1="1076.425" x2="528.003" y2="1076.425" gradientTransform="matrix(1 0 0 -1 59.54 1462.34)"><stop offset="0"/><stop offset=".631" stop-color="#343434" stop-opacity=".368"/><stop offset="1" stop-color="#4D4D4D" stop-opacity="0"/></linearGradient><path fill="url(#p)" d="M587.5 383.1h-52.4l-5 5.5h57.4v-5.5z"/><g><path opacity=".1" fill="#1F1D1E" d="M549.1 248.8h84V370h-84z"/><path fill="#EF4136" d="M550.9 250.7h79.6v117.5h-79.6z"/></g></g><ellipse fill="#1F1D1E" cx="590.8" cy="210.1" rx="1.6" ry="1.6"/><path fill="#1F1D1E" d="M564.7 233.4c-.1 0-.2 0-.3-.1-.2-.2-.3-.5-.1-.7.6-.8 14.1-19.5 26.4-23h.3c.4.2 10.7 4.3 25.6 22.8.2.2.1.5-.1.7-.2.2-.6.1-.7-.1-13.7-17.1-23.6-21.8-25-22.4-11.9 3.5-25.5 22.3-25.7 22.5-.1.2-.3.3-.4.3z"/><path opacity=".3" fill="#999" d="M565.6 234.5c-.1 0-.2 0-.3-.1-.2-.2-.3-.5-.1-.7.6-.8 14.1-19.5 26.4-23h.3c.4.2 10.7 4.3 25.6 22.8.2.2.1.5-.1.7-.2.2-.6.1-.7-.1-13.7-17.1-23.6-21.8-25-22.4-11.9 3.5-25.5 22.3-25.7 22.5 0 .3-.2.3-.4.3z"/><ellipse fill="#1F1D1E" cx="618.7" cy="429.7" rx="1.6" ry="1.6"/><path fill="#1F1D1E" d="M592.5 452.9c-.1 0-.2 0-.3-.1-.2-.2-.3-.5-.1-.7.6-.8 14.1-19.5 26.4-23h.3c.4.2 10.7 4.3 25.6 22.8.2.2.1.5-.1.7-.2.2-.6.1-.7-.1-13.7-17.1-23.6-21.8-25-22.4-11.9 3.5-25.5 22.3-25.7 22.5 0 .3-.2.3-.4.3z"/><path opacity=".3" fill="#999" d="M593.5 454.1c-.1 0-.2 0-.3-.1-.2-.2-.3-.5-.1-.7.6-.8 14.1-19.5 26.4-23h.3c.4.2 10.7 4.3 25.6 22.8.2.2.1.5-.1.7-.2.2-.6.1-.7-.1-13.7-17.1-23.6-21.8-25-22.4-11.9 3.5-25.5 22.3-25.7 22.5 0 .2-.2.3-.4.3z"/><g><defs><ellipse id="q" cx="366.8" cy="499.3" rx="35.4" ry="35.1"/></defs><clipPath id="r"><use xlink:href="#q" overflow="visible"/></clipPath><g clip-path="url(#r)"><ellipse fill="#482B1B" cx="366.8" cy="487" rx="15.5" ry="15.3"/><path fill="#EAC8AD" d="M372 519.8l-5.3 14.6-5.1-14.6v-11.2H372"/><g fill="#F2D7BC"><path d="M366.8 477.4c-5 0-13 2.8-13 16.1 0 7.7 3 11.3 4.1 12.7 1 1.3 6.2 5.4 8.9 5.4v-34.2z"/><path d="M351.3 496.6c-.2-2.1.8-4 2.3-4.2 1.5-.2 2.9 1.4 3.1 3.5.2 2.1-.8 4-2.3 4.2-1.5.2-2.9-1.3-3.1-3.5z"/></g><path fill="#F2D7BC" d="M366.7 477.4c5 0 13 2.8 13 16.1 0 7.7-3 11.3-4.1 12.7-1 1.3-6.2 5.4-8.9 5.4v-34.2z"/><path fill="#F2D7BC" d="M382.3 496.6c.2-2.1-.8-4-2.3-4.2-1.5-.2-2.9 1.4-3.1 3.5-.2 2.1.8 4 2.3 4.2 1.5.2 2.9-1.3 3.1-3.5z"/><path fill="#EAC8AD" d="M366.7 534.4v-14s-3.9-.9-4.7-4.1c-.4-1.5-.4-2.7-.4-2.7s-8.5 2.8-10.4 5.8c-1.6 4.6-2 15-2 15h17.5z"/><path fill="#EAC8AD" d="M366.7 534.4v-14s3.9-.9 4.7-4.1c.4-1.5.4-2.7.4-2.7s8.5 2.8 10.4 5.8c1.6 4.6 2 15 2 15h-17.5z"/><path fill="#EAC8AD" d="M366.7 534.4v-14s-3.9-.9-4.7-4.1c-.4-1.5-.4-2.7-.4-2.7s-8.5 2.8-10.4 5.8c-1.6 4.6-2 15-2 15h17.5z"/><path fill="#EAC8AD" d="M366.7 534.4v-14s3.9-.9 4.7-4.1c.4-1.5.4-2.7.4-2.7s8.5 2.8 10.4 5.8c1.6 4.6 2 15 2 15h-17.5z"/><path fill="#FFF" d="M366.8 506.9c2 0 3.6-1.2 3.6-2.7h-7.1c-.1 1.5 1.5 2.7 3.5 2.7z"/><path fill="#482B1B" d="M366 473.5c-9.2 0-12 8-12 11.7-3.3 4.6.3 8.7 2.9 10.1V493c0-3 2.9-5.7 7.1-5.3 3.8.4 6.3-1.7 8.3-5.4 2.6-4.8-.6-8.8-6.3-8.8z"/><path fill="#482B1B" d="M372 480.9s2.2 8.6 8 11.5c1-7.8 1.7-6.1 0-10.2s-8-7.1-8-7.1v5.8z"/><path fill="#FAA21C" d="M382.2 519.4c-1.6-2.4-7.7-4.8-9.7-5.5-.1 3-2.7 5.5-5.8 5.5s-5.6-2.4-5.8-5.5c-2 .7-8.1 3.1-9.7 5.5-1.6 4.6-2 15-2 15h35s-.4-10.4-2-15z"/><path fill="#FAA21C" d="M384.2 534.4s-.4-10.4-2-15c-1.6-2.4-7.7-4.8-9.7-5.5-.1 3-2.7 5.5-5.8 5.5v15.1h17.5z"/><path fill="#39B54A" d="M359.1 514.6c.6 3.7 3.8 6.5 7.7 6.5s7.1-2.8 7.7-6.5c-.8-.3-1.4-.6-1.9-.7-.1 3-2.7 5.5-5.8 5.5-3.1 0-5.6-2.4-5.8-5.5-.5.1-1.2.4-1.9.7z"/><ellipse fill="#482B1B" cx="366.8" cy="471.6" rx="5.2" ry="5.1"/></g></g><g><defs><ellipse id="s" cx="589.9" cy="306.4" rx="43.3" ry="42.8"/></defs><clipPath id="t"><use xlink:href="#s" overflow="visible"/></clipPath><g clip-path="url(#t)"><path fill="#D9A78C" d="M583.8 317.2h12.7v13.7h-12.7z"/><path fill="#C74043" d="M609.9 329.7c-2.9-3.4-7.3-4.1-11.4-5.1h-2.2c0 2.7-2.8 4.9-6.3 4.9s-6.3-2.2-6.3-4.9h-2.2c-4 1-8.4 1.8-11.4 5.1-1.8 2.1-5 19.6-5 19.6h49.8s-3.2-17.5-5-19.6z"/><path fill="#F2D7BC" d="M606.3 296.3h-.3c-.5-15.1-9.9-18.4-15.9-18.4s-15.4 3.3-15.9 18.4h-.3c-1.8.2-3.1 2.5-2.8 5.1.3 2.6 2 4.5 3.8 4.2h.1c1 4.8 2.7 8 3.6 9.1 1.2 1.6 8.2 4.9 11.5 4.9 3.3 0 10.2-3.3 11.5-4.9.9-1.1 2.6-4.3 3.6-9.1h.1c1.8.2 3.5-1.7 3.8-4.2.2-2.5-1-4.8-2.8-5.1z"/><path fill="#FFF" d="M590.1 313.5c2.9 0 5.2-.9 5.2-2.1h-10.4c0 1.2 2.3 2.1 5.2 2.1z"/><path fill="#553828" d="M602.9 298.9c.7-1.7 2-2.7 3.4-2.6.6-1.9.9-4.2 0-6.6-4.6-12.9.6-15.2.6-15.2s-5.1-.2-9 3c2.7-4.2 3.9-5.2 3.9-5.2s-5.7-1.2-11.8 5c1.4-3.4 3-5.1 3-5.1s-12.7.1-17.4 9.2c-2.6 5.2-2.8 10.8-2.2 15.1.2-.1.3-.1.5-.1.6-.1 1.2.1 1.7.4v-4c2.4-1.1 5-2.4 4.9-7.8h17.9s-.4 6 4.5 7.5v6.4z"/><path fill="#0F958C" d="M590 331c4.7 0 8.5-2.9 8.5-6.5h-2.2c0 2.7-2.8 4.9-6.3 4.9s-6.3-2.2-6.3-4.9h-2.2c0 3.6 3.8 6.5 8.5 6.5z"/></g></g><g><defs><ellipse id="u" cx="616.9" cy="501.3" rx="28.5" ry="28.2"/></defs><clipPath id="v"><use xlink:href="#u" overflow="visible"/></clipPath><g clip-path="url(#v)"><ellipse fill="#461811" cx="617" cy="491.4" rx="12.5" ry="12.3"/><path fill="#EAC8AD" d="M621.2 517.8l-4.3 11.7-4.1-11.7v-9.1h8.4"/><path fill="#F2D7BC" d="M627.6 495.8h-.2c-.3-9.9-6.5-12.1-10.4-12.1-3.9 0-10.1 2.2-10.4 12.1h-.2c-1.2.2-2 1.7-1.8 3.4.2 1.7 1.3 3 2.5 2.8.1 0 .2 0 .2-.1.8 2.7 2 4.2 2.6 4.9.8 1 5 4.3 7.1 4.3 2.2 0 6.3-3.3 7.1-4.3.6-.7 1.8-2.2 2.6-4.9.1 0 .2.1.3.1 1.2.2 2.3-1.1 2.5-2.8.1-1.8-.7-3.3-1.9-3.4z"/><path fill="#EAC8AD" d="M629.4 517.4c-1.5-2.3-8.3-4.6-8.3-4.6s0 1-.3 2.2c-.7 2.5-3.8 3.3-3.8 3.3s-3.1-.8-3.8-3.3c-.3-1.2-.3-2.2-.3-2.2s-6.8 2.3-8.3 4.6c-1.3 3.7-1.6 12.1-1.6 12.1h28s-.4-8.4-1.6-12.1z"/><path fill="#FFF" d="M617 507.4c1.6 0 2.9-1 2.9-2.1h-5.7c-.1 1.1 1.2 2.1 2.8 2.1z"/><path fill="#461811" d="M616.4 480.6c-7.4 0-9.6 6.4-9.6 9.4-2.7 3.7.2 7 2.3 8.1v-1.8c0-2.4 2.3-4.6 5.7-4.2 3.1.3 5-1.4 6.7-4.3 2-4-.5-7.2-5.1-7.2z"/><path fill="#461811" d="M621.2 486.5s1.7 6.9 6.5 9.2c.8-6.2 1.3-4.9 0-8.2-1.3-3.3-6.5-5.7-6.5-5.7v4.7z"/><path fill="#F1F2F2" d="M616.9 529.5v-15l-4.1-1.7s-6.8 2.3-8.3 4.6c-1.3 3.7-1.6 12.1-1.6 12.1h14zM616.9 529.5v-15l4.1-1.7s6.8 2.3 8.3 4.6c1.3 3.7 1.6 12.1 1.6 12.1h-14z"/><path fill="#461811" d="M614.6 481.1s-6.3-9.7-14.1-2.2c-7.8 7.5 1.2 21.4-3.5 23.6 5.1-.7 6.4-7.8 5.9-14.1-.4-5.6 4.5-8.3 8.3-6 1.7 1 3.4-1.3 3.4-1.3z"/><path fill="#FFF" d="M616.9 514.5l-4.2-1.7-1 1.1 2.1 4.6M616.9 514.5l4.3-1.7 1 1.1-2.1 4.6"/></g></g><path fill="#01766F" d="M528.3 434.4c-2-2-11-4-17.6-5.2-1.3-.5-2.7-.9-4.1-1.2l-6-3.5-.2.1v-8.3c4.3-1.9 8.1-4.2 9.3-5.6 1.8-2.2 5.2-8.7 7-18.6 3.2.3 6.2-3.1 6.7-7.7.4-4.1-1.2-7.8-3.8-9 1-5.4.2-15.8-3-22.6-4.6-18.5-32.1-33.1-51.7-4.9-6.1 5.1-7.8 20.5-6.5 27.5-2.6 1.2-4.2 4.9-3.8 8.9.5 4.6 3.4 8 6.7 7.7 1.8 9.9 5.2 16.3 7 18.6 1.1 1.4 5 3.7 9.3 5.6v8.3l-.2-.1-6 3.5c-1.4.4-2.8.8-4.1 1.2-6.7 1.2-15.7 3.2-17.7 5.2-2.8 2.9-8.7 30.7-10 36.8h99c-1.7-6-7.5-33.8-10.3-36.7z"/></svg>