<?xml version="1.0" encoding="UTF-8" standalone="no"?>
<svg width="171px" height="53px" viewBox="0 0 171 53" version="1.1" xmlns="http://www.w3.org/2000/svg" xmlns:xlink="http://www.w3.org/1999/xlink" xmlns:sketch="http://www.bohemiancoding.com/sketch/ns">
    <!-- Generator: Sketch 3.3.2 (12043) - http://www.bohemiancoding.com/sketch -->
    <title>Group + Group 4 + Fill 5 Copy</title>
    <desc>Created with Sketch.</desc>
    <defs>
        <path id="path-1" d="M3.69626909,20.9634906 C-1.05179678,16.1707118 -1.05179678,8.39924819 3.69626909,3.60646941 C8.44382298,-1.18682241 16.1408709,-1.18682241 20.8889368,3.60646941 C25.6364906,8.39924819 25.6364906,16.1707118 20.8889368,20.9634906 C16.1408709,25.7567824 8.44382298,25.7567824 3.69626909,20.9634906 L3.69626909,20.9634906 Z"></path>
    </defs>
    <g id="Page-1" stroke="none" stroke-width="1" fill="none" fill-rule="evenodd" sketch:type="MSPage">
        <g id="Group-+-Group-4-+-Fill-5-Copy" sketch:type="MSLayerGroup">
            <g id="Group" transform="translate(58.278027, 1.536232)" fill="#6C6C6C" sketch:type="MSShapeGroup">
                <path d="M21.9839461,39.061303 C21.132018,39.061303 20.3507426,38.5882841 19.9544731,37.8325826 L15.0912126,28.5594638 C14.5469821,27.5210797 14.0201587,26.6525104 13.5102306,25.9532428 C13.0003024,25.2544883 12.4729671,24.6973316 11.9292485,24.2797206 C11.385018,23.8626227 10.8029012,23.564549 10.1823863,23.3860126 C9.5618713,23.2064501 8.8691677,23.1171819 8.10427549,23.1171819 L4.07553597,23.1171819 L4.07553597,39.061303 L0.684206627,39.061303 L0.684206627,4.66790789 C0.684206627,3.42687472 1.68819166,2.42081187 2.92717369,2.42081187 L11.215042,2.42081187 C12.5922575,2.42081187 13.9218593,2.62500005 15.2058952,3.03388944 C16.4889072,3.44277883 17.6321497,4.04662176 18.6351108,4.84747036 C19.6380719,5.64934504 20.4413623,6.65335575 21.0449821,7.86258071 C21.6480899,9.07283175 21.9501557,10.4780363 21.9501557,12.0792205 C21.9501557,13.3736094 21.7545809,14.5659042 21.3639432,15.6561048 C20.9722815,16.7463055 20.4157635,17.7133777 19.6933653,18.5562952 C18.9709671,19.3997258 18.0954881,20.1154105 17.0669282,20.7023232 C16.0383683,21.2907751 14.8782306,21.7283945 13.586515,22.0182596 L13.586515,22.1203537 C14.0795479,22.3245419 14.5300869,22.5892682 14.9381318,22.9129937 C15.3461767,23.2367192 15.7414222,23.6281654 16.1238683,24.0883583 C16.5063144,24.5480383 16.8841527,25.0764649 17.2584072,25.6726123 C17.6321497,26.2687597 18.0232994,26.950071 18.4313444,27.7165463 L24.5765929,39.061303 L21.9839461,39.061303 L21.9839461,39.061303 Z M4.07553597,6.58871326 L4.07553597,20.0251162 L10.1445,20.0251162 C11.3681228,20.0251162 12.4903743,19.8465798 13.5102306,19.488994 C14.5300869,19.1314082 15.4009581,18.6204247 16.1238683,17.9560435 C16.8457545,17.2916624 17.4068803,16.4908138 17.8067336,15.5540108 C18.2060749,14.6172077 18.4057455,13.5608674 18.4057455,12.3855028 C18.4057455,10.2564049 17.7212336,8.58288273 16.3532336,7.36442312 C14.9847216,6.14698959 13.0084941,5.53801631 10.4245509,5.53801631 L5.12406291,5.53801631 C4.545018,5.53801631 4.07553597,6.00795694 4.07553597,6.58871326 L4.07553597,6.58871326 Z" id="Fill-9"></path>
                <path d="M31.3889461,26.5663204 C31.4053294,28.1675046 31.6183114,29.6075956 32.0263563,30.8850543 C32.4344012,32.162513 33.0206138,33.2450181 33.785506,34.1294915 C34.5503982,35.015504 35.4816827,35.6927111 36.5773114,36.1616256 C37.6744761,36.6295141 38.9108982,36.8639714 40.2876018,36.8639714 C43.0527845,36.8639714 45.6751258,35.9528201 48.1546258,34.1305176 C48.3507126,33.9863546 48.6256438,34.1202569 48.6256438,34.3639488 L48.6256438,35.5921561 C48.6256438,36.5217766 48.1187875,37.3754679 47.3073054,37.8254002 C45.0843054,39.0582247 42.4978024,39.6748936 39.5483084,39.6748936 C37.7973503,39.6748936 36.2081767,39.3680983 34.7802755,38.7550207 C33.3523743,38.1414301 32.1364312,37.2518263 31.1339821,36.0846703 C30.130509,34.9180273 29.3574252,33.4820406 28.8131947,31.7787623 C28.2689641,30.0765101 27.9976168,28.1346703 27.9976168,25.9532428 C27.9976168,23.9949858 28.2950749,22.1803789 28.8899911,20.5109609 C29.4849072,18.841543 30.3086767,17.3978608 31.3633473,16.1804273 C32.4169941,14.9619677 33.6667276,14.0077214 35.111524,13.3187146 C36.5558084,12.6281686 38.1367905,12.2834087 39.8544701,12.2834087 C41.5373354,12.2834087 43.0246258,12.576865 44.3163414,13.1653169 C45.6080569,13.7527427 46.6919102,14.592069 47.5679012,15.6812436 C48.4428683,16.7714443 49.1104851,18.1002066 49.5692156,19.6675304 C50.0284581,21.2353672 50.2578234,22.988923 50.2578234,24.9312759 C50.2578234,25.8342186 49.5272336,26.5663204 48.6256438,26.5663204 L31.3889461,26.5663204 L31.3889461,26.5663204 Z M46.7385,23.7046077 C46.8224641,23.7046077 46.8905569,23.6322697 46.888509,23.5486449 C46.8158084,20.8993289 46.1707186,18.8379518 44.9542635,17.3675917 C43.7132336,15.8695277 41.9873623,15.1194696 39.7776737,15.1194696 C38.6723174,15.1194696 37.6483653,15.3154492 36.7053054,15.7074084 C35.7617336,16.0993676 34.9328444,16.6652459 34.2191497,17.4065824 C33.5049432,18.1474058 32.9141228,19.0503485 32.4466887,20.1154105 C31.9792545,21.1794464 31.6521018,22.3758454 31.4652306,23.7046077 L46.7385,23.7046077 L46.7385,23.7046077 Z" id="Fill-10"></path>
                <path d="M56.1460599,38.0147103 L56.1460599,0.847844652 C56.1460599,0.559518632 56.379521,0.325574389 56.6677635,0.325574389 L58.2507935,0.325574389 C58.8912755,0.325574389 59.4099072,0.845279474 59.4099072,1.486574 L59.4099072,38.5390327 C59.4099072,38.8273587 59.1764461,39.061303 58.8887156,39.061303 L57.1904911,39.061303 C56.614006,39.061303 56.1460599,38.5929014 56.1460599,38.0147103" id="Fill-11"></path>
                <path d="M84.6774611,37.1994967 C84.6774611,37.6401943 84.4291527,38.0424142 84.038515,38.2450633 C82.2302156,39.1849445 80.0973234,39.6692502 77.6398384,39.7000323 C75.7690779,39.7169625 74.0862126,39.393237 72.5907306,38.7288559 C71.0947366,38.0644747 69.8199162,37.1404976 68.7657575,35.9574374 C67.7115988,34.7728382 66.9047246,33.3763552 66.3435988,31.7669625 C65.7824731,30.1565437 65.5019102,28.4060661 65.5019102,26.5150168 C65.5019102,24.5572729 65.7988563,22.7123968 66.3947964,20.9839798 C66.9897126,19.2545367 67.8564881,17.7477511 68.9956348,16.4610577 C70.1337575,15.1753905 71.5283803,14.1575278 73.1774551,13.4079828 C74.825506,12.6584377 76.7126497,12.2834087 78.8378623,12.2834087 C80.6963354,12.2834087 82.4165749,12.5932822 83.9985809,13.2114901 C84.4511677,13.3884874 84.7537455,13.8214895 84.7537455,14.3088733 L84.7537455,15.3908654 C84.7537455,16.0834635 84.0308354,16.5421174 83.4098084,16.2373742 C81.8912875,15.4919334 80.2821467,15.1194696 78.5828982,15.1194696 C77.0362186,15.1194696 75.659003,15.413952 74.4522755,16.0008648 C73.244524,16.5893166 72.2292755,17.3896522 71.4049941,18.4028976 C70.5802006,19.416656 69.952006,20.6002291 69.5178503,21.9551562 C69.0847186,23.3085442 68.8681527,24.7435048 68.8681527,26.2595251 C68.8681527,27.6565211 69.0504162,28.994005 69.4159671,30.2719767 C69.781518,31.5494354 70.3426438,32.6776007 71.0988324,33.6574988 C71.855533,34.6363707 72.8113923,35.4161849 73.9679461,35.9954021 C75.1234761,36.5746193 76.4832845,36.8639714 78.0473713,36.8639714 C80.1306018,36.8639714 82.0412964,36.3334926 83.7799671,35.2725349 C84.1736767,35.0319212 84.6774611,35.3048561 84.6774611,35.7665882 L84.6774611,37.1994967" id="Fill-12"></path>
                <path d="M100.570734,43.814065 C99.5508773,46.3694954 98.3779402,48.264136 97.0519222,49.4995257 C95.7264162,50.7338894 94.1198354,51.3515843 92.2326917,51.3515843 C91.7248114,51.3515843 91.2594252,51.31875 90.837045,51.2530815 C90.2713114,51.1658654 89.8617306,50.6666818 89.8617306,50.0931079 L89.8617306,48.4452375 C89.8617306,48.2092411 90.0859761,48.0353221 90.3122695,48.1004776 C90.5385629,48.1661461 90.7669042,48.2189888 90.9962695,48.2600317 C91.3782036,48.3272393 91.7647455,48.3621258 92.1564072,48.3621258 C93.2274611,48.3621258 94.1582336,48.0255744 94.9482126,47.3534977 C95.7392156,46.679882 96.4232156,45.6620193 97.0012366,44.2988836 L98.3415899,41.1303756 C98.93753,39.7210668 98.9626168,38.1352737 98.4117306,36.7080086 L89.8351078,14.4807402 C89.5407216,13.7178563 90.1023593,12.8964862 90.9189611,12.8964862 L91.8502455,12.8964862 C92.4472096,12.8964862 92.9801767,13.2715153 93.1829192,13.8338023 L100.31577,33.618508 C100.418165,33.89093 100.51544,34.2028556 100.609132,34.5517198 C100.702311,34.9010971 100.791395,35.245857 100.876895,35.5865127 L101.004377,35.5865127 C101.089365,35.2971606 101.169746,35.0031912 101.247054,34.7046045 C101.322826,34.4070438 101.428805,34.078701 101.565503,33.7206021 L109.147868,13.8102027 C109.357267,13.2602285 109.883578,12.8964862 110.471326,12.8964862 L111.220859,12.8964862 C112.043093,12.8964862 112.604731,13.7291431 112.299081,14.4940792 L100.570734,43.814065" id="Fill-13"></path>
            </g>
            <g id="Group-4" transform="translate(10.083054, 10.103382)">
                <mask id="mask-2" sketch:name="Clip 3" fill="white">
                    <use xlink:href="#path-1"></use>
                </mask>
                <g id="Clip-3"></g>
                <path d="M-1.05179678,-1.18682241 L25.6364906,-1.18682241 L25.6364906,25.7567824 L-1.05179678,25.7567824 L-1.05179678,-1.18682241 Z" id="Fill-2" fill="#6C6C6C" sketch:type="MSShapeGroup" mask="url(#mask-2)"></path>
            </g>
            <path d="M30.2403772,36.8585312 C24.0367635,40.2999742 16.0924311,39.3775361 10.8293174,34.0789042 C4.57245808,27.7808789 4.43627246,17.4586022 10.5339072,11.002562 C16.8941856,4.26896941 27.4582994,4.17303175 33.9383802,10.714749 C39.1764072,16.0026071 40.1148593,23.9839023 36.7598802,30.2403717 C36.0446497,31.5742643 36.2432964,33.2175174 37.2959192,34.3000226 C38.3731168,35.4081795 39.5137994,36.5753356 39.5137994,36.5753356 C46.854,27.5582215 46.1607844,14.1084796 37.4152096,5.9409525 C28.9619731,-1.95363965 15.7806377,-1.95107447 7.33047305,5.94556982 C-1.95626048,14.6245934 -2.16719461,29.2666301 6.69715868,38.2160235 C14.7674371,46.3635422 27.5048892,46.9063339 36.210018,39.8669721 L33.7243743,37.3577149 C32.8028174,36.4265552 31.3831078,36.2244192 30.2403772,36.8585312" id="Fill-5-Copy" fill="#6C6C6C" sketch:type="MSShapeGroup"></path>
        </g>
    </g>
</svg>