<?xml version="1.0" encoding="utf-8"?>
<!-- Generator: Adobe Illustrator 16.0.0, SVG Export Plug-In . SVG Version: 6.00 Build 0)  -->
<!DOCTYPE svg PUBLIC "-//W3C//DTD SVG 1.1//EN" "http://www.w3.org/Graphics/SVG/1.1/DTD/svg11.dtd">
<svg version="1.1"
	 id="Layer_1" xmlns:cc="http://creativecommons.org/ns#" xmlns:dc="http://purl.org/dc/elements/1.1/" xmlns:rdf="http://www.w3.org/1999/02/22-rdf-syntax-ns#"
	 xmlns="http://www.w3.org/2000/svg" xmlns:xlink="http://www.w3.org/1999/xlink" x="0px" y="0px" width="79.667px"
	 height="79.667px" viewBox="-18 -7.333 79.667 79.667" enable-background="new -18 -7.333 79.667 79.667" xml:space="preserve">
<g>
	<path fill="#3296D9" d="M6.194,32.864c-0.247-0.36-0.525-0.813-0.79-1.271c-1.656-2.904-2.531-6.167-2.531-9.436
		c0-10.646,8.805-19.307,19.63-19.307c10.823,0,19.632,8.661,19.632,19.307c0,3.268-0.875,6.53-2.535,9.432l-0.195,0.303
		l-0.12,0.211c-0.175,0.287-0.341,0.578-0.533,0.853l-16.243,27.83L6.194,32.864z"/>
	<path fill="#8DC5EA" d="M22.503,4.204c10.077,0,18.256,8.04,18.256,17.955c0,3.19-0.875,6.176-2.356,8.771l-0.144,0.209
		c-0.212,0.354-0.407,0.713-0.643,1.055l-15.11,25.88L7.389,32.193c-0.284-0.412-0.542-0.836-0.79-1.267
		c-1.481-2.596-2.352-5.579-2.352-8.769C4.249,12.244,12.42,4.204,22.503,4.204 M22.503,1.5C10.921,1.5,1.5,10.767,1.5,22.16
		c0,3.502,0.935,6.992,2.705,10.094c0.271,0.468,0.547,0.923,0.843,1.36l15.067,25.804L22.5,63.5l2.382-4.082l15.063-25.797
		c0.183-0.275,0.354-0.561,0.518-0.844l0.121-0.205l0.091-0.137l0.062-0.088l0.057-0.096C42.566,29.15,43.5,25.659,43.5,22.16
		C43.506,10.767,34.083,1.5,22.503,1.5L22.503,1.5z"/>
</g>
<g>
	<path fill="#8DC5EA" d="M21.833-4.333c20.31,0,36.833,16.523,36.833,36.833c0,20.311-16.523,36.834-36.833,36.834
		S-15,52.811-15,32.5C-15,12.19,1.523-4.333,21.833-4.333 M21.833-7.333C-0.166-7.333-18,10.5-18,32.5
		c0,21.999,17.834,39.834,39.833,39.834S61.667,54.499,61.667,32.5C61.667,10.5,43.833-7.333,21.833-7.333L21.833-7.333z"/>
</g>
</svg>
