<?xml version="1.0" encoding="utf-8"?>
<!-- Generator: Adobe Illustrator 16.0.0, SVG Export Plug-In . SVG Version: 6.00 Build 0)  -->
<!DOCTYPE svg PUBLIC "-//W3C//DTD SVG 1.1//EN" "http://www.w3.org/Graphics/SVG/1.1/DTD/svg11.dtd">
<svg version="1.1"
	 id="Layer_1" xmlns:cc="http://creativecommons.org/ns#" xmlns:dc="http://purl.org/dc/elements/1.1/" xmlns:rdf="http://www.w3.org/1999/02/22-rdf-syntax-ns#"
	 xmlns="http://www.w3.org/2000/svg" xmlns:xlink="http://www.w3.org/1999/xlink" x="0px" y="0px" width="32.001px" height="32px"
	 viewBox="115.25 27.154 32.001 32" enable-background="new 115.25 27.154 32.001 32" xml:space="preserve">
<g>
	<g opacity="0.8">
		<path fill="#8DC5EA" d="M131.25,27.724c-8.521,0-15.43,6.909-15.43,15.431c0,8.522,6.909,15.43,15.43,15.43
			c8.522,0,15.432-6.907,15.432-15.43C146.681,34.633,139.772,27.724,131.25,27.724L131.25,27.724z"/>
	</g>
	<g>
		<g>
			<path fill="#FFFFFF" d="M131.25,32.995c-5.613,0-10.16,4.55-10.16,10.16c0,5.613,4.547,10.16,10.16,10.16
				c5.612,0,10.162-4.547,10.162-10.16C141.412,37.544,136.862,32.995,131.25,32.995L131.25,32.995z"/>
		</g>
	</g>
	<g>
		<path fill="#3296D9" d="M131.25,34.373c-4.851,0-8.783,3.932-8.783,8.782c0,4.852,3.933,8.783,8.783,8.783
			c4.85,0,8.783-3.932,8.783-8.783C140.033,38.305,136.102,34.373,131.25,34.373L131.25,34.373z"/>
	</g>
</g>
</svg>
