<?xml version="1.0" encoding="utf-8"?>
<!-- Generator: Adobe Illustrator 19.0.0, SVG Export Plug-In . SVG Version: 6.00 Build 0)  -->
<svg version="1.1" id="Layer_1" xmlns:sketch="http://www.bohemiancoding.com/sketch/ns"
	 xmlns="http://www.w3.org/2000/svg" xmlns:xlink="http://www.w3.org/1999/xlink" x="0px" y="0px" viewBox="36 24 171 53"
	 style="enable-background:new 36 24 171 53;" xml:space="preserve">
<style type="text/css">
	.st0{fill:#6C6C6C;}
	.st1{filter:url(#Adobe_OpacityMaskFilter);}
	.st2{fill:#FFFFFF;}
	.st3{mask:url(#mask-2);fill:#6C6C6C;}
</style>
<title>Group + Group 4 + Fill 5 Copy</title>
<desc>Created with Sketch.</desc>
<g id="Page-1" sketch:type="MSPage">
	<g id="Group-_x2B_-Group-4-_x2B_-Fill-5-Copy" sketch:type="MSLayerGroup">
		<g id="Group" transform="translate(58.278027, 1.536232)" sketch:type="MSShapeGroup">
			<path id="Fill-9" class="st0" d="M58,63.1c-0.9,0-1.6-0.5-2-1.2l-4.9-9.3c-0.5-1-1.1-1.9-1.6-2.6c-0.5-0.7-1-1.3-1.6-1.7
				c-0.5-0.4-1.1-0.7-1.7-0.9c-0.6-0.2-1.3-0.3-2.1-0.3h-4v15.9h-3.4V28.7c0-1.2,1-2.2,2.2-2.2h8.3c1.4,0,2.7,0.2,4,0.6
				c1.3,0.4,2.4,1,3.4,1.8c1,0.8,1.8,1.8,2.4,3c0.6,1.2,0.9,2.6,0.9,4.2c0,1.3-0.2,2.5-0.6,3.6c-0.4,1.1-0.9,2.1-1.7,2.9
				c-0.7,0.8-1.6,1.6-2.6,2.1c-1,0.6-2.2,1-3.5,1.3v0.1c0.5,0.2,0.9,0.5,1.4,0.8c0.4,0.3,0.8,0.7,1.2,1.2c0.4,0.5,0.8,1,1.1,1.6
				c0.4,0.6,0.8,1.3,1.2,2l6.1,11.3H58L58,63.1z M40.1,30.6V44h6.1c1.2,0,2.3-0.2,3.4-0.5s1.9-0.9,2.6-1.5c0.7-0.7,1.3-1.5,1.7-2.4
				c0.4-0.9,0.6-2,0.6-3.2c0-2.1-0.7-3.8-2.1-5c-1.4-1.2-3.3-1.8-5.9-1.8h-5.3C40.5,29.5,40.1,30,40.1,30.6L40.1,30.6z"/>
			<path id="Fill-10" class="st0" d="M67.4,50.6c0,1.6,0.2,3,0.6,4.3c0.4,1.3,1,2.4,1.8,3.2c0.8,0.9,1.7,1.6,2.8,2
				c1.1,0.5,2.3,0.7,3.7,0.7c2.8,0,5.4-0.9,7.9-2.7c0.2-0.1,0.5,0,0.5,0.2v1.2c0,0.9-0.5,1.8-1.3,2.2c-2.2,1.2-4.8,1.8-7.8,1.8
				c-1.8,0-3.3-0.3-4.8-0.9c-1.4-0.6-2.6-1.5-3.6-2.7c-1-1.2-1.8-2.6-2.3-4.3C64.3,54.1,64,52.1,64,50c0-2,0.3-3.8,0.9-5.4
				s1.4-3.1,2.5-4.3c1.1-1.2,2.3-2.2,3.7-2.9c1.4-0.7,3-1,4.7-1c1.7,0,3.2,0.3,4.5,0.9c1.3,0.6,2.4,1.4,3.3,2.5c0.9,1.1,1.5,2.4,2,4
				c0.5,1.6,0.7,3.3,0.7,5.3c0,0.9-0.7,1.6-1.6,1.6H67.4L67.4,50.6z M82.7,47.7c0.1,0,0.2-0.1,0.2-0.2c-0.1-2.6-0.7-4.7-1.9-6.2
				c-1.2-1.5-3-2.2-5.2-2.2c-1.1,0-2.1,0.2-3.1,0.6c-0.9,0.4-1.8,1-2.5,1.7c-0.7,0.7-1.3,1.6-1.8,2.7c-0.5,1.1-0.8,2.3-1,3.6H82.7
				L82.7,47.7z"/>
			<path id="Fill-11" class="st0" d="M92.1,62V24.8c0-0.3,0.2-0.5,0.5-0.5h1.6c0.6,0,1.2,0.5,1.2,1.2v37.1c0,0.3-0.2,0.5-0.5,0.5
				h-1.7C92.6,63.1,92.1,62.6,92.1,62"/>
			<path id="Fill-12" class="st0" d="M120.7,61.2c0,0.4-0.2,0.8-0.6,1c-1.8,0.9-3.9,1.4-6.4,1.5c-1.9,0-3.6-0.3-5-1
				c-1.5-0.7-2.8-1.6-3.8-2.8c-1.1-1.2-1.9-2.6-2.4-4.2c-0.6-1.6-0.8-3.4-0.8-5.3c0-2,0.3-3.8,0.9-5.5c0.6-1.7,1.5-3.2,2.6-4.5
				c1.1-1.3,2.5-2.3,4.2-3.1c1.6-0.7,3.5-1.1,5.7-1.1c1.9,0,3.6,0.3,5.2,0.9c0.5,0.2,0.8,0.6,0.8,1.1v1.1c0,0.7-0.7,1.2-1.3,0.8
				c-1.5-0.7-3.1-1.1-4.8-1.1c-1.5,0-2.9,0.3-4.1,0.9c-1.2,0.6-2.2,1.4-3,2.4c-0.8,1-1.5,2.2-1.9,3.6c-0.4,1.4-0.6,2.8-0.6,4.3
				c0,1.4,0.2,2.7,0.5,4c0.4,1.3,0.9,2.4,1.7,3.4c0.8,1,1.7,1.8,2.9,2.3c1.2,0.6,2.5,0.9,4.1,0.9c2.1,0,4-0.5,5.7-1.6
				c0.4-0.2,0.9,0,0.9,0.5V61.2"/>
			<path id="Fill-13" class="st0" d="M136.6,67.8c-1,2.6-2.2,4.5-3.5,5.7c-1.3,1.2-2.9,1.9-4.8,1.9c-0.5,0-1,0-1.4-0.1
				c-0.6-0.1-1-0.6-1-1.2v-1.6c0-0.2,0.2-0.4,0.5-0.3c0.2,0.1,0.5,0.1,0.7,0.2c0.4,0.1,0.8,0.1,1.2,0.1c1.1,0,2-0.3,2.8-1
				c0.8-0.7,1.5-1.7,2.1-3.1l1.3-3.2c0.6-1.4,0.6-3,0.1-4.4l-8.6-22.2c-0.3-0.8,0.3-1.6,1.1-1.6h0.9c0.6,0,1.1,0.4,1.3,0.9l7.1,19.8
				c0.1,0.3,0.2,0.6,0.3,0.9c0.1,0.3,0.2,0.7,0.3,1h0.1c0.1-0.3,0.2-0.6,0.2-0.9c0.1-0.3,0.2-0.6,0.3-1l7.6-19.9
				c0.2-0.5,0.7-0.9,1.3-0.9h0.7c0.8,0,1.4,0.8,1.1,1.6L136.6,67.8"/>
		</g>
		<g id="Group-4" transform="translate(10.083054, 10.103382)">
			<g id="Clip-3">
			</g>
			<defs>
				<filter id="Adobe_OpacityMaskFilter" filterUnits="userSpaceOnUse" x="34.9" y="22.8" width="26.7" height="26.9">
					<feColorMatrix  type="matrix" values="1 0 0 0 0  0 1 0 0 0  0 0 1 0 0  0 0 0 1 0"/>
				</filter>
			</defs>
			<mask maskUnits="userSpaceOnUse" x="34.9" y="22.8" width="26.7" height="26.9" id="mask-2">
				<g class="st1">
					<path id="path-1" class="st2" d="M39.7,45c-4.7-4.8-4.7-12.6,0-17.4c4.7-4.8,12.4-4.8,17.2,0c4.7,4.8,4.7,12.6,0,17.4
						C52.1,49.8,44.4,49.8,39.7,45L39.7,45z"/>
				</g>
			</mask>
			<path id="Fill-2" sketch:type="MSShapeGroup" class="st3" d="M34.9,22.8h26.7v26.9H34.9V22.8z"/>
		</g>
		<path id="Fill-5-Copy" sketch:type="MSShapeGroup" class="st0" d="M66.2,60.9c-6.2,3.4-14.1,2.5-19.4-2.8
			c-6.3-6.3-6.4-16.6-0.3-23.1c6.4-6.7,16.9-6.8,23.4-0.3c5.2,5.3,6.2,13.3,2.8,19.5c-0.7,1.3-0.5,3,0.5,4.1
			c1.1,1.1,2.2,2.3,2.2,2.3c7.3-9,6.6-22.5-2.1-30.6C65,22,51.8,22,43.3,29.9c-9.3,8.7-9.5,23.3-0.6,32.3c8.1,8.1,20.8,8.7,29.5,1.7
			l-2.5-2.5C68.8,60.4,67.4,60.2,66.2,60.9"/>
	</g>
</g>
</svg>
