<?xml version="1.0" encoding="utf-8"?>
<!-- Generator: Adobe Illustrator 19.0.1, SVG Export Plug-In . SVG Version: 6.00 Build 0)  -->
<svg version="1.1"
	 id="Layer_1" xmlns:cc="http://creativecommons.org/ns#" xmlns:dc="http://purl.org/dc/elements/1.1/" xmlns:rdf="http://www.w3.org/1999/02/22-rdf-syntax-ns#"
	 xmlns="http://www.w3.org/2000/svg" xmlns:xlink="http://www.w3.org/1999/xlink" x="0px" y="0px" viewBox="-17 32.5 25 36"
	 style="enable-background:new -17 32.5 25 36;" xml:space="preserve">
<style type="text/css">
	.st0{fill:#3296D9;}
	.st1{fill:#8DC5EA;}
</style>
<g>
	<path class="st0" d="M-14,50.7c-0.1-0.2-0.3-0.5-0.5-0.7c-1-1.7-1.5-3.6-1.5-5.5c0-6.2,5.1-11.2,11.4-11.2c6.3,0,11.4,5,11.4,11.2
		c0,1.9-0.5,3.8-1.5,5.5l-0.1,0.2l-0.1,0.1c-0.1,0.2-0.2,0.3-0.3,0.5l-9.4,16.2L-14,50.7z"/>
	<path class="st1" d="M-4.5,34.1c5.9,0,10.6,4.7,10.6,10.4c0,1.9-0.5,3.6-1.4,5.1l-0.1,0.1c-0.1,0.2-0.2,0.4-0.4,0.6l-8.8,15
		l-8.8-15c-0.2-0.2-0.3-0.5-0.5-0.7c-0.9-1.5-1.4-3.2-1.4-5.1C-15.1,38.7-10.4,34.1-4.5,34.1 M-4.5,32.5c-6.7,0-12.2,5.4-12.2,12
		c0,2,0.5,4.1,1.6,5.9c0.2,0.3,0.3,0.5,0.5,0.8l8.7,15l1.4,2.4l1.4-2.4l8.7-15c0.1-0.2,0.2-0.3,0.3-0.5L6,50.5l0.1-0.1l0-0.1l0-0.1
		c1-1.8,1.6-3.8,1.6-5.9C7.7,37.9,2.2,32.5-4.5,32.5L-4.5,32.5z"/>
</g>
</svg>
