<?xml version="1.0" encoding="UTF-8" standalone="no"?>
<!DOCTYPE svg PUBLIC "-//W3C//DTD SVG 1.1//EN" "http://www.w3.org/Graphics/SVG/1.1/DTD/svg11.dtd">
<svg width="100%" height="100%" viewBox="0 0 100 100" version="1.1" xmlns="http://www.w3.org/2000/svg" xmlns:xlink="http://www.w3.org/1999/xlink" xml:space="preserve" xmlns:serif="http://www.serif.com/" style="fill-rule:evenodd;clip-rule:evenodd;stroke-linecap:round;stroke-linejoin:round;">
    <g transform="matrix(1,0,0,1,-1.42109e-14,-512.555)">
        <g id="ddp" transform="matrix(0.90861,0,0,0.978948,-109.822,297.051)">
            <rect x="120.869" y="220.138" width="110.058" height="102.15" style="fill:none;"/>
            <clipPath id="_clip1">
                <rect x="120.869" y="220.138" width="110.058" height="102.15"/>
            </clipPath>
            <g clip-path="url(#_clip1)">
                <g transform="matrix(1.34064,0,0,1.24431,263.578,192.089)">
                    <path d="M-24.355,35.832C-24.355,28.497 -30.31,22.542 -37.646,22.542L-93.158,22.542C-100.494,22.542 -106.449,28.497 -106.449,35.832L-106.449,91.345C-106.449,98.68 -100.494,104.636 -93.158,104.636L-37.646,104.636C-30.31,104.636 -24.355,98.68 -24.355,91.345L-24.355,35.832Z" style="fill:rgb(39,39,39);"/>
                </g>
                <g transform="matrix(0.320999,0,0,0.298684,93.116,127.858)">
                    <rect x="155.039" y="377.108" width="205.697" height="205.697" style="fill:none;"/>
                    <clipPath id="_clip2">
                        <rect x="155.039" y="377.108" width="205.697" height="205.697"/>
                    </clipPath>
                    <g clip-path="url(#_clip2)">
                        <g transform="matrix(0.325375,0,0,0.30606,70.4591,378.934)">
                            <path d="M334.05,657.457C334.05,657.457 283.462,615.318 303.944,556.267C324.426,497.216 380.411,403.459 380.411,403.459L454.696,313.079C454.696,313.079 503.496,247.146 517.188,217.334C530.88,187.522 533.916,136.966 533.916,136.966C533.916,136.966 547.031,121.466 546.927,109.542C546.823,97.618 536.657,72.568 517.185,62.05C497.713,51.532 502.685,54.13 502.685,54.13L471.622,56.315C471.622,56.315 471.601,95.065 463.455,109.541C455.309,124.017 415.348,191.593 353.655,256.016C291.962,320.439 258.216,348.8 258.216,348.8C258.216,348.8 188.762,436.073 169.085,473.4C149.408,510.727 146,548.691 146,548.691C146,548.691 145.245,573.739 155.294,592.221C165.343,610.703 209.67,640.287 241.124,646.846C272.578,653.405 334.05,657.457 334.05,657.457Z" style="fill:none;fill-rule:nonzero;stroke:white;stroke-width:9.01px;"/>
                        </g>
                        <g transform="matrix(0.325375,0,0,0.30606,70.4591,378.934)">
                            <path d="M346.46,657.121C346.46,657.121 410.081,657.147 455.212,635.157C480.124,623.019 558.663,587.83 617.241,490.778C664.221,411.231 661.424,324.652 653.435,280.273C635.6,181.213 575.206,102.26 543.779,80.034C512.352,57.808 452.808,9.79 366.935,5.034C281.062,0.278 263.456,7.98 215.6,23.349C167.744,38.718 115.9,83.039 115.9,83.039C115.9,83.039 55.064,146.29 43.214,168.926C31.364,191.562 11.932,234.909 3.465,294.891C-5.002,354.873 9.3,431.977 31.666,472.86C54.032,513.743 85.714,563.917 139.066,596.929C192.418,629.941 230.821,644.598 253.366,649.693C275.911,654.788 346.46,657.121 346.46,657.121Z" style="fill:none;fill-rule:nonzero;stroke:white;stroke-width:9.01px;"/>
                        </g>
                        <g transform="matrix(0.325375,0,0,0.30606,70.4591,378.934)">
                            <path d="M487.733,618.521C487.733,618.521 502.863,607.943 503.895,599.615C504.927,591.287 496.179,578.827 479.378,571.429C462.577,564.031 305.09,525.5 280.536,520.389C255.982,515.278 177.323,504.207 152.9,500.919C128.477,497.631 70.073,483.029 50.51,474.136C30.947,465.243 20.71,453.256 23.842,442.47C26.974,431.684 64.031,408.829 64.031,408.829C64.031,408.829 34.876,392.48 25.749,384.385C23.378,382.24 21.144,379.948 19.062,377.522C10.762,368.01 1.3,353.153 1.37,340.814C1.459,325.114 6.985,298.781 42.77,271.997C65.861,254.885 89.838,239.001 114.6,224.411L161.358,198.43C161.358,198.43 247.338,140.272 268.537,124.73C289.736,109.188 336.493,67.277 336.493,67.277C336.493,67.277 418.118,72.089 484.658,93.745C551.198,115.401 591.341,145.628 602.65,153.9C613.959,162.172 623.506,184.307 631.527,202.877C639.548,221.447 658,313.405 658,313.405C658,313.405 662.6,279.69 616.666,255.95C566.924,230.242 464.066,214.381 400.208,215.239C277.397,216.889 155.308,255.95 155.308,255.95C155.308,255.95 111.987,303.336 85.787,356C59.587,408.664 52.133,443.817 50.507,466.617C48.881,489.417 52.162,516.37 64.028,529.187C74.423,540.415 104.035,571.062 136.814,594.05C141.265,597.171 145.941,600.25 150.632,603.102C158.744,607.947 167.143,612.293 175.783,616.117C211.547,632.217 255.083,643.551 275.051,646.655C283.777,648.011 293.92,649.467 303.683,650.823C321.062,653.236 336.483,655.216 336.483,655.216C336.483,655.216 362.502,658.035 366.311,655.216C370.12,652.397 374.231,652.246 342.421,635.08C310.611,617.914 148.421,550.78 148.421,550.78L92.2,534.875C92.2,534.875 73.163,518.791 109.628,478.35C146.093,437.909 261.273,347.344 261.273,347.344C261.273,347.344 480.43,244.058 543.508,198.434C558.079,187.895 567.814,180.044 574.367,174C595.445,154.557 589.445,141.725 589.445,141.725C589.445,141.725 572.64,162.713 543.51,178.588C514.38,194.463 421.334,236.081 421.334,236.081C421.334,236.081 248.394,289.061 221.96,294.704C195.526,300.347 63.427,349.355 50.509,356C37.591,362.645 11.759,383.718 9.977,398.081C8.195,412.444 19.062,442.466 19.062,442.466C19.062,442.466 45.2,483.15 50.508,497.89C55.816,512.63 92.198,529.19 92.198,529.19C92.198,529.19 99.546,552.805 155.665,584.49C211.784,616.175 278.336,641.512 299.438,646.662C320.54,651.812 391.689,670.1 487.733,618.521Z" style="fill:none;fill-rule:nonzero;stroke:white;stroke-width:9.01px;"/>
                        </g>
                        <g transform="matrix(0.325375,0,0,0.30606,70.4591,378.934)">
                            <path d="M472.246,57.087C472.246,57.087 388.931,72.2 328.006,66.7C267.081,61.2 210.26,44.913 210.26,44.913C181.554,56.505 154.207,71.214 128.712,88.775C87.801,117.24 65.221,136.875 54.482,154.384C43.743,171.893 34.451,183.084 28.802,198.176C23.153,213.268 12.8,238.117 5.858,269.787C-1.084,301.457 1.558,339.855 1.558,339.855C1.558,339.855 2.167,393.855 5.858,401.133C9.549,408.411 11.958,419.273 11.958,419.273C11.958,419.273 23.158,403.302 93.658,385.606C164.158,367.91 263.658,346.972 263.658,346.972C263.658,346.972 248.173,342.848 318.428,373.892C388.683,404.936 466.337,452.112 492.947,466.943C519.557,481.774 550.324,507.735 552.938,532.812C555.552,557.889 541.411,579.778 532.629,588.728C523.847,597.678 450.949,646.416 397.776,654.145C344.603,661.874 253.139,653.322 216.367,638.882C179.595,624.442 97.93,575.95 67.968,532.812C38.006,489.674 15.576,432.651 15.576,432.651" style="fill:none;fill-rule:nonzero;stroke:white;stroke-width:9.01px;"/>
                        </g>
                        <g transform="matrix(0.325375,0,0,0.30606,70.4591,378.934)">
                            <path d="M578.483,114.466C586.702,133.928 595.978,153.179 593.691,174.181C592.125,188.561 585.18,207.058 578.483,219.881C568.714,238.581 557.918,256.815 544.97,273.471C518.308,307.766 479.4,336 444.811,362.282C412.47,386.855 305.364,438.593 244.7,512.907" style="fill:none;fill-rule:nonzero;stroke:white;stroke-width:9.01px;"/>
                        </g>
                        <g transform="matrix(0.325375,0,0,0.30606,70.4591,378.934)">
                            <path d="M328.114,650.988C314.736,631.112 313.328,605.079 318.847,581.764C324.366,558.449 336.104,537.164 347.61,516.146C382.834,451.813 417.094,386.964 450.391,321.6C461.041,300.693 471.627,279.651 479.172,257.434C490.892,222.927 495.039,186.168 494.556,149.728C494.115,116.446 489.276,81.647 469.882,54.597" style="fill:none;fill-rule:nonzero;stroke:white;stroke-width:9.01px;"/>
                        </g>
                        <g transform="matrix(0.325375,0,0,0.30606,70.4591,378.934)">
                            <path d="M321.022,4.348C311.187,5.956 301.344,7.565 291.639,9.829C242.18,21.532 198.125,49.674 166.713,89.629C139.157,124.913 122.76,168.009 114.728,212.052C106.696,256.095 110.216,301.924 112.961,346.609" style="fill:none;fill-rule:nonzero;stroke:white;stroke-width:9.01px;"/>
                        </g>
                        <g transform="matrix(0.325375,0,0,0.30606,70.4591,378.934)">
                            <path d="M120.152,582.439C81.517,527.891 71.65,457.858 93.711,394.759C105.604,360.512 126.069,329.974 147.086,300.433C200.502,225.356 258.879,153.935 321.826,86.648C330.66,77.207 339.717,67.656 345.426,56.057C351.135,44.458 353.078,30.246 347.298,18.68C341.518,7.114 326.578,-0.08 314.881,5.431" style="fill:none;fill-rule:nonzero;stroke:white;stroke-width:9.01px;"/>
                        </g>
                        <g transform="matrix(0.325375,0,0,0.30606,70.4591,378.934)">
                            <path d="M332.437,3.88C353.689,-2.92 377.745,2.823 395.83,15.893C413.915,28.963 471.939,99.709 414.22,237.874" style="fill:none;fill-rule:nonzero;stroke:white;stroke-width:9.01px;"/>
                        </g>
                        <g transform="matrix(0.325375,0,0,0.30606,70.4591,378.934)">
                            <path d="M281.7,133.145C281.381,143.42 323.377,175.668 356.373,201.92C389.369,228.172 396.515,229.985 413.685,238.152" style="fill:none;fill-rule:nonzero;stroke:white;stroke-width:9.01px;"/>
                        </g>
                        <g transform="matrix(0.325375,0,0,0.30606,70.4591,378.934)">
                            <path d="M217.141,121.664C217.141,121.664 261.73,143.664 383.412,114.74C417.488,106.264 478.789,78.215 505.104,54.965" style="fill:none;fill-rule:nonzero;stroke:white;stroke-width:9.01px;"/>
                        </g>
                        <g transform="matrix(0.325375,0,0,0.30606,70.4591,378.934)">
                            <path d="M283.035,133.218C309.66,144.907 336.982,154.939 364.846,163.254C410.172,176.781 456.774,185.721 502.041,199.442C537.214,210.103 574.718,221.719 606.707,240.942C663.779,276.256 657.207,313.058 657.207,313.058C657.587,312.104 670.046,366.55 644.457,428.98" style="fill:none;fill-rule:nonzero;stroke:white;stroke-width:9.01px;"/>
                        </g>
                        <g transform="matrix(0.325375,0,0,0.30606,70.4591,378.934)">
                            <path d="M27.354,201.652C69.847,171.291 256.721,143.779 410.414,201.652C564.107,259.525 651.889,387.495 642.126,433.143" style="fill:none;fill-rule:nonzero;stroke:white;stroke-width:9.01px;"/>
                        </g>
                        <g transform="matrix(0.325375,0,0,0.30606,70.4591,378.934)">
                            <path d="M640.9,430.5C582.991,411.959 437.721,401.469 378.692,404.116C327.158,406.428 117.646,466.143 107.839,542.816C105.72,558.167 111.906,591.603 185.231,622.262" style="fill:none;fill-rule:nonzero;stroke:white;stroke-width:9.01px;"/>
                        </g>
                        <g transform="matrix(0.325375,0,0,0.30606,70.4591,378.934)">
                            <path d="M641.1,431.768C610.932,509.449 475.136,509.205 407.545,507.568C348.287,506.132 246.145,491.646 145.73,550.259" style="fill:none;fill-rule:nonzero;stroke:white;stroke-width:9.01px;"/>
                        </g>
                        <g transform="matrix(0.325375,0,0,0.30606,70.4591,378.934)">
                            <path d="M257.525,648.114C254.547,645.073 255.63,639.667 258.654,636.673C261.678,633.679 265.995,632.478 270.112,631.395C374.2,604 555.987,562.071 641.4,432.78" style="fill:none;fill-rule:nonzero;stroke:white;stroke-width:9.01px;"/>
                        </g>
                        <g transform="matrix(0.325375,0,0,0.30606,70.4591,378.934)">
                            <path d="M641.3,433C640.791,419.1 573.016,398.983 527.616,394.126C427.832,380.318 330.816,366.843 233.592,340.49C188.732,328.331 142.31,308.159 98.738,291.981C78.22,284.364 57.21,275.675 42.328,259.63C27.446,243.585 20.46,218.157 31.686,199.371" style="fill:none;fill-rule:nonzero;stroke:white;stroke-width:9.01px;"/>
                        </g>
                        <g transform="matrix(0.325375,0,0,0.30606,70.4591,378.934)">
                            <path d="M536.147,140.441C512.212,175.763 476.619,201.214 441.647,225.664C384.017,265.964 318.359,308.664 259.904,347.756" style="fill:none;fill-rule:nonzero;stroke:white;stroke-width:9.01px;"/>
                        </g>
                        <g transform="matrix(0.325375,0,0,0.30606,70.4591,378.934)">
                            <path d="M282.21,130.121C270.445,208.138 261.955,269.043 260.16,347.921" style="fill:none;fill-rule:nonzero;stroke:white;stroke-width:9.01px;stroke-linejoin:miter;"/>
                        </g>
                        <g transform="matrix(0.325375,0,0,0.30606,70.4591,378.934)">
                            <path d="M526.913,68.766C548.044,99.32 505.406,130.595 483.213,149.19C407.394,212.7 308.57,239.654 218.6,280.711C186.092,295.546 153.557,313.121 131.11,340.923C113.171,363.142 102.837,390.529 95.362,418.089C86.4,451.118 81.144,485.96 87.639,519.56C94.134,553.16 117.82,597.26 189.988,625.269" style="fill:none;fill-rule:nonzero;stroke:white;stroke-width:9.01px;"/>
                        </g>
                        <g transform="matrix(0.325375,0,0,0.30606,70.4591,378.934)">
                            <path d="M51.778,159.509C57.088,178.143 70.966,193.427 87.142,204.092C103.318,214.757 121.796,221.329 140.171,227.476C249.599,264.082 362.471,289.161 474.171,318.095C505.997,326.338 538.311,335.144 566.016,352.846C588.603,367.277 607.194,387.039 625.532,406.587C633.082,414.636 641.207,424.497 639.179,435.345" style="fill:none;fill-rule:nonzero;stroke:white;stroke-width:9.01px;"/>
                        </g>
                        <g transform="matrix(0.325375,0,0,0.30606,70.4591,378.934)">
                            <path d="M642.432,429.263C647.54,378.692 593.425,294.102 415.76,239.049C238.095,183.996 222.918,131.2 217.445,121.921" style="fill:none;fill-rule:nonzero;stroke:white;stroke-width:9.01px;"/>
                        </g>
                        <g transform="matrix(0.325375,0,0,0.30606,70.4591,378.934)">
                            <path d="M319.493,4.119C235.015,3.58 252.56,22.427 257.281,27.162C262.002,31.897 268.428,34.462 274.727,36.701C299.596,45.533 325.475,51.211 351.757,53.601C373.322,55.559 395.02,55.29 416.672,55.019C436.832,54.766 485.472,55.272 505.628,55.019" style="fill:none;fill-rule:nonzero;stroke:white;stroke-width:9.01px;"/>
                        </g>
                        <g transform="matrix(0.306829,0,0,0.30606,80.9329,378.934)">
                            <path d="M471.309,57.166C529.044,103.256 580.252,163.771 621.177,225.276C630.525,239.324 657.848,295.735 658.077,314.59C658.414,342.001 649.906,399.37 643.716,430.5" style="fill:none;fill-rule:nonzero;stroke:white;stroke-width:9.29px;"/>
                        </g>
                        <g transform="matrix(0.325375,0,0,0.30606,70.4591,378.934)">
                            <path d="M533.125,137.029C458.384,177.914 362.225,214.288 70.225,188.79" style="fill:none;fill-rule:nonzero;stroke:white;stroke-width:9.01px;"/>
                        </g>
                        <g transform="matrix(0.325375,0,0,0.30606,70.4591,378.934)">
                            <path d="M116.292,81.031C111.382,90.5 148.524,116.552 217.792,122.555C315.64,135.216 394.937,158.543 493.564,155.836C523.564,155.012 553.941,152.793 583.331,158.89C603.266,163.026 625.191,177.032 628.743,197.079" style="fill:none;fill-rule:nonzero;stroke:white;stroke-width:9.01px;"/>
                        </g>
                        <g transform="matrix(0.325375,0,0,0.30606,70.4591,378.934)">
                            <path d="M640.593,430.289C510.719,511.715 353.506,511.541 218.456,584.06C208.731,589.28 198.797,595.093 192.663,604.269C186.529,613.445 180.288,631.9 259,649.262" style="fill:none;fill-rule:nonzero;stroke:white;stroke-width:9.01px;"/>
                        </g>
                        <g transform="matrix(0.65075,0,0,0.612121,-71.6419,334.244)">
                            <path d="M436.733,146.021C438.927,146.021 440.733,147.827 440.733,150.021C440.733,152.215 438.927,154.021 436.733,154.021C434.539,154.021 432.733,152.215 432.733,150.021C432.733,147.827 434.539,146.021 436.733,146.021" style="fill:rgb(85,89,95);fill-rule:nonzero;stroke:white;stroke-width:2px;"/>
                        </g>
                        <g transform="matrix(0.801724,0,0,0.754132,-147.171,351.922)">
                            <path d="M462.733,55.021C464.927,55.021 466.733,56.827 466.733,59.021C466.733,61.215 464.927,63.021 462.733,63.021C460.539,63.021 458.733,61.215 458.733,59.021C458.733,56.827 460.539,55.021 462.733,55.021" style="fill:rgb(85,89,95);fill-rule:nonzero;stroke:white;stroke-width:2px;"/>
                        </g>
                        <g transform="matrix(0.831063,0,0,0.78173,-175.856,321.227)">
                            <path d="M487.733,107.021C489.927,107.021 491.733,108.827 491.733,111.021C491.733,113.215 489.927,115.021 487.733,115.021C485.539,115.021 483.733,113.215 483.733,111.021C483.733,108.827 485.539,107.021 487.733,107.021" style="fill:rgb(85,89,95);fill-rule:nonzero;stroke:white;stroke-width:2px;"/>
                        </g>
                        <g transform="matrix(0.65075,0,0,0.612121,-103.203,336.692)">
                            <path d="M533.733,134.021C535.927,134.021 537.733,135.827 537.733,138.021C537.733,140.215 535.927,142.021 533.733,142.021C531.539,142.021 529.733,140.215 529.733,138.021C529.733,135.827 531.539,134.021 533.733,134.021" style="fill:rgb(85,89,95);fill-rule:nonzero;stroke:white;stroke-width:2px;"/>
                        </g>
                        <g transform="matrix(0.894781,0,0,0.841666,-261.189,304.09)">
                            <path d="M584.733,138.021C586.927,138.021 588.733,139.827 588.733,142.021C588.733,144.215 586.927,146.021 584.733,146.021C582.539,146.021 580.733,144.215 580.733,142.021C580.733,139.827 582.539,138.021 584.733,138.021" style="fill:rgb(85,89,95);fill-rule:nonzero;stroke:white;stroke-width:2px;"/>
                        </g>
                        <g transform="matrix(0.325375,0,0,0.30606,70.4591,378.934)">
                            <path d="M595.733,170.021C597.927,170.021 599.733,171.827 599.733,174.021C599.733,176.215 597.927,178.021 595.733,178.021C593.539,178.021 591.733,176.215 591.733,174.021C591.733,171.827 593.539,170.021 595.733,170.021" style="fill:rgb(85,89,95);fill-rule:nonzero;stroke:white;stroke-width:2px;"/>
                        </g>
                        <g transform="matrix(0.569406,0,0,0.535605,-72.2341,340.824)">
                            <path d="M580.733,166.021C582.927,166.021 584.733,167.827 584.733,170.021C584.733,172.215 582.927,174.021 580.733,174.021C578.539,174.021 576.733,172.215 576.733,170.021C576.733,167.827 578.539,166.021 580.733,166.021" style="fill:rgb(85,89,95);fill-rule:nonzero;stroke:white;stroke-width:2px;"/>
                        </g>
                        <g transform="matrix(0.65075,0,0,0.612121,-108.468,321.695)">
                            <path d="M599.733,245.021C601.927,245.021 603.733,246.827 603.733,249.021C603.733,251.215 601.927,253.021 599.733,253.021C597.539,253.021 595.733,251.215 595.733,249.021C595.733,246.827 597.539,245.021 599.733,245.021" style="fill:rgb(85,89,95);fill-rule:nonzero;stroke:white;stroke-width:2px;"/>
                        </g>
                        <g transform="matrix(0.976125,0,0,0.918181,-247.966,280.677)">
                            <path d="M537.733,245.021C539.927,245.021 541.733,246.827 541.733,249.021C541.733,251.215 539.927,253.021 537.733,253.021C535.539,253.021 533.733,251.215 533.733,249.021C533.733,246.827 535.539,245.021 537.733,245.021" style="fill:rgb(85,89,95);fill-rule:nonzero;stroke:white;stroke-width:2px;"/>
                        </g>
                        <g transform="matrix(0.976125,0,0,0.918181,-266.629,204.765)">
                            <path d="M522.733,282.021C524.927,282.021 526.733,283.827 526.733,286.021C526.733,288.215 524.927,290.021 522.733,290.021C520.539,290.021 518.733,288.215 518.733,286.021C518.733,283.827 520.539,282.021 522.733,282.021" style="fill:rgb(85,89,95);fill-rule:nonzero;stroke:white;stroke-width:2px;"/>
                        </g>
                        <g transform="matrix(0.894781,0,0,0.841666,-191.722,208.217)">
                            <path d="M458.733,313.021C460.927,313.021 462.733,314.827 462.733,317.021C462.733,319.215 460.927,321.021 458.733,321.021C456.539,321.021 454.733,319.215 454.733,317.021C454.733,314.827 456.539,313.021 458.733,313.021" style="fill:rgb(85,89,95);fill-rule:nonzero;stroke:white;stroke-width:2px;"/>
                        </g>
                        <g transform="matrix(0.813438,0,0,0.765151,-132.119,200.339)">
                            <path d="M417.733,381.021C419.927,381.021 421.733,382.827 421.733,385.021C421.733,387.215 419.927,389.021 417.733,389.021C415.539,389.021 413.733,387.215 413.733,385.021C413.733,382.827 415.539,381.021 417.733,381.021" style="fill:rgb(85,89,95);fill-rule:nonzero;stroke:white;stroke-width:2px;"/>
                        </g>
                        <g transform="matrix(0.813438,0,0,0.765151,-119.755,188.862)">
                            <path d="M385.733,406.021C387.927,406.021 389.733,407.827 389.733,410.021C389.733,412.215 387.927,414.021 385.733,414.021C383.539,414.021 381.733,412.215 381.733,410.021C381.733,407.827 383.539,406.021 385.733,406.021" style="fill:rgb(85,89,95);fill-rule:nonzero;stroke:white;stroke-width:2px;"/>
                        </g>
                        <g transform="matrix(0.894781,0,0,0.841666,-165.122,251.448)">
                            <path d="M413.733,234.021C415.927,234.021 417.733,235.827 417.733,238.021C417.733,240.215 415.927,242.021 413.733,242.021C411.539,242.021 409.733,240.215 409.733,238.021C409.733,235.827 411.539,234.021 413.733,234.021" style="fill:rgb(85,89,95);fill-rule:nonzero;stroke:white;stroke-width:2px;"/>
                        </g>
                        <g transform="matrix(0.732094,0,0,0.688636,-112.86,282.134)">
                            <path d="M450.733,249.021C452.927,249.021 454.733,250.827 454.733,253.021C454.733,255.215 452.927,257.021 450.733,257.021C448.539,257.021 446.733,255.215 446.733,253.021C446.733,250.827 448.539,249.021 450.733,249.021" style="fill:rgb(85,89,95);fill-rule:nonzero;stroke:white;stroke-width:2px;"/>
                        </g>
                        <g transform="matrix(0.325375,0,0,0.30606,70.4591,378.934)">
                            <path d="M258.733,345.021C260.927,345.021 262.733,346.827 262.733,349.021C262.733,351.215 260.927,353.021 258.733,353.021C256.539,353.021 254.733,351.215 254.733,349.021C254.733,346.827 256.539,345.021 258.733,345.021" style="fill:rgb(85,89,95);fill-rule:nonzero;stroke:white;stroke-width:2px;"/>
                        </g>
                        <g transform="matrix(0.752592,0,0,0.707917,-50.5088,251.769)">
                            <path d="M302.733,297.021C304.927,297.021 306.733,298.827 306.733,301.021C306.733,303.215 304.927,305.021 302.733,305.021C300.539,305.021 298.733,303.215 298.733,301.021C298.733,298.827 300.539,297.021 302.733,297.021" style="fill:rgb(85,89,95);fill-rule:nonzero;stroke:white;stroke-width:2px;"/>
                        </g>
                        <g transform="matrix(0.325375,0,0,0.30606,70.5958,374.037)">
                            <path d="M262.733,274.021C264.927,274.021 266.733,275.827 266.733,278.021C266.733,280.215 264.927,282.021 262.733,282.021C260.539,282.021 258.733,280.215 258.733,278.021C258.733,275.827 260.539,274.021 262.733,274.021" style="fill:rgb(85,89,95);fill-rule:nonzero;stroke:white;stroke-width:2px;"/>
                        </g>
                        <g transform="matrix(0.976125,0,0,0.918181,-108.53,299.493)">
                            <path d="M277.733,126.021C279.927,126.021 281.733,127.827 281.733,130.021C281.733,132.215 279.927,134.021 277.733,134.021C275.539,134.021 273.733,132.215 273.733,130.021C273.733,127.827 275.539,126.021 277.733,126.021" style="fill:rgb(85,89,95);fill-rule:nonzero;stroke:white;stroke-width:2px;"/>
                        </g>
                        <g transform="matrix(0.814251,0,0,0.765916,-94.1611,348.114)">
                            <path d="M336.733,63.021C338.927,63.021 340.733,64.827 340.733,67.021C340.733,69.215 338.927,71.021 336.733,71.021C334.539,71.021 332.733,69.215 332.733,67.021C332.733,64.827 334.539,63.021 336.733,63.021" style="fill:rgb(85,89,95);fill-rule:nonzero;stroke:white;stroke-width:2px;"/>
                        </g>
                        <g transform="matrix(0.812543,0,0,0.764309,-85.3044,377.092)">
                            <path d="M319.733,0.021C321.927,0.021 323.733,1.827 323.733,4.021C323.733,6.215 321.927,8.021 319.733,8.021C317.539,8.021 315.733,6.215 315.733,4.021C315.733,1.827 317.539,0.021 319.733,0.021" style="fill:rgb(85,89,95);fill-rule:nonzero;stroke:white;stroke-width:2px;"/>
                        </g>
                        <g transform="matrix(0.569406,0,0,0.535605,-62.3915,278.005)">
                            <path d="M529.733,461.021C531.927,461.021 533.733,462.827 533.733,465.021C533.733,467.215 531.927,469.021 529.733,469.021C527.539,469.021 525.733,467.215 525.733,465.021C525.733,462.827 527.539,461.021 529.733,461.021" style="fill:rgb(85,89,95);fill-rule:nonzero;stroke:white;stroke-width:2px;"/>
                        </g>
                        <g transform="matrix(0.813438,0,0,0.765151,-101.209,147.085)">
                            <path d="M351.733,501.021C353.927,501.021 355.733,502.827 355.733,505.021C355.733,507.215 353.927,509.021 351.733,509.021C349.539,509.021 347.733,507.215 347.733,505.021C347.733,502.827 349.539,501.021 351.733,501.021" style="fill:rgb(85,89,95);fill-rule:nonzero;stroke:white;stroke-width:2px;"/>
                        </g>
                        <g transform="matrix(0.813438,0,0,0.765151,-88.8478,84.6759)">
                            <path d="M327.733,643.021C329.927,643.021 331.733,644.827 331.733,647.021C331.733,649.215 329.927,651.021 327.733,651.021C325.539,651.021 323.733,649.215 323.733,647.021C323.733,644.827 325.539,643.021 327.733,643.021" style="fill:rgb(85,89,95);fill-rule:nonzero;stroke:white;stroke-width:2px;"/>
                        </g>
                        <g transform="matrix(0.633125,0,0,0.595541,-74.4076,215.082)">
                            <path d="M470.733,562.021C472.927,562.021 474.733,563.827 474.733,566.021C474.733,568.215 472.927,570.021 470.733,570.021C468.539,570.021 466.733,568.215 466.733,566.021C466.733,563.827 468.539,562.021 470.733,562.021" style="fill:rgb(85,89,95);fill-rule:nonzero;stroke:white;stroke-width:2px;"/>
                        </g>
                        <g transform="matrix(0.325375,0,0,0.30606,62.6859,376.82)">
                            <path d="M281.733,651.021C283.927,651.021 285.733,652.827 285.733,655.021C285.733,657.215 283.927,659.021 281.733,659.021C279.539,659.021 277.733,657.215 277.733,655.021C277.733,652.827 279.539,651.021 281.733,651.021" style="fill:rgb(85,89,95);fill-rule:nonzero;stroke:white;stroke-width:2px;"/>
                        </g>
                    </g>
                </g>
            </g>
        </g>
    </g>
</svg>
