<?xml version="1.0" encoding="UTF-8" standalone="no"?>
<!DOCTYPE svg PUBLIC "-//W3C//DTD SVG 1.1//EN" "http://www.w3.org/Graphics/SVG/1.1/DTD/svg11.dtd">
<svg width="100%" height="100%" viewBox="0 0 100 100" version="1.1" xmlns="http://www.w3.org/2000/svg" xmlns:xlink="http://www.w3.org/1999/xlink" xml:space="preserve" xmlns:serif="http://www.serif.com/" style="fill-rule:evenodd;clip-rule:evenodd;stroke-linejoin:round;stroke-miterlimit:2;">
    <g id="modern" transform="matrix(0.90861,0,0,0.978948,-109.822,-215.503)">
        <rect x="120.869" y="220.138" width="110.058" height="102.15" style="fill:none;"/>
        <clipPath id="_clip1">
            <rect x="120.869" y="220.138" width="110.058" height="102.15"/>
        </clipPath>
        <g clip-path="url(#_clip1)">
            <g transform="matrix(1.34064,0,0,1.24431,263.578,192.089)">
                <path d="M-24.355,35.832C-24.355,28.497 -30.31,22.542 -37.646,22.542L-93.158,22.542C-100.494,22.542 -106.449,28.497 -106.449,35.832L-106.449,91.345C-106.449,98.68 -100.494,104.636 -93.158,104.636L-37.646,104.636C-30.31,104.636 -24.355,98.68 -24.355,91.345L-24.355,35.832Z" style="fill:rgb(39,39,39);"/>
            </g>
            <g transform="matrix(2.66416,0,0,2.39027,133.271,233.066)">
                <path d="M14.425,14.338C14.425,12.706 14.104,11.09 13.479,9.583C12.855,8.075 11.94,6.705 10.786,5.552C9.632,4.398 8.262,3.483 6.755,2.858C5.247,2.234 3.632,1.912 2,1.912L2,14.338L14.425,14.338Z" style="fill:white;fill-rule:nonzero;"/>
            </g>
            <g transform="matrix(2.88913,0,0,2.39026,129.554,233.066)">
                <path d="M16.525,14.338C16.525,12.706 16.846,11.09 17.471,9.583C18.095,8.075 19.01,6.705 20.164,5.552C21.318,4.398 22.688,3.483 24.195,2.858C25.703,2.234 27.318,1.912 28.95,1.912L28.95,14.338L16.525,14.338Z" style="fill:white;fill-rule:nonzero;"/>
            </g>
            <g transform="matrix(2.66416,0,0,2.57664,133.271,229.97)">
                <rect x="2" y="16.613" width="12.425" height="12.425" style="fill:white;"/>
            </g>
            <g transform="matrix(2.664,0,0,2.37586,133.276,233.305)">
                <circle cx="23.263" cy="23.35" r="6.738" style="fill:white;"/>
            </g>
        </g>
    </g>
</svg>
