<?xml version="1.0" encoding="UTF-8" standalone="no"?>
<!DOCTYPE svg PUBLIC "-//W3C//DTD SVG 1.1//EN" "http://www.w3.org/Graphics/SVG/1.1/DTD/svg11.dtd">
<svg width="100%" height="100%" viewBox="0 0 100 100" version="1.1" xmlns="http://www.w3.org/2000/svg" xmlns:xlink="http://www.w3.org/1999/xlink" xml:space="preserve" xmlns:serif="http://www.serif.com/" style="fill-rule:evenodd;clip-rule:evenodd;stroke-linejoin:round;stroke-miterlimit:2;">
    <g transform="matrix(1,0,0,1,0,-128.139)">
        <g id="modern101" transform="matrix(0.90861,0,0,0.978948,-109.822,-87.3648)">
            <rect x="120.869" y="220.138" width="110.058" height="102.15" style="fill:none;"/>
            <clipPath id="_clip1">
                <rect x="120.869" y="220.138" width="110.058" height="102.15"/>
            </clipPath>
            <g clip-path="url(#_clip1)">
                <g transform="matrix(0.948778,0,0,0.888265,118.971,218.361)">
                    <path d="M60,117C92,117 118,91.3 118,59.5C118,27.7 92,2 60,2C27.9,2 2,27.7 2,59.5C2,91.3 28,117 60,117Z" style="fill:white;fill-rule:nonzero;"/>
                </g>
                <g transform="matrix(0.948778,0,0,0.888265,118.971,218.361)">
                    <path d="M60,114C90.4,114 115,89.6 115,59.5C115,29.4 90.4,5 60,5C29.6,5 5,29.4 5,59.5C5,89.6 29.6,114 60,114Z" style="fill-opacity:0.85;fill-rule:nonzero;"/>
                </g>
                <g transform="matrix(0.948778,0,0,0.888265,118.971,218.361)">
                    <path d="M54.9,113.7C43,76.6 52.5,33.3 70.7,6.7C71.3,5.9 71,4.8 70.2,4.3C69.4,3.8 68.2,4 67.7,4.8C49,32.2 39.2,76.7 51.4,114.8C51.7,115.7 52.7,116.2 53.7,116C54.7,115.6 55.2,114.7 54.9,113.7Z" style="fill:white;"/>
                </g>
                <g transform="matrix(0.948778,0,0,0.888265,118.971,218.361)">
                    <path d="M55.1,115.5C83.8,88.2 96.7,45.6 93.6,13.6C93.5,12.6 92.6,11.9 91.6,12C90.6,12.1 89.9,12.9 90,13.9C93,45 80.5,86.5 52.6,113C51.9,113.7 51.9,114.8 52.6,115.5C53.2,116.2 54.3,116.2 55.1,115.5Z" style="fill:white;"/>
                </g>
                <g transform="matrix(0.948778,0,0,0.888265,118.971,218.361)">
                    <path d="M101.9,94.1C66.2,100.2 27.9,85.3 6.1,64.5C5.4,63.8 4.2,63.8 3.6,64.5C2.9,65.2 2.9,66.3 3.7,67C26.2,88.5 65.8,103.9 102.7,97.5C103.7,97.3 104.3,96.4 104.1,95.5C103.8,94.6 102.8,93.9 101.9,94.1Z" style="fill:white;"/>
                </g>
                <g transform="matrix(0.948778,0,0,0.888265,118.971,218.361)">
                    <path d="M5.9,68.6C35.3,42.8 78.6,33.7 110,39.1C111,39.3 111.9,38.6 112,37.6C112.2,36.6 111.5,35.7 110.6,35.5C78.3,30 33.8,39.4 3.6,65.8C2.9,66.5 2.8,67.6 3.4,68.4C4,69.1 5.2,69.2 5.9,68.6Z" style="fill:white;"/>
                </g>
                <g transform="matrix(0.948778,0,0,0.888265,118.971,218.361)">
                    <path d="M91,43C94.9,43 98,39.9 98,36C98,32.1 94.9,29 91,29C87.1,29 84,32.1 84,36C84,39.9 87.1,43 91,43Z" style="fill:white;fill-rule:nonzero;"/>
                </g>
                <g transform="matrix(0.948778,0,0,0.888265,118.971,218.361)">
                    <path d="M53,48C56.9,48 60,44.9 60,41C60,37.1 56.9,34 53,34C49.1,34 46,37.1 46,41C46,44.9 49.1,48 53,48Z" style="fill:white;fill-rule:nonzero;"/>
                </g>
                <g transform="matrix(0.948778,0,0,0.888265,118.971,218.361)">
                    <path d="M70.5,102C74.1,102 77,99.1 77,95.5C77,91.9 74.1,89 70.5,89C66.9,89 64,91.9 64,95.5C64,99.1 66.9,102 70.5,102Z" style="fill:white;fill-rule:nonzero;"/>
                </g>
            </g>
        </g>
    </g>
</svg>
