<?xml version="1.0" encoding="utf-8"?>
<!-- Generator: Adobe Illustrator 19.0.0, SVG Export Plug-In . SVG Version: 6.00 Build 0)  -->
<svg version="1.1" id="Layer_1" xmlns:sketch="http://www.bohemiancoding.com/sketch/ns"
	 xmlns="http://www.w3.org/2000/svg" xmlns:xlink="http://www.w3.org/1999/xlink" x="0px" y="0px" viewBox="124 -4 348 108"
	 style="enable-background:new 124 -4 348 108;" xml:space="preserve">
<style type="text/css">
	.st0{fill:#FFFFFF;}
</style>
<title>Group</title>
<desc>Created with Sketch.</desc>
<path id="Fill-1" sketch:type="MSShapeGroup" class="st0" d="M152.1,59.4c-9.7-9.8-9.7-25.6,0-35.3c9.7-9.8,25.3-9.8,35,0
	c9.7,9.8,9.7,25.6,0,35.3C177.5,69.2,161.8,69.2,152.1,59.4"/>
<path id="Fill-2" sketch:type="MSShapeGroup" class="st0" d="M185.6,71.2c-12.6,7-28.8,5.1-39.5-5.7c-12.7-12.8-13-33.8-0.6-47
	C158.5,4.8,180,4.6,193.2,18c10.7,10.8,12.6,27,5.7,39.8c-1.5,2.7-1.1,6.1,1.1,8.3c2.2,2.3,4.5,4.6,4.5,4.6
	c14.9-18.4,13.5-45.7-4.3-62.4c-17.2-16.1-44-16.1-61.2,0c-18.9,17.7-19.3,47.5-1.3,65.7c16.4,16.6,42.3,17.7,60.1,3.4l-5.1-5.1
	C190.9,70.3,188,69.9,185.6,71.2"/>
<path id="Fill-3" sketch:type="MSShapeGroup" class="st0" d="M280.2,55.7c-0.8-1.6-1.6-2.9-2.4-4.2c-0.8-1.2-1.5-2.3-2.3-3.2
	c-0.8-0.9-1.6-1.7-2.4-2.4c-0.8-0.7-1.7-1.2-2.8-1.6v-0.2c2.6-0.6,5-1.5,7.1-2.7c2.1-1.2,3.9-2.7,5.3-4.4c1.5-1.7,2.6-3.7,3.4-5.9
	s1.2-4.6,1.2-7.3c0-3.3-0.6-6.1-1.8-8.6c-1.2-2.5-2.9-4.5-4.9-6.1c-2-1.6-4.4-2.9-7-3.7c-2.6-0.8-5.3-1.2-8.1-1.2h-16.9
	c-2.5,0-4.6,2-4.6,4.6v70h6.9V46.3h8.2c1.6,0,3,0.2,4.2,0.5c1.3,0.4,2.4,1,3.6,1.8c1.1,0.9,2.2,2,3.2,3.4c1,1.4,2.1,3.2,3.2,5.3
	l9.9,18.9c0.8,1.5,2.4,2.5,4.1,2.5h5.3L280.2,55.7L280.2,55.7z M263.3,40H251V12.7c0-1.2,1-2.1,2.1-2.1h10.8c5.3,0,9.3,1.2,12.1,3.7
	c2.8,2.5,4.2,5.9,4.2,10.2c0,2.4-0.4,4.5-1.2,6.5c-0.8,1.9-2,3.5-3.4,4.9c-1.5,1.4-3.2,2.4-5.3,3.1C268.1,39.7,265.8,40,263.3,40
	L263.3,40z"/>
<path id="Fill-4" sketch:type="MSShapeGroup" class="st0" d="M343.6,39.3c-0.9-3.2-2.3-5.9-4.1-8.1c-1.8-2.2-4-3.9-6.6-5.1
	c-2.6-1.2-5.7-1.8-9.1-1.8c-3.5,0-6.7,0.7-9.7,2.1c-2.9,1.4-5.5,3.3-7.6,5.8c-2.1,2.5-3.8,5.4-5,8.8c-1.2,3.4-1.8,7.1-1.8,11.1
	c0,4.4,0.6,8.4,1.7,11.9c1.1,3.5,2.7,6.4,4.7,8.8c2,2.4,4.5,4.2,7.4,5.4c2.9,1.2,6.1,1.9,9.7,1.9c6,0,11.3-1.3,15.8-3.8
	c1.7-0.9,2.7-2.7,2.7-4.5v-2.5c0-0.5-0.6-0.8-1-0.5c-5,3.7-10.4,5.6-16,5.6c-2.8,0-5.3-0.5-7.6-1.4c-2.2-1-4.1-2.3-5.7-4.1
	c-1.6-1.8-2.7-4-3.6-6.6c-0.8-2.6-1.3-5.5-1.3-8.8h35.1c1.8,0,3.3-1.5,3.3-3.3C345,46.1,344.5,42.5,343.6,39.3L343.6,39.3z
	 M337.8,47.5h-31.1c0.4-2.7,1-5.1,2-7.3c1-2.2,2.2-4,3.6-5.5c1.5-1.5,3.1-2.7,5.1-3.5c1.9-0.8,4-1.2,6.3-1.2c4.5,0,8,1.5,10.5,4.6
	c2.5,3,3.8,7.2,3.9,12.6C338.1,47.4,338,47.5,337.8,47.5L337.8,47.5z"/>
<path id="Fill-5" sketch:type="MSShapeGroup" class="st0" d="M357,76.7V1c0-0.6,0.5-1.1,1.1-1.1h3.2c1.3,0,2.4,1.1,2.4,2.4v75.5
	c0,0.6-0.5,1.1-1.1,1.1h-3.5C357.9,78.8,357,77.8,357,76.7"/>
<path id="Fill-6" sketch:type="MSShapeGroup" class="st0" d="M415,75c0,0.9-0.5,1.7-1.3,2.1c-3.7,1.9-8,2.9-13,3
	c-3.8,0-7.2-0.6-10.3-2c-3-1.4-5.6-3.2-7.8-5.6c-2.1-2.4-3.8-5.3-4.9-8.5c-1.1-3.3-1.7-6.8-1.7-10.7c0-4,0.6-7.7,1.8-11.3
	c1.2-3.5,3-6.6,5.3-9.2c2.3-2.6,5.2-4.7,8.5-6.2c3.4-1.5,7.2-2.3,11.5-2.3c3.8,0,7.3,0.6,10.5,1.9c0.9,0.4,1.5,1.2,1.5,2.2v2.2
	c0,1.4-1.5,2.3-2.7,1.7c-3.1-1.5-6.4-2.3-9.8-2.3c-3.1,0-6,0.6-8.4,1.8c-2.5,1.2-4.5,2.8-6.2,4.9c-1.7,2.1-3,4.5-3.8,7.2
	c-0.9,2.8-1.3,5.7-1.3,8.8c0,2.8,0.4,5.6,1.1,8.2c0.7,2.6,1.9,4.9,3.4,6.9c1.5,2,3.5,3.6,5.8,4.8c2.4,1.2,5.1,1.8,8.3,1.8
	c4.2,0,8.1-1.1,11.7-3.2c0.8-0.5,1.8,0.1,1.8,1V75"/>
<path id="Fill-7" sketch:type="MSShapeGroup" class="st0" d="M447.4,88.5c-2.1,5.2-4.5,9.1-7.2,11.6c-2.7,2.5-6,3.8-9.8,3.8
	c-1,0-2-0.1-2.8-0.2c-1.2-0.2-2-1.2-2-2.4v-3.4c0-0.5,0.5-0.8,0.9-0.7c0.5,0.1,0.9,0.2,1.4,0.3c0.8,0.1,1.6,0.2,2.4,0.2
	c2.2,0,4.1-0.7,5.7-2.1c1.6-1.4,3-3.4,4.2-6.2l2.7-6.5c1.2-2.9,1.3-6.1,0.1-9l-17.5-45.3c-0.6-1.6,0.5-3.2,2.2-3.2h1.9
	c1.2,0,2.3,0.8,2.7,1.9l14.5,40.3c0.2,0.6,0.4,1.2,0.6,1.9c0.2,0.7,0.4,1.4,0.5,2.1h0.3c0.2-0.6,0.3-1.2,0.5-1.8
	c0.2-0.6,0.4-1.3,0.6-2l15.4-40.5c0.4-1.1,1.5-1.9,2.7-1.9h1.5c1.7,0,2.8,1.7,2.2,3.3L447.4,88.5"/>
</svg>
