<?xml version="1.0" encoding="UTF-8" standalone="no"?>
<svg width="151px" height="60px" viewBox="0 0 151 60" version="1.1" xmlns="http://www.w3.org/2000/svg" xmlns:xlink="http://www.w3.org/1999/xlink" xmlns:sketch="http://www.bohemiancoding.com/sketch/ns">
    <!-- Generator: Sketch 3.3.2 (12043) - http://www.bohemiancoding.com/sketch -->
    <title>Imported Layers</title>
    <desc>Created with Sketch.</desc>
    <defs></defs>
    <g id="Page-1" stroke="none" stroke-width="1" fill="none" fill-rule="evenodd" sketch:type="MSPage">
        <g id="Imported-Layers" sketch:type="MSLayerGroup">
            <path d="M12.2322304,27.4963676 C8.03191664,23.2627762 8.03191664,16.3992195 12.2322304,12.1656281 C16.4329971,7.93203664 23.2428231,7.93203664 27.4435897,12.1656281 C31.6439035,16.3992195 31.6439035,23.2627762 27.4435897,27.4963676 C23.2428231,31.7299591 16.4329971,31.7299591 12.2322304,27.4963676" id="Fill-1" fill="#6C6C6C" sketch:type="MSShapeGroup"></path>
            <path d="M26.7963075,32.6112965 C21.3077707,35.6513441 14.2791642,34.8361637 9.62271808,30.1566925 C4.0870733,24.5936183 3.9665855,15.4766473 9.36135919,9.77446229 C14.9885022,3.82713405 24.3349137,3.74285191 30.0680498,9.52070962 C34.7023008,14.1911182 35.5325796,21.2400049 32.5643216,26.7659224 C31.9315341,27.944513 32.1072833,29.3954345 33.0385725,30.3519915 C33.9916039,31.3307518 35.0008025,32.361622 35.0008025,32.361622 C41.4949142,24.39696 40.8816041,12.5181631 33.1441126,5.30388397 C25.6652622,-1.66842382 14.0033106,-1.6666113 6.52717791,5.30841527 C-1.68909413,12.9735585 -1.87571435,25.9063353 5.96686431,33.810731 C13.1068994,41.0068849 24.3761332,41.4862962 32.0778408,35.2689026 L29.8787118,33.0521918 C29.0633807,32.2302144 27.807318,32.0512281 26.7963075,32.6112965" id="Fill-2" fill="#6C6C6C" sketch:type="MSShapeGroup"></path>
            <path d="M67.9089221,25.8941008 C67.5479116,25.2171249 67.2018489,24.6153685 66.8711868,24.0883786 C66.5400719,23.5618418 66.2057861,23.0955713 65.8674238,22.689567 C65.5290614,22.2831096 65.1793749,21.9369185 64.8183645,21.6509936 C64.457354,21.3655218 64.0582948,21.1317069 63.6225456,20.9513612 L63.6225456,20.8607353 C64.765368,20.6051701 65.7917791,20.2181973 66.7017792,19.6989105 C67.6117792,19.1800769 68.3863437,18.548414 69.0254726,17.8030156 C69.6646016,17.0589765 70.1569709,16.2048269 70.5030337,15.2419261 C70.8490964,14.2790253 71.0221278,13.2259518 71.0221278,12.0822522 C71.0221278,10.6680342 70.7548804,9.42736489 70.2212915,8.35843176 C69.6872497,7.28995176 68.9765528,6.40317679 68.0892008,5.69538809 C67.2018489,4.98805252 66.1903854,4.45426565 65.0552634,4.09312122 C63.9192355,3.73242992 62.742894,3.55163115 61.5244271,3.55163115 L54.1918833,3.55163115 C53.095716,3.55163115 52.2074581,4.44021863 52.2074581,5.53679267 L52.2074581,35.9141594 L55.2078764,35.9141594 L55.2078764,21.8317924 L58.7722319,21.8317924 C59.4489566,21.8317924 60.0618138,21.9106369 60.6108034,22.0687792 C61.1597929,22.2264684 61.6748104,22.4901899 62.1563086,22.8585844 C62.637354,23.2274321 63.1039045,23.719531 63.5550543,24.3362406 C64.0062042,24.9543096 64.4723018,25.7214583 64.9533471,26.6381398 L69.2564831,34.8289136 C69.6070754,35.4963737 70.298295,35.9141594 71.0520232,35.9141594 L73.3458212,35.9141594 L67.9089221,25.8941008 L67.9089221,25.8941008 Z M60.5768312,19.1007792 L55.2078764,19.1007792 L55.2078764,7.2328574 C55.2078764,6.72036763 55.6232422,6.30484763 56.1355419,6.30484763 L60.8250542,6.30484763 C63.1111519,6.30484763 64.859584,6.8431658 66.0703506,7.91844275 C67.2806642,8.99462595 67.886274,10.4727353 67.886274,12.3532238 C67.886274,13.3913441 67.709166,14.3243383 67.3563088,15.1517533 C67.0025457,15.9791682 66.5060997,16.6860507 65.8674238,17.2728537 C65.2278418,17.8596568 64.457354,18.310974 63.5550543,18.6272586 C62.6523017,18.9430901 61.6598626,19.1007792 60.5768312,19.1007792 L60.5768312,19.1007792 Z" id="Fill-3" fill="#6C6C6C" sketch:type="MSShapeGroup"></path>
            <path d="M95.4575989,18.7844947 C95.0517453,17.4006363 94.4610832,16.2270302 93.6869717,15.2641295 C92.9119542,14.302135 91.9530344,13.5603615 90.810212,13.0419811 C89.6673897,12.5222412 88.351536,12.263051 86.8626509,12.263051 C85.3429645,12.263051 83.9442188,12.5675542 82.6664138,13.1770137 C81.388156,13.7860202 80.2824765,14.6283884 79.3502813,15.7045716 C78.4171803,16.7803017 77.6883649,18.0554089 77.1620234,19.5298931 C76.6356819,21.0043774 76.3720582,22.6070974 76.3720582,24.3362406 C76.3720582,26.2629484 76.6125809,27.9780446 77.0940792,29.4819823 C77.5755774,30.9863731 78.2595496,32.2546834 79.1469015,33.2846473 C80.0342535,34.3159707 81.1095845,35.1016977 82.3733476,35.6431878 C83.6366578,36.185131 85.0426509,36.4556495 86.5917798,36.4556495 C89.2012921,36.4556495 91.4896546,35.9109875 93.4564142,34.8221166 C94.1743585,34.4247218 94.6227905,33.6707139 94.6227905,32.8500959 L94.6227905,31.7648501 C94.6227905,31.5500666 94.3795501,31.4317997 94.2060658,31.558676 C92.0123723,33.168193 89.6923026,33.9734046 87.2458565,33.9734046 C86.0278425,33.9734046 84.9339401,33.7663243 83.9632432,33.3530699 C82.9939051,32.9389093 82.1699678,32.3403249 81.4932431,31.5582229 C80.8165183,30.776574 80.2978772,29.8209234 79.9368667,28.6926302 C79.5758563,27.563884 79.3874242,26.2924018 79.3729294,24.8781838 L94.6227905,24.8781838 C95.4204561,24.8781838 96.0668324,24.2311145 96.0668324,23.4336061 C96.0668324,21.7185099 95.8639056,20.1697124 95.4575989,18.7844947 L95.4575989,18.7844947 Z M92.9531738,22.350626 L79.4404207,22.350626 C79.6057517,21.1770198 79.8951942,20.1203212 80.3087483,19.1800769 C80.7223023,18.2393795 81.2450201,17.4418711 81.8769016,16.7880049 C82.5083302,16.1332324 83.2416752,15.6329771 84.0764836,15.2872391 C84.910839,14.9410479 85.8167624,14.7674992 86.7947067,14.7674992 C88.7496893,14.7674992 90.2766232,15.4304281 91.3746023,16.753567 C92.4508393,18.0522369 93.021571,19.8724592 93.0858915,22.2124214 C93.0877034,22.2867347 93.0274595,22.350626 92.9531738,22.350626 L92.9531738,22.350626 Z" id="Fill-4" fill="#6C6C6C" sketch:type="MSShapeGroup"></path>
            <path d="M101.276345,34.9893215 L101.276345,2.1627884 C101.276345,1.90767634 101.482895,1.70104916 101.73746,1.70104916 L103.13847,1.70104916 C103.704672,1.70104916 104.163976,2.16052275 104.163976,2.72693496 L104.163976,35.4528733 C104.163976,35.7075322 103.957425,35.9141594 103.702408,35.9141594 L102.20084,35.9141594 C101.690352,35.9141594 101.276345,35.5004519 101.276345,34.9893215" id="Fill-5" fill="#6C6C6C" sketch:type="MSShapeGroup"></path>
            <path d="M126.518994,34.2692983 C126.518994,34.6589899 126.299307,35.0137905 125.953697,35.1932299 C124.353837,36.0229105 122.466798,36.4511182 120.292129,36.4778528 C118.63746,36.4928061 117.148575,36.2073344 115.825474,35.6205313 C114.50192,35.0337282 113.374046,34.2176415 112.441397,33.1722711 C111.508749,32.1264476 110.794882,30.8925753 110.298436,29.4711072 C109.80199,28.049186 109.553767,26.5031072 109.553767,24.8328708 C109.553767,23.1037276 109.816484,21.474273 110.343279,19.9476788 C110.870073,18.4201783 111.636937,17.0888831 112.644777,15.9524336 C113.651711,14.8168904 114.885579,13.9178809 116.344568,13.2558583 C117.802652,12.5938357 119.472269,12.263051 121.352513,12.263051 C122.996764,12.263051 124.518715,12.5367414 125.918366,13.0827627 C126.318785,13.2390925 126.586485,13.621534 126.586485,14.0515542 L126.586485,15.007658 C126.586485,15.6193832 125.946903,16.0244812 125.397461,15.7553221 C124.053976,15.0969246 122.630318,14.7674992 121.126938,14.7674992 C119.75854,14.7674992 118.540074,15.0275957 117.472443,15.5464293 C116.403906,16.065716 115.505683,16.7730516 114.776415,17.6679829 C114.046694,18.5633673 113.49091,19.6087377 113.106798,20.8050003 C112.723593,22.0008098 112.53199,23.2682137 112.53199,24.6072122 C112.53199,25.8410846 112.693244,27.0223939 113.016659,28.150687 C113.340073,29.2794333 113.836066,30.2758656 114.505544,31.1413435 C115.175021,32.0059151 116.020701,32.6946724 117.043941,33.2058027 C118.066276,33.7173863 119.269342,33.9734046 120.65314,33.9734046 C122.496241,33.9734046 124.186694,33.5048684 125.724952,32.5673429 C126.073279,32.3552782 126.518994,32.5958901 126.518994,33.00416 L126.518994,34.2692983" id="Fill-6" fill="#6C6C6C" sketch:type="MSShapeGroup"></path>
            <path d="M140.580283,40.1119536 C139.677984,42.3685398 138.640248,44.0424012 137.467078,45.1335377 C136.29436,46.2237679 134.872966,46.7688831 133.203349,46.7688831 C132.754011,46.7688831 132.342269,46.7398827 131.968576,46.6823353 C131.468053,46.6048501 131.105231,46.1644079 131.105231,45.6578089 L131.105231,44.2019029 C131.105231,43.9934632 131.304081,43.8403053 131.50429,43.8978528 C131.704499,43.9554003 131.906067,44.0025258 132.109447,44.0387762 C132.447356,44.0981362 132.789342,44.128949 133.135858,44.128949 C134.083454,44.128949 134.906938,43.8316959 135.605858,43.2376427 C136.305684,42.6431365 136.910841,41.7436739 137.422234,40.5401612 L138.608088,37.7411786 C139.135336,36.4968843 139.157531,35.095807 138.670144,33.8352 L131.08213,14.2038058 C130.821677,13.5300018 131.318576,12.8045411 132.04105,12.8045411 L132.864987,12.8045411 C133.39314,12.8045411 133.86422,13.1357789 134.044046,13.6324092 L140.354708,31.1069056 C140.445301,31.3475176 140.531363,31.6225673 140.614255,31.9306956 C140.696694,32.2397301 140.77551,32.5442333 140.851154,32.8451115 L140.963942,32.8451115 C141.039134,32.5890931 141.110249,32.3299029 141.178646,32.0661814 C141.245684,31.8033661 141.339447,31.5129099 141.460388,31.1970785 L148.16875,13.6115652 C148.354012,13.1253569 148.819656,12.8045411 149.339656,12.8045411 L150.002339,12.8045411 C150.730249,12.8045411 151.227148,13.5399707 150.95673,14.215134 L140.580283,40.1119536" id="Fill-7" fill="#6C6C6C" sketch:type="MSShapeGroup"></path>
            <path d="M20.3968648,58.972574 L16.8759936,53.8793954 C16.8316033,53.8141447 16.788119,53.7479878 16.7455406,53.6800183 C16.7025093,53.612502 16.6680842,53.5458919 16.6413594,53.4810944 L16.6191643,53.4810944 C16.6255058,53.5341105 16.6304883,53.6079707 16.635018,53.7022217 C16.6390946,53.7964727 16.6413594,53.9147395 16.6413594,54.056116 L16.6413594,58.972574 L16.0529622,58.972574 L16.0529622,52.6269447 L16.7034152,52.6269447 L20.1672132,57.6584977 C20.2202097,57.7377954 20.2682237,57.8125618 20.3108021,57.8818907 C20.3533805,57.9512195 20.3927881,58.015564 20.4281191,58.0744708 L20.4503143,58.0744708 C20.4385373,57.9770479 20.429478,57.8678437 20.4235895,57.746858 C20.417701,57.6258724 20.4145303,57.4912928 20.4145303,57.3440256 L20.4145303,52.6269447 L21.0074571,52.6269447 L21.0074571,58.972574 L20.3968648,58.972574 L20.3968648,58.972574 Z" id="Fill-8" fill="#6C6C6C" sketch:type="MSShapeGroup"></path>
            <path d="M20.3968648,58.972574 L16.8759936,53.8793954 C16.8316033,53.8141447 16.788119,53.7479878 16.7455406,53.6800183 C16.7025093,53.612502 16.6680842,53.5458919 16.6413594,53.4810944 L16.6191643,53.4810944 C16.6255058,53.5341105 16.6304883,53.6079707 16.635018,53.7022217 C16.6390946,53.7964727 16.6413594,53.9147395 16.6413594,54.056116 L16.6413594,58.972574 L16.0529622,58.972574 L16.0529622,52.6269447 L16.7034152,52.6269447 L20.1672132,57.6584977 C20.2202097,57.7377954 20.2682237,57.8125618 20.3108021,57.8818907 C20.3533805,57.9512195 20.3927881,58.015564 20.4281191,58.0744708 L20.4503143,58.0744708 C20.4385373,57.9770479 20.429478,57.8678437 20.4235895,57.746858 C20.417701,57.6258724 20.4145303,57.4912928 20.4145303,57.3440256 L20.4145303,52.6269447 L21.0074571,52.6269447 L21.0074571,58.972574 L20.3968648,58.972574 L20.3968648,58.972574 Z" id="Stroke-9" stroke="#6C6C6C" stroke-width="0.54" sketch:type="MSShapeGroup"></path>
            <path d="M23.5499311,58.972574 L23.5499311,52.6269447 L26.6418476,52.6269447 L26.6418476,53.1666223 L24.1383283,53.1666223 L24.1383283,55.4943499 L26.4561333,55.4943499 L26.4561333,56.025418 L24.1383283,56.025418 L24.1383283,58.4369747 L26.7831716,58.4369747 L26.7831716,58.972574 L23.5499311,58.972574 L23.5499311,58.972574 Z" id="Fill-10" fill="#6C6C6C" sketch:type="MSShapeGroup"></path>
            <path d="M23.5499311,58.972574 L23.5499311,52.6269447 L26.6418476,52.6269447 L26.6418476,53.1666223 L24.1383283,53.1666223 L24.1383283,55.4943499 L26.4561333,55.4943499 L26.4561333,56.025418 L24.1383283,56.025418 L24.1383283,58.4369747 L26.7831716,58.4369747 L26.7831716,58.972574 L23.5499311,58.972574 L23.5499311,58.972574 Z" id="Stroke-11" stroke="#6C6C6C" stroke-width="0.54" sketch:type="MSShapeGroup"></path>
            <path d="M31.1923007,58.972574 L30.6170393,58.972574 L28.3082936,52.6269447 L28.9673529,52.6269447 L30.763346,57.6983731 C30.7959592,57.7926241 30.8240428,57.8873282 30.8498616,57.9833918 C30.8747745,58.0794553 30.8951578,58.1791438 30.9091996,58.2824574 L30.9268651,58.2824574 C30.9418129,58.1995347 30.9621961,58.1089087 30.9889209,58.0101264 C31.0151926,57.9113441 31.0496177,57.8044055 31.0903843,57.6893105 L32.961569,52.6269447 L33.5984332,52.6269447 L31.1923007,58.972574 L31.1923007,58.972574 Z" id="Fill-12" fill="#6C6C6C" sketch:type="MSShapeGroup"></path>
            <path d="M31.1923007,58.972574 L30.6170393,58.972574 L28.3082936,52.6269447 L28.9673529,52.6269447 L30.763346,57.6983731 C30.7959592,57.7926241 30.8240428,57.8873282 30.8498616,57.9833918 C30.8747745,58.0794553 30.8951578,58.1791438 30.9091996,58.2824574 L30.9268651,58.2824574 C30.9418129,58.1995347 30.9621961,58.1089087 30.9889209,58.0101264 C31.0151926,57.9113441 31.0496177,57.8044055 31.0903843,57.6893105 L32.961569,52.6269447 L33.5984332,52.6269447 L31.1923007,58.972574 L31.1923007,58.972574 Z" id="Stroke-13" stroke="#6C6C6C" stroke-width="0.54" sketch:type="MSShapeGroup"></path>
            <path d="M35.4465168,58.972574 L35.4465168,52.6269447 L38.5388863,52.6269447 L38.5388863,53.1666223 L36.0349141,53.1666223 L36.0349141,55.4943499 L38.352719,55.4943499 L38.352719,56.025418 L36.0349141,56.025418 L36.0349141,58.4369747 L38.6802103,58.4369747 L38.6802103,58.972574 L35.4465168,58.972574 L35.4465168,58.972574 Z" id="Fill-14" fill="#6C6C6C" sketch:type="MSShapeGroup"></path>
            <path d="M35.4465168,58.972574 L35.4465168,52.6269447 L38.5388863,52.6269447 L38.5388863,53.1666223 L36.0349141,53.1666223 L36.0349141,55.4943499 L38.352719,55.4943499 L38.352719,56.025418 L36.0349141,56.025418 L36.0349141,58.4369747 L38.6802103,58.4369747 L38.6802103,58.972574 L35.4465168,58.972574 L35.4465168,58.972574 Z" id="Stroke-15" stroke="#6C6C6C" stroke-width="0.54" sketch:type="MSShapeGroup"></path>
            <path d="M44.3544614,58.972574 L43.3991652,57.1537111 C43.3049491,56.9738186 43.2134509,56.8233795 43.1251234,56.7023939 C43.0363429,56.5818614 42.9448446,56.4848916 42.8506286,56.412844 C42.7564125,56.3403432 42.6549491,56.2886864 42.5475972,56.2578736 C42.4402453,56.2266076 42.3197575,56.2112012 42.1870397,56.2112012 L41.4881198,56.2112012 L41.4881198,58.972574 L40.8997226,58.972574 L40.8997226,52.6269447 L42.72697,52.6269447 C42.9656808,52.6269447 43.1966913,52.6622889 43.4190955,52.7329771 C43.6414997,52.8041185 43.8403499,52.9087915 44.0138342,53.0474492 C44.1877715,53.1861069 44.3272837,53.3601087 44.4319178,53.5694547 C44.5370049,53.7788006 44.5890955,54.0221313 44.5890955,54.2998998 C44.5890955,54.5241991 44.5551234,54.7303731 44.4871792,54.9193282 C44.4196879,55.1082834 44.3227541,55.2754882 44.1977366,55.421396 C44.0722662,55.5673038 43.9200711,55.6914614 43.7420572,55.7929624 C43.5635903,55.8949166 43.3624753,55.9710424 43.1382592,56.0208867 L43.1382592,56.0385588 C43.223416,56.0739029 43.3017784,56.119669 43.3724404,56.1758571 C43.4435554,56.2320452 43.5119526,56.3000147 43.578538,56.3793124 C43.6446704,56.4590632 43.7103499,56.5505954 43.7751234,56.653909 C43.8403499,56.7567695 43.9078412,56.8750363 43.9785032,57.0078034 L45.044775,58.972574 L44.3544614,58.972574 L44.3544614,58.972574 Z M41.4881198,53.1666223 L41.4881198,55.676055 L42.5408028,55.676055 C42.7532418,55.676055 42.9480153,55.644789 43.1251234,55.5831634 C43.3017784,55.5210846 43.4530676,55.4322711 43.578538,55.3176293 C43.7035554,55.2025344 43.8009422,55.0638766 43.8702453,54.9016562 C43.9395485,54.7389826 43.9744265,54.5563713 43.9744265,54.352916 C43.9744265,53.9840684 43.8557506,53.6945185 43.6179457,53.48336 C43.3805937,53.2722015 43.0377018,53.1666223 42.5897226,53.1666223 L41.4881198,53.1666223 L41.4881198,53.1666223 Z" id="Fill-16" fill="#6C6C6C" sketch:type="MSShapeGroup"></path>
            <path d="M44.3544614,58.972574 L43.3991652,57.1537111 C43.3049491,56.9738186 43.2134509,56.8233795 43.1251234,56.7023939 C43.0363429,56.5818614 42.9448446,56.4848916 42.8506286,56.412844 C42.7564125,56.3403432 42.6549491,56.2886864 42.5475972,56.2578736 C42.4402453,56.2266076 42.3197575,56.2112012 42.1870397,56.2112012 L41.4881198,56.2112012 L41.4881198,58.972574 L40.8997226,58.972574 L40.8997226,52.6269447 L42.72697,52.6269447 C42.9656808,52.6269447 43.1966913,52.6622889 43.4190955,52.7329771 C43.6414997,52.8041185 43.8403499,52.9087915 44.0138342,53.0474492 C44.1877715,53.1861069 44.3272837,53.3601087 44.4319178,53.5694547 C44.5370049,53.7788006 44.5890955,54.0221313 44.5890955,54.2998998 C44.5890955,54.5241991 44.5551234,54.7303731 44.4871792,54.9193282 C44.4196879,55.1082834 44.3227541,55.2754882 44.1977366,55.421396 C44.0722662,55.5673038 43.9200711,55.6914614 43.7420572,55.7929624 C43.5635903,55.8949166 43.3624753,55.9710424 43.1382592,56.0208867 L43.1382592,56.0385588 C43.223416,56.0739029 43.3017784,56.119669 43.3724404,56.1758571 C43.4435554,56.2320452 43.5119526,56.3000147 43.578538,56.3793124 C43.6446704,56.4590632 43.7103499,56.5505954 43.7751234,56.653909 C43.8403499,56.7567695 43.9078412,56.8750363 43.9785032,57.0078034 L45.044775,58.972574 L44.3544614,58.972574 L44.3544614,58.972574 Z M41.4881198,53.1666223 L41.4881198,55.676055 L42.5408028,55.676055 C42.7532418,55.676055 42.9480153,55.644789 43.1251234,55.5831634 C43.3017784,55.5210846 43.4530676,55.4322711 43.578538,55.3176293 C43.7035554,55.2025344 43.8009422,55.0638766 43.8702453,54.9016562 C43.9395485,54.7389826 43.9744265,54.5563713 43.9744265,54.352916 C43.9744265,53.9840684 43.8557506,53.6945185 43.6179457,53.48336 C43.3805937,53.2722015 43.0377018,53.1666223 42.5897226,53.1666223 L41.4881198,53.1666223 L41.4881198,53.1666223 Z" id="Stroke-17" stroke="#6C6C6C" stroke-width="0.54" sketch:type="MSShapeGroup"></path>
            <path d="M50.1514651,58.0432049 C50.257911,58.1229557 50.3747752,58.1945502 50.5034163,58.2579884 C50.6316044,58.3209734 50.7629633,58.3744427 50.89704,58.4170369 C51.0311166,58.4600843 51.1660992,58.4922565 51.3015348,58.5144598 C51.4374233,58.5366632 51.5669703,58.5479915 51.6910818,58.5479915 C52.1716742,58.5479915 52.5313258,58.4546467 52.7704895,58.2688635 C53.0092003,58.0830803 53.1287822,57.8161869 53.1287822,57.4681832 C53.1287822,57.3000721 53.1006986,57.1528049 53.0445313,57.0277411 C52.9883641,56.9026773 52.9018484,56.7853166 52.7836254,56.6761124 C52.6654024,56.566455 52.516831,56.4581569 52.3370052,56.3507652 C52.1567264,56.2433734 51.9442874,56.1214815 51.6996881,55.9855426 C51.428817,55.8382754 51.1964477,55.6987115 51.003033,55.5673038 C50.8096184,55.4358962 50.6524407,55.3017698 50.5296881,55.1649246 C50.4073884,55.0276263 50.317249,54.8794528 50.2601759,54.7199511 C50.2026497,54.5609026 50.1736602,54.3791976 50.1736602,54.1757423 C50.1736602,53.9192708 50.2280156,53.6890809 50.3371793,53.4856256 C50.4467961,53.2817173 50.5940086,53.1086217 50.7797229,52.9654327 C50.9654372,52.8226968 51.1833118,52.7125863 51.4319877,52.6360073 C51.6811167,52.5594284 51.9474581,52.5209124 52.2305592,52.5209124 C52.72927,52.5209124 53.1464477,52.5902412 53.4825453,52.7288989 L53.4825453,53.3791402 C53.107946,53.1639035 52.6685731,53.0560586 52.1644268,53.0560586 C51.9755418,53.0560586 51.7979808,53.0791682 51.6312909,53.1249344 C51.464601,53.1702473 51.3182944,53.2377637 51.1932769,53.326124 C51.0682595,53.4144843 50.9690609,53.5245948 50.89704,53.6560024 C50.8250191,53.7874101 50.7887821,53.9401148 50.7887821,54.1136635 C50.7887821,54.2790559 50.8127891,54.4213386 50.861709,54.5409649 C50.9101759,54.660138 50.9885382,54.7729673 51.0958902,54.8794528 C51.203695,54.9854852 51.3450191,55.0910644 51.5207682,55.1957374 C51.6960644,55.3008635 51.9107682,55.4204898 52.1644268,55.5564287 C52.4298623,55.6978052 52.6608728,55.8360098 52.8588171,55.9701362 C53.0563084,56.1042626 53.2207334,56.2447328 53.3520923,56.3906406 C53.4834512,56.5365484 53.5812909,56.6915188 53.6460645,56.8550986 C53.711291,57.0186785 53.7434512,57.2012898 53.7434512,57.4015731 C53.7434512,57.6788885 53.6918136,57.9231255 53.5885383,58.1338308 C53.485716,58.3449893 53.3407683,58.5198974 53.155054,58.6585551 C52.9693397,58.7967597 52.7482944,58.9018858 52.4914651,58.972574 C52.2350888,59.0432623 51.9533466,59.0786064 51.6466916,59.0786064 C51.5461341,59.0786064 51.4270052,59.0709032 51.2883989,59.0545905 C51.1497926,59.0382779 51.0098274,59.0147151 50.8680504,58.9834492 C50.7267264,58.9526363 50.5917438,58.9159328 50.4635557,58.8728855 C50.3353675,58.8302913 50.2311863,58.7836189 50.1514651,58.7337747 L50.1514651,58.0432049 L50.1514651,58.0432049 Z" id="Fill-18" fill="#6C6C6C" sketch:type="MSShapeGroup"></path>
            <path d="M50.1514651,58.0432049 C50.257911,58.1229557 50.3747752,58.1945502 50.5034163,58.2579884 C50.6316044,58.3209734 50.7629633,58.3744427 50.89704,58.4170369 C51.0311166,58.4600843 51.1660992,58.4922565 51.3015348,58.5144598 C51.4374233,58.5366632 51.5669703,58.5479915 51.6910818,58.5479915 C52.1716742,58.5479915 52.5313258,58.4546467 52.7704895,58.2688635 C53.0092003,58.0830803 53.1287822,57.8161869 53.1287822,57.4681832 C53.1287822,57.3000721 53.1006986,57.1528049 53.0445313,57.0277411 C52.9883641,56.9026773 52.9018484,56.7853166 52.7836254,56.6761124 C52.6654024,56.566455 52.516831,56.4581569 52.3370052,56.3507652 C52.1567264,56.2433734 51.9442874,56.1214815 51.6996881,55.9855426 C51.428817,55.8382754 51.1964477,55.6987115 51.003033,55.5673038 C50.8096184,55.4358962 50.6524407,55.3017698 50.5296881,55.1649246 C50.4073884,55.0276263 50.317249,54.8794528 50.2601759,54.7199511 C50.2026497,54.5609026 50.1736602,54.3791976 50.1736602,54.1757423 C50.1736602,53.9192708 50.2280156,53.6890809 50.3371793,53.4856256 C50.4467961,53.2817173 50.5940086,53.1086217 50.7797229,52.9654327 C50.9654372,52.8226968 51.1833118,52.7125863 51.4319877,52.6360073 C51.6811167,52.5594284 51.9474581,52.5209124 52.2305592,52.5209124 C52.72927,52.5209124 53.1464477,52.5902412 53.4825453,52.7288989 L53.4825453,53.3791402 C53.107946,53.1639035 52.6685731,53.0560586 52.1644268,53.0560586 C51.9755418,53.0560586 51.7979808,53.0791682 51.6312909,53.1249344 C51.464601,53.1702473 51.3182944,53.2377637 51.1932769,53.326124 C51.0682595,53.4144843 50.9690609,53.5245948 50.89704,53.6560024 C50.8250191,53.7874101 50.7887821,53.9401148 50.7887821,54.1136635 C50.7887821,54.2790559 50.8127891,54.4213386 50.861709,54.5409649 C50.9101759,54.660138 50.9885382,54.7729673 51.0958902,54.8794528 C51.203695,54.9854852 51.3450191,55.0910644 51.5207682,55.1957374 C51.6960644,55.3008635 51.9107682,55.4204898 52.1644268,55.5564287 C52.4298623,55.6978052 52.6608728,55.8360098 52.8588171,55.9701362 C53.0563084,56.1042626 53.2207334,56.2447328 53.3520923,56.3906406 C53.4834512,56.5365484 53.5812909,56.6915188 53.6460645,56.8550986 C53.711291,57.0186785 53.7434512,57.2012898 53.7434512,57.4015731 C53.7434512,57.6788885 53.6918136,57.9231255 53.5885383,58.1338308 C53.485716,58.3449893 53.3407683,58.5198974 53.155054,58.6585551 C52.9693397,58.7967597 52.7482944,58.9018858 52.4914651,58.972574 C52.2350888,59.0432623 51.9533466,59.0786064 51.6466916,59.0786064 C51.5461341,59.0786064 51.4270052,59.0709032 51.2883989,59.0545905 C51.1497926,59.0382779 51.0098274,59.0147151 50.8680504,58.9834492 C50.7267264,58.9526363 50.5917438,58.9159328 50.4635557,58.8728855 C50.3353675,58.8302913 50.2311863,58.7836189 50.1514651,58.7337747 L50.1514651,58.0432049 L50.1514651,58.0432049 Z" id="Stroke-19" stroke="#6C6C6C" stroke-width="0.54" sketch:type="MSShapeGroup"></path>
            <path d="M57.7675629,53.1666223 L57.7675629,58.972574 L57.1791656,58.972574 L57.1791656,53.1666223 L55.3523711,53.1666223 L55.3523711,52.6269447 L59.598887,52.6269447 L59.598887,53.1666223 L57.7675629,53.1666223 L57.7675629,53.1666223 Z" id="Fill-20" fill="#6C6C6C" sketch:type="MSShapeGroup"></path>
            <path d="M57.7675629,53.1666223 L57.7675629,58.972574 L57.1791656,58.972574 L57.1791656,53.1666223 L55.3523711,53.1666223 L55.3523711,52.6269447 L59.598887,52.6269447 L59.598887,53.1666223 L57.7675629,53.1666223 L57.7675629,53.1666223 Z" id="Stroke-21" stroke="#6C6C6C" stroke-width="0.54" sketch:type="MSShapeGroup"></path>
            <path d="M63.7158557,59.0831377 C63.2592704,59.0831377 62.8479811,59.000215 62.4819881,58.8330101 C62.1159951,58.6662583 61.8061693,58.438334 61.5506989,58.1496904 C61.2956814,57.8605936 61.099549,57.5202931 60.9623016,57.1296953 C60.8255072,56.7386443 60.756657,56.3190461 60.756657,55.8704476 C60.756657,55.3751768 60.8255072,54.9215939 60.9623016,54.5096989 C61.099549,54.0982571 61.2997581,53.7457221 61.5620229,53.452094 C61.8242877,53.1589191 62.1458905,52.9300885 62.5263783,52.7665087 C62.9064132,52.6024757 63.3398975,52.5209124 63.8268313,52.5209124 C64.2748105,52.5209124 64.6774934,52.6015695 65.0344272,52.7619774 C65.391361,52.9228385 65.6948453,53.1457783 65.9453332,53.4303438 C66.1962739,53.7149093 66.3887827,54.0520379 66.5228593,54.4412763 C66.656936,54.8305148 66.7239743,55.2541911 66.7239743,55.7113991 C66.7239743,56.1921698 66.6587478,56.6385026 66.5273889,57.0499444 C66.39603,57.4613863 66.2030684,57.8175463 65.947598,58.1184244 C65.6925805,58.4193026 65.3782251,58.6553832 65.0054377,58.8266663 C64.6326502,58.9979493 64.2027896,59.0831377 63.7158557,59.0831377 L63.7158557,59.0831377 Z M63.7647756,53.0560586 C63.381117,53.0560586 63.0413958,53.1294656 62.7451588,53.2753734 C62.4489219,53.4212812 62.198887,53.6192989 61.9955072,53.8680672 C61.7921275,54.1172885 61.6381205,54.4095573 61.5330334,54.7444202 C61.4283992,55.0792831 61.3749497,55.4354431 61.371779,55.8129002 C61.3686083,56.1726852 61.4148104,56.5175169 61.5108382,56.8464892 C61.6068661,57.1750082 61.7513609,57.4659176 61.9443226,57.7183108 C62.1377372,57.970251 62.3814306,58.1714406 62.6767616,58.3223328 C62.9716397,58.4727719 63.3167965,58.5479915 63.7117791,58.5479915 C64.1067617,58.5479915 64.4537303,58.4791157 64.753591,58.3418174 C65.0529986,58.2049722 65.3030335,58.0146577 65.5032426,57.771327 C65.7034516,57.5279963 65.8547408,57.2379933 65.9566572,56.901771 C66.0581206,56.5650956 66.1093053,56.1980605 66.1093053,55.7997594 C66.1093053,55.428193 66.0640091,55.0752049 65.9743227,54.7421545 C65.8846363,54.4091041 65.7442182,54.1172885 65.5539743,53.8680672 C65.3637304,53.6192989 65.1213959,53.4212812 64.8265178,53.2753734 C64.5311868,53.1294656 64.1774237,53.0560586 63.7647756,53.0560586 L63.7647756,53.0560586 Z" id="Fill-22" fill="#6C6C6C" sketch:type="MSShapeGroup"></path>
            <path d="M63.7158557,59.0831377 C63.2592704,59.0831377 62.8479811,59.000215 62.4819881,58.8330101 C62.1159951,58.6662583 61.8061693,58.438334 61.5506989,58.1496904 C61.2956814,57.8605936 61.099549,57.5202931 60.9623016,57.1296953 C60.8255072,56.7386443 60.756657,56.3190461 60.756657,55.8704476 C60.756657,55.3751768 60.8255072,54.9215939 60.9623016,54.5096989 C61.099549,54.0982571 61.2997581,53.7457221 61.5620229,53.452094 C61.8242877,53.1589191 62.1458905,52.9300885 62.5263783,52.7665087 C62.9064132,52.6024757 63.3398975,52.5209124 63.8268313,52.5209124 C64.2748105,52.5209124 64.6774934,52.6015695 65.0344272,52.7619774 C65.391361,52.9228385 65.6948453,53.1457783 65.9453332,53.4303438 C66.1962739,53.7149093 66.3887827,54.0520379 66.5228593,54.4412763 C66.656936,54.8305148 66.7239743,55.2541911 66.7239743,55.7113991 C66.7239743,56.1921698 66.6587478,56.6385026 66.5273889,57.0499444 C66.39603,57.4613863 66.2030684,57.8175463 65.947598,58.1184244 C65.6925805,58.4193026 65.3782251,58.6553832 65.0054377,58.8266663 C64.6326502,58.9979493 64.2027896,59.0831377 63.7158557,59.0831377 L63.7158557,59.0831377 Z M63.7647756,53.0560586 C63.381117,53.0560586 63.0413958,53.1294656 62.7451588,53.2753734 C62.4489219,53.4212812 62.198887,53.6192989 61.9955072,53.8680672 C61.7921275,54.1172885 61.6381205,54.4095573 61.5330334,54.7444202 C61.4283992,55.0792831 61.3749497,55.4354431 61.371779,55.8129002 C61.3686083,56.1726852 61.4148104,56.5175169 61.5108382,56.8464892 C61.6068661,57.1750082 61.7513609,57.4659176 61.9443226,57.7183108 C62.1377372,57.970251 62.3814306,58.1714406 62.6767616,58.3223328 C62.9716397,58.4727719 63.3167965,58.5479915 63.7117791,58.5479915 C64.1067617,58.5479915 64.4537303,58.4791157 64.753591,58.3418174 C65.0529986,58.2049722 65.3030335,58.0146577 65.5032426,57.771327 C65.7034516,57.5279963 65.8547408,57.2379933 65.9566572,56.901771 C66.0581206,56.5650956 66.1093053,56.1980605 66.1093053,55.7997594 C66.1093053,55.428193 66.0640091,55.0752049 65.9743227,54.7421545 C65.8846363,54.4091041 65.7442182,54.1172885 65.5539743,53.8680672 C65.3637304,53.6192989 65.1213959,53.4212812 64.8265178,53.2753734 C64.5311868,53.1294656 64.1774237,53.0560586 63.7647756,53.0560586 L63.7647756,53.0560586 Z" id="Stroke-23" stroke="#6C6C6C" stroke-width="0.54" sketch:type="MSShapeGroup"></path>
            <path d="M69.4784343,56.5034699 L69.4784343,58.972574 L68.8900371,58.972574 L68.8900371,52.6269447 L70.5270406,52.6269447 C70.8599675,52.6269447 71.1548455,52.6681795 71.4116748,52.7511023 C71.6680511,52.8335719 71.8850198,52.9531982 72.0616748,53.1095279 C72.2387828,53.2654046 72.3728595,53.4575316 72.4643578,53.6845496 C72.555856,53.9115676 72.6016052,54.171211 72.6016052,54.4634797 C72.6016052,54.7584672 72.5499675,55.0307982 72.4466923,55.2800195 C72.343417,55.5287878 72.1952985,55.7444776 72.0018839,55.9257295 C71.8089222,56.1074345 71.5738351,56.248811 71.2966225,56.3507652 C71.01941,56.4522663 70.7050546,56.5034699 70.3544622,56.5034699 L69.4784343,56.5034699 L69.4784343,56.5034699 Z M69.4784343,53.1666223 L69.4784343,55.9633392 L70.3191312,55.9633392 C70.8644971,55.9633392 71.278957,55.8364629 71.5620581,55.5831634 C71.8451591,55.3294107 71.9864832,54.970985 71.9864832,54.5074333 C71.9864832,53.6138614 71.4646713,53.1666223 70.4205946,53.1666223 L69.4784343,53.1666223 L69.4784343,53.1666223 Z" id="Fill-24" fill="#6C6C6C" sketch:type="MSShapeGroup"></path>
            <path d="M69.4784343,56.5034699 L69.4784343,58.972574 L68.8900371,58.972574 L68.8900371,52.6269447 L70.5270406,52.6269447 C70.8599675,52.6269447 71.1548455,52.6681795 71.4116748,52.7511023 C71.6680511,52.8335719 71.8850198,52.9531982 72.0616748,53.1095279 C72.2387828,53.2654046 72.3728595,53.4575316 72.4643578,53.6845496 C72.555856,53.9115676 72.6016052,54.171211 72.6016052,54.4634797 C72.6016052,54.7584672 72.5499675,55.0307982 72.4466923,55.2800195 C72.343417,55.5287878 72.1952985,55.7444776 72.0018839,55.9257295 C71.8089222,56.1074345 71.5738351,56.248811 71.2966225,56.3507652 C71.01941,56.4522663 70.7050546,56.5034699 70.3544622,56.5034699 L69.4784343,56.5034699 L69.4784343,56.5034699 Z M69.4784343,53.1666223 L69.4784343,55.9633392 L70.3191312,55.9633392 C70.8644971,55.9633392 71.278957,55.8364629 71.5620581,55.5831634 C71.8451591,55.3294107 71.9864832,54.970985 71.9864832,54.5074333 C71.9864832,53.6138614 71.4646713,53.1666223 70.4205946,53.1666223 L69.4784343,53.1666223 L69.4784343,53.1666223 Z" id="Stroke-25" stroke="#6C6C6C" stroke-width="0.54" sketch:type="MSShapeGroup"></path>
            <path d="M77.9162046,58.0432049 C78.0226506,58.1229557 78.1395147,58.1945502 78.2681559,58.2579884 C78.396344,58.3209734 78.5277029,58.3744427 78.6617796,58.4170369 C78.7958562,58.4600843 78.9303858,58.4922565 79.0662744,58.5144598 C79.2021629,58.5366632 79.3317099,58.5479915 79.4558214,58.5479915 C79.9364138,58.5479915 80.2960653,58.4546467 80.5347761,58.2688635 C80.7739399,58.0830803 80.8935218,57.8161869 80.8935218,57.4681832 C80.8935218,57.3000721 80.8654382,57.1528049 80.8092709,57.0277411 C80.7531037,56.9026773 80.666588,56.7853166 80.548365,56.6761124 C80.430142,56.566455 80.2815706,56.4581569 80.1012918,56.3507652 C79.921466,56.2433734 79.709027,56.1214815 79.4644277,55.9855426 C79.1935566,55.8382754 78.9611872,55.6987115 78.7677726,55.5673038 C78.574358,55.4358962 78.4171803,55.3017698 78.2944276,55.1649246 C78.172128,55.0276263 78.0819886,54.8794528 78.0244625,54.7199511 C77.9669363,54.5609026 77.9383998,54.3791976 77.9383998,54.1757423 C77.9383998,53.9192708 77.9927552,53.6890809 78.1019189,53.4856256 C78.2115357,53.2817173 78.3587482,53.1086217 78.5444625,52.9654327 C78.7301768,52.8226968 78.9480514,52.7125863 79.1967273,52.6360073 C79.4458562,52.5594284 79.7121977,52.5209124 79.9952988,52.5209124 C80.4940096,52.5209124 80.9111873,52.5902412 81.2472849,52.7288989 L81.2472849,53.3791402 C80.8726856,53.1639035 80.4333127,53.0560586 79.9291664,53.0560586 C79.7402813,53.0560586 79.5627204,53.0791682 79.3960305,53.1249344 C79.2293406,53.1702473 79.0830339,53.2377637 78.9580165,53.326124 C78.8329991,53.4144843 78.7338005,53.5245948 78.6617796,53.6560024 C78.5893057,53.7874101 78.5530688,53.9401148 78.5530688,54.1136635 C78.5530688,54.2790559 78.5775287,54.4213386 78.6264486,54.5409649 C78.6749155,54.660138 78.7532778,54.7729673 78.8606297,54.8794528 C78.9679817,54.9854852 79.1097587,55.0910644 79.2855078,55.1957374 C79.460804,55.3008635 79.6755078,55.4204898 79.9291664,55.5564287 C80.194149,55.6978052 80.4256124,55.8360098 80.6235566,55.9701362 C80.8215009,56.1042626 80.985473,56.2447328 81.1168319,56.3906406 C81.2481908,56.5365484 81.3460305,56.6915188 81.411257,56.8550986 C81.4760305,57.0186785 81.5081908,57.2012898 81.5081908,57.4015731 C81.5081908,57.6788885 81.4565532,57.9231255 81.3537309,58.1338308 C81.2504556,58.3449893 81.1059608,58.5198974 80.9202465,58.6585551 C80.7340793,58.7967597 80.513034,58.9018858 80.2562047,58.972574 C79.9998284,59.0432623 79.7180862,59.0786064 79.4114312,59.0786064 C79.3108737,59.0786064 79.1917447,59.0709032 79.0531385,59.0545905 C78.9145322,59.0382779 78.774567,59.0147151 78.63279,58.9834492 C78.491466,58.9526363 78.3564834,58.9159328 78.2282952,58.8728855 C78.0996541,58.8302913 77.9959259,58.7836189 77.9162046,58.7337747 L77.9162046,58.0432049 L77.9162046,58.0432049 Z" id="Fill-26" fill="#6C6C6C" sketch:type="MSShapeGroup"></path>
            <path d="M77.9162046,58.0432049 C78.0226506,58.1229557 78.1395147,58.1945502 78.2681559,58.2579884 C78.396344,58.3209734 78.5277029,58.3744427 78.6617796,58.4170369 C78.7958562,58.4600843 78.9303858,58.4922565 79.0662744,58.5144598 C79.2021629,58.5366632 79.3317099,58.5479915 79.4558214,58.5479915 C79.9364138,58.5479915 80.2960653,58.4546467 80.5347761,58.2688635 C80.7739399,58.0830803 80.8935218,57.8161869 80.8935218,57.4681832 C80.8935218,57.3000721 80.8654382,57.1528049 80.8092709,57.0277411 C80.7531037,56.9026773 80.666588,56.7853166 80.548365,56.6761124 C80.430142,56.566455 80.2815706,56.4581569 80.1012918,56.3507652 C79.921466,56.2433734 79.709027,56.1214815 79.4644277,55.9855426 C79.1935566,55.8382754 78.9611872,55.6987115 78.7677726,55.5673038 C78.574358,55.4358962 78.4171803,55.3017698 78.2944276,55.1649246 C78.172128,55.0276263 78.0819886,54.8794528 78.0244625,54.7199511 C77.9669363,54.5609026 77.9383998,54.3791976 77.9383998,54.1757423 C77.9383998,53.9192708 77.9927552,53.6890809 78.1019189,53.4856256 C78.2115357,53.2817173 78.3587482,53.1086217 78.5444625,52.9654327 C78.7301768,52.8226968 78.9480514,52.7125863 79.1967273,52.6360073 C79.4458562,52.5594284 79.7121977,52.5209124 79.9952988,52.5209124 C80.4940096,52.5209124 80.9111873,52.5902412 81.2472849,52.7288989 L81.2472849,53.3791402 C80.8726856,53.1639035 80.4333127,53.0560586 79.9291664,53.0560586 C79.7402813,53.0560586 79.5627204,53.0791682 79.3960305,53.1249344 C79.2293406,53.1702473 79.0830339,53.2377637 78.9580165,53.326124 C78.8329991,53.4144843 78.7338005,53.5245948 78.6617796,53.6560024 C78.5893057,53.7874101 78.5530688,53.9401148 78.5530688,54.1136635 C78.5530688,54.2790559 78.5775287,54.4213386 78.6264486,54.5409649 C78.6749155,54.660138 78.7532778,54.7729673 78.8606297,54.8794528 C78.9679817,54.9854852 79.1097587,55.0910644 79.2855078,55.1957374 C79.460804,55.3008635 79.6755078,55.4204898 79.9291664,55.5564287 C80.194149,55.6978052 80.4256124,55.8360098 80.6235566,55.9701362 C80.8215009,56.1042626 80.985473,56.2447328 81.1168319,56.3906406 C81.2481908,56.5365484 81.3460305,56.6915188 81.411257,56.8550986 C81.4760305,57.0186785 81.5081908,57.2012898 81.5081908,57.4015731 C81.5081908,57.6788885 81.4565532,57.9231255 81.3537309,58.1338308 C81.2504556,58.3449893 81.1059608,58.5198974 80.9202465,58.6585551 C80.7340793,58.7967597 80.513034,58.9018858 80.2562047,58.972574 C79.9998284,59.0432623 79.7180862,59.0786064 79.4114312,59.0786064 C79.3108737,59.0786064 79.1917447,59.0709032 79.0531385,59.0545905 C78.9145322,59.0382779 78.774567,59.0147151 78.63279,58.9834492 C78.491466,58.9526363 78.3564834,58.9159328 78.2282952,58.8728855 C78.0996541,58.8302913 77.9959259,58.7836189 77.9162046,58.7337747 L77.9162046,58.0432049 L77.9162046,58.0432049 Z" id="Stroke-27" stroke="#6C6C6C" stroke-width="0.54" sketch:type="MSShapeGroup"></path>
            <path d="M83.7190968,58.972574 L83.7190968,52.6269447 L86.8110133,52.6269447 L86.8110133,53.1666223 L84.307494,53.1666223 L84.307494,55.4943499 L86.625299,55.4943499 L86.625299,56.025418 L84.307494,56.025418 L84.307494,58.4369747 L86.9527903,58.4369747 L86.9527903,58.972574 L83.7190968,58.972574 L83.7190968,58.972574 Z" id="Fill-28" fill="#6C6C6C" sketch:type="MSShapeGroup"></path>
            <path d="M83.7190968,58.972574 L83.7190968,52.6269447 L86.8110133,52.6269447 L86.8110133,53.1666223 L84.307494,53.1666223 L84.307494,55.4943499 L86.625299,55.4943499 L86.625299,56.025418 L84.307494,56.025418 L84.307494,58.4369747 L86.9527903,58.4369747 L86.9527903,58.972574 L83.7190968,58.972574 L83.7190968,58.972574 Z" id="Stroke-29" stroke="#6C6C6C" stroke-width="0.54" sketch:type="MSShapeGroup"></path>
            <path d="M93.3255083,58.972574 L92.6265884,57.0961637 L89.9061005,57.0961637 L89.2248461,58.972574 L88.5703165,58.972574 L90.9855082,52.6269447 L91.578435,52.6269447 L93.9804909,58.972574 L93.3255083,58.972574 L93.3255083,58.972574 Z M91.3927208,53.7375658 C91.3718845,53.6813777 91.3505953,53.6170333 91.3284002,53.5431731 C91.3062051,53.469313 91.2876336,53.3850308 91.2731389,53.2907798 L91.2554734,53.2907798 C91.2378079,53.3850308 91.2178775,53.469313 91.1956824,53.5431731 C91.1734873,53.6170333 91.1521981,53.6813777 91.1313619,53.7375658 L90.1054036,56.5610174 L92.4277382,56.5610174 L91.3927208,53.7375658 L91.3927208,53.7375658 Z" id="Fill-30" fill="#6C6C6C" sketch:type="MSShapeGroup"></path>
            <path d="M93.3255083,58.972574 L92.6265884,57.0961637 L89.9061005,57.0961637 L89.2248461,58.972574 L88.5703165,58.972574 L90.9855082,52.6269447 L91.578435,52.6269447 L93.9804909,58.972574 L93.3255083,58.972574 L93.3255083,58.972574 Z M91.3927208,53.7375658 C91.3718845,53.6813777 91.3505953,53.6170333 91.3284002,53.5431731 C91.3062051,53.469313 91.2876336,53.3850308 91.2731389,53.2907798 L91.2554734,53.2907798 C91.2378079,53.3850308 91.2178775,53.469313 91.1956824,53.5431731 C91.1734873,53.6170333 91.1521981,53.6813777 91.1313619,53.7375658 L90.1054036,56.5610174 L92.4277382,56.5610174 L91.3927208,53.7375658 L91.3927208,53.7375658 Z" id="Stroke-31" stroke="#6C6C6C" stroke-width="0.54" sketch:type="MSShapeGroup"></path>
            <path d="M99.3317802,58.972574 L98.376484,57.1537111 C98.282268,56.9738186 98.1903168,56.8233795 98.1019893,56.7023939 C98.0136617,56.5818614 97.9221635,56.4848916 97.8279474,56.412844 C97.7337314,56.3403432 97.632268,56.2886864 97.5249161,56.2578736 C97.4171112,56.2266076 97.2970763,56.2112012 97.1643586,56.2112012 L96.4654387,56.2112012 L96.4654387,58.972574 L95.8770415,58.972574 L95.8770415,52.6269447 L97.7038359,52.6269447 C97.9429997,52.6269447 98.1735572,52.6622889 98.3959614,52.7329771 C98.6188185,52.8041185 98.8172158,52.9087915 98.9911531,53.0474492 C99.1650903,53.1861069 99.3041496,53.3601087 99.4092367,53.5694547 C99.5138708,53.7788006 99.5664144,54.0221313 99.5664144,54.2998998 C99.5664144,54.5241991 99.5319893,54.7303731 99.464498,54.9193282 C99.3965538,55.1082834 99.3000729,55.2754882 99.1746025,55.421396 C99.0495851,55.5673038 98.89739,55.6914614 98.7189231,55.7929624 C98.5409091,55.8949166 98.3397941,55.9710424 98.1151252,56.0208867 L98.1151252,56.0385588 C98.2007349,56.0739029 98.2790973,56.119669 98.3497593,56.1758571 C98.4204213,56.2320452 98.4892715,56.3000147 98.5554039,56.3793124 C98.6219893,56.4590632 98.6872158,56.5505954 98.7524422,56.653909 C98.8172158,56.7567695 98.88516,56.8750363 98.955822,57.0078034 L100.021641,58.972574 L99.3317802,58.972574 L99.3317802,58.972574 Z M96.4654387,53.1666223 L96.4654387,55.676055 L97.5181216,55.676055 C97.7305607,55.676055 97.9253342,55.644789 98.1019893,55.5831634 C98.2790973,55.5210846 98.4303865,55.4322711 98.5554039,55.3176293 C98.6804213,55.2025344 98.7778081,55.0638766 98.8475642,54.9016562 C98.9168673,54.7389826 98.9512924,54.5563713 98.9512924,54.352916 C98.9512924,53.9840684 98.8326165,53.6945185 98.5952645,53.48336 C98.3579126,53.2722015 98.0150206,53.1666223 97.5665885,53.1666223 L96.4654387,53.1666223 L96.4654387,53.1666223 Z" id="Fill-32" fill="#6C6C6C" sketch:type="MSShapeGroup"></path>
            <path d="M99.3317802,58.972574 L98.376484,57.1537111 C98.282268,56.9738186 98.1903168,56.8233795 98.1019893,56.7023939 C98.0136617,56.5818614 97.9221635,56.4848916 97.8279474,56.412844 C97.7337314,56.3403432 97.632268,56.2886864 97.5249161,56.2578736 C97.4171112,56.2266076 97.2970763,56.2112012 97.1643586,56.2112012 L96.4654387,56.2112012 L96.4654387,58.972574 L95.8770415,58.972574 L95.8770415,52.6269447 L97.7038359,52.6269447 C97.9429997,52.6269447 98.1735572,52.6622889 98.3959614,52.7329771 C98.6188185,52.8041185 98.8172158,52.9087915 98.9911531,53.0474492 C99.1650903,53.1861069 99.3041496,53.3601087 99.4092367,53.5694547 C99.5138708,53.7788006 99.5664144,54.0221313 99.5664144,54.2998998 C99.5664144,54.5241991 99.5319893,54.7303731 99.464498,54.9193282 C99.3965538,55.1082834 99.3000729,55.2754882 99.1746025,55.421396 C99.0495851,55.5673038 98.89739,55.6914614 98.7189231,55.7929624 C98.5409091,55.8949166 98.3397941,55.9710424 98.1151252,56.0208867 L98.1151252,56.0385588 C98.2007349,56.0739029 98.2790973,56.119669 98.3497593,56.1758571 C98.4204213,56.2320452 98.4892715,56.3000147 98.5554039,56.3793124 C98.6219893,56.4590632 98.6872158,56.5505954 98.7524422,56.653909 C98.8172158,56.7567695 98.88516,56.8750363 98.955822,57.0078034 L100.021641,58.972574 L99.3317802,58.972574 L99.3317802,58.972574 Z M96.4654387,53.1666223 L96.4654387,55.676055 L97.5181216,55.676055 C97.7305607,55.676055 97.9253342,55.644789 98.1019893,55.5831634 C98.2790973,55.5210846 98.4303865,55.4322711 98.5554039,55.3176293 C98.6804213,55.2025344 98.7778081,55.0638766 98.8475642,54.9016562 C98.9168673,54.7389826 98.9512924,54.5563713 98.9512924,54.352916 C98.9512924,53.9840684 98.8326165,53.6945185 98.5952645,53.48336 C98.3579126,53.2722015 98.0150206,53.1666223 97.5665885,53.1666223 L96.4654387,53.1666223 L96.4654387,53.1666223 Z" id="Stroke-33" stroke="#6C6C6C" stroke-width="0.54" sketch:type="MSShapeGroup"></path>
            <path d="M106.133906,58.7378528 C105.644254,58.9680427 105.0853,59.0831377 104.457042,59.0831377 C104.009063,59.0831377 103.602303,59.0042931 103.23631,58.846604 C102.870317,58.6884617 102.558679,58.4696 102.300944,58.1895658 C102.042756,57.9090785 101.843906,57.575575 101.703488,57.1895084 C101.563522,56.8029887 101.493313,56.3806718 101.493313,55.9239169 C101.493313,55.4426931 101.567599,54.995454 101.717076,54.5808403 C101.866101,54.1662266 102.07854,53.8064415 102.356205,53.5010321 C102.633418,53.1956226 102.96861,52.9559169 103.362233,52.7819151 C103.755857,52.6079133 104.197495,52.5209124 104.687146,52.5209124 C105.227077,52.5209124 105.709028,52.603382 106.133906,52.7687744 L106.133906,53.3968122 C105.679585,53.1697942 105.194463,53.0560586 104.67854,53.0560586 C104.268157,53.0560586 103.904428,53.1272 103.585996,53.2685765 C103.267111,53.4104061 102.998958,53.6070644 102.780631,53.8594577 C102.562756,54.111851 102.396066,54.4095573 102.281014,54.7530296 C102.165962,55.0969551 102.108435,55.4721466 102.108435,55.8795102 C102.108435,56.2456391 102.160073,56.5895646 102.263348,56.9126461 C102.366171,57.2357276 102.518819,57.5180275 102.72084,57.7599988 C102.923313,58.0019701 103.174254,58.193644 103.475021,58.3354736 C103.775787,58.4768501 104.125474,58.5479915 104.523627,58.5479915 C105.133766,58.5479915 105.670526,58.4193026 106.133906,58.1628311 L106.133906,58.7378528 L106.133906,58.7378528 Z" id="Fill-34" fill="#6C6C6C" sketch:type="MSShapeGroup"></path>
            <path d="M106.133906,58.7378528 C105.644254,58.9680427 105.0853,59.0831377 104.457042,59.0831377 C104.009063,59.0831377 103.602303,59.0042931 103.23631,58.846604 C102.870317,58.6884617 102.558679,58.4696 102.300944,58.1895658 C102.042756,57.9090785 101.843906,57.575575 101.703488,57.1895084 C101.563522,56.8029887 101.493313,56.3806718 101.493313,55.9239169 C101.493313,55.4426931 101.567599,54.995454 101.717076,54.5808403 C101.866101,54.1662266 102.07854,53.8064415 102.356205,53.5010321 C102.633418,53.1956226 102.96861,52.9559169 103.362233,52.7819151 C103.755857,52.6079133 104.197495,52.5209124 104.687146,52.5209124 C105.227077,52.5209124 105.709028,52.603382 106.133906,52.7687744 L106.133906,53.3968122 C105.679585,53.1697942 105.194463,53.0560586 104.67854,53.0560586 C104.268157,53.0560586 103.904428,53.1272 103.585996,53.2685765 C103.267111,53.4104061 102.998958,53.6070644 102.780631,53.8594577 C102.562756,54.111851 102.396066,54.4095573 102.281014,54.7530296 C102.165962,55.0969551 102.108435,55.4721466 102.108435,55.8795102 C102.108435,56.2456391 102.160073,56.5895646 102.263348,56.9126461 C102.366171,57.2357276 102.518819,57.5180275 102.72084,57.7599988 C102.923313,58.0019701 103.174254,58.193644 103.475021,58.3354736 C103.775787,58.4768501 104.125474,58.5479915 104.523627,58.5479915 C105.133766,58.5479915 105.670526,58.4193026 106.133906,58.1628311 L106.133906,58.7378528 L106.133906,58.7378528 Z" id="Stroke-35" stroke="#6C6C6C" stroke-width="0.54" sketch:type="MSShapeGroup"></path>
            <path d="M112.431885,58.972574 L112.431885,56.0032147 L108.972617,56.0032147 L108.972617,58.972574 L108.38422,58.972574 L108.38422,52.6269447 L108.972617,52.6269447 L108.972617,55.4721466 L112.431885,55.4721466 L112.431885,52.6269447 L113.020282,52.6269447 L113.020282,58.972574 L112.431885,58.972574 L112.431885,58.972574 Z" id="Fill-36" fill="#6C6C6C" sketch:type="MSShapeGroup"></path>
            <path d="M112.431885,58.972574 L112.431885,56.0032147 L108.972617,56.0032147 L108.972617,58.972574 L108.38422,58.972574 L108.38422,52.6269447 L108.972617,52.6269447 L108.972617,55.4721466 L112.431885,55.4721466 L112.431885,52.6269447 L113.020282,52.6269447 L113.020282,58.972574 L112.431885,58.972574 L112.431885,58.972574 Z" id="Stroke-37" stroke="#6C6C6C" stroke-width="0.54" sketch:type="MSShapeGroup"></path>
            <path d="M115.562303,52.6269447 L116.150701,52.6269447 L116.150701,58.972574 L115.562303,58.972574 L115.562303,52.6269447 Z" id="Fill-38" fill="#6C6C6C" sketch:type="MSShapeGroup"></path>
            <path d="M115.562303,52.6269447 L116.150701,52.6269447 L116.150701,58.972574 L115.562303,58.972574 L115.562303,52.6269447 Z" id="Stroke-39" stroke="#6C6C6C" stroke-width="0.54" sketch:type="MSShapeGroup"></path>
            <path d="M123.041607,58.972574 L119.520283,53.8793954 C119.476345,53.8141447 119.432861,53.7479878 119.38983,53.6800183 C119.346798,53.612502 119.312373,53.5458919 119.286101,53.4810944 L119.263906,53.4810944 C119.269342,53.5341105 119.274777,53.6079707 119.279307,53.7022217 C119.283837,53.7964727 119.286101,53.9147395 119.286101,54.056116 L119.286101,58.972574 L118.697704,58.972574 L118.697704,52.6269447 L119.347704,52.6269447 L122.811502,57.6584977 C122.864499,57.7377954 122.912513,57.8125618 122.955091,57.8818907 C122.998122,57.9512195 123.037077,58.015564 123.072408,58.0744708 L123.094603,58.0744708 C123.082826,57.9770479 123.073767,57.8678437 123.067879,57.746858 C123.062443,57.6258724 123.059272,57.4912928 123.059272,57.3440256 L123.059272,52.6269447 L123.651746,52.6269447 L123.651746,58.972574 L123.041607,58.972574 L123.041607,58.972574 Z" id="Fill-40" fill="#6C6C6C" sketch:type="MSShapeGroup"></path>
            <path d="M123.041607,58.972574 L119.520283,53.8793954 C119.476345,53.8141447 119.432861,53.7479878 119.38983,53.6800183 C119.346798,53.612502 119.312373,53.5458919 119.286101,53.4810944 L119.263906,53.4810944 C119.269342,53.5341105 119.274777,53.6079707 119.279307,53.7022217 C119.283837,53.7964727 119.286101,53.9147395 119.286101,54.056116 L119.286101,58.972574 L118.697704,58.972574 L118.697704,52.6269447 L119.347704,52.6269447 L122.811502,57.6584977 C122.864499,57.7377954 122.912513,57.8125618 122.955091,57.8818907 C122.998122,57.9512195 123.037077,58.015564 123.072408,58.0744708 L123.094603,58.0744708 C123.082826,57.9770479 123.073767,57.8678437 123.067879,57.746858 C123.062443,57.6258724 123.059272,57.4912928 123.059272,57.3440256 L123.059272,52.6269447 L123.651746,52.6269447 L123.651746,58.972574 L123.041607,58.972574 L123.041607,58.972574 Z" id="Stroke-41" stroke="#6C6C6C" stroke-width="0.54" sketch:type="MSShapeGroup"></path>
            <path d="M130.856555,58.5343976 C130.204743,58.9005264 129.514882,59.0831377 128.786067,59.0831377 C128.326311,59.0831377 127.913663,59.0042931 127.54767,58.846604 C127.181677,58.6884617 126.870945,58.4691469 126.614116,58.1873002 C126.357739,57.9054534 126.160701,57.568778 126.023907,57.1781802 C125.886659,56.7875823 125.818262,56.3575621 125.818262,55.8881197 C125.818262,55.5786321 125.851328,55.2809258 125.917461,54.9945478 C125.984046,54.7081698 126.081433,54.4399169 126.209621,54.1888831 C126.337809,53.9383023 126.494987,53.7112843 126.680701,53.507829 C126.866415,53.3039206 127.07976,53.1285594 127.31983,52.9808391 C127.5599,52.8335719 127.824882,52.7198363 128.113872,52.6400855 C128.402861,52.5607878 128.714046,52.5209124 129.047426,52.5209124 C129.675231,52.5209124 130.235997,52.6328354 130.727914,52.8571347 L130.727914,53.507829 C130.185266,53.2064977 129.601398,53.0560586 128.976311,53.0560586 C128.590387,53.0560586 128.240701,53.1272 127.928157,53.2685765 C127.615161,53.4104061 127.349272,53.6047988 127.129586,53.8526608 C126.9099,54.1005227 126.739586,54.3936977 126.618645,54.7312794 C126.498157,55.0688611 126.436102,55.4354431 126.432931,55.8305722 C126.42976,56.2234357 126.480945,56.5854864 126.585579,56.9171774 C126.690213,57.2488684 126.845579,57.5356995 127.05213,57.7776708 C127.25868,58.0200953 127.513698,58.2081441 127.817635,58.3440831 C128.121572,58.480022 128.472164,58.5479915 128.870318,58.5479915 C129.406624,58.5479915 129.873175,58.4356153 130.268158,58.211316 L130.268158,56.2778113 L128.825928,56.2778113 L128.825928,55.7422119 L130.856555,55.7422119 L130.856555,58.5343976 L130.856555,58.5343976 Z" id="Fill-42" fill="#6C6C6C" sketch:type="MSShapeGroup"></path>
            <path d="M130.856555,58.5343976 C130.204743,58.9005264 129.514882,59.0831377 128.786067,59.0831377 C128.326311,59.0831377 127.913663,59.0042931 127.54767,58.846604 C127.181677,58.6884617 126.870945,58.4691469 126.614116,58.1873002 C126.357739,57.9054534 126.160701,57.568778 126.023907,57.1781802 C125.886659,56.7875823 125.818262,56.3575621 125.818262,55.8881197 C125.818262,55.5786321 125.851328,55.2809258 125.917461,54.9945478 C125.984046,54.7081698 126.081433,54.4399169 126.209621,54.1888831 C126.337809,53.9383023 126.494987,53.7112843 126.680701,53.507829 C126.866415,53.3039206 127.07976,53.1285594 127.31983,52.9808391 C127.5599,52.8335719 127.824882,52.7198363 128.113872,52.6400855 C128.402861,52.5607878 128.714046,52.5209124 129.047426,52.5209124 C129.675231,52.5209124 130.235997,52.6328354 130.727914,52.8571347 L130.727914,53.507829 C130.185266,53.2064977 129.601398,53.0560586 128.976311,53.0560586 C128.590387,53.0560586 128.240701,53.1272 127.928157,53.2685765 C127.615161,53.4104061 127.349272,53.6047988 127.129586,53.8526608 C126.9099,54.1005227 126.739586,54.3936977 126.618645,54.7312794 C126.498157,55.0688611 126.436102,55.4354431 126.432931,55.8305722 C126.42976,56.2234357 126.480945,56.5854864 126.585579,56.9171774 C126.690213,57.2488684 126.845579,57.5356995 127.05213,57.7776708 C127.25868,58.0200953 127.513698,58.2081441 127.817635,58.3440831 C128.121572,58.480022 128.472164,58.5479915 128.870318,58.5479915 C129.406624,58.5479915 129.873175,58.4356153 130.268158,58.211316 L130.268158,56.2778113 L128.825928,56.2778113 L128.825928,55.7422119 L130.856555,55.7422119 L130.856555,58.5343976 L130.856555,58.5343976 Z" id="Stroke-43" stroke="#6C6C6C" stroke-width="0.54" sketch:type="MSShapeGroup"></path>
        </g>
    </g>
</svg>