<svg xmlns="http://www.w3.org/2000/svg" viewBox="-105 333.3 156 128"><path fill="#FFF" d="M-46.3 410.2s4.2-7.9 6.1-15.9c0 0 2.3-2.4 3.1 1.2 0 0-.5 7.7-8.8 23.4l-.6-8.2"/><path fill="#1DA8E0" d="M-61.6 418.2c5.6 4.1-2.5 3.5 11.2 3.6.4-.6.8-1.3 1.2-2 .8-1.5 1.5-3 2-4.5.1-.3.3-.9.6-1.7.2-.9.5-1.7.8-2.7.3-.9.6-1.7 1-2.5.3-.7.7-1.1.9-1.1.2 0 .4.3.5.9.1.6.3 1.3.4 2 .1.8.2 1.5.3 2.2.1.7.1 1.2.2 1.5.2 1.4.4 2.8.8 4.3.3 1.5.9 2.9 1.6 4.3.7 1.3 1.6 2.4 2.7 3.2 1.1.9 2.5 1.3 4.2 1.3 2.1 0 3.9-.6 5.5-1.7s2.9-2.5 3.9-4.2c1-1.7 1.8-3.6 2.3-5.6.5-2 .8-3.9.8-5.7 0-.3-.1-.7-.3-1.2-.2-.5-.4-1.1-.7-1.6-.3-.5-.5-1-.9-1.4-.3-.4-.6-.6-.9-.6-.2.2-.4.7-.6 1.5-.2.8-.4 1.7-.7 2.8-.3 1-.6 2.2-.9 3.3-.4 1.2-.8 2.3-1.4 3.2-.6 1-1.3 1.8-2.1 2.4-.8.6-1.8.9-2.9.9-1 0-1.8-.4-2.5-1.1-.7-.7-1.2-1.7-1.7-2.8-.4-1.2-.8-2.4-1-3.9l-.6-4.2c-.2-1.4-.3-2.6-.4-3.8-.1-1.2-.2-2.1-.4-2.7-.1-.6-.3-1.2-.4-1.9-.2-.6-.4-1.2-.7-1.7-.3-.5-.7-.9-1.1-1.3-.5-.3-1.1-.5-1.9-.5-1.2 0-2.2.6-3.1 1.8-.8 1.2-1.5 2.6-2.2 4.4-.6 1.7-1.2 3.6-1.7 5.7s-1.2 3.9-1.9 5.7c-.7 1.7-1.5 3.2-2.5 4.4-.9 1.2-2.1 1.8-3.6 1.8-1.4 0-2.5-.3-3.4-.9"/><path fill="#1DA8E0" d="M49 418c-.7 1.4-1.5 2.8-2.6 4-1 1.2-2.2 2.3-3.5 3.1-1.3.8-2.6 1.2-3.9 1.2-2.5 0-4.4-.6-5.7-1.8-1.3-1.2-2.3-2.7-3-4.5-.7-1.8-1.1-3.8-1.3-5.8-.2-2.1-.4-4-.6-5.7 0-.4-.1-.9-.1-1.7 0-.7-.1-1.5-.3-2.2-.1-.7-.4-1.4-.7-1.9-.3-.5-.7-.8-1.2-.8s-1.1.6-1.9 1.7c-.8 1.2-1.6 2.6-2.6 4.4-.9 1.8-1.9 3.7-2.9 5.7s-2 3.9-2.9 5.7c-1 1.8-1.9 3.2-2.7 4.4-.9 1.2-1.6 1.7-2.2 1.7-1.4 0-2.6-.6-3.5-1.7-.9-1.2-1.6-2.6-2.2-4.4-.6-1.8-1-3.7-1.3-5.7-.3-2-.6-3.9-.9-5.7-.3-1.8-.7-3.2-1-4.4-.4-1.2-.9-1.7-1.6-1.7-.7 0-1.5.6-2.4 1.9-.8 1.3-1.7 2.9-2.7 4.8-1 1.9-2 4-3 6.3s-2.1 4.4-3.2 6.3c-1.1 1.9-2.2 3.5-3.4 4.8-1.2 1.3-2.4 1.9-3.6 1.9-1.2 0-2.2-.6-3-1.7-.9-1.1-1.6-2.5-2.1-4.2-.6-1.7-1-3.6-1.3-5.7-.3-2.1-.6-4.2-.8-6.2-.2-2-.3-3.9-.3-5.5 0-1.7-.1-2.9-.1-3.8 0-.7 0-1.5.1-2.5s.3-2 .6-3 .8-1.8 1.4-2.5c.6-.7 1.4-1 2.3-1 .9 0 1.6.2 2.2.7.5.4.9 1 1.2 1.6s.4 1.4.5 2.2c0 .8.1 1.5.1 2.2 0 2.4-.2 4.9-.6 7.3-.4 2.4-.6 4.9-.6 7.4 0 .4 0 .8.1 1.3 0 .5.1.9.3 1.3.1.4.3.7.6 1 .3.3.7.4 1.1.4.7 0 1.5-.6 2.4-1.8.8-1.2 1.7-2.7 2.7-4.4 1-1.8 2-3.7 3.1-5.8 1.1-2.1 2.3-4 3.5-5.8 1.3-1.8 2.6-3.2 4.1-4.4 1.4-1.2 3-1.8 4.6-1.8 1.6 0 2.9.6 4 1.7 1 1.2 1.8 2.5 2.4 4.2.6 1.6 1 3.3 1.3 5 .3 1.7.4 3.2.5 4.4 0 .2.1.5.2 1s.1 1.1.2 1.6c.1.6.2 1.1.4 1.5.2.5.3.7.5.7.3 0 .7-.5 1.3-1.5.5-1 1.2-2.2 2-3.7s1.6-3.1 2.6-4.9c1-1.8 2-3.4 3.1-4.9 1.1-1.5 2.3-2.7 3.6-3.7 1.3-1 2.6-1.5 4-1.5 1.9 0 3.3.6 4.3 1.9.9 1.3 1.6 2.9 2 4.8.4 1.9.6 4 .7 6.3.1 2.2.2 4.3.4 6.3.2 1.9.6 3.5 1.2 4.8.6 1.3 1.5 1.9 2.9 1.9.8 0 1.5-.4 2.3-1.3.7-.9 1.4-1.8 1.9-2.8.6-1 1.1-2 1.5-2.8.4-.9.7-1.3.9-1.3.3 0 .5.1.8.4.2.3.5.6.7.9.2.3.3.7.5 1.1.1.4.2.7.2.9-.6 1-1 2.4-1.6 3.8z"/><path fill="#FFF" d="M-43.7 415.1c-.8 1.8-1.8 3.4-3.1 4.9-1.3 1.5-2.7 2.7-4.4 3.6-1.6 1-3.3 1.4-4.9 1.4-2 0-3.7-.6-5.3-1.7-1.6-1.2-3-2.7-4.2-4.7-1.2-2-2.3-4.2-3.2-6.8-.9-2.6-1.7-5.3-2.3-8.1-.7-2.8-1.2-5.7-1.6-8.7-.4-2.9-.8-5.7-1-8.4-.2-2.7-.4-5.1-.5-7.3-.1-2.2-.1-4-.1-5.4 0-1.2 0-2.8.1-4.6.1-1.8.2-3.7.4-5.8.2-2 .6-4 1.1-6 .5-2 1.1-3.8 2-5.4.8-1.6 1.8-2.9 3.1-3.9 1.2-1 2.7-1.5 4.5-1.5 1.3 0 2.5.3 3.5.9 1 .6 1.9 1.4 2.6 2.3.8 1 1.4 2 1.9 3.3.5 1.2.9 2.5 1.3 3.8.3 1.3.6 2.6.7 3.8.1 1.3.2 2.4.2 3.4 0 7.7-1 15.3-3 22.8-2 7.4-4.9 14.5-8.8 21.1.3 1.1.6 2.3 1.1 3.7.4 1.4 1 2.7 1.7 3.9.7 1.2 1.5 2.3 2.5 3.1 1 .8 2.2 1.3 3.5 1.3 1.2 0 2.3-.3 3.2-.9 1-.6 1.8-1.4 2.6-2.3.8-.9 1.4-2 2-3 .6-1.1 1.1-2.1 1.6-3 .5-.9.9-1.7 1.2-2.3.4-.6.7-.8 1-.9.3-.1.6-.1.9.1.2.2.3.5.5.9.1.3.3.6.3.9.1.3.1.6.1.8 0 1.3-.4 3-1.2 4.7zm-14.9-50.6c0-.9-.1-2-.2-3.1s-.3-2.3-.5-3.5c-.2-1.2-.5-2.3-.9-3.2-.3-1-.8-1.8-1.2-2.4-.5-.6-1.1-.9-1.8-.9-.8 0-1.4.4-2 1.3-.6.9-1 2-1.4 3.3-.4 1.3-.7 2.8-1 4.4-.2 1.6-.4 3.2-.6 4.7-.1 1.5-.2 2.9-.3 4.1-.1 1.2-.1 2.1-.1 2.7 0 4.9.2 9.8.6 14.6.4 4.8 1 9.7 1.7 14.5 2.4-5.4 4.3-11 5.7-16.8 1.3-5.7 2-11.6 2-17.5v-2.2z"/><path fill="#1DA8E0" d="M14.7 401.2s-4.5-16-13.6-11.9c0 0-5.7 1.1-14 16 0 0 6.6-17.9 16.2-19.4.1 0 8-2.7 11.4 15.3z"/><path fill="#FFF" d="M-93.3 391c-.4-1.5-.7-3-1.1-4.4-.2-.6-.3-1.3-.4-1.8-.4-2-.8-4-1.1-5.9-.6-4.1-.9-8.2-.9-12.4 0-1 .1-2.1.3-3.3.2-1.2.5-2.5.9-3.7.4-1.3.9-2.5 1.5-3.7.6-1.2 1.3-2.3 2.1-3.2.8-.9 1.7-1.7 2.7-2.3 1-.6 2.1-.8 3.3-.8.9 0 1.6.2 2.2.6.6.4 1.1.9 1.4 1.4.3.6.6 1.3.7 2 .1.8.2 1.5.2 2.2 0 0 4 5.1 6.2-.2v-.4c0-1.6-.2-3.2-.6-4.6-.4-1.4-1-2.7-1.7-3.8-.8-1.1-1.8-1.9-3.1-2.5-1.3-.6-2.8-.9-4.6-.9-1 0-2 .2-3.1.6-1 .4-2 .9-2.9 1.5-.9.6-1.8 1.3-2.6 2l-2.2 2.2c-1.2 1.4-2.2 3-3.1 4.7-.8 1.7-1.5 3.4-2.1 5.2-.5 1.8-.9 3.6-1.2 5.4-.2 1.8-.4 3.7-.4 5.5 0 2.2.1 4.4.4 6.5.3 2.1.6 4.3 1 6.4.4 2.1.9 4.2 1.4 6.3.5 2.1 1.1 4.2 1.6 6.3-.4-.1-.9-.1-1.3-.1h-1.4c-1 0-1.7.2-2.2.7-.5.4-.7 1.2-.7 2.3 0 .5.2 1 .6 1.4.4.5 1 .9 1.6 1.3.6.4 1.3.7 1.9 1 .6.3 1.2.4 1.6.4.3 0 .5 0 .8-.1.3 0 .5-.1.8-.2 2.2 10 3.3 20.2 3.3 30.5 0 2.5-.2 4.9-.6 7.3-.4 2.4-1 4.7-1.8 7-.1.2-.2.5-.3.8-.1.3-.2.6-.2.8 0 .7.3 1.3.8 1.8s1.2.8 2 .8c.9 0 1.7-.3 2.4-1s1.2-1.4 1.6-2.1c.5-.9 1-1.9 1.3-3.2.3-1.2.6-2.5.8-3.8.2-1.3.3-2.6.4-3.9.1-1.3.1-2.5.1-3.5 0-5.6-.4-11.2-1.1-16.6-.7-5.5-1.7-10.9-3-16.3.4-.1.8-.1 1.2-.1h1.1c.9 0 1.8.1 2.7.3.9.2 1.7.4 2.5.7.8.3 1.7.5 2.5.7.8.2 1.6.3 2.4.3 1.3 0 2.2-.2 2.7-.6.6-.4.8-1.3.8-2.7 0-.7-.3-1.3-.9-1.8-.6-.5-1.3-1-2.2-1.4-.8-.4-1.7-.7-2.6-.9-.9-.2-1.6-.3-2.2-.3-1.5 0-2.9.1-4.4.3-1.5.2-3.5.4-5 .5"/></svg>