<?xml version="1.0" encoding="utf-8"?>
<!-- Generator: Adobe Illustrator 18.1.1, SVG Export Plug-In . SVG Version: 6.00 Build 0)  -->
<svg version="1.1" id="Isolation_Mode" xmlns="http://www.w3.org/2000/svg" xmlns:xlink="http://www.w3.org/1999/xlink" x="0px"
	 y="0px" viewBox="-120.3 208.5 486 376" enable-background="new -120.3 208.5 486 376" xml:space="preserve">
<g>
	<g>
		<g>
			
				<ellipse transform="matrix(7.359909e-002 -0.9973 0.9973 7.359909e-002 -238.1386 394.0178)" fill="#F2B58C" cx="93" cy="325.2" rx="26.2" ry="37.8"/>
			<circle fill="#351F10" cx="115.7" cy="325.8" r="4.4"/>
		</g>
		<path fill="#351F10" d="M63.7,296.5c-9-15.8-13.5-36.4,15.8-35.3c24.1,0.9,13.9,20.6,9.5,27.5c27.2-3.6,34.1,18.7,34.1,18.7
			l-53.8,37C69.2,344.5,31.7,318.5,63.7,296.5z"/>
		<path fill="#017396" d="M82.5,348.3c0,0,28,23.7-9.7,68.9l-21.5-6.5l24.4-63L82.5,348.3z"/>
		<path fill="#3F3F3F" d="M51.3,410.7c5.3-1.9,21.5,6.5,21.5,6.5l25.8,64.6l-83.9-11.8C14.7,469.9,17.9,422.5,51.3,410.7z"/>
		<path fill="#F2B58C" d="M107.2,360.1l5.4,44.1c0,0-47.3-24.7-42-33.4c5.4-8.6,34.4,21.5,34.4,21.5L107.2,360.1z"/>
		<polygon fill="#F2B58C" points="57.7,475.8 47,538.7 39.4,538.7 45.9,474.2 		"/>
		<polygon fill="#FE0000" points="39.4,538.7 65.3,538.7 40.5,529.1 		"/>
	</g>
	<g>
		<g>
			<g>
				<path fill="#F2B58C" d="M228.8,309.5c-0.7-6.1,2.3-11.4,6.7-11.9c1.8-0.2,3.5,0.4,5,1.6c6.3-9.6,5.6-26.1,37.8-25.6
					c33.5,0.6,32.9,20,37.3,31.2c2.3-1.8,4.9-2.5,7.3-1.6c4.1,1.6,5.7,7.5,3.5,13.2c-2.2,5.7-7.3,9.1-11.4,7.5
					c-0.6-0.2-1.2-0.6-1.7-1c-6.5,9.3-20.9,15.4-37.4,14.6c-16.7-0.8-30.7-8.3-36.1-18.4c-0.5,0.2-1.1,0.4-1.7,0.4
					C233.6,320.1,229.5,315.6,228.8,309.5z"/>
				<g>
					
						<ellipse transform="matrix(0.2557 0.9668 -0.9668 0.2557 504.1161 -53.6384)" fill="#351F10" cx="286.9" cy="300.6" rx="3.5" ry="3.6"/>
					
						<ellipse transform="matrix(0.2557 0.9668 -0.9668 0.2557 483.721 -26.2295)" fill="#351F10" cx="258.9" cy="301" rx="3.5" ry="3.6"/>
				</g>
				<path fill="#351F10" d="M248.4,321.2c3.1,2.4,8.2,2.7,10.9-5.5c2.7-8.2,14.5-2.2,14.5-2.2l0,0.2l0-0.2c0,0,11.8-6,14.5,2.2
					c2.7,8.2,7.7,8,10.9,5.5c3.1-2.4-9.9,15.3-25.4,0.2C258.3,336.5,245.3,318.8,248.4,321.2z"/>
			</g>
			<path fill="#F2B58C" d="M247.2,359.1L191,343.6l54.6-3.5l27.6-6.1l27.8,7.9l14.4,38.2l23.9-21.1l-26.3,38.4l-11.7-18l-0.8,50.3
				l-10.2,97.4l17.3,12.8l-26.2-1.4V525c0,0-8.5-91-8.5-89.3c0,1.7,0,102.4,0,102.4l-29.5-0.3l17.4-10.5l-15.3-96.6L247.2,359.1z"/>
			<path fill="#AF3C3C" d="M245.6,340.1l6.7,0.2c0.8,10.3,38.7,11,40.2,1.3l8.5,0.3l13.8,36.9c-0.9,5.4-2.3,10.7-3.7,15.9l-9.9-15.3
				l-0.8,49c-18.3-1.3-38-2.9-56.3-3.7l1-67.1c0,0-21.1-3.3-23.2-4.9c-0.8-0.7,3-12,2.1-12.6L245.6,340.1z"/>
			<path fill="#017396" d="M244,423.4c16.9,0.7,36.5,2.3,56.2,3.7l-8.6,100.1l15.9,12.8l-26.2-1.4V525c0,0-8.5-91-8.5-89.3
				c0,1.7,0,102.4,0,102.4l-29.5-0.3l17.4-10.5L244,423.4z"/>
			<polygon fill="#161C1E" points="291.7,526.2 291.6,527.1 307.5,540 281.3,538.5 281.3,526.2 			"/>
			<path fill="#161C1E" d="M260.5,526.2h12.3c0,7.3,0,11.9,0,11.9l-29.5-0.3l17.4-10.5L260.5,526.2z"/>
			<g>
				<path fill="#351F10" d="M139.5,285.2c3.5-11.4,7.5-14.9,18.1-20c7.5-3.5,13.8-7.7,18-15c17.9,13.7,41,29.4,41.3,54.7l-78,9.8
					C135.6,305.1,136.5,295.1,139.5,285.2z"/>
				<g>
					<g>
						<path fill="#F2B58C" d="M224.8,314c0.6-5.7-2.2-10.7-6.3-11.2c-1.7-0.2-3.3,0.4-4.7,1.5c-5.9-9-5.2-24.6-35.6-24.1
							c-31.6,0.5-30.9,18.8-35.1,29.4c-2.1-1.7-4.7-2.4-6.9-1.5c-3.9,1.5-5.4,7-3.3,12.4c2.1,5.4,6.9,8.5,10.7,7.1
							c0.6-0.2,1.1-0.6,1.6-1c6.1,8.7,19.7,14.5,35.2,13.7c15.7-0.7,28.9-7.8,34-17.3c0.5,0.2,1,0.4,1.6,0.4
							C220.3,324,224.2,319.7,224.8,314z"/>
						<g>
							
								<ellipse transform="matrix(0.2558 -0.9667 0.9667 0.2558 -175.2162 383.4488)" fill="#351F10" cx="161.4" cy="305.5" rx="3.3" ry="3.4"/>
							
								<ellipse transform="matrix(0.2557 -0.9668 0.9668 0.2557 -156.0314 409.3552)" fill="#351F10" cx="187.8" cy="306" rx="3.3" ry="3.4"/>
						</g>
					</g>
					<path fill="#F2B58C" d="M206.4,356.3l56.2-15.5l-54.6-3.5l-55.3,1.8l-14.4,38.2L124.9,436l18-38.2l9.5-21.1l0.8,50.3l10.2,103
						l-17.3,12.8l26.2-1.4v-13.6c0,0,8.5-96.7,8.5-94.9c0,1.7,0,108.1,0,108.1l29.5-0.3l-17.4-10.5l15.3-102.2L206.4,356.3z"/>
					<path fill="#1E46C4" d="M208,337.3l-6.7,0.2c-0.8,10.3-38.7,11-40.2,1.3l-8.5,0.3l-13.8,36.9c0.9,5.4,3.8,12,5.2,17.3l8.4-16.6
						l0.8,49c18.3-1.3,38-2.9,56.3-3.7l-1-67.1c0,0,21.1-3.3,23.2-4.9c0.8-0.7-3-12-2.1-12.6L208,337.3z"/>
					<path fill="#161C1E" d="M209.6,420.5c-16.9,0.7-36.5,2.3-56.2,3.7l8.6,105.7l-15.9,12.8l26.2-1.4v-13.6c0,0,8.5-96.7,8.5-94.9
						c0,1.7,0,108.1,0,108.1l29.5-0.3l-17.4-10.5L209.6,420.5z"/>
					<polygon fill="#161C1E" points="161.9,529 162,529.9 146.1,542.8 172.3,541.4 172.3,529 					"/>
					<path fill="#161C1E" d="M193.1,529h-12.3c0,7.3,0,11.9,0,11.9l29.5-0.3l-17.4-10.5L193.1,529z"/>
				</g>
			</g>
			<path fill="#FFC23B" d="M338.8,343.6v6.3c-4.1,1.5-9.6,5.8-8.6,14.8c0.8,6.5,4.8,10.4,8.6,12.6v7.1h26.4v-40.7H338.8z M337,363.9
				c-0.4-3.1,0.6-5,1.7-6.1v10.6C337.9,367.2,337.2,365.8,337,363.9z"/>
		</g>
	</g>
	<g>
		<path fill="#FFC23B" d="M47.1,424c-5.8-7.7-10.6-11-14.8-9.9c-4.9,1.3-7.3,8.5-8.4,15.1l-10.7,2.4l6.6,74.2l65.6-14.1l-26.9-70.2
			L47.1,424z M27.5,428.4c1.1-5.5,2.9-10.2,5.6-11c1.6-0.4,4.8,0.3,10.3,7.4L27.5,428.4z"/>
		<polygon fill="#FC8F00" points="-66.6,491.4 -119.7,461.4 -85.4,409.2 -46,426.3 		"/>
		<g>
			<g>
				<g>
					<polygon fill="#F2B58C" points="-15.1,541.3 -11.7,420.2 -7.4,540.8 -2.3,540.8 4.6,396.5 -26.2,396.5 -21.1,541.3 					"/>
					<polygon fill="#017396" points="-13.5,541.3 -15.1,531.5 -19.4,529.8 -35.1,541.3 					"/>
					<polygon fill="#017396" points="13.8,541.3 -3.1,529.8 -7.4,531.5 -9.1,541.3 					"/>
				</g>
				<path fill="#351F10" d="M-22.3,270c-23.8,6.1-51.9,25.4-44.5,59.9c9,41.9,79.3,45.5,107.9,15.3c19.9-21-5-53.9-23.6-66.9
					C3.9,268.8-9.9,266.8-22.3,270z"/>
				<path fill="#F2B58C" d="M6.3,346.7c8.1-2.2,14.9-6.1,19.5-11c2.7,0,6.1-2.9,8.2-7.3c2.5-5.2,2.1-10.5-0.7-11.8
					c-0.7-0.3-6.5-0.4-7.3-0.2c-3.6-12.7-20.5-22.2-40.7-22.2c-18.1,0-28.3,7.6-33.9,18.3c-1-0.8-2.1-1.2-3.2-1
					c-3.2,0.5-5,5.3-4.2,10.8c0.8,5.5,4,9.6,7.2,9.1c0.2,0,0.4-0.1,0.5-0.1c3.9,6.8,11.8,12.3,21.8,15.3l-26.3,72.2l26.8-51
					l29.5-3.4l29.3,55.2L6.3,346.7z"/>
				<path fill="#1CC6AA" d="M-21.5,402.4l-6.2-41.6c0,0,11.4-7.2,15.5-7.2c4.6-0.1,17.4,7.2,17.4,7.2l-7,41.4L-21.5,402.4z"/>
				<ellipse fill="#351F10" cx="-31.1" cy="317.4" rx="3.7" ry="3.9"/>
				<ellipse fill="#351F10" cx="-5.2" cy="319.2" rx="3.7" ry="3.9"/>
				<path fill="#1CC6AA" d="M-62.2,477.6c0,0,5.1-77.6,53.6-76.2c42.4,1.2,56,71.1,56,71.1S13.1,496.2-62.2,477.6z"/>
				<rect x="-26.2" y="393.3" fill="#017396" width="30.8" height="11.8"/>
				<path fill="#FFFFFF" d="M24.3,300.5c2-1.3,8.1-6.2,4.8-8.7c-2.6-2-9.4,3.6-9,5.8c0-2.9-1-9.4-4.9-7.2c-2.8,1.6-1.5,9.1,0.3,11.3
					c-2-3.2-9.9-2.8-10.6,0.5c-1.1,5.8,7.9,6,11.5,4c-2.4,2.8-6,7.4-2.5,9.8c0.3,0.2,3.8,0.3,4.3,0c1.1-0.6,2.1-2.3,2.5-3.9
					c0.3,2.6,1.6,5.7,4,5.4c5-0.6,3.2-9.8,1.4-12c2.4,2.2,7,1.9,7.7-1.2C34.7,299.1,27.7,298.2,24.3,300.5z"/>
			</g>
		</g>
		<path fill="#D8D32B" d="M-46.5,432.1c-0.2-9.6-2.3-15.1-6.4-16.6c-4.8-1.8-10.9,2.7-15.6,7.4l-10.1-4.3l-37.7,64.2l61.7,26.5
			l18.8-72.8L-46.5,432.1z M-65,424.3c4-3.8,8.3-6.7,11-5.7c1.5,0.6,3.7,3,4.1,12L-65,424.3z"/>
	</g>
</g>
</svg>
