<svg xmlns="http://www.w3.org/2000/svg" xmlns:xlink="http://www.w3.org/1999/xlink" width="486" height="376" viewBox="0 0 486 376"><defs><path id="a" d="M0 2h486v374H0z"/></defs><clipPath id="b"><use xlink:href="#a" overflow="visible"/></clipPath><g clip-path="url(#b)"><path fill="#FFF" d="M180.804 190.1l7.724 7.388L133.45 252.9l-6.716-6.38"/><path fill="#F15D4A" d="M126.734 246.52l6.717 6.38-30.896 30.226 12.426 12.76-5.373 13.77-40.972-41.307 17.128-13.435 15.448 15.113"/><path fill="#FFF" d="M76.36 274.058s-7.39 15.357 7.052 28.377l11.753-9.014L76.36 274.06z"/><g><defs><path id="c" d="M42.188-25.758h403v403h-403z"/></defs><clipPath id="d"><use xlink:href="#c" overflow="visible"/></clipPath><g clip-path="url(#d)"><path fill="#7DCED1" d="M319.21 321.916c-4.21 0-8.54-.203-12.984-.61-19.47-1.784-34.557-9.79-46.12-24.48-9.608-12.21-14.905-26.632-19.577-39.353-3.984-10.85-7.747-21.095-12.42-23.752-4.75-2.694-9.01-3.364-13.024-2.046-8.757 2.88-13.98 14.142-14.03 14.255-1.472 3.303-5.343 4.79-8.647 3.317-3.305-1.47-4.79-5.34-3.32-8.646.302-.677 7.555-16.648 21.904-21.368 7.617-2.503 15.55-1.46 23.583 3.103 8.846 5.024 13.202 16.887 18.246 30.622 4.336 11.808 9.25 25.19 17.576 35.77 9.217 11.71 21.325 18.1 37.02 19.536 26.72 2.447 48.386-3.246 64.395-16.927 12.635-10.79 21.95-26.604 27.695-46.995 4.74-16.83 5.75-32.208 6.234-39.598l.02-.288c.367-5.628-.07-16.016-1.905-25.52-2.274-11.772-5.785-17.406-8.314-18.754-3.19-1.7-4.4-5.667-2.698-8.86 1.7-3.19 5.666-4.4 8.858-2.698 7.13 3.8 12.183 13.164 15.015 27.828 2.066 10.703 2.55 22.208 2.112 28.864l-.02.285c-.513 7.836-1.583 24.142-6.695 42.29-6.457 22.933-17.155 40.9-31.792 53.408-16.05 13.706-36.563 20.617-61.114 20.618z"/></g><defs><path id="e" d="M42.188-25.758h403v403h-403z"/></defs><clipPath id="f"><use xlink:href="#e" overflow="visible"/></clipPath><g clip-path="url(#f)"><path fill="#FFF" d="M318.3 265.63c-7.75 0-15.987-1.586-24.6-4.745-6.45-2.364-13.726-8.492-22.94-16.255-19.827-16.703-44.506-37.487-66.145-24.64-3.11 1.846-7.127.82-8.974-2.288-1.845-3.11-.82-7.13 2.29-8.976 13.208-7.84 28.338-7.777 44.967.185 13.417 6.424 26.105 17.114 36.303 25.703 7.573 6.38 14.725 12.403 19.01 13.974 26.2 9.606 39.2-.904 42.562-4.355 3.852-3.953 4.613-7.707 4.165-8.84-1.334-3.362.31-7.168 3.674-8.5 3.363-1.334 7.168.31 8.502 3.673 2.682 6.766-.05 15.718-6.958 22.807-3.957 4.063-11.04 9.34-22.296 11.405-3.094.57-6.284.853-9.558.853z"/></g><defs><path id="g" d="M42.188-25.758h403v403h-403z"/></defs><clipPath id="h"><use xlink:href="#g" overflow="visible"/></clipPath><g clip-path="url(#h)"><path fill="#F99F38" d="M186.305 210.063c-.688 0-1.388-.11-2.076-.34-3.43-1.146-5.284-4.855-4.138-8.286 6.256-18.73 38.334-24.306 72.298-30.208 25.743-4.475 57.777-10.043 62.623-21.274 1.447-3.355.264-7.955-3.515-13.67-6.86-10.37-18.964-14.53-30.666-18.553-12.306-4.23-25.025-8.602-29.71-20.673-2.196-5.653-2.174-11.22.06-16.104 4.023-8.794 13.882-13.158 20.95-15.675 8.936-3.183 31.885-5.998 54.564-6.692 36.284-1.11 52.504 3.238 59.725 7.082 3.193 1.7 4.404 5.665 2.704 8.858-1.7 3.192-5.665 4.403-8.857 2.703-7.985-4.25-27.86-6.323-53.17-5.55-23.213.71-43.942 3.577-50.572 5.938-7.462 2.66-11.982 5.616-13.435 8.788-.476 1.043-.973 2.792.24 5.914 2.486 6.4 11.417 9.47 21.757 13.026 13.132 4.514 28.018 9.63 37.332 23.714 6.372 9.634 7.926 18.41 4.617 26.082-7.65 17.734-39.104 23.2-72.406 28.99-15.084 2.62-30.68 5.332-42.54 9.1-7.884 2.508-17.683 6.686-19.576 12.352-.913 2.745-3.47 4.48-6.21 4.48z"/></g><defs><path id="i" d="M42.188-25.758h403v403h-403z"/></defs><clipPath id="j"><use xlink:href="#i" overflow="visible"/></clipPath><g clip-path="url(#j)"><path fill="#AFC037" d="M140.96 172.282c-3.286 0-6.12-2.47-6.498-5.813-.34-3.003 1.408-5.76 4.09-6.824 1.486-3.927.72-17.59-2.657-24.194-3.075-6.012-8.883-10.503-15.032-15.256-4.06-3.14-8.257-6.384-11.893-10.26-14.83-15.807-19.174-45.806-2.007-65.265 11.584-13.13 27.304-16.175 38.452-16.416 12.25-.266 25.163 2.785 33.705 7.962 3.093 1.875 4.08 5.902 2.207 8.994-1.875 3.094-5.902 4.082-8.995 2.207-5.27-3.194-15.555-6.318-26.633-6.07-8.53.186-20.47 2.416-28.916 11.988-9.846 11.16-11.554 33.47 1.738 47.64 2.92 3.114 6.53 5.904 10.35 8.86 7.018 5.424 14.274 11.033 18.683 19.65 4.238 8.288 7.124 27.867 2.27 36.903-2.452 4.57-6.14 5.628-8.12 5.85-.25.03-.498.044-.744.044z"/></g><defs><path id="k" d="M42.188-25.758h403v403h-403z"/></defs><clipPath id="l"><use xlink:href="#k" overflow="visible"/></clipPath><g clip-path="url(#l)"><path fill="#002738" d="M158.125 186.006c-.99 0-1.995-.225-2.94-.7-3.23-1.628-4.53-5.566-2.903-8.795.55-1.095 1.154-2.302 1.808-3.613 7.213-14.456 20.64-41.366 38.81-64.41 37-46.923 70.33-63.284 82.942-68.14 3.376-1.297 7.164.385 8.463 3.76 1.3 3.375-.382 7.165-3.757 8.464-11.605 4.468-42.372 19.65-77.363 64.028-17.336 21.986-30.372 48.112-37.375 62.147-.662 1.326-1.27 2.55-1.83 3.658-1.15 2.284-3.46 3.603-5.855 3.603z"/></g><g><defs><path id="m" d="M42.188-25.758h403v403h-403z"/></defs><clipPath id="n"><use xlink:href="#m" overflow="visible"/></clipPath><g clip-path="url(#n)"><path fill="#F15D4A" d="M151.042 223.16c-.82 0-1.653-.155-2.46-.482-3.352-1.36-4.966-5.18-3.606-8.53 14.222-35.06 40.05-57.45 59.214-70.06 23.455-15.433 50.188-24.666 71.517-24.698h.01c3.612 0 6.543 2.926 6.55 6.54.004 3.616-2.923 6.552-6.54 6.557-18.877.03-42.928 8.457-64.336 22.543-17.61 11.588-41.32 32.105-54.276 64.04-1.034 2.546-3.486 4.09-6.072 4.09z"/></g></g><g><defs><path id="o" d="M42.188-25.758h403v403h-403z"/></defs><clipPath id="p"><use xlink:href="#o" overflow="visible"/></clipPath><g clip-path="url(#p)"><path fill="#7DCED1" d="M172.263 289.33c11.015 3.87 16.805 15.938 12.934 26.953l-4.91 13.962c-3.87 11.015-15.938 16.805-26.955 12.933l-7.09-2.493c-11.015-3.87-16.058-9.347-16.92-28.948-.2-4.547-.075-14.956-.075-14.956 3.872-11.014 24.91-13.814 35.924-9.94l7.093 2.49z"/><path fill="#FFF" d="M133.257 277.44s31.39 34.38 68.016 32.637"/><path fill="#EF3924" d="M208.745 317.554c-1.794 1.796-4.235 2.952-6.97 3.08-41.11 1.96-74.906-34.514-76.323-36.067-3.936-4.312-3.613-11.015.678-14.934 4.31-3.934 10.988-3.632 14.926.67.478.517 28.716 30.69 59.715 29.215 5.83-.277 10.783 4.226 11.06 10.055.148 3.1-1.053 5.948-3.085 7.98z"/><path fill="#16BDC4" d="M164.732 270.877c2.2 2.203 2.2 5.77 0 7.973l-15.28 15.28c-2.202 2.202-5.77 2.202-7.973 0-2.202-2.2-2.202-5.77 0-7.972l15.28-15.28c2.2-2.2 5.77-2.2 7.972 0zM188.65 294.796c2.202 2.202 2.202 5.77 0 7.973l-15.28 15.28c-2.2 2.2-5.77 2.2-7.973 0-2.202-2.2-2.202-5.772 0-7.974l15.28-15.28c2.2-2.2 5.772-2.2 7.973 0zM175.197 276.36c2.2 2.2 2.2 5.77 0 7.97l-21.26 21.26c-2.202 2.2-5.77 2.2-7.973 0-2.2-2.202-2.2-5.77 0-7.972l21.26-21.258c2.2-2.2 5.77-2.2 7.973 0z"/><path fill="#16BDC4" d="M183.168 284.33c2.2 2.203 2.2 5.772 0 7.974l-21.26 21.26c-2.2 2.2-5.77 2.2-7.972 0-2.202-2.2-2.202-5.77 0-7.972l21.26-21.26c2.202-2.202 5.772-2.202 7.972 0z"/><path fill="#7DCED1" d="M161.998 291c.606 3.053-1.377 6.02-4.43 6.627l-21.194 4.214c-3.055.607-6.022-1.376-6.63-4.43-.605-3.054 1.377-6.02 4.43-6.628l21.195-4.214c3.053-.604 6.02 1.378 6.628 4.43z"/><g><path fill="#FFF" d="M72.218 272.043c-5.32 5.32-1.863 17.402 7.723 26.99l9.635-9.635-17.357-17.355z"/><path fill="#F15D4A" d="M99.208 279.766l30.562-30.562-17.357-17.355-3.82-3.822-40.195 40.194 3.82 3.82c5.322-5.32 17.405-1.863 26.99 7.724z"/><path fill="#F15D4A" d="M99.208 279.766c-9.585-9.587-21.67-13.045-26.99-7.723l17.356 17.355 9.634-9.632z"/><path fill="#FFF" d="M185.08 193.895l-43.268-43.27c-1.927-1.924-5.05-1.923-6.977 0-1.926 1.928-1.927 5.05 0 6.98l1.744 1.743-24.168 72.5 17.357 17.355 55.31-55.308z"/><path fill="#F0EFEF" d="M106.93 306.756L89.576 289.4l-9.634 9.633c9.588 9.587 21.67 13.043 26.99 7.723z"/><path fill="#F04A3D" d="M99.208 279.766c9.587 9.586 13.043 21.67 7.722 26.99l3.82 3.82 40.196-40.194-3.82-3.82-17.357-17.357-30.562 30.56z"/><path fill="#E63E38" d="M99.208 279.766l-9.634 9.633 17.356 17.356c5.322-5.32 1.865-17.404-7.722-26.99z"/><path fill="#F0EFEF" d="M147.126 266.56l72.5-24.167 1.744 1.743c1.926 1.928 5.05 1.927 6.976 0 1.927-1.924 1.927-5.048 0-6.977l-43.267-43.267-55.31 55.31 17.356 17.358z"/></g></g></g><g><defs><path id="q" d="M42.188-25.758h403v403h-403z"/></defs><clipPath id="r"><use xlink:href="#q" overflow="visible"/></clipPath><g clip-path="url(#r)"><circle fill="#076C88" cx="206.004" cy="47.619" r="31.438"/><path fill="#F3AC45" d="M212.306 54.274c-5.407 4.218-13.208 3.253-17.426-2.154-4.218-5.407-3.25-13.21 2.154-17.427 5.407-4.218 13.21-3.252 17.427 2.154 4.218 5.406 3.253 13.21-2.154 17.427zm-.003-15.743c-3.288-4.214-9.37-4.965-13.584-1.678-4.218 3.287-4.97 9.37-1.682 13.584 3.288 4.215 9.37 4.966 13.584 1.68 4.215-3.288 4.968-9.37 1.68-13.585zm-.003 16.513l.753-.585c.62-.486 1.52-.375 2.003.247l2.143 2.724-3.007 2.345-2.14-2.726c-.487-.622-.375-1.52.247-2.007zm6.904 7.24l-.754.586c-.62.485-1.52.375-2.004-.248l-1.432-1.842 3.005-2.344 1.432 1.842c.484.622.374 1.52-.248 2.004zm-8.134-20.824c-.075.03-.15.05-.23.057-.348.035-.692-.16-.833-.5-.598-1.42-1.437-2.048-2.276-2.39-.84-.335-1.707-.328-2.182-.276-.184.02-.31.044-.347.052l-.01.002c-.437.104-.876-.164-.98-.602-.106-.437.165-.878.603-.982.027-.006.233-.055.568-.09.64-.064 1.753-.09 2.948.38 1.194.465 2.445 1.48 3.184 3.286.17.416-.027.892-.442 1.063zm-.72 1.782c-.05-.48.298-.907.777-.957.478-.05.908.298.957.778.05.48-.3.906-.778.957-.478.048-.908-.3-.957-.778z"/></g></g><g><defs><path id="s" d="M42.188-25.758h403v403h-403z"/></defs><clipPath id="t"><use xlink:href="#s" overflow="visible"/></clipPath><g clip-path="url(#t)"><circle fill="#076C88" cx="295.974" cy="37.158" r="31.438"/><path fill="#AFC037" d="M302.37 35.83l9.85-8.426V46.59l-9.85-10.76zm-22.642-8.49v19.754l10.447-11.17-10.447-8.584zm31.128-1.14h-29.68l15.14 12.438 14.54-12.437zM301 37l-4.086 3.496-.57.493-.587-.482-4.186-3.438-10.33 11.044h29.934L301 37z"/></g></g><g><defs><path id="u" d="M42.188-25.758h403v403h-403z"/></defs><clipPath id="v"><use xlink:href="#u" overflow="visible"/></clipPath><g clip-path="url(#v)"><circle fill="#076C88" cx="386.337" cy="52.139" r="31.438"/><path fill="#F15D4A" d="M402.294 64.174H371.57c-1.035 0-1.877.84-1.877 1.877 0 1.036.842 1.876 1.877 1.876h30.724c1.037 0 1.88-.84 1.88-1.875 0-1.037-.844-1.876-1.88-1.876zM372.58 66.88c-.46 0-.83-.37-.83-.825 0-.455.37-.822.83-.822.448 0 .82.367.82.822 0 .456-.372.825-.82.825zm2.658 0c-.458 0-.823-.37-.823-.825 0-.455.365-.822.823-.822.453 0 .824.367.824.822 0 .456-.37.825-.824.825zm-2.618-3.736h28.266c1.66 0 3.007-1.343 3.007-3.003V39.514c0-1.66-1.346-3.004-3.007-3.004H372.62c-1.658 0-3.004 1.343-3.006 3.003V60.14c.002 1.66 1.348 3.004 3.006 3.004zm-.813-23.63c0-.45.362-.812.813-.812h28.266c.45 0 .814.36.814.81V60.14c0 .45-.364.81-.814.81H372.62c-.45 0-.813-.36-.813-.81V39.513z"/></g></g><g><defs><path id="w" d="M42.188-25.758h403v403h-403z"/></defs><clipPath id="x"><use xlink:href="#w" overflow="visible"/></clipPath><g clip-path="url(#x)"><circle fill="#034960" cx="378.481" cy="134.578" r="31.438"/><path fill="#3CBFE3" d="M392.085 132.114c-.094-1.47-.402-2.89-.946-4.252h.103l-.694-1.332-.257-.496h-.042c-2.364-4.134-6.597-6.763-11.323-7.068v-.066h-1.82v.066c-4.73.306-8.954 2.935-11.32 7.068h-.043l-.256.496-.69 1.332h.094c-.54 1.363-.844 2.782-.938 4.252h-.06v1.82h.06c.095 1.463.4 2.89.938 4.252h-.095l.69 1.332.257.49h.042c2.367 4.14 6.592 6.77 11.322 7.076v.058h1.82v-.058c4.726-.307 8.958-2.936 11.323-7.077h.043l.256-.49.693-1.33h-.104c.543-1.363.852-2.79.945-4.253h.05v-1.82h-.05zm-19.268-10.105c-.793 1.09-1.462 2.46-1.98 4.023h-2.796c1.24-1.768 2.87-3.123 4.777-4.024zm-5.905 5.85h3.416c-.313 1.363-.494 2.783-.548 4.253h-3.954c.112-1.477.46-2.905 1.086-4.252zm0 10.327c-.625-1.354-.975-2.78-1.086-4.252h3.954c.054 1.463.235 2.89.548 4.252h-3.416zm1.13 1.82h2.797c.516 1.572 1.185 2.934 1.978 4.026-1.91-.893-3.54-2.256-4.776-4.026zm9.064 5.07c-1.71-.503-3.253-2.33-4.29-5.068h4.29v5.066zm0-6.89h-4.83c-.34-1.354-.513-2.78-.578-4.252h5.408v4.252zm0-6.073h-5.408c.065-1.47.24-2.907.58-4.252h4.828v4.252zm0-6.08h-4.29c1.037-2.73 2.58-4.566 4.29-5.067v5.066zm10.887 0h-2.804c-.518-1.564-1.18-2.935-1.975-4.025 1.902.9 3.54 2.255 4.778 4.023zm-9.067-5.067c1.707.5 3.257 2.335 4.29 5.066h-4.29v-5.066zm0 6.894h4.83c.34 1.347.518 2.783.575 4.253h-5.404v-4.252zm0 6.074h5.405c-.057 1.47-.233 2.9-.575 4.252h-4.83v-4.252zm0 11.142v-5.067h4.29c-1.033 2.736-2.583 4.563-4.29 5.066zm4.29-1.042c.794-1.092 1.457-2.454 1.974-4.026h2.804c-1.24 1.77-2.877 3.132-4.778 4.026zm5.896-5.847h-3.406c.313-1.362.488-2.79.546-4.252h3.955c-.108 1.47-.462 2.9-1.095 4.252zm-2.86-6.073c-.058-1.47-.233-2.89-.546-4.252h3.406c.634 1.346.986 2.774 1.095 4.252h-3.955z"/></g></g><g><defs><path id="y" d="M42.188-25.758h403v403h-403z"/></defs><clipPath id="z"><use xlink:href="#y" overflow="visible"/></clipPath><g clip-path="url(#z)"><circle fill="#034960" cx="285.516" cy="117.494" r="31.439"/></g><g><defs><path id="A" d="M42.188-25.758h403v403h-403z"/></defs><clipPath id="B"><use xlink:href="#A" overflow="visible"/></clipPath><path clip-path="url(#B)" fill="#E8D51F" d="M295.297 109.377c-5.023-5.097-11.123-7.57-18.228-7.57-.697 0-1.317.233-1.858.772-.462.54-.773 1.082-.696 1.854-.077.696.234 1.392.696 1.856.54.462 1.16.77 1.857.77 5.71 0 10.502 2.01 14.517 6.026 4.017 3.94 6.027 8.728 6.027 14.444-.076.695.23 1.313.693 1.854.542.465 1.158.774 1.854.774.774 0 1.392-.308 1.857-.774.54-.54.77-1.16.77-1.854.003-7.183-2.47-13.21-7.49-18.153zM277.07 111c-.697 0-1.317.232-1.856.772-.464.464-.775 1.082-.697 1.855-.078.693.233 1.312.697 1.854.54.463 1.16.695 1.855.695 3.164 0 5.79 1.16 8.032 3.32 2.162 2.24 3.32 4.87 3.32 8.035 0 .695.232 1.313.772 1.854.462.465 1.078.774 1.853.774.695 0 1.314-.308 1.855-.774.464-.54.695-1.16.695-1.854 0-4.634-1.622-8.497-4.79-11.742-3.244-3.166-7.106-4.788-11.738-4.788zm1.85 9.81h-.153c-1.234 0-2.24.463-3.165 1.313-.85.926-1.316 2.01-1.316 3.324 0 1.235.466 2.393 1.316 3.242.924.926 2.007 1.392 3.317 1.392 1.238 0 2.396-.465 3.245-1.393.85-.85 1.39-2.008 1.39-3.243 0-1.314-.54-2.397-1.39-3.324-.85-.85-2.007-1.312-3.246-1.312z"/></g></g><g><defs><path id="C" d="M42.188-25.758h403v403h-403z"/></defs><clipPath id="D"><use xlink:href="#C" overflow="visible"/></clipPath><g clip-path="url(#D)"><circle fill="#034960" cx="338.036" cy="209.504" r="31.438"/></g></g><g><defs><path id="E" d="M42.188-25.758h403v403h-403z"/></defs><clipPath id="F"><use xlink:href="#E" overflow="visible"/></clipPath><path clip-path="url(#F)" fill="#7DCED1" d="M135.233 333.84l-55.586 59.325h49.562l28.92-48.786"/></g><g><path fill="#F26D7A" d="M344.918 194.645h-13.542c-1.127 0-2.05.924-2.05 2.05v26.27c0 1.126.923 2.05 2.05 2.05h13.542c1.126 0 2.05-.924 2.05-2.05v-26.27c0-1.127-.924-2.05-2.05-2.05zm-8.938 1.478h4.33c.14 0 .25.11.25.25 0 .136-.11.245-.25.245h-4.33c-.14 0-.25-.11-.25-.245 0-.14.112-.25.25-.25zm2.167 27.866c-.568 0-1.027-.46-1.027-1.027 0-.568.46-1.025 1.027-1.025s1.025.457 1.025 1.025c0 .567-.457 1.026-1.025 1.026zm7.393-2.773h-14.787V197.9h14.787v23.317z"/></g></g></g></svg>