<svg xmlns="http://www.w3.org/2000/svg" xmlns:xlink="http://www.w3.org/1999/xlink" viewBox="251 208 486 376"><defs><path id="a" d="M292.5 179.5h403v403h-403z"/></defs><clipPath id="b"><use xlink:href="#a" overflow="visible"/></clipPath><g clip-path="url(#b)"><path fill="#69E2DE" d="M569.5 527.2c-4.2 0-8.5-.2-13-.6-19.5-1.8-34.6-9.8-46.1-24.5-9.6-12.2-14.9-26.6-19.6-39.4-4-10.8-7.7-21.1-12.4-23.7-4.7-2.7-9-3.4-13-2-8.8 2.9-14 14.1-14 14.3-1.5 3.3-5.3 4.8-8.6 3.3s-4.8-5.3-3.3-8.6c.3-.7 7.6-16.7 21.9-21.4 7.6-2.5 15.6-1.5 23.6 3.1 8.8 5 13.2 16.9 18.2 30.6 4.3 11.8 9.3 25.2 17.6 35.8 9.2 11.7 21.3 18.1 37 19.5 26.7 2.4 48.4-3.2 64.4-16.9 12.6-10.8 22-26.6 27.7-47 4.7-16.8 5.7-32.2 6.2-39.6v-.3c.4-5.6-.1-16-1.9-25.5-2.3-11.8-5.8-17.4-8.3-18.8-3.2-1.7-4.4-5.7-2.7-8.9 1.7-3.2 5.7-4.4 8.9-2.7 7.1 3.8 12.2 13.2 15 27.8 2.1 10.7 2.6 22.2 2.1 28.9v.3c-.5 7.8-1.6 24.1-6.7 42.3-6.5 22.9-17.2 40.9-31.8 53.4-16.1 13.7-36.6 20.6-61.2 20.6z"/></g><defs><path id="c" d="M292.5 179.5h403v403h-403z"/></defs><clipPath id="d"><use xlink:href="#c" overflow="visible"/></clipPath><g clip-path="url(#d)"><path fill="#FFF" d="M568.6 470.9c-7.8 0-16-1.6-24.6-4.7-6.4-2.4-13.7-8.5-22.9-16.3-19.8-16.7-44.5-37.5-66.1-24.6-3.1 1.8-7.1.8-9-2.3-1.8-3.1-.8-7.1 2.3-9 13.2-7.8 28.3-7.8 45 .2 13.4 6.4 26.1 17.1 36.3 25.7 7.6 6.4 14.7 12.4 19 14 26.2 9.6 39.2-.9 42.6-4.4 3.9-4 4.6-7.7 4.2-8.8-1.3-3.4.3-7.2 3.7-8.5 3.4-1.3 7.2.3 8.5 3.7 2.7 6.8 0 15.7-7 22.8-4 4.1-11 9.3-22.3 11.4-3.2.5-6.4.8-9.7.8z"/></g><defs><path id="e" d="M292.5 179.5h403v403h-403z"/></defs><clipPath id="f"><use xlink:href="#e" overflow="visible"/></clipPath><g clip-path="url(#f)"><path fill="#FFA033" d="M436.6 415.3c-.7 0-1.4-.1-2.1-.3-3.4-1.1-5.3-4.9-4.1-8.3 6.3-18.7 38.3-24.3 72.3-30.2 25.7-4.5 57.8-10 62.6-21.3 1.4-3.4.3-8-3.5-13.7-6.9-10.4-19-14.5-30.7-18.6-12.3-4.2-25-8.6-29.7-20.7-2.2-5.7-2.2-11.2.1-16.1 4-8.8 13.9-13.2 20.9-15.7 8.9-3.2 31.9-6 54.6-6.7 36.3-1.1 52.5 3.2 59.7 7.1 3.2 1.7 4.4 5.7 2.7 8.9-1.7 3.2-5.7 4.4-8.9 2.7-8-4.3-27.9-6.3-53.2-5.6-23.2.7-43.9 3.6-50.6 5.9-7.5 2.7-12 5.6-13.4 8.8-.5 1-1 2.8.2 5.9 2.5 6.4 11.4 9.5 21.8 13 13.1 4.5 28 9.6 37.3 23.7 6.4 9.6 7.9 18.4 4.6 26.1-7.6 17.7-39.1 23.2-72.4 29-15.1 2.6-30.7 5.3-42.5 9.1-7.9 2.5-17.7 6.7-19.6 12.4-.8 2.9-3.3 4.6-6.1 4.6z"/></g><defs><path id="g" d="M292.5 179.5h403v403h-403z"/></defs><clipPath id="h"><use xlink:href="#g" overflow="visible"/></clipPath><g clip-path="url(#h)"><path fill="#AFC01D" d="M391.3 377.5c-3.3 0-6.1-2.5-6.5-5.8-.3-3 1.4-5.8 4.1-6.8 1.5-3.9.7-17.6-2.7-24.2-3.1-6-8.9-10.5-15-15.3-4.1-3.1-8.3-6.4-11.9-10.3-14.8-15.8-19.2-45.8-2-65.3 11.6-13.1 27.3-16.2 38.5-16.4 12.2-.3 25.2 2.8 33.7 8 3.1 1.9 4.1 5.9 2.2 9-1.9 3.1-5.9 4.1-9 2.2-5.3-3.2-15.6-6.3-26.6-6.1-8.5.2-20.5 2.4-28.9 12-9.8 11.2-11.6 33.5 1.7 47.6 2.9 3.1 6.5 5.9 10.4 8.9 7 5.4 14.3 11 18.7 19.7 4.2 8.3 7.1 27.9 2.3 36.9-2.5 4.6-6.1 5.6-8.1 5.9h-.9z"/></g><defs><path id="i" d="M292.5 179.5h403v403h-403z"/></defs><clipPath id="j"><use xlink:href="#i" overflow="visible"/></clipPath><g clip-path="url(#j)"><path fill="#002738" d="M408.4 391.3c-1 0-2-.2-2.9-.7-3.2-1.6-4.5-5.6-2.9-8.8.6-1.1 1.2-2.3 1.8-3.6 7.2-14.5 20.6-41.4 38.8-64.4 37-46.9 70.3-63.3 82.9-68.1 3.4-1.3 7.2.4 8.5 3.8 1.3 3.4-.4 7.2-3.8 8.5-11.6 4.5-42.4 19.6-77.4 64-17.3 22-30.4 48.1-37.4 62.1-.7 1.3-1.3 2.5-1.8 3.7-1.1 2.1-3.4 3.5-5.8 3.5z"/></g><g><defs><path id="k" d="M292.5 179.5h403v403h-403z"/></defs><clipPath id="l"><use xlink:href="#k" overflow="visible"/></clipPath><g clip-path="url(#l)"><path fill="#FF5B45" d="M401.4 428.4c-.8 0-1.7-.2-2.5-.5-3.4-1.4-5-5.2-3.6-8.5 14.2-35.1 40.1-57.4 59.2-70.1 23.5-15.4 50.2-24.7 71.5-24.7 3.6 0 6.5 2.9 6.5 6.5s-2.9 6.6-6.5 6.6c-18.9 0-42.9 8.5-64.3 22.5-17.6 11.6-41.3 32.1-54.3 64-1 2.7-3.5 4.2-6 4.2z"/></g></g><g><defs><path id="m" d="M292.5 179.5h403v403h-403z"/></defs><clipPath id="n"><use xlink:href="#m" overflow="visible"/></clipPath><g clip-path="url(#n)"><path fill="#69E2DE" d="M422.6 494.6c11 3.9 16.8 15.9 12.9 27l-4.9 14c-3.9 11-15.9 16.8-27 12.9l-7.1-2.5c-11-3.9-16.1-9.3-16.9-28.9-.2-4.5-.1-15-.1-15 3.9-11 24.9-13.8 35.9-9.9l7.2 2.4z"/><path fill="#FFF" d="M383.6 482.7s31.4 34.4 68 32.6"/><path fill="#EF3522" d="M459.1 522.8c-1.8 1.8-4.2 3-7 3.1-41.1 2-74.9-34.5-76.3-36.1-3.9-4.3-3.6-11 .7-14.9 4.3-3.9 11-3.6 14.9.7.5.5 28.7 30.7 59.7 29.2 5.8-.3 10.8 4.2 11.1 10.1.1 3-1.1 5.9-3.1 7.9z"/><path fill="#00BEC5" d="M415 476.1c2.2 2.2 2.2 5.8 0 8l-15.3 15.3c-2.2 2.2-5.8 2.2-8 0s-2.2-5.8 0-8l15.3-15.3c2.3-2.2 5.8-2.2 8 0zM439 500.1c2.2 2.2 2.2 5.8 0 8l-15.3 15.3c-2.2 2.2-5.8 2.2-8 0s-2.2-5.8 0-8l15.3-15.3c2.2-2.2 5.8-2.2 8 0z"/><path fill="#00BEC5" d="M425.5 481.6c2.2 2.2 2.2 5.8 0 8l-21.3 21.3c-2.2 2.2-5.8 2.2-8 0s-2.2-5.8 0-8l21.3-21.3c2.2-2.2 5.8-2.2 8 0z"/><path fill="#00BEC5" d="M433.5 489.6c2.2 2.2 2.2 5.8 0 8l-21.3 21.3c-2.2 2.2-5.8 2.2-8 0s-2.2-5.8 0-8l21.3-21.3c2.2-2.2 5.8-2.2 8 0z"/><path fill="#69E2DE" d="M412.3 496.3c.6 3.1-1.4 6-4.4 6.6l-21.2 4.2c-3.1.6-6-1.4-6.6-4.4-.6-3.1 1.4-6 4.4-6.6l21.2-4.2c3-.7 6 1.3 6.6 4.4z"/><g><path fill="#FFF" d="M322.5 477.3c-5.3 5.3-1.9 17.4 7.7 27l9.6-9.6-17.3-17.4z"/><path fill="#FF5B45" d="M349.5 485l30.6-30.6-17.4-17.4-3.8-3.8-40.2 40.2 3.8 3.8c5.4-5.2 17.4-1.8 27 7.8z"/><path fill="#FF5B45" d="M349.5 485c-9.6-9.6-21.7-13-27-7.7l17.4 17.4 9.6-9.7z"/><path fill="#FFF" d="M435.4 399.2l-43.3-43.3c-1.9-1.9-5.1-1.9-7 0-1.9 1.9-1.9 5 0 7l1.7 1.7-24.2 72.5 17.4 17.4 55.4-55.3z"/><path fill="#EFEFEF" d="M357.2 512l-17.4-17.4-9.6 9.6c9.6 9.7 21.7 13.1 27 7.8z"/><path fill="#EF483C" d="M349.5 485c9.6 9.6 13 21.7 7.7 27l3.8 3.8 40.2-40.2-3.8-3.8-17.4-17.4-30.5 30.6z"/><path fill="#E53C38" d="M349.5 485l-9.6 9.6 17.4 17.4c5.3-5.3 1.8-17.4-7.8-27z"/><path fill="#EFEFEF" d="M397.4 471.8l72.5-24.2 1.7 1.7c1.9 1.9 5 1.9 7 0 1.9-1.9 1.9-5 0-7L435.3 399 380 454.3l17.4 17.5z"/></g></g></g><g><defs><path id="o" d="M292.5 179.5h403v403h-403z"/></defs><clipPath id="p"><use xlink:href="#o" overflow="visible"/></clipPath><g clip-path="url(#p)"><circle fill="#004860" cx="456.3" cy="252.9" r="31.4"/><path fill="#AFC01D" d="M442.4 241.7v0zM470.2 243.7V270.3v-26.6zM456.3 261.2l-3.6-3.8c1.2-.3 2.4-.4 3.6-.4-7.5 0-13.6-5.9-13.9-13.3v26.6h13.9v-9.1zM470.2 241.7v.7-.7z"/><path fill="#FFF" d="M442.4 243v.7-1.3.6zM470.3 243v-.7 1.3c-.1-.1 0-.4 0-.6zM470.2 243.7v-1.3-.7 2zM449.8 241.7c-1.2.4-2.4.6-3.7.6-1.3 0-2.5-.2-3.7-.6v2c.3 7.4 6.4 13.3 13.9 13.3v-21.4c-1.1 2.9-3.5 5.1-6.5 6.1z"/><path fill="#AFC01D" d="M442.4 241.7c1.2.4 2.4.6 3.7.6 1.3 0 2.5-.2 3.7-.6 3-1 5.4-3.3 6.5-6.1V229c-7.2.1-13.2 5.6-13.9 12.7zM456 261.2v9.1h13.9v-26.6c-.3 7.4-6.4 13.3-13.9 13.3 1.2 0 2.4.2 3.6.4l-3.6 3.8z"/><path fill="#FFF" d="M456 235.6V257c7.5 0 13.6-5.9 13.9-13.3v-1.3-.7c-1.2.4-2.4.6-3.7.6-1.3 0-2.5-.2-3.7-.6-3-1-5.4-3.2-6.5-6.1z"/><path fill="#AFC01D" d="M456 229.1v6.6c1.1 2.8 3.5 5 6.5 6.1 1.2.4 2.4.6 3.7.6 1.3 0 2.5-.2 3.7-.6-.7-7.2-6.6-12.7-13.9-12.7z"/><path fill="#FFF" d="M456.3 261.2V257c-1.2 0-2.4.2-3.6.4l3.6 3.8z"/><path fill="#002738" d="M456.3 270.2h13.9v6.4h-13.9z"/><path fill="#FFF" d="M456.3 261.2l3.6-3.8c-1.2-.3-2.4-.4-3.6-.4v4.2z"/><g><path fill="#00BEC5" d="M456.3 261.2z"/><path fill="#002738" d="M464.3 259.1c-.1 1.2-.7 4.8-4.4 5.4-3.4.6-3.6-2.8-3.6-3.2 0 .5-.1 3.8-3.6 3.2-3.7-.6-4.3-4.2-4.4-5.4-5.8 3.2-9.8 9.9-9.8 17.6h35.6c0-7.7-4-14.4-9.8-17.6z"/><path fill="#69E2DE" d="M456.3 261.2l-3.6-3.8c-.2 0-.4.1-.5.1-1.3.4-2.6.9-3.8 1.6.1 1.2.7 4.8 4.4 5.4 3.4.5 3.5-2.8 3.5-3.3zM460.5 257.5c-.2 0-.4-.1-.5-.1l-3.6 3.8c0 .5.1 3.8 3.6 3.2 3.7-.6 4.3-4.2 4.4-5.4-1.3-.6-2.6-1.1-3.9-1.5z"/><path fill="#DCDCDC" d="M456.3 261.2z"/><circle fill="#69E2DE" cx="456.3" cy="266.3" r=".8"/><circle fill="#69E2DE" cx="456.3" cy="269.5" r=".8"/><circle fill="#69E2DE" cx="456.3" cy="272.7" r=".8"/></g></g></g><g><defs><path id="q" d="M292.5 179.5h403v403h-403z"/></defs><clipPath id="r"><use xlink:href="#q" overflow="visible"/></clipPath><g clip-path="url(#r)"><circle fill="#004860" cx="546.3" cy="242.4" r="31.4"/><path fill="#69E2DE" d="M543.1 253.2c-.5.8-.9 1.9-1 3.1l-6.2-6.1 6.5 15.9 2.1-10.4-1.4-2.5z"/><path fill="#FFF" d="M546.2 246.5c-1.8 0-3.5.3-5.2.9l5.2 3.1v-4z"/><path fill="#FF5B45" d="M543.1 253.2l1.4 2.6-2.1 10.4h3.8v-15.7c-.4.2-2 1-3.1 2.7z"/><path fill="#69E2DE" d="M543.1 253.2c1.1-1.7 2.8-2.5 3.1-2.7v-.1l-5.2-3.1c-1.9.6-3.6 1.6-5.2 2.9l6.2 6.1c.1-1.2.6-2.2 1.1-3.1z"/><path fill="#002738" d="M528.5 266.2h13.9l-6.5-15.9c-4.5 3.6-7.4 9.4-7.4 15.9z"/><path fill="#FFF" d="M538.1 227.7c-3.3.6-5.7 4.8-5.7 4.8 0 7.7 6.2 13.9 13.9 13.9V219c-.9 5.6-5.1 8.2-8.2 8.7z"/><path fill="#FF5B45" d="M538.1 227.7c3.2-.6 7.4-3.1 8.2-8.6v-.5c-7.7 0-13.9 6.3-13.9 13.9-.1.1 2.4-4.2 5.7-4.8z"/><path fill="#FFA033" d="M546.2 218.6s.1 0 0 0zM546.2 246.5s.1 0 0 0c.1 0 0 0 0 0z"/><path fill="#FFF" d="M546.2 250.2l4.8-2.8c-1.7-.6-3.4-.9-5.2-.9h-.1l.5 3.7z"/><path fill="#69E2DE" d="M550 256.4c-.1-1.3-.5-2.3-1-3.1l-1.4 2.6 2.1 10.4 6.5-15.9-6.2 6z"/><path fill="#FF5B45" d="M549 253.2c-1.3-2-3.2-2.7-3.2-2.7h-.1v15.7h4l-2.1-10.4 1.4-2.6z"/><path fill="#FFA033" d="M546.2 250.6c.1-.1.1-.1 0 0z"/><path fill="#69E2DE" d="M549 253.2c.5.8.9 1.9 1 3.1l6.2-6.1c-1.6-1.3-3.3-2.3-5.2-2.9l-5.2 3.1c0 .1 1.9.9 3.2 2.8z"/><path fill="#002738" d="M556.2 250.3l-6.5 15.9h13.9c0-6.5-2.9-12.3-7.4-15.9z"/><path fill="#FFF" d="M559.7 232.6s-2.4-4.3-5.7-4.8c-3.3-.6-7.6-3.3-8.2-9.1 0 .2-.1.4-.1.5v27.4h.1c7.7-.1 13.9-6.3 13.9-14z"/><path fill="#FFA033" d="M546.3 218.6s-.1 0 0 0l-.1.5c0-.1.1-.3.1-.5z"/><path fill="#FF5B45" d="M554 227.7c3.3.6 5.7 4.8 5.7 4.8 0-7.7-6.2-14-14-14 .7 6 5 8.6 8.3 9.2z"/><path fill="#FFA033" d="M551.5 229.7c-2 0-3.7 1.4-4.2 3.2-.6-.3-1.2-.4-1.8-.2-.1 0-.3.1-.4.1-.5-1.8-2.2-3.1-4.1-3.1-2.4 0-4.3 1.9-4.3 4.3s1.9 4.3 4.3 4.3c2.3 0 4.2-1.8 4.3-4 .1-.1.2-.2.5-.2.4-.1.8.1 1.4.4.2 2.2 2.1 3.9 4.3 3.9 2.4 0 4.3-1.9 4.3-4.3 0-2.5-1.9-4.4-4.3-4.4zm-10.4 7.2c-1.6 0-2.9-1.3-2.9-2.9s1.3-2.9 2.9-2.9 2.9 1.3 2.9 2.9-1.3 2.9-2.9 2.9zm10.4 0c-1.6 0-2.9-1.3-2.9-2.9s1.3-2.9 2.9-2.9 2.9 1.3 2.9 2.9-1.3 2.9-2.9 2.9z"/></g></g><g><defs><path id="s" d="M292.5 179.5h403v403h-403z"/></defs><clipPath id="t"><use xlink:href="#s" overflow="visible"/></clipPath><g clip-path="url(#t)"><circle fill="#004860" cx="636.6" cy="257.4" r="31.4"/><path fill="none" d="M636.4 245.8l-.4-.4c.2.2.5.4.7.7l-.1-.1-.2-.2zM628.9 247.9l-.1.1c-.2.2-.4.3-.6.5h-.1c.5-.3.9-.7 1.3-1-.2.1-.4.2-.5.4zM631.7 244.4c-.2.3-.3.6-.5.9-.1.2-.3.4-.4.6.2-.2.3-.4.5-.6.1-.3.2-.6.4-.9zM630.6 246.1c-.1.2-.3.4-.4.5.1-.1.3-.3.4-.5zM630.1 246.7c-.2.2-.4.4-.5.6.1-.2.3-.4.5-.6zM631.7 244.3c.1-.3.3-.6.4-.9-.1.3-.2.6-.4.9zM632.2 243.3l.3-.9-.3.9zM632.5 242.2c.1-.4.2-.8.2-1.2 0 .4-.1.8-.2 1.2zM622.8 250.2c.3 0 .6 0 .8-.1-.2 0-.5 0-.8.1zM624.6 249.9c-.2.1-.5.1-.7.1h-.1c.2 0 .5 0 .8-.1zM624.7 249.9c.3-.1.5-.1.8-.2-.3 0-.5.1-.8.2zM625.7 249.6c-.1 0-.1 0-.2.1.3-.1.5-.2.8-.3-.2 0-.4.1-.6.2zM627.4 248.9c-.1 0-.1.1-.2.1-.2.1-.5.2-.7.3.5-.2 1-.5 1.4-.8-.2.2-.4.3-.5.4z"/><path fill="#FFF" d="M634.8 246h4v36h-4z"/><path fill="#FCD07A" d="M638.8 247.6l-4-3.5v-11.2h4"/><path fill="#FFF" d="M635.9 245.4c0-.1 0-.1 0 0 0-.1 0-.1 0 0-1.3-1.3-2.4-2.8-3.2-4.4-.1.4-.1.8-.2 1.2 0 .1-.1.2-.1.2l-.3.9c0 .1-.1.1-.1.2-.1.3-.2.6-.4.9 0 0 0 .1-.1.1-.2.3-.3.6-.5.9-.1.2-.3.4-.5.6 0 0 0 .1-.1.1-.2.2-.4.4-.5.7-.2.2-.4.4-.5.6-.1 0-.1.1-.2.1-.4.4-.9.7-1.3 1 0 0-.1 0-.1.1-.5.3-.9.5-1.4.8 0 0-.1 0-.1.1-.3.1-.5.2-.8.3-.3.1-.5.2-.8.2h-.1c-.3.1-.6.1-.9.2h-.1c-.3 0-.6.1-.8.1.8 6.9 6.7 12.3 13.8 12.3V246c-.2-.2-.4-.4-.7-.6z"/><path fill="#FCD07A" d="M636.6 262.5c-7.1-.1-13-5.4-13.8-12.3.3 0 .6 0 .8-.1h.2c.2 0 .5-.1.7-.1h.1c.3-.1.5-.1.8-.2.1 0 .1 0 .2-.1.2-.1.4-.2.6-.2.1 0 .1 0 .2-.1.2-.1.5-.2.7-.3.1 0 .1-.1.2-.1l.6-.3s.1 0 .1-.1h.1c.2-.1.4-.3.6-.5l.1-.1c.2-.1.3-.3.5-.4l.2-.2c.2-.2.4-.4.5-.6.2-.2.3-.3.4-.5 0 0 0-.1.1-.1l.1-.1c.2-.2.3-.4.4-.6.2-.3.4-.6.5-.9 0 0 0-.1.1-.1.1-.3.3-.6.4-.9 0-.1.1-.1.1-.2l.3-.9c0-.1.1-.2.1-.2.1-.4.2-.8.2-1.2.8 1.6 1.9 3 3.1 4.3l.1.1.4.4.1.1.1.1v-13.4c-7.9 0-14.4 5.7-15.6 13.2-.2.3-.5.5-1 .8-.8.5-2 1.2-2.2 2.8-.2 1.6.7 2.6 1.4 3.3.7.7.9 1 .8 1.5-.1.6-.4.8-1.2 1.3-.8.5-2 1.2-2.2 2.8-.2 1.6.7 2.6 1.4 3.3.7.7.9 1 .8 1.5-.1.6-.4.8-1.2 1.3-.8.5-2 1.2-2.2 2.8-.2 1.6.7 2.6 1.4 3.3.7.7.9 1 .8 1.5-.1.6-.4.8-1.2 1.3-.8.5-2 1.2-2.2 2.9-.2 1.6.7 2.6 1.4 3.3.7.7 2.8 2.1 2.7 2.6.7-10.9 8.6-19.7 18.4-19.7zM628 248.5s-.1 0 0 0c-.1 0-.1 0 0 0-.1 0 0 0 0 0z"/><path fill="#FCD07A" d="M629.5 247.3c-.1 0-.1.1-.2.1.1 0 .2-.1.2-.1zM630.1 246.7zM635.9 245.4c0-.1 0-.1 0 0 0-.1 0-.1 0 0 0-.1 0-.1 0 0zM626.5 249.3s-.1 0-.2.1c.1-.1.1-.1.2-.1zM630.7 245.9c0 .1 0 .1 0 0 0 .1 0 .1 0 0zM632.5 242.4c0-.1.1-.2.1-.2-.1.1-.1.1-.1.2zM632.1 243.4c0-.1.1-.1.1-.2 0 .1-.1.2-.1.2zM625.5 249.7zM631.7 244.4s0-.1.1-.1l-.1.1zM624.7 249.9zM623.7 250.1z"/><path fill="#FFF" d="M631.5 271.2c2.8 0 5.1 2.3 5.1 5.1v-13.9c-9.8 0-17.8 8.8-17.8 19.7h7.5v-5.8c.1-2.8 2.4-5.1 5.2-5.1z"/><path fill="#FF5B45" d="M631.5 271.2c-2.8 0-5.1 2.3-5.1 5.1v5.8h10.2v-5.8c0-2.8-2.2-5.1-5.1-5.1z"/><path fill="#FFF" d="M643 249.5c.2.1.4.1.7.2-.2-.1-.5-.2-.7-.2zM637.3 246.5c-.2-.2-.4-.3-.6-.5.1.2.4.4.6.5zM646.1 250c-.3 0-.6-.1-.8-.1h-.2c.4.1.8.1 1.2.1h-.2zM646.4 250h1.1c-.4.1-.8.1-1.1 0zM644 249.7c.3.1.6.1 1 .2-.3-.1-.7-.1-1-.2zM639.2 247.9c-.1-.1-.2-.1-.3-.2-.2-.1-.3-.2-.5-.3-.1-.1-.2-.1-.2-.2-.3-.2-.5-.4-.8-.6.8.6 1.7 1.2 2.7 1.7-.4-.1-.6-.3-.9-.4zM640 248.3c.1.1.3.1.4.2-.1 0-.2-.1-.4-.2zM641.8 249.1c-.1 0-.2-.1-.4-.1-.2-.1-.3-.1-.5-.2.6.2 1.2.5 1.8.6l-.9-.3z"/><path fill="#FFF" d="M636.6 262.4c7.3 0 13.2-5.6 13.9-12.7-1 .2-2 .3-3.1.3h-1.3c-.4 0-.8-.1-1.2-.1-.3 0-.7-.1-1-.2-.1 0-.2 0-.3-.1-.2-.1-.4-.1-.7-.2-.1 0-.2-.1-.4-.1l-1.8-.6c-.2-.1-.3-.1-.5-.2-.1-.1-.3-.1-.4-.2-.9-.5-1.8-1.1-2.7-1.7 0 0-.1 0-.1-.1-.2-.2-.4-.3-.6-.5l.2 16.4z"/><path fill="#FCD07A" d="M657.2 279.6c.7-.7 1.6-1.6 1.4-3.3-.2-1.6-1.3-2.3-2.2-2.9-.8-.5-1.1-.7-1.2-1.3-.1-.6.2-.9.8-1.5.7-.7 1.6-1.6 1.4-3.3-.2-1.6-1.3-2.3-2.2-2.8-.8-.5-1.1-.7-1.2-1.3-.1-.6.2-.9.8-1.5.7-.7 1.6-1.6 1.4-3.3-.2-1.6-1.3-2.3-2.2-2.8-.8-.5-1.1-.7-1.2-1.3-.1-.6.2-.9.8-1.5.7-.7 1.6-1.6 1.4-3.3-.2-1.6-1.3-2.3-2.2-2.8-.5-.3-.8-.5-1-.8-1.3-7.5-7.8-13.2-15.6-13.2V246c.2.2.4.3.6.5 0 0 .1 0 .1.1.3.2.5.4.8.6.1.1.2.1.2.2.2.1.3.2.5.3.1.1.2.1.3.2.3.2.5.3.8.5.1.1.3.1.4.2.2.1.3.1.5.2s.3.1.5.2c.1 0 .2.1.4.1l.9.3c.1 0 .2.1.4.1.2.1.4.1.7.2.1 0 .2.1.3.1.3.1.6.1 1 .2h.2c.3 0 .6.1.8.1H647c1.1 0 2.1-.1 3.1-.3-.7 7.1-6.6 12.7-13.9 12.7v.1c9.8 0 17.8 8.8 17.8 19.7.4-.7 2.5-2.1 3.2-2.7z"/><path fill="#FFF" d="M637.3 246.5c0 .1 0 .1 0 0 0 .1 0 .1 0 0zM640 248.3zM643 249.5c-.1 0-.2-.1-.4-.1.2 0 .3 0 .4.1zM640.9 248.7c-.1-.1-.3-.1-.5-.2.2.1.3.2.5.2zM644 249.7c-.1 0-.2 0-.3-.1.1.1.2.1.3.1zM646.4 250h-.2.2zM645 249.9zM636.6 262.5v13.9c0-2.8 2.3-5.1 5.1-5.1s5.1 2.3 5.1 5.1v5.8h7.5c.1-10.9-7.8-19.7-17.7-19.7z"/><path fill="#FF5B45" d="M641.8 271.2c-2.8 0-5.1 2.3-5.1 5.1v5.8h10.2v-5.8c0-2.8-2.3-5.1-5.1-5.1z"/></g></g><g><defs><path id="u" d="M292.5 179.5h403v403h-403z"/></defs><clipPath id="v"><use xlink:href="#u" overflow="visible"/></clipPath><g clip-path="url(#v)"><circle fill="#004860" cx="628.8" cy="339.8" r="31.4"/><path fill="#002738" d="M646.7 315.8c-.1 1.5-1.5 4-4.7 4.4-2.2.2-4.3-.6-5.5-1.1-2.3-1.7-5.1-2.7-8.2-2.7-7 0-12.8 5.2-13.8 12 4.7-.4 8.5-4 9.1-8.7 2.6 5.1 7.8 8.6 13.9 8.6 1.6 0 3-.2 4.5-.7v-.1c7.4-2.8 4.7-11.7 4.7-11.7z"/><path fill="#69E2DE" d="M628.2 348.4c2.1 0 3.9-1.6 4.1-3.6 1.7.4 3.2 1.2 4.7 2.1V364h-8.9l.1-15.6z"/><path fill="none" d="M620.4 339.5zM622.4 337.7zM621 338.9l.1-.1c-.1 0-.1 0-.1.1zM623.2 337.2c-.1 0-.1.1-.2.1.1 0 .1-.1.2-.1zM626.5 336.1h-.3.3zM627.3 336h-.3.3zM625.6 336.3h-.2.2zM623.9 336.8c-.1 0-.1.1-.2.1.1 0 .1 0 .2-.1zM624.6 336.5zM619.9 340.2c0 .1-.1.1-.1.2 0-.1.1-.2.1-.2zM628.2 344.2z"/><path fill="#AFC01D" d="M610.4 363.9h8.9v-17.1c-5.3 3.4-8.9 9.8-8.9 17.1z"/><path fill="#69E2DE" d="M628.2 348.4c-2.1 0-3.9-1.6-4.1-3.6-1.7.4-3.2 1.2-4.7 2.1V364h8.9l-.1-15.6z"/><path fill="#FFF" d="M628.2 348.4v-4.2c-1.4 0-2.8.2-4.1.5.2 2.1 2 3.7 4.1 3.7z"/><path fill="#002738" d="M628.2 336H627c-.2 0-.4 0-.6.1h-.3c-.2 0-.4.1-.6.1h-.2c-.3.1-.5.1-.8.2-.2.1-.5.2-.7.3-.1 0-.1.1-.2.1l-.6.3c-.1 0-.1.1-.2.1-.2.1-.4.2-.6.4h-.1c-.2.2-.4.3-.6.5-3.7-2-6.4-5.6-7.2-9.9h-.2c-.1.6-.2 1.3-.2 2 0 4.4 2 8.3 5.2 10.8l.2.2c2.4 1.8 5.3 3 8.6 3v-2.3c-2 0-3.7-1.6-3.7-3.7h3.7l.3-2.2zM621.7 338.2l-.6.6.6-.6z"/><path fill="#002738" d="M620.4 339.5c-.2.2-.3.4-.5.7.1-.3.3-.5.5-.7zM620.4 339.5l.6-.6c-.3.2-.4.4-.6.6zM619.4 341.1c.1-.2.3-.5.4-.7-.2.2-.3.4-.4.7z"/><path fill="#FFF" d="M621.7 338.2c.2-.2.4-.3.7-.5h.1c.2-.1.4-.3.6-.4.1 0 .1-.1.2-.1l.6-.3c.1 0 .1-.1.2-.1.2-.1.5-.2.7-.3.3-.1.5-.2.8-.2h.2c.2 0 .4-.1.6-.1h.3c.2 0 .4-.1.6-.1h1.1v-10.7c-2-1.5-3.6-3.4-4.7-5.6-.6 4.6-4.3 8.2-8.9 8.7.5 4.1 3.2 7.7 6.9 9.7z"/><path fill="#FFF" d="M623 337.3c-.2.1-.4.2-.6.4.2-.2.4-.3.6-.4zM622.3 337.7c-.2.2-.4.3-.6.5.2-.2.4-.4.6-.5zM628.2 336zM623.7 336.9l-.6.3.6-.3zM628.2 336h-.8.8zM626.2 336.1c-.2 0-.4.1-.6.1.2 0 .4 0 .6-.1zM627.1 336c-.2 0-.4 0-.6.1.2 0 .4-.1.6-.1zM625.4 336.3c-.3.1-.5.1-.8.2.3 0 .6-.1.8-.2zM624.6 336.6c-.2.1-.5.2-.7.3.2-.2.5-.3.7-.3zM624.5 338.2c0 2 1.6 3.7 3.7 3.7v-3.7h-3.7z"/><path fill="#002738" d="M629 336h.3-.3zM635.3 338.8l.1.1c0-.1-.1-.1-.1-.1zM634 337.7zM632.5 336.8c.1 0 .1.1.2.1-.1 0-.2 0-.2-.1zM633.2 337.2c.1 0 .1.1.2.1-.1 0-.2-.1-.2-.1zM631.7 336.5zM636 339.5zM636.5 340.2c0 .1.1.1.1.2-.1-.1-.1-.2-.1-.2zM629.9 336.1h.3-.3zM630.7 336.3h0z"/><path fill="#AFC01D" d="M637 346.8v17.1h8.9c.1-7.3-3.5-13.7-8.9-17.1z"/><path fill="#FFF" d="M632.3 344.7c-1.3-.3-2.7-.5-4.1-.5v4.2c2.1 0 3.9-1.6 4.1-3.7z"/><path fill="#002738" d="M641.9 327.7c-.6 4.5-3.4 8.4-7.2 10.5-.2-.2-.4-.3-.7-.5-.2-.1-.4-.3-.6-.4-.1 0-.1-.1-.2-.1l-.6-.3c-.1 0-.1-.1-.2-.1-.2-.1-.5-.2-.7-.3-.3-.1-.5-.2-.8-.2h-.2c-.2-.1-.4-.1-.6-.1h-.3c-.2 0-.4-.1-.6-.1h-1.1v2.3h3.6c0 2-1.6 3.6-3.6 3.7v2.3c3.2 0 6.2-1.1 8.5-3l.2-.2c3.1-2.6 5.2-6.4 5.2-10.8.1-1 0-1.9-.1-2.7zM635.3 338.8l-.6-.6.6.6z"/><path fill="#002738" d="M637 341.1c-.1-.2-.3-.5-.4-.7.1.2.2.4.4.7zM636 339.5c.2.2.3.4.5.7-.2-.3-.3-.5-.5-.7zM635.4 338.9l.6.6-.6-.6z"/><path fill="#FFF" d="M629 336h.3c.2 0 .4 0 .6.1h.3c.2 0 .4.1.6.1h.2c.3.1.5.1.8.2.2.1.5.2.7.3.1 0 .1.1.2.1l.6.3c.1 0 .1.1.2.1.2.1.4.2.6.4.2.2.4.3.7.5 3.9-2.1 6.7-5.9 7.2-10.5v-.2c-1.4.4-2.9.7-4.5.7-3.4 0-6.6-1.1-9.2-3V336h.7z"/><path fill="#002738" d="M634.7 338.2c-.2-.2-.4-.3-.7-.5.2.1.5.3.7.5zM633.3 337.3c.2.1.4.2.6.4-.1-.2-.3-.3-.6-.4zM629.3 336c.2 0 .4 0 .6.1-.2 0-.4-.1-.6-.1zM630.1 336.1c.2 0 .4.1.6.1-.2 0-.4 0-.6-.1zM628.2 336h.8-.8zM630.9 336.3c.3.1.5.1.8.2-.2 0-.5-.1-.8-.2zM632.6 336.9l.6.3-.6-.3zM631.7 336.5c.2.1.5.2.7.3-.2-.1-.4-.2-.7-.3z"/><path fill="#FFF" d="M631.9 338.2h-3.6v3.7c1.9 0 3.6-1.6 3.6-3.7z"/></g></g><g><defs><path id="w" d="M292.5 179.5h403v403h-403z"/></defs><clipPath id="x"><use xlink:href="#w" overflow="visible"/></clipPath><g clip-path="url(#x)"><circle fill="#004860" cx="535.8" cy="322.8" r="31.4"/><path fill="#FFF" d="M535.4 305.7h1.2v30.6h-1.2z"/><path fill="none" d="M535.8 326.9z"/><path fill="#FF5B45" d="M543.6 328.8c-.9 3.5-4 6.1-7.8 6.1s-6.9-2.6-7.8-6.1c-5.9 3.2-10 9.9-10 17.7h35.6c0-7.7-4.1-14.5-10-17.7z"/><path fill="#FFF" d="M535.8 326.9c-2.8 0-5.4.7-7.8 2 .9 3.5 4 6.1 7.8 6.1s6.9-2.6 7.8-6.1c-2.3-1.3-5-2-7.8-2z"/><g fill="#FFF"><path d="M525.6 312.2c-1.3 0-2.5-.2-3.7-.6 0 .4-.1.9-.1 1.3 0 7.7 6.2 14 14 14v-21.3c-1.5 3.8-5.5 6.6-10.2 6.6zM549.7 311.6c-1.2.4-2.4.6-3.7.6-4.7 0-8.7-2.8-10.2-6.7v21.3c7.7 0 14-6.2 14-14 0-.3 0-.8-.1-1.2z"/></g><g fill="#FCD07A"><path d="M521.9 311.6c1.2.4 2.4.6 3.7.6 4.7 0 8.7-2.8 10.2-6.7v-6.6c-7.2 0-13.2 5.6-13.9 12.7z"/><path d="M535.8 298.9v6.6c1.5 3.9 5.5 6.7 10.2 6.7 1.3 0 2.5-.2 3.7-.6-.7-7.1-6.6-12.7-13.9-12.7z"/></g><path fill="#FCD07A" d="M535.5 299.2h.8v6.4h-.8z"/></g></g><g><defs><path id="y" d="M292.5 179.5h403v403h-403z"/></defs><clipPath id="z"><use xlink:href="#y" overflow="visible"/></clipPath><g clip-path="url(#z)"><circle fill="#004860" cx="588.3" cy="414.8" r="31.4"/><path fill="#FFF" d="M588.3 418.8c-1.8 0-3.5.3-5.1.9l5.1 3.1v-4z"/><path fill="#AFC01D" d="M585.2 425.3c-.5.8-.9 1.8-1 3.1l-6.1-5.9c-4.3 3.5-7.1 9.2-7.1 15.6h17.3v-15.3c0-.1-1.8.6-3.1 2.5z"/><path fill="#7EA800" d="M585.2 425.3c1.2-1.9 3.1-2.6 3.1-2.6l-5.1-3.1c-1.8.6-3.6 1.6-5.1 2.8l6.1 5.9c.1-1.2.5-2.2 1-3z"/><path fill="#FFF" d="M584.3 404.2l-.1-6.4-1 6.4h-3.1l.6-6.4-1.6 6.4h-4.4v.9c0 7.5 6.1 13.6 13.6 13.6v-14.5h-4z"/><path fill="#002738" d="M580.8 397.9l-.6 6.4h3.1l1-6.4.1 6.4h4v-12.7c-7.2 0-13.1 5.6-13.6 12.7h4.4l1.6-6.4z"/><path fill="#00BEC5" d="M588.3 418.8"/><path fill="#FFF" d="M588.3 422.7l5.1-3.1c-1.6-.6-3.3-.9-5.1-.9v4z"/><path fill="#AFC01D" d="M598.6 422.4l-6.1 5.9c-.1-1.3-.5-2.3-1-3.1-1.2-1.9-3.1-2.6-3.1-2.6V438h17.3c0-6.4-2.8-12.1-7.1-15.6z"/><path fill="#00BEC5" d="M588.3 422.7z"/><path fill="#7EA800" d="M591.5 425.3c.5.8.9 1.8 1 3.1l6.1-5.9c-1.5-1.2-3.2-2.2-5.1-2.8l-5.1 3.1c-.1-.1 1.8.6 3.1 2.5z"/><path fill="#FFF" d="M602 405.1v-.9h-3.5l-1.6-6.4.5 6.4h-2.7l-.7-6.4.2 6.4h-2.7l-.6-6.4-.3 6.4h-2.2v14.5c7.5.1 13.6-6 13.6-13.6z"/><path fill="#002738" d="M590.5 404.2l.3-6.4.6 6.4h2.7l-.2-6.4.7 6.4h2.7l-.5-6.4 1.6 6.4h3.5c-.5-7.1-6.4-12.7-13.6-12.7v12.7h2.2z"/></g></g><g><defs><path id="A" d="M292.5 179.5h403v403h-403z"/></defs><clipPath id="B"><use xlink:href="#A" overflow="visible"/></clipPath><path clip-path="url(#B)" fill="#69E2DE" d="M385.5 539.1L330 598.4h49.5l28.9-48.8"/></g></svg>