<?xml version="1.0" encoding="utf-8"?>
<!-- Generator: Adobe Illustrator 18.1.1, SVG Export Plug-In . SVG Version: 6.00 Build 0)  -->
<svg version="1.1" id="Objects" xmlns="http://www.w3.org/2000/svg" xmlns:xlink="http://www.w3.org/1999/xlink" x="0px" y="0px"
	 viewBox="251 208 486 376" enable-background="new 251 208 486 376" xml:space="preserve">
<g>
	<g>
		<defs>
			<rect id="SVGID_1_" x="292.5" y="179.5" width="403" height="403"/>
		</defs>
		<clipPath id="SVGID_2_">
			<use xlink:href="#SVGID_1_"  overflow="visible"/>
		</clipPath>
		<g clip-path="url(#SVGID_2_)">
			<path fill="#69E2DE" d="M569.5,527.2c-4.2,0-8.5-0.2-13-0.6c-19.5-1.8-34.6-9.8-46.1-24.5c-9.6-12.2-14.9-26.6-19.6-39.4
				c-4-10.8-7.7-21.1-12.4-23.7c-4.7-2.7-9-3.4-13-2c-8.8,2.9-14,14.1-14,14.3c-1.5,3.3-5.3,4.8-8.6,3.3c-3.3-1.5-4.8-5.3-3.3-8.6
				c0.3-0.7,7.6-16.7,21.9-21.4c7.6-2.5,15.6-1.5,23.6,3.1c8.8,5,13.2,16.9,18.2,30.6c4.3,11.8,9.3,25.2,17.6,35.8
				c9.2,11.7,21.3,18.1,37,19.5c26.7,2.4,48.4-3.2,64.4-16.9c12.6-10.8,22-26.6,27.7-47c4.7-16.8,5.7-32.2,6.2-39.6l0-0.3
				c0.4-5.6-0.1-16-1.9-25.5c-2.3-11.8-5.8-17.4-8.3-18.8c-3.2-1.7-4.4-5.7-2.7-8.9c1.7-3.2,5.7-4.4,8.9-2.7
				c7.1,3.8,12.2,13.2,15,27.8c2.1,10.7,2.6,22.2,2.1,28.9l0,0.3c-0.5,7.8-1.6,24.1-6.7,42.3c-6.5,22.9-17.2,40.9-31.8,53.4
				C614.6,520.3,594.1,527.2,569.5,527.2z"/>
		</g>
	</g>
	<g>
		<defs>
			<rect id="SVGID_3_" x="292.5" y="179.5" width="403" height="403"/>
		</defs>
		<clipPath id="SVGID_4_">
			<use xlink:href="#SVGID_3_"  overflow="visible"/>
		</clipPath>
		<g clip-path="url(#SVGID_4_)">
			<path fill="#FFFFFF" d="M568.6,470.9c-7.8,0-16-1.6-24.6-4.7c-6.4-2.4-13.7-8.5-22.9-16.3c-19.8-16.7-44.5-37.5-66.1-24.6
				c-3.1,1.8-7.1,0.8-9-2.3c-1.8-3.1-0.8-7.1,2.3-9c13.2-7.8,28.3-7.8,45,0.2c13.4,6.4,26.1,17.1,36.3,25.7c7.6,6.4,14.7,12.4,19,14
				c26.2,9.6,39.2-0.9,42.6-4.4c3.9-4,4.6-7.7,4.2-8.8c-1.3-3.4,0.3-7.2,3.7-8.5c3.4-1.3,7.2,0.3,8.5,3.7c2.7,6.8,0,15.7-7,22.8
				c-4,4.1-11,9.3-22.3,11.4C575.1,470.6,571.9,470.9,568.6,470.9z"/>
		</g>
	</g>
	<g>
		<defs>
			<rect id="SVGID_5_" x="292.5" y="179.5" width="403" height="403"/>
		</defs>
		<clipPath id="SVGID_6_">
			<use xlink:href="#SVGID_5_"  overflow="visible"/>
		</clipPath>
		<g clip-path="url(#SVGID_6_)">
			<path fill="#FFA033" d="M436.6,415.3c-0.7,0-1.4-0.1-2.1-0.3c-3.4-1.1-5.3-4.9-4.1-8.3c6.3-18.7,38.3-24.3,72.3-30.2
				c25.7-4.5,57.8-10,62.6-21.3c1.4-3.4,0.3-8-3.5-13.7c-6.9-10.4-19-14.5-30.7-18.6c-12.3-4.2-25-8.6-29.7-20.7
				c-2.2-5.7-2.2-11.2,0.1-16.1c4-8.8,13.9-13.2,20.9-15.7c8.9-3.2,31.9-6,54.6-6.7c36.3-1.1,52.5,3.2,59.7,7.1
				c3.2,1.7,4.4,5.7,2.7,8.9c-1.7,3.2-5.7,4.4-8.9,2.7c-8-4.3-27.9-6.3-53.2-5.6c-23.2,0.7-43.9,3.6-50.6,5.9
				c-7.5,2.7-12,5.6-13.4,8.8c-0.5,1-1,2.8,0.2,5.9c2.5,6.4,11.4,9.5,21.8,13c13.1,4.5,28,9.6,37.3,23.7c6.4,9.6,7.9,18.4,4.6,26.1
				c-7.6,17.7-39.1,23.2-72.4,29c-15.1,2.6-30.7,5.3-42.5,9.1c-7.9,2.5-17.7,6.7-19.6,12.4C441.9,413.6,439.4,415.3,436.6,415.3z"/>
		</g>
	</g>
	<g>
		<defs>
			<rect id="SVGID_7_" x="292.5" y="179.5" width="403" height="403"/>
		</defs>
		<clipPath id="SVGID_8_">
			<use xlink:href="#SVGID_7_"  overflow="visible"/>
		</clipPath>
		<g clip-path="url(#SVGID_8_)">
			<path fill="#AFC01D" d="M391.3,377.5c-3.3,0-6.1-2.5-6.5-5.8c-0.3-3,1.4-5.8,4.1-6.8c1.5-3.9,0.7-17.6-2.7-24.2
				c-3.1-6-8.9-10.5-15-15.3c-4.1-3.1-8.3-6.4-11.9-10.3c-14.8-15.8-19.2-45.8-2-65.3c11.6-13.1,27.3-16.2,38.5-16.4
				c12.2-0.3,25.2,2.8,33.7,8c3.1,1.9,4.1,5.9,2.2,9c-1.9,3.1-5.9,4.1-9,2.2c-5.3-3.2-15.6-6.3-26.6-6.1c-8.5,0.2-20.5,2.4-28.9,12
				c-9.8,11.2-11.6,33.5,1.7,47.6c2.9,3.1,6.5,5.9,10.4,8.9c7,5.4,14.3,11,18.7,19.7c4.2,8.3,7.1,27.9,2.3,36.9
				c-2.5,4.6-6.1,5.6-8.1,5.9C391.8,377.5,391.5,377.5,391.3,377.5z"/>
		</g>
	</g>
	<g>
		<defs>
			<rect id="SVGID_9_" x="292.5" y="179.5" width="403" height="403"/>
		</defs>
		<clipPath id="SVGID_10_">
			<use xlink:href="#SVGID_9_"  overflow="visible"/>
		</clipPath>
		<g clip-path="url(#SVGID_10_)">
			<path fill="#002738" d="M408.4,391.3c-1,0-2-0.2-2.9-0.7c-3.2-1.6-4.5-5.6-2.9-8.8c0.6-1.1,1.2-2.3,1.8-3.6
				c7.2-14.5,20.6-41.4,38.8-64.4c37-46.9,70.3-63.3,82.9-68.1c3.4-1.3,7.2,0.4,8.5,3.8c1.3,3.4-0.4,7.2-3.8,8.5
				c-11.6,4.5-42.4,19.6-77.4,64c-17.3,22-30.4,48.1-37.4,62.1c-0.7,1.3-1.3,2.5-1.8,3.7C413.1,389.9,410.8,391.3,408.4,391.3z"/>
		</g>
	</g>
	<g>
		<defs>
			<rect id="SVGID_11_" x="292.5" y="179.5" width="403" height="403"/>
		</defs>
		<clipPath id="SVGID_12_">
			<use xlink:href="#SVGID_11_"  overflow="visible"/>
		</clipPath>
		<g clip-path="url(#SVGID_12_)">
			<path fill="#FF5B45" d="M401.4,428.4c-0.8,0-1.7-0.2-2.5-0.5c-3.4-1.4-5-5.2-3.6-8.5c14.2-35.1,40.1-57.4,59.2-70.1
				c23.5-15.4,50.2-24.7,71.5-24.7c0,0,0,0,0,0c3.6,0,6.5,2.9,6.5,6.5c0,3.6-2.9,6.6-6.5,6.6c-18.9,0-42.9,8.5-64.3,22.5
				c-17.6,11.6-41.3,32.1-54.3,64C406.4,426.9,403.9,428.4,401.4,428.4z"/>
		</g>
	</g>
	<g>
		<defs>
			<rect id="SVGID_13_" x="292.5" y="179.5" width="403" height="403"/>
		</defs>
		<clipPath id="SVGID_14_">
			<use xlink:href="#SVGID_13_"  overflow="visible"/>
		</clipPath>
		<g clip-path="url(#SVGID_14_)">
			<path fill="#69E2DE" d="M422.6,494.6c11,3.9,16.8,15.9,12.9,27l-4.9,14c-3.9,11-15.9,16.8-27,12.9l-7.1-2.5
				c-11-3.9-16.1-9.3-16.9-28.9c-0.2-4.5-0.1-15-0.1-15c3.9-11,24.9-13.8,35.9-9.9L422.6,494.6z"/>
			<g>
				<path fill="#FFFFFF" d="M383.6,482.7c0,0,31.4,34.4,68,32.6"/>
				<path fill="#EF3522" d="M459.1,522.8c-1.8,1.8-4.2,3-7,3.1c-41.1,2-74.9-34.5-76.3-36.1c-3.9-4.3-3.6-11,0.7-14.9
					c4.3-3.9,11-3.6,14.9,0.7c0.5,0.5,28.7,30.7,59.7,29.2c5.8-0.3,10.8,4.2,11.1,10.1C462.3,517.9,461.1,520.8,459.1,522.8z"/>
			</g>
			<path fill="#00BEC5" d="M415,476.1c2.2,2.2,2.2,5.8,0,8l-15.3,15.3c-2.2,2.2-5.8,2.2-8,0l0,0c-2.2-2.2-2.2-5.8,0-8l15.3-15.3
				C409.3,473.9,412.8,473.9,415,476.1L415,476.1z"/>
			<path fill="#00BEC5" d="M439,500.1c2.2,2.2,2.2,5.8,0,8l-15.3,15.3c-2.2,2.2-5.8,2.2-8,0l0,0c-2.2-2.2-2.2-5.8,0-8l15.3-15.3
				C433.2,497.9,436.8,497.9,439,500.1L439,500.1z"/>
			<path fill="#00BEC5" d="M425.5,481.6c2.2,2.2,2.2,5.8,0,8l-21.3,21.3c-2.2,2.2-5.8,2.2-8,0l0,0c-2.2-2.2-2.2-5.8,0-8l21.3-21.3
				C419.7,479.4,423.3,479.4,425.5,481.6L425.5,481.6z"/>
			<path fill="#00BEC5" d="M433.5,489.6c2.2,2.2,2.2,5.8,0,8l-21.3,21.3c-2.2,2.2-5.8,2.2-8,0l0,0c-2.2-2.2-2.2-5.8,0-8l21.3-21.3
				C427.7,487.4,431.3,487.4,433.5,489.6L433.5,489.6z"/>
			<path fill="#69E2DE" d="M412.3,496.3c0.6,3.1-1.4,6-4.4,6.6l-21.2,4.2c-3.1,0.6-6-1.4-6.6-4.4l0,0c-0.6-3.1,1.4-6,4.4-6.6
				l21.2-4.2C408.7,491.2,411.7,493.2,412.3,496.3L412.3,496.3z"/>
			<g>
				<path fill="#FFFFFF" d="M322.5,477.3c-5.3,5.3-1.9,17.4,7.7,27l9.6-9.6L322.5,477.3z"/>
				<path fill="#FF5B45" d="M349.5,485l30.6-30.6l-17.4-17.4l-3.8-3.8l-40.2,40.2l3.8,3.8C327.9,472,339.9,475.4,349.5,485z"/>
				<path fill="#FF5B45" d="M349.5,485c-9.6-9.6-21.7-13-27-7.7l17.4,17.4L349.5,485z"/>
				<path fill="#FFFFFF" d="M435.4,399.2l-43.3-43.3c-1.9-1.9-5.1-1.9-7,0c-1.9,1.9-1.9,5,0,7l1.7,1.7l-24.2,72.5l17.4,17.4
					L435.4,399.2z"/>
				<path fill="#EFEFEF" d="M357.2,512l-17.4-17.4l-9.6,9.6C339.8,513.9,351.9,517.3,357.2,512z"/>
				<path fill="#EF483C" d="M349.5,485c9.6,9.6,13,21.7,7.7,27l3.8,3.8l40.2-40.2l-3.8-3.8l-17.4-17.4L349.5,485z"/>
				<path fill="#E53C38" d="M349.5,485l-9.6,9.6l17.4,17.4C362.6,506.7,359.1,494.6,349.5,485z"/>
				<path fill="#EFEFEF" d="M397.4,471.8l72.5-24.2l1.7,1.7c1.9,1.9,5,1.9,7,0c1.9-1.9,1.9-5,0-7l-43.3-43.3l-55.3,55.3L397.4,471.8
					z"/>
			</g>
		</g>
	</g>
	<g>
		<defs>
			<rect id="SVGID_15_" x="292.5" y="179.5" width="403" height="403"/>
		</defs>
		<clipPath id="SVGID_16_">
			<use xlink:href="#SVGID_15_"  overflow="visible"/>
		</clipPath>
		<g clip-path="url(#SVGID_16_)">
			<circle fill="#004860" cx="456.3" cy="252.9" r="31.4"/>
			<g>
				<g>
					<path fill="#AFC01D" d="M442.4,241.7v0.7C442.4,242.1,442.4,241.9,442.4,241.7L442.4,241.7z"/>
					<path fill="#AFC01D" d="M470.2,243.7c0,0.2,0,0.4,0,0.7v25.9h0V243.7z"/>
					<path fill="#AFC01D" d="M456.3,261.2l-3.6-3.8c1.2-0.3,2.4-0.4,3.6-0.4c-7.5,0-13.6-5.9-13.9-13.3v26.6h13.9L456.3,261.2
						L456.3,261.2L456.3,261.2L456.3,261.2z"/>
					<path fill="#AFC01D" d="M470.2,241.7L470.2,241.7c0,0.2,0,0.4,0,0.7V241.7z"/>
					<path fill="#FFFFFF" d="M442.4,243c0,0.2,0,0.4,0,0.7v-1.3C442.4,242.6,442.4,242.8,442.4,243z"/>
					<path fill="#FFFFFF" d="M470.3,243c0-0.2,0-0.4,0-0.7v1.3C470.2,243.5,470.3,243.2,470.3,243z"/>
					<path fill="#FFFFFF" d="M470.2,243.7v-1.3c0-0.2,0-0.4,0-0.7v2.6C470.2,244.1,470.2,243.9,470.2,243.7z"/>
					<path fill="#FFFFFF" d="M449.8,241.7c-1.2,0.4-2.4,0.6-3.7,0.6c-1.3,0-2.5-0.2-3.7-0.6c0,0.2,0,0.4,0,0.7v1.3
						c0.3,7.4,6.4,13.3,13.9,13.3v-15.3v-6.1C455.2,238.5,452.8,240.7,449.8,241.7z"/>
					<path fill="#AFC01D" d="M442.4,241.7c1.2,0.4,2.4,0.6,3.7,0.6c1.3,0,2.5-0.2,3.7-0.6c3-1,5.4-3.3,6.5-6.1v-6.6
						C449.1,229.1,443.1,234.6,442.4,241.7z"/>
					<path fill="#AFC01D" d="M456,261.2L456,261.2l0,9.1h13.9v-26.6c-0.3,7.4-6.4,13.3-13.9,13.3c1.2,0,2.4,0.2,3.6,0.4L456,261.2
						L456,261.2L456,261.2z"/>
					<path fill="#FFFFFF" d="M456,235.6v6.1V257c7.5,0,13.6-5.9,13.9-13.3v-1.3c0-0.2,0-0.4,0-0.7c-1.2,0.4-2.4,0.6-3.7,0.6
						c-1.3,0-2.5-0.2-3.7-0.6C459.5,240.7,457.1,238.5,456,235.6z"/>
					<path fill="#AFC01D" d="M456,229.1v6.6c1.1,2.8,3.5,5,6.5,6.1c1.2,0.4,2.4,0.6,3.7,0.6c1.3,0,2.5-0.2,3.7-0.6
						C469.2,234.6,463.3,229.1,456,229.1z"/>
					<path fill="#FFFFFF" d="M456.3,261.2L456.3,261.2l0-4.2c-1.2,0-2.4,0.2-3.6,0.4L456.3,261.2z"/>
					<rect x="456.3" y="270.2" fill="#002738" width="13.9" height="6.4"/>
					<path fill="#FFFFFF" d="M456.3,261.2l3.6-3.8c-1.2-0.3-2.4-0.4-3.6-0.4L456.3,261.2L456.3,261.2z"/>
				</g>
				<g>
					<g>
						<path fill="#00BEC5" d="M456.3,261.2L456.3,261.2L456.3,261.2L456.3,261.2C456.3,261.2,456.3,261.2,456.3,261.2
							C456.3,261.2,456.3,261.2,456.3,261.2L456.3,261.2z"/>
						<path fill="#002738" d="M464.3,259.1c-0.1,1.2-0.7,4.8-4.4,5.4c-3.4,0.6-3.6-2.8-3.6-3.2c0,0.5-0.1,3.8-3.6,3.2
							c-3.7-0.6-4.3-4.2-4.4-5.4c-5.8,3.2-9.8,9.9-9.8,17.6h35.6C474.1,269,470.1,262.3,464.3,259.1z"/>
						<path fill="#69E2DE" d="M456.3,261.2l-3.6-3.8c-0.2,0-0.4,0.1-0.5,0.1c-1.3,0.4-2.6,0.9-3.8,1.6c0.1,1.2,0.7,4.8,4.4,5.4
							C456.2,265,456.3,261.7,456.3,261.2C456.3,261.2,456.3,261.2,456.3,261.2C456.3,261.2,456.3,261.2,456.3,261.2z"/>
						<path fill="#69E2DE" d="M460.5,257.5c-0.2,0-0.4-0.1-0.5-0.1l-3.6,3.8c0,0,0,0,0,0c0,0,0,0,0,0c0,0.5,0.1,3.8,3.6,3.2
							c3.7-0.6,4.3-4.2,4.4-5.4C463.1,258.4,461.8,257.9,460.5,257.5z"/>
						<path fill="#DCDCDC" d="M456.3,261.2C456.3,261.2,456.3,261.2,456.3,261.2C456.3,261.2,456.3,261.2,456.3,261.2z"/>
					</g>
					<circle fill="#69E2DE" cx="456.3" cy="266.3" r="0.8"/>
					<circle fill="#69E2DE" cx="456.3" cy="269.5" r="0.8"/>
					<circle fill="#69E2DE" cx="456.3" cy="272.7" r="0.8"/>
				</g>
			</g>
		</g>
	</g>
	<g>
		<defs>
			<rect id="SVGID_17_" x="292.5" y="179.5" width="403" height="403"/>
		</defs>
		<clipPath id="SVGID_18_">
			<use xlink:href="#SVGID_17_"  overflow="visible"/>
		</clipPath>
		<g clip-path="url(#SVGID_18_)">
			<circle fill="#004860" cx="546.3" cy="242.4" r="31.4"/>
			<g>
				<g>
					<path fill="#69E2DE" d="M543.1,253.2c-0.5,0.8-0.9,1.9-1,3.1l-6.2-6.1l6.5,15.9l2.1-10.4L543.1,253.2z"/>
					<path fill="#FFFFFF" d="M546.2,246.5c-1.8,0-3.5,0.3-5.2,0.9l5.2,3.1V246.5z"/>
					<path fill="#FF5B45" d="M543.1,253.2l1.4,2.6l-2.1,10.4h3.8v-15.7C545.8,250.7,544.2,251.5,543.1,253.2z"/>
					<path fill="#69E2DE" d="M543.1,253.2c1.1-1.7,2.8-2.5,3.1-2.7v-0.1l-5.2-3.1c-1.9,0.6-3.6,1.6-5.2,2.9l6.2,6.1
						C542.1,255.1,542.6,254.1,543.1,253.2z"/>
					<path fill="#002738" d="M528.5,266.2h13.9l-6.5-15.9C531.4,253.9,528.5,259.7,528.5,266.2z"/>
					<path fill="#FFFFFF" d="M538.1,227.7c-3.3,0.6-5.7,4.8-5.7,4.8c0,7.7,6.2,13.9,13.9,13.9v-27.4
						C545.4,224.6,541.2,227.2,538.1,227.7z"/>
					<path fill="#FF5B45" d="M538.1,227.7c3.2-0.6,7.4-3.1,8.2-8.6v-0.5c-7.7,0-13.9,6.3-13.9,13.9
						C532.3,232.6,534.8,228.3,538.1,227.7z"/>
					<path fill="#FFA033" d="M546.2,218.6L546.2,218.6C546.2,218.6,546.3,218.6,546.2,218.6L546.2,218.6z"/>
					<path fill="#FFA033" d="M546.2,246.5L546.2,246.5C546.2,246.5,546.3,246.5,546.2,246.5C546.3,246.5,546.2,246.5,546.2,246.5z"
						/>
					<path fill="#FFFFFF" d="M546.2,250.2l4.8-2.8c-1.7-0.6-3.4-0.9-5.2-0.9c0,0-0.1,0-0.1,0L546.2,250.2L546.2,250.2z"/>
					<path fill="#69E2DE" d="M550,256.4c-0.1-1.3-0.5-2.3-1-3.1l-1.4,2.6l2.1,10.4l6.5-15.9L550,256.4z"/>
					<path fill="#FF5B45" d="M549,253.2c-1.3-2-3.2-2.7-3.2-2.7s0,0-0.1,0v15.7h4l-2.1-10.4L549,253.2z"/>
					<path fill="#FFA033" d="M546.2,250.6C546.3,250.5,546.3,250.5,546.2,250.6L546.2,250.6L546.2,250.6z"/>
					<path fill="#69E2DE" d="M549,253.2c0.5,0.8,0.9,1.9,1,3.1l6.2-6.1c-1.6-1.3-3.3-2.3-5.2-2.9l-5.2,3.1
						C545.8,250.5,547.7,251.3,549,253.2z"/>
					<path fill="#002738" d="M556.2,250.3l-6.5,15.9h13.9C563.6,259.7,560.7,253.9,556.2,250.3z"/>
					<path fill="#FFFFFF" d="M559.7,232.6c0,0-2.4-4.3-5.7-4.8c-3.3-0.6-7.6-3.3-8.2-9.1c0,0.2-0.1,0.4-0.1,0.5v27.4
						c0,0,0.1,0,0.1,0C553.5,246.5,559.7,240.3,559.7,232.6z"/>
					<path fill="#FFA033" d="M546.3,218.6C546.3,218.6,546.2,218.6,546.3,218.6l-0.1,0.5C546.2,219,546.3,218.8,546.3,218.6z"/>
					<path fill="#FF5B45" d="M554,227.7c3.3,0.6,5.7,4.8,5.7,4.8c0-7.7-6.2-14-14-14C546.4,224.5,550.7,227.1,554,227.7z"/>
				</g>
				<path fill="#FFA033" d="M551.5,229.7c-2,0-3.7,1.4-4.2,3.2c-0.6-0.3-1.2-0.4-1.8-0.2c-0.1,0-0.3,0.1-0.4,0.1
					c-0.5-1.8-2.2-3.1-4.1-3.1c-2.4,0-4.3,1.9-4.3,4.3c0,2.4,1.9,4.3,4.3,4.3c2.3,0,4.2-1.8,4.3-4c0.1-0.1,0.2-0.2,0.5-0.2
					c0.4-0.1,0.8,0.1,1.4,0.4c0.2,2.2,2.1,3.9,4.3,3.9c2.4,0,4.3-1.9,4.3-4.3C555.8,231.6,553.9,229.7,551.5,229.7z M541.1,236.9
					c-1.6,0-2.9-1.3-2.9-2.9s1.3-2.9,2.9-2.9s2.9,1.3,2.9,2.9S542.7,236.9,541.1,236.9z M551.5,236.9c-1.6,0-2.9-1.3-2.9-2.9
					s1.3-2.9,2.9-2.9s2.9,1.3,2.9,2.9S553.1,236.9,551.5,236.9z"/>
			</g>
		</g>
	</g>
	<g>
		<defs>
			<rect id="SVGID_19_" x="292.5" y="179.5" width="403" height="403"/>
		</defs>
		<clipPath id="SVGID_20_">
			<use xlink:href="#SVGID_19_"  overflow="visible"/>
		</clipPath>
		<g clip-path="url(#SVGID_20_)">
			<circle fill="#004860" cx="636.6" cy="257.4" r="31.4"/>
			<g>
				<path fill="none" d="M636.4,245.8c-0.1-0.1-0.3-0.3-0.4-0.4c0.2,0.2,0.5,0.4,0.7,0.7v0c0,0-0.1-0.1-0.1-0.1
					C636.5,245.9,636.4,245.8,636.4,245.8z"/>
				<path fill="none" d="M628.9,247.9c0,0-0.1,0.1-0.1,0.1c-0.2,0.2-0.4,0.3-0.6,0.5c0,0-0.1,0-0.1,0c0.5-0.3,0.9-0.7,1.3-1
					C629.2,247.6,629,247.7,628.9,247.9z"/>
				<path fill="none" d="M631.7,244.4c-0.2,0.3-0.3,0.6-0.5,0.9c-0.1,0.2-0.3,0.4-0.4,0.6c0.2-0.2,0.3-0.4,0.5-0.6
					C631.4,245,631.5,244.7,631.7,244.4z"/>
				<path fill="none" d="M630.6,246.1c-0.1,0.2-0.3,0.4-0.4,0.5c0,0,0,0,0,0C630.3,246.5,630.5,246.3,630.6,246.1
					C630.6,246.1,630.6,246.1,630.6,246.1z"/>
				<path fill="none" d="M630.1,246.7c-0.2,0.2-0.4,0.4-0.5,0.6C629.7,247.1,629.9,246.9,630.1,246.7z"/>
				<path fill="none" d="M631.7,244.3c0.1-0.3,0.3-0.6,0.4-0.9C632,243.7,631.9,244,631.7,244.3z"/>
				<path fill="none" d="M632.2,243.3c0.1-0.3,0.2-0.6,0.3-0.9C632.4,242.7,632.3,243,632.2,243.3z"/>
				<path fill="none" d="M632.5,242.2c0.1-0.4,0.2-0.8,0.2-1.2C632.7,241.4,632.6,241.8,632.5,242.2z"/>
				<path fill="none" d="M622.8,250.2c0.3,0,0.6,0,0.8-0.1C623.4,250.1,623.1,250.1,622.8,250.2z"/>
				<path fill="none" d="M624.6,249.9c-0.2,0.1-0.5,0.1-0.7,0.1c0,0-0.1,0-0.1,0C624,250,624.3,250,624.6,249.9
					C624.6,249.9,624.6,249.9,624.6,249.9z"/>
				<path fill="none" d="M624.7,249.9c0.3-0.1,0.5-0.1,0.8-0.2C625.2,249.7,625,249.8,624.7,249.9z"/>
				<path fill="none" d="M625.7,249.6c-0.1,0-0.1,0-0.2,0.1c0.3-0.1,0.5-0.2,0.8-0.3C626.1,249.4,625.9,249.5,625.7,249.6z"/>
				<path fill="none" d="M627.4,248.9c-0.1,0-0.1,0.1-0.2,0.1c-0.2,0.1-0.5,0.2-0.7,0.3c0.5-0.2,1-0.5,1.4-0.8
					C627.7,248.7,627.5,248.8,627.4,248.9z"/>
				<rect x="634.8" y="246" fill="#FFFFFF" width="4" height="36"/>
				<polygon fill="#FCD07A" points="638.8,247.6 634.8,244.1 634.8,232.9 638.8,232.9 				"/>
				<path fill="#FFFFFF" d="M635.9,245.4C635.9,245.3,635.9,245.3,635.9,245.4C635.9,245.3,635.9,245.3,635.9,245.4
					c-1.3-1.3-2.4-2.8-3.2-4.4c-0.1,0.4-0.1,0.8-0.2,1.2c0,0.1-0.1,0.2-0.1,0.2c-0.1,0.3-0.2,0.6-0.3,0.9c0,0.1-0.1,0.1-0.1,0.2
					c-0.1,0.3-0.2,0.6-0.4,0.9c0,0,0,0.1-0.1,0.1c-0.2,0.3-0.3,0.6-0.5,0.9c-0.1,0.2-0.3,0.4-0.5,0.6c0,0,0,0,0,0c0,0,0,0.1-0.1,0.1
					c-0.2,0.2-0.4,0.4-0.5,0.7c0,0,0,0,0,0c0,0,0,0,0,0c-0.2,0.2-0.4,0.4-0.5,0.6c0,0,0,0,0,0c-0.1,0-0.1,0.1-0.2,0.1c0,0,0,0,0,0
					c-0.4,0.4-0.9,0.7-1.3,1c0,0-0.1,0-0.1,0.1c0,0,0,0,0,0c-0.5,0.3-0.9,0.5-1.4,0.8l0,0c0,0-0.1,0-0.1,0.1c0,0,0,0,0,0
					c-0.3,0.1-0.5,0.2-0.8,0.3c0,0,0,0,0,0c0,0,0,0,0,0c-0.3,0.1-0.5,0.2-0.8,0.2c0,0,0,0,0,0c0,0,0,0-0.1,0
					c-0.3,0.1-0.6,0.1-0.9,0.2c0,0-0.1,0-0.1,0c0,0,0,0,0,0c-0.3,0-0.6,0.1-0.8,0.1c0.8,6.9,6.7,12.3,13.8,12.3V246
					C636.4,245.8,636.2,245.6,635.9,245.4z"/>
				<path fill="#FCD07A" d="M636.6,262.5L636.6,262.5c-7.1-0.1-13-5.4-13.8-12.3c0.3,0,0.6,0,0.8-0.1c0,0,0.1,0,0.1,0
					c0,0,0.1,0,0.1,0c0.2,0,0.5-0.1,0.7-0.1c0,0,0,0,0,0c0,0,0,0,0.1,0c0.3-0.1,0.5-0.1,0.8-0.2c0,0,0,0,0,0c0.1,0,0.1,0,0.2-0.1
					c0.2-0.1,0.4-0.2,0.6-0.2c0.1,0,0.1,0,0.2-0.1c0.2-0.1,0.5-0.2,0.7-0.3c0.1,0,0.1-0.1,0.2-0.1c0.2-0.1,0.4-0.2,0.6-0.3
					c0,0,0.1,0,0.1-0.1c0,0,0.1,0,0.1,0c0.2-0.1,0.4-0.3,0.6-0.5c0,0,0.1-0.1,0.1-0.1c0.2-0.1,0.3-0.3,0.5-0.4
					c0.1-0.1,0.1-0.1,0.2-0.2c0.2-0.2,0.4-0.4,0.5-0.6c0,0,0,0,0,0c0,0,0,0,0,0c0.2-0.2,0.3-0.3,0.4-0.5c0,0,0-0.1,0.1-0.1
					c0,0,0.1-0.1,0.1-0.1c0.2-0.2,0.3-0.4,0.4-0.6c0.2-0.3,0.4-0.6,0.5-0.9c0,0,0-0.1,0.1-0.1c0.1-0.3,0.3-0.6,0.4-0.9
					c0-0.1,0.1-0.1,0.1-0.2c0.1-0.3,0.2-0.6,0.3-0.9c0-0.1,0.1-0.2,0.1-0.2c0.1-0.4,0.2-0.8,0.2-1.2c0.8,1.6,1.9,3,3.1,4.3
					c0,0,0.1,0.1,0.1,0.1c0.1,0.1,0.3,0.3,0.4,0.4c0,0,0.1,0.1,0.1,0.1c0,0,0.1,0.1,0.1,0.1v-13.4c-7.9,0-14.4,5.7-15.6,13.2
					c-0.2,0.3-0.5,0.5-1,0.8c-0.8,0.5-2,1.2-2.2,2.8c-0.2,1.6,0.7,2.6,1.4,3.3c0.7,0.7,0.9,1,0.8,1.5c-0.1,0.6-0.4,0.8-1.2,1.3
					c-0.8,0.5-2,1.2-2.2,2.8c-0.2,1.6,0.7,2.6,1.4,3.3c0.7,0.7,0.9,1,0.8,1.5c-0.1,0.6-0.4,0.8-1.2,1.3c-0.8,0.5-2,1.2-2.2,2.8
					c-0.2,1.6,0.7,2.6,1.4,3.3c0.7,0.7,0.9,1,0.8,1.5c-0.1,0.6-0.4,0.8-1.2,1.3c-0.8,0.5-2,1.2-2.2,2.9c-0.2,1.6,0.7,2.6,1.4,3.3
					c0.7,0.7,2.8,2.1,2.7,2.6C618.9,271.3,626.8,262.5,636.6,262.5z"/>
				<path fill="#FCD07A" d="M628,248.5C628,248.5,627.9,248.5,628,248.5C627.9,248.5,627.9,248.5,628,248.5
					C627.9,248.5,628,248.5,628,248.5z"/>
				<path fill="#FCD07A" d="M629.5,247.3C629.5,247.3,629.5,247.3,629.5,247.3c-0.1,0-0.1,0.1-0.2,0.1c0,0,0,0,0,0
					C629.4,247.4,629.5,247.3,629.5,247.3z"/>
				<path fill="#FCD07A" d="M630.1,246.7C630.1,246.7,630.1,246.7,630.1,246.7C630.1,246.7,630.1,246.7,630.1,246.7
					C630.1,246.7,630.1,246.7,630.1,246.7z"/>
				<path fill="#FCD07A" d="M635.9,245.4C635.9,245.3,635.9,245.3,635.9,245.4C635.9,245.3,635.9,245.3,635.9,245.4
					C635.9,245.3,635.9,245.3,635.9,245.4z"/>
				<path fill="#FCD07A" d="M626.5,249.3L626.5,249.3c0,0-0.1,0-0.2,0.1c0,0,0,0,0,0C626.4,249.3,626.4,249.3,626.5,249.3z"/>
				<path fill="#FCD07A" d="M630.7,245.9C630.7,246,630.7,246,630.7,245.9C630.7,246,630.7,246,630.7,245.9
					C630.7,245.9,630.7,245.9,630.7,245.9z"/>
				<path fill="#FCD07A" d="M632.5,242.4c0-0.1,0.1-0.2,0.1-0.2C632.5,242.3,632.5,242.3,632.5,242.4z"/>
				<path fill="#FCD07A" d="M632.1,243.4c0-0.1,0.1-0.1,0.1-0.2C632.2,243.3,632.1,243.4,632.1,243.4z"/>
				<path fill="#FCD07A" d="M625.5,249.7C625.5,249.7,625.5,249.7,625.5,249.7C625.5,249.7,625.5,249.7,625.5,249.7
					C625.5,249.7,625.5,249.7,625.5,249.7z"/>
				<path fill="#FCD07A" d="M631.7,244.4c0,0,0-0.1,0.1-0.1C631.7,244.4,631.7,244.4,631.7,244.4z"/>
				<path fill="#FCD07A" d="M624.7,249.9C624.7,249.9,624.7,249.9,624.7,249.9C624.7,249.9,624.7,249.9,624.7,249.9
					C624.7,249.9,624.7,249.9,624.7,249.9z"/>
				<path fill="#FCD07A" d="M623.7,250.1C623.7,250.1,623.7,250.1,623.7,250.1C623.7,250.1,623.7,250.1,623.7,250.1
					C623.7,250.1,623.7,250.1,623.7,250.1z"/>
				<path fill="#FFFFFF" d="M631.5,271.2c2.8,0,5.1,2.3,5.1,5.1v-13.9c-9.8,0-17.8,8.8-17.8,19.7h7.5v-5.8
					C626.4,273.5,628.7,271.2,631.5,271.2z"/>
				<path fill="#FF5B45" d="M631.5,271.2c-2.8,0-5.1,2.3-5.1,5.1v5.8h10.2v-5.8C636.6,273.5,634.4,271.2,631.5,271.2z"/>
				<path fill="#FFFFFF" d="M643,249.5c0.2,0.1,0.4,0.1,0.7,0.2C643.5,249.6,643.2,249.5,643,249.5z"/>
				<path fill="#FFFFFF" d="M637.3,246.5c-0.2-0.2-0.4-0.3-0.6-0.5v0C636.8,246.2,637.1,246.4,637.3,246.5z"/>
				<path fill="#FFFFFF" d="M646.1,250c-0.3,0-0.6-0.1-0.8-0.1c-0.1,0-0.1,0-0.2,0c0.4,0.1,0.8,0.1,1.2,0.1
					C646.1,250,646.1,250,646.1,250z"/>
				<path fill="#FFFFFF" d="M646.4,250c0.4,0,0.7,0,1.1,0C647.1,250.1,646.7,250.1,646.4,250z"/>
				<path fill="#FFFFFF" d="M644,249.7c0.3,0.1,0.6,0.1,1,0.2C644.7,249.8,644.3,249.8,644,249.7z"/>
				<path fill="#FFFFFF" d="M639.2,247.9c-0.1-0.1-0.2-0.1-0.3-0.2c-0.2-0.1-0.3-0.2-0.5-0.3c-0.1-0.1-0.2-0.1-0.2-0.2
					c-0.3-0.2-0.5-0.4-0.8-0.6c0.8,0.6,1.7,1.2,2.7,1.7C639.7,248.2,639.5,248,639.2,247.9z"/>
				<path fill="#FFFFFF" d="M640,248.3c0.1,0.1,0.3,0.1,0.4,0.2C640.3,248.5,640.2,248.4,640,248.3z"/>
				<path fill="#FFFFFF" d="M641.8,249.1c-0.1,0-0.2-0.1-0.4-0.1c-0.2-0.1-0.3-0.1-0.5-0.2c0.6,0.2,1.2,0.5,1.8,0.6
					C642.4,249.3,642.1,249.2,641.8,249.1z"/>
				<path fill="#FFFFFF" d="M636.6,262.4c7.3,0,13.2-5.6,13.9-12.7c-1,0.2-2,0.3-3.1,0.3c-0.4,0-0.7,0-1.1,0c0,0,0,0,0,0
					c-0.1,0-0.1,0-0.2,0c-0.4,0-0.8-0.1-1.2-0.1c0,0,0,0,0,0h0c-0.3,0-0.7-0.1-1-0.2c0,0,0,0,0,0c-0.1,0-0.2,0-0.3-0.1c0,0,0,0,0,0
					c-0.2-0.1-0.4-0.1-0.7-0.2c0,0,0,0,0,0c-0.1,0-0.2-0.1-0.4-0.1c0,0,0,0,0,0c-0.6-0.2-1.2-0.4-1.8-0.6c0,0,0,0,0,0
					c-0.2-0.1-0.3-0.1-0.5-0.2l0,0c-0.1-0.1-0.3-0.1-0.4-0.2c0,0,0,0,0,0c0,0,0,0,0,0c-0.9-0.5-1.8-1.1-2.7-1.7c0,0-0.1,0-0.1-0.1
					c-0.2-0.2-0.4-0.3-0.6-0.5L636.6,262.4L636.6,262.4L636.6,262.4z"/>
				<path fill="#FCD07A" d="M657.2,279.6c0.7-0.7,1.6-1.6,1.4-3.3c-0.2-1.6-1.3-2.3-2.2-2.9c-0.8-0.5-1.1-0.7-1.2-1.3
					c-0.1-0.6,0.2-0.9,0.8-1.5c0.7-0.7,1.6-1.6,1.4-3.3c-0.2-1.6-1.3-2.3-2.2-2.8c-0.8-0.5-1.1-0.7-1.2-1.3
					c-0.1-0.6,0.2-0.9,0.8-1.5c0.7-0.7,1.6-1.6,1.4-3.3c-0.2-1.6-1.3-2.3-2.2-2.8c-0.8-0.5-1.1-0.7-1.2-1.3
					c-0.1-0.6,0.2-0.9,0.8-1.5c0.7-0.7,1.6-1.6,1.4-3.3c-0.2-1.6-1.3-2.3-2.2-2.8c-0.5-0.3-0.8-0.5-1-0.8
					c-1.3-7.5-7.8-13.2-15.6-13.2V246c0.2,0.2,0.4,0.3,0.6,0.5c0,0,0.1,0,0.1,0.1c0.3,0.2,0.5,0.4,0.8,0.6c0.1,0.1,0.2,0.1,0.2,0.2
					c0.2,0.1,0.3,0.2,0.5,0.3c0.1,0.1,0.2,0.1,0.3,0.2c0.3,0.2,0.5,0.3,0.8,0.5c0,0,0,0,0,0c0.1,0.1,0.3,0.1,0.4,0.2
					c0.2,0.1,0.3,0.1,0.5,0.2c0.2,0.1,0.3,0.1,0.5,0.2c0.1,0,0.2,0.1,0.4,0.1c0.3,0.1,0.6,0.2,0.9,0.3c0.1,0,0.2,0.1,0.4,0.1
					c0.2,0.1,0.4,0.1,0.7,0.2c0.1,0,0.2,0.1,0.3,0.1c0.3,0.1,0.6,0.1,1,0.2c0,0,0,0,0,0c0.1,0,0.1,0,0.2,0c0.3,0,0.6,0.1,0.8,0.1
					c0,0,0.1,0,0.1,0c0.1,0,0.1,0,0.2,0c0.4,0,0.7,0,1.1,0c1.1,0,2.1-0.1,3.1-0.3c-0.7,7.1-6.6,12.7-13.9,12.7v0.1l0,0
					c9.8,0,17.8,8.8,17.8,19.7C654.4,281.6,656.5,280.2,657.2,279.6z"/>
				<path fill="#FFFFFF" d="M637.3,246.5C637.3,246.6,637.3,246.6,637.3,246.5C637.3,246.6,637.3,246.6,637.3,246.5z"/>
				<path fill="#FFFFFF" d="M640,248.3C640,248.3,640,248.3,640,248.3C640,248.3,640,248.3,640,248.3C640,248.3,640,248.3,640,248.3
					z"/>
				<path fill="#FFFFFF" d="M643,249.5C643,249.5,643,249.5,643,249.5c-0.1,0-0.2-0.1-0.4-0.1c0,0,0,0,0,0
					C642.8,249.4,642.9,249.4,643,249.5z"/>
				<path fill="#FFFFFF" d="M640.9,248.7C640.9,248.7,640.9,248.7,640.9,248.7c-0.1-0.1-0.3-0.1-0.5-0.2l0,0
					C640.6,248.6,640.7,248.7,640.9,248.7z"/>
				<path fill="#FFFFFF" d="M644,249.7C644,249.7,644,249.7,644,249.7c-0.1,0-0.2,0-0.3-0.1c0,0,0,0,0,0
					C643.8,249.7,643.9,249.7,644,249.7z"/>
				<path fill="#FFFFFF" d="M646.4,250c-0.1,0-0.1,0-0.2,0C646.2,250,646.3,250,646.4,250C646.4,250,646.4,250,646.4,250z"/>
				<path fill="#FFFFFF" d="M645,249.9C645,249.9,645,249.9,645,249.9L645,249.9C645,249.9,645,249.9,645,249.9z"/>
				<path fill="#FFFFFF" d="M636.6,262.5L636.6,262.5l0,13.9c0-2.8,2.3-5.1,5.1-5.1c2.8,0,5.1,2.3,5.1,5.1v5.8h7.5
					C654.4,271.3,646.5,262.5,636.6,262.5z"/>
				<path fill="#FF5B45" d="M641.8,271.2c-2.8,0-5.1,2.3-5.1,5.1v5.8h10.2v-5.8C646.9,273.5,644.6,271.2,641.8,271.2z"/>
			</g>
		</g>
	</g>
	<g>
		<defs>
			<rect id="SVGID_21_" x="292.5" y="179.5" width="403" height="403"/>
		</defs>
		<clipPath id="SVGID_22_">
			<use xlink:href="#SVGID_21_"  overflow="visible"/>
		</clipPath>
		<g clip-path="url(#SVGID_22_)">
			<circle fill="#004860" cx="628.8" cy="339.8" r="31.4"/>
			<g>
				<path fill="#002738" d="M646.7,315.8c-0.1,1.5-1.5,4-4.7,4.4c-2.2,0.2-4.3-0.6-5.5-1.1c-2.3-1.7-5.1-2.7-8.2-2.7
					c-7,0-12.8,5.2-13.8,12c4.7-0.4,8.5-4,9.1-8.7c2.6,5.1,7.8,8.6,13.9,8.6c1.6,0,3-0.2,4.5-0.7c0,0,0-0.1,0-0.1
					C649.4,324.7,646.7,315.8,646.7,315.8z"/>
				<path fill="#69E2DE" d="M628.2,348.4c2.1,0,3.9-1.6,4.1-3.6c1.7,0.4,3.2,1.2,4.7,2.1v17.1h-8.9L628.2,348.4
					C628.2,348.4,628.2,348.4,628.2,348.4z"/>
				<g>
					<polygon fill="none" points="621.7,338.2 621.7,338.2 621.7,338.2 					"/>
					<path fill="none" d="M620.4,339.5C620.4,339.5,620.4,339.5,620.4,339.5C620.4,339.5,620.4,339.5,620.4,339.5z"/>
					<path fill="none" d="M622.4,337.7C622.4,337.7,622.4,337.7,622.4,337.7C622.4,337.7,622.4,337.7,622.4,337.7z"/>
					<path fill="none" d="M621,338.9c0,0,0.1-0.1,0.1-0.1C621,338.8,621,338.8,621,338.9z"/>
					<path fill="none" d="M623.2,337.2c-0.1,0-0.1,0.1-0.2,0.1C623.1,337.3,623.1,337.2,623.2,337.2z"/>
					<path fill="none" d="M626.5,336.1c-0.1,0-0.2,0-0.3,0C626.3,336.1,626.4,336.1,626.5,336.1z"/>
					<path fill="none" d="M627.3,336c-0.1,0-0.2,0-0.3,0C627.2,336,627.2,336,627.3,336z"/>
					<path fill="none" d="M625.6,336.3c-0.1,0-0.1,0-0.2,0C625.5,336.3,625.6,336.3,625.6,336.3z"/>
					<path fill="none" d="M623.9,336.8c-0.1,0-0.1,0.1-0.2,0.1C623.8,336.9,623.8,336.9,623.9,336.8z"/>
					<path fill="none" d="M624.6,336.5C624.6,336.5,624.6,336.5,624.6,336.5C624.6,336.5,624.6,336.5,624.6,336.5z"/>
					<path fill="none" d="M619.9,340.2c0,0.1-0.1,0.1-0.1,0.2C619.8,340.3,619.9,340.2,619.9,340.2z"/>
					<path fill="none" d="M628.2,344.2C628.2,344.2,628.2,344.2,628.2,344.2C628.2,344.2,628.2,344.2,628.2,344.2L628.2,344.2z"/>
					<path fill="#AFC01D" d="M610.4,363.9h8.9v-17.1C614,350.2,610.4,356.6,610.4,363.9z"/>
					<path fill="#69E2DE" d="M628.2,348.4c-2.1,0-3.9-1.6-4.1-3.6c-1.7,0.4-3.2,1.2-4.7,2.1v17.1h8.9L628.2,348.4
						C628.2,348.4,628.2,348.4,628.2,348.4z"/>
					<path fill="#FFFFFF" d="M628.2,348.4C628.2,348.4,628.2,348.4,628.2,348.4l0-4.2c0,0,0,0,0,0c-1.4,0-2.8,0.2-4.1,0.5
						C624.3,346.8,626.1,348.4,628.2,348.4z"/>
					<path fill="#002738" d="M628.2,336C628.2,336,628.2,336,628.2,336c-0.3,0-0.6,0-0.9,0c-0.1,0-0.2,0-0.3,0c-0.2,0-0.4,0-0.6,0.1
						c-0.1,0-0.2,0-0.3,0c-0.2,0-0.4,0.1-0.6,0.1c-0.1,0-0.1,0-0.2,0c-0.3,0.1-0.5,0.1-0.8,0.2c0,0,0,0,0,0
						c-0.2,0.1-0.5,0.2-0.7,0.3c-0.1,0-0.1,0.1-0.2,0.1c-0.2,0.1-0.4,0.2-0.6,0.3c-0.1,0-0.1,0.1-0.2,0.1c-0.2,0.1-0.4,0.2-0.6,0.4
						c0,0,0,0-0.1,0c-0.2,0.2-0.4,0.3-0.6,0.5c0,0,0,0,0,0c0,0,0,0,0,0c-3.7-2-6.4-5.6-7.2-9.9c-0.1,0-0.1,0-0.2,0
						c-0.1,0.6-0.2,1.3-0.2,2c0,4.4,2,8.3,5.2,10.8c0.1,0.1,0.1,0.1,0.2,0.2c2.4,1.8,5.3,3,8.6,3c0,0,0,0,0,0v-2.3c0,0,0,0,0,0
						c-2,0-3.7-1.6-3.7-3.7h3.7L628.2,336L628.2,336z"/>
					<path fill="#002738" d="M621.7,338.2c-0.2,0.2-0.4,0.4-0.6,0.6C621.3,338.6,621.5,338.4,621.7,338.2z"/>
					<path fill="#002738" d="M620.4,339.5c-0.2,0.2-0.3,0.4-0.5,0.7C620,339.9,620.2,339.7,620.4,339.5z"/>
					<path fill="#002738" d="M620.4,339.5c0.2-0.2,0.4-0.4,0.6-0.6C620.7,339.1,620.6,339.3,620.4,339.5z"/>
					<path fill="#002738" d="M619.4,341.1c0.1-0.2,0.3-0.5,0.4-0.7C619.6,340.6,619.5,340.8,619.4,341.1z"/>
					<path fill="#FFFFFF" d="M621.7,338.2C621.7,338.2,621.7,338.2,621.7,338.2c0.2-0.2,0.4-0.3,0.7-0.5c0,0,0,0,0.1,0
						c0.2-0.1,0.4-0.3,0.6-0.4c0.1,0,0.1-0.1,0.2-0.1c0.2-0.1,0.4-0.2,0.6-0.3c0.1,0,0.1-0.1,0.2-0.1c0.2-0.1,0.5-0.2,0.7-0.3
						c0,0,0,0,0,0c0.3-0.1,0.5-0.2,0.8-0.2c0.1,0,0.1,0,0.2,0c0.2,0,0.4-0.1,0.6-0.1c0.1,0,0.2,0,0.3,0c0.2,0,0.4-0.1,0.6-0.1
						c0.1,0,0.2,0,0.3,0c0.3,0,0.6,0,0.8,0c0,0,0,0,0,0v-10.7c-2-1.5-3.6-3.4-4.7-5.6c-0.6,4.6-4.3,8.2-8.9,8.7
						C615.3,332.6,618,336.2,621.7,338.2z"/>
					<path fill="#FFFFFF" d="M623,337.3c-0.2,0.1-0.4,0.2-0.6,0.4C622.6,337.5,622.8,337.4,623,337.3z"/>
					<path fill="#FFFFFF" d="M622.3,337.7c-0.2,0.2-0.4,0.3-0.6,0.5C621.9,338,622.1,337.8,622.3,337.7z"/>
					<path fill="#FFFFFF" d="M628.2,336C628.2,336,628.2,336,628.2,336L628.2,336C628.2,336,628.2,336,628.2,336z"/>
					<path fill="#FFFFFF" d="M623.7,336.9c-0.2,0.1-0.4,0.2-0.6,0.3C623.3,337.1,623.5,337,623.7,336.9z"/>
					<path fill="#FFFFFF" d="M628.2,336c-0.3,0-0.6,0-0.8,0C627.6,336,627.9,336,628.2,336z"/>
					<path fill="#FFFFFF" d="M626.2,336.1c-0.2,0-0.4,0.1-0.6,0.1C625.8,336.2,626,336.2,626.2,336.1z"/>
					<path fill="#FFFFFF" d="M627.1,336c-0.2,0-0.4,0-0.6,0.1C626.7,336.1,626.9,336,627.1,336z"/>
					<path fill="#FFFFFF" d="M625.4,336.3c-0.3,0.1-0.5,0.1-0.8,0.2C624.9,336.5,625.2,336.4,625.4,336.3z"/>
					<path fill="#FFFFFF" d="M624.6,336.6c-0.2,0.1-0.5,0.2-0.7,0.3C624.1,336.7,624.4,336.6,624.6,336.6z"/>
					<path fill="#FFFFFF" d="M624.5,338.2c0,2,1.6,3.7,3.7,3.7c0,0,0,0,0,0v-3.7H624.5z"/>
					<path fill="#002738" d="M629,336c0.1,0,0.2,0,0.3,0C629.2,336,629.1,336,629,336z"/>
					<path fill="#002738" d="M635.3,338.8c0,0,0.1,0.1,0.1,0.1C635.4,338.8,635.3,338.8,635.3,338.8z"/>
					<path fill="#002738" d="M634,337.7C634,337.7,634,337.7,634,337.7C634,337.7,634,337.7,634,337.7z"/>
					<path fill="#002738" d="M632.5,336.8c0.1,0,0.1,0.1,0.2,0.1C632.6,336.9,632.5,336.9,632.5,336.8z"/>
					<path fill="#002738" d="M633.2,337.2c0.1,0,0.1,0.1,0.2,0.1C633.3,337.3,633.2,337.2,633.2,337.2z"/>
					<path fill="#002738" d="M631.7,336.5C631.7,336.5,631.7,336.5,631.7,336.5C631.7,336.5,631.7,336.5,631.7,336.5z"/>
					<path fill="#002738" d="M636,339.5C636,339.5,636,339.5,636,339.5C636,339.5,636,339.5,636,339.5z"/>
					<path fill="#002738" d="M636.5,340.2c0,0.1,0.1,0.1,0.1,0.2C636.5,340.3,636.5,340.2,636.5,340.2z"/>
					<path fill="#002738" d="M629.9,336.1c0.1,0,0.2,0,0.3,0C630,336.1,630,336.1,629.9,336.1z"/>
					<path fill="#002738" d="M630.7,336.3c0.1,0,0.1,0,0.2,0C630.9,336.3,630.8,336.3,630.7,336.3z"/>
					<path fill="#AFC01D" d="M637,346.8v17.1h8.9C646,356.6,642.4,350.2,637,346.8z"/>
					<path fill="#FFFFFF" d="M632.3,344.7c-1.3-0.3-2.7-0.5-4.1-0.5v4.2C630.3,348.4,632.1,346.8,632.3,344.7z"/>
					<path fill="#002738" d="M641.9,327.7c-0.6,4.5-3.4,8.4-7.2,10.5c-0.2-0.2-0.4-0.3-0.7-0.5c0,0,0,0,0,0
						c-0.2-0.1-0.4-0.3-0.6-0.4c-0.1,0-0.1-0.1-0.2-0.1c-0.2-0.1-0.4-0.2-0.6-0.3c-0.1,0-0.1-0.1-0.2-0.1c-0.2-0.1-0.5-0.2-0.7-0.3
						c0,0,0,0,0,0c-0.3-0.1-0.5-0.2-0.8-0.2c-0.1,0-0.1,0-0.2,0c-0.2-0.1-0.4-0.1-0.6-0.1c-0.1,0-0.2,0-0.3,0
						c-0.2,0-0.4-0.1-0.6-0.1c-0.1,0-0.2,0-0.3,0c-0.3,0-0.5,0-0.8,0v2.3h3.6c0,2-1.6,3.6-3.6,3.7v2.3c3.2,0,6.2-1.1,8.5-3
						c0.1-0.1,0.1-0.1,0.2-0.2c3.1-2.6,5.2-6.4,5.2-10.8C642.1,329.4,642,328.5,641.9,327.7z"/>
					<path fill="#002738" d="M635.3,338.8c-0.2-0.2-0.4-0.4-0.6-0.6l0,0C634.9,338.4,635.1,338.6,635.3,338.8z"/>
					<path fill="#002738" d="M637,341.1c-0.1-0.2-0.3-0.5-0.4-0.7C636.7,340.6,636.8,340.8,637,341.1z"/>
					<path fill="#002738" d="M636,339.5c0.2,0.2,0.3,0.4,0.5,0.7C636.3,339.9,636.2,339.7,636,339.5z"/>
					<path fill="#002738" d="M635.4,338.9c0.2,0.2,0.4,0.4,0.6,0.6C635.8,339.3,635.6,339.1,635.4,338.9z"/>
					<path fill="#FFFFFF" d="M629,336c0.1,0,0.2,0,0.3,0c0.2,0,0.4,0,0.6,0.1c0.1,0,0.2,0,0.3,0c0.2,0,0.4,0.1,0.6,0.1
						c0.1,0,0.1,0,0.2,0c0.3,0.1,0.5,0.1,0.8,0.2c0,0,0,0,0,0c0.2,0.1,0.5,0.2,0.7,0.3c0.1,0,0.1,0.1,0.2,0.1
						c0.2,0.1,0.4,0.2,0.6,0.3c0.1,0,0.1,0.1,0.2,0.1c0.2,0.1,0.4,0.2,0.6,0.4c0,0,0,0,0,0c0.2,0.2,0.4,0.3,0.7,0.5
						c3.9-2.1,6.7-5.9,7.2-10.5c0-0.1,0-0.1,0-0.2c-1.4,0.4-2.9,0.7-4.5,0.7c-3.4,0-6.6-1.1-9.2-3V336C628.5,336,628.8,336,629,336z
						"/>
					<path fill="#002738" d="M634.7,338.2c-0.2-0.2-0.4-0.3-0.7-0.5C634.2,337.8,634.5,338,634.7,338.2L634.7,338.2z"/>
					<path fill="#002738" d="M633.3,337.3c0.2,0.1,0.4,0.2,0.6,0.4C633.8,337.5,633.6,337.4,633.3,337.3z"/>
					<path fill="#002738" d="M629.3,336c0.2,0,0.4,0,0.6,0.1C629.7,336.1,629.5,336,629.3,336z"/>
					<path fill="#002738" d="M630.1,336.1c0.2,0,0.4,0.1,0.6,0.1C630.5,336.2,630.3,336.2,630.1,336.1z"/>
					<path fill="#002738" d="M628.2,336L628.2,336c0.3,0,0.5,0,0.8,0C628.8,336,628.5,336,628.2,336z"/>
					<path fill="#002738" d="M630.9,336.3c0.3,0.1,0.5,0.1,0.8,0.2C631.5,336.5,631.2,336.4,630.9,336.3z"/>
					<path fill="#002738" d="M632.6,336.9c0.2,0.1,0.4,0.2,0.6,0.3C633,337.1,632.8,337,632.6,336.9z"/>
					<path fill="#002738" d="M631.7,336.5c0.2,0.1,0.5,0.2,0.7,0.3C632.2,336.7,632,336.6,631.7,336.5z"/>
					<path fill="#FFFFFF" d="M631.9,338.2h-3.6v3.7C630.2,341.9,631.9,340.3,631.9,338.2z"/>
				</g>
			</g>
		</g>
	</g>
	<g>
		<defs>
			<rect id="SVGID_23_" x="292.5" y="179.5" width="403" height="403"/>
		</defs>
		<clipPath id="SVGID_24_">
			<use xlink:href="#SVGID_23_"  overflow="visible"/>
		</clipPath>
		<g clip-path="url(#SVGID_24_)">
			<circle fill="#004860" cx="535.8" cy="322.8" r="31.4"/>
			<rect x="535.4" y="305.7" fill="#FFFFFF" width="1.2" height="30.6"/>
			<g>
				<path fill="none" d="M535.8,326.9L535.8,326.9L535.8,326.9z"/>
				<path fill="#FF5B45" d="M543.6,328.8c-0.9,3.5-4,6.1-7.8,6.1v0h0c-3.8,0-6.9-2.6-7.8-6.1c-5.9,3.2-10,9.9-10,17.7h17.8v0h17.8
					C553.6,338.8,549.5,332,543.6,328.8z"/>
				<path fill="#FFFFFF" d="M535.8,326.9L535.8,326.9L535.8,326.9c-2.8,0-5.4,0.7-7.8,2c0.9,3.5,4,6.1,7.8,6.1h0v0
					c3.8,0,6.9-2.6,7.8-6.1C541.3,327.6,538.6,326.9,535.8,326.9z"/>
				<g>
					<path fill="#FFFFFF" d="M525.6,312.2c-1.3,0-2.5-0.2-3.7-0.6c0,0.4-0.1,0.9-0.1,1.3c0,7.7,6.2,14,14,14h0v-21.3h0c0,0,0,0,0,0
						C534.3,309.4,530.3,312.2,525.6,312.2z"/>
					<path fill="#FFFFFF" d="M549.7,311.6c-1.2,0.4-2.4,0.6-3.7,0.6c-4.7,0-8.7-2.8-10.2-6.7v21.3c7.7,0,14-6.2,14-14
						C549.8,312.5,549.8,312,549.7,311.6z"/>
				</g>
				<g>
					<path fill="#FCD07A" d="M521.9,311.6c1.2,0.4,2.4,0.6,3.7,0.6c4.7,0,8.7-2.8,10.2-6.7c0,0,0,0,0,0v-6.6h0
						C528.6,298.9,522.6,304.5,521.9,311.6z"/>
					<path fill="#FCD07A" d="M535.8,298.9v6.6c1.5,3.9,5.5,6.7,10.2,6.7c1.3,0,2.5-0.2,3.7-0.6C549,304.5,543.1,298.9,535.8,298.9z"
						/>
				</g>
			</g>
			<rect x="535.5" y="299.2" fill="#FCD07A" width="0.8" height="6.4"/>
		</g>
	</g>
	<g>
		<defs>
			<rect id="SVGID_25_" x="292.5" y="179.5" width="403" height="403"/>
		</defs>
		<clipPath id="SVGID_26_">
			<use xlink:href="#SVGID_25_"  overflow="visible"/>
		</clipPath>
		<g clip-path="url(#SVGID_26_)">
			<circle fill="#004860" cx="588.3" cy="414.8" r="31.4"/>
			<g>
				<path fill="#FFFFFF" d="M588.3,418.8c-1.8,0-3.5,0.3-5.1,0.9l5.1,3.1V418.8z"/>
				<path fill="#AFC01D" d="M585.2,425.3c-0.5,0.8-0.9,1.8-1,3.1l-6.1-5.9c-4.3,3.5-7.1,9.2-7.1,15.6h13.5h3.8v-15.3
					C588.3,422.7,586.5,423.4,585.2,425.3z"/>
				<path fill="#7EA800" d="M585.2,425.3c1.2-1.9,3.1-2.6,3.1-2.6l0,0l-5.1-3.1c-1.8,0.6-3.6,1.6-5.1,2.8l6.1,5.9
					C584.3,427.1,584.7,426.1,585.2,425.3z"/>
				<path fill="#FFFFFF" d="M584.3,404.2l-0.1-6.4l-1,6.4h-3.1l0.6-6.4l-1.6,6.4h-4.4c0,0.3,0,0.6,0,0.9c0,7.5,6.1,13.6,13.6,13.6
					v-14.5H584.3z"/>
				<path fill="#002738" d="M580.8,397.9l-0.6,6.4h3.1l1-6.4l0.1,6.4h4v-12.7c-7.2,0-13.1,5.6-13.6,12.7h4.4L580.8,397.9z"/>
				<polygon fill="#00BEC5" points="588.3,418.8 588.3,418.8 588.3,418.8 				"/>
				<path fill="#FFFFFF" d="M588.3,422.7l5.1-3.1c-1.6-0.6-3.3-0.9-5.1-0.9h0L588.3,422.7L588.3,422.7L588.3,422.7z"/>
				<path fill="#AFC01D" d="M598.6,422.4l-6.1,5.9c-0.1-1.3-0.5-2.3-1-3.1c-1.2-1.9-3.1-2.6-3.1-2.6h0V438h3.8h13.5
					C605.7,431.6,602.9,425.9,598.6,422.4z"/>
				<path fill="#00BEC5" d="M588.3,422.7L588.3,422.7L588.3,422.7z"/>
				<path fill="#7EA800" d="M591.5,425.3c0.5,0.8,0.9,1.8,1,3.1l6.1-5.9c-1.5-1.2-3.2-2.2-5.1-2.8l-5.1,3.1
					C588.3,422.7,590.2,423.4,591.5,425.3z"/>
				<path fill="#FFFFFF" d="M602,405.1c0-0.3,0-0.6,0-0.9h-3.5l-1.6-6.4l0.5,6.4h-2.7l-0.7-6.4l0.2,6.4h-2.7l-0.6-6.4l-0.3,6.4h-2.2
					v14.5h0C595.9,418.8,602,412.7,602,405.1z"/>
				<path fill="#002738" d="M590.5,404.2l0.3-6.4l0.6,6.4h2.7l-0.2-6.4l0.7,6.4h2.7l-0.5-6.4l1.6,6.4h3.5
					c-0.5-7.1-6.4-12.7-13.6-12.7h0v12.7H590.5z"/>
			</g>
		</g>
	</g>
	<g>
		<defs>
			<rect id="SVGID_27_" x="292.5" y="179.5" width="403" height="403"/>
		</defs>
		<clipPath id="SVGID_28_">
			<use xlink:href="#SVGID_27_"  overflow="visible"/>
		</clipPath>
		<polygon clip-path="url(#SVGID_28_)" fill="#69E2DE" points="385.5,539.1 330,598.4 379.5,598.4 408.4,549.6 		"/>
	</g>
</g>
</svg>
