<svg xmlns="http://www.w3.org/2000/svg" width="486" height="376" viewBox="0 0 486 376"><path fill="#FFF" d="M277.795 286.002s4.42 7.438 12.462 8.442c0 0 18.09 4.824 15.88-10.25 0 0-.403-4.43-9.85-.007 0 0 9.248-7.637.402-6.834l-4.625-.603s-4.62-19.098-12.26-21.107l23.92-33.17s25.327-24.724 6.834-26.732c0 0-2.615-56.478-50.655-62.107 0 0 3.014-2.613 6.23-2.41 0 0-3.818-5.227-12.864-.805 0 0 .604-6.834-2.813-7.035 0 0-4.22-1.014-4.824 7.835 0 0-6.43-9.045-11.457-4.422 0 0-3.015 2.613 1.81 6.23 0 0-56.283 13.868-50.454 68.944 0 0-10.653.002-3.216 11.46l7.84 9.646s16.28 22.31 23.315 27.736c0 0-24.924 36.392-17.084 45.437 0 0 8.643 9.045 21.91-12.062 0 0 6.834 21.91 7.438 22.112 0 0-27.136-9.645-29.75 4.024 0 0-1.608 10.45 10.25 15.275 0 0 13.468 8.44 60.706.2 0 0 21.106 5.427 29.75-1.407 0 0 17.687-14.07 1.606-19.096 0 0-13.265-3.62-31.155 1.608l3.216-16.282c0 .002 2.816-8.037 7.44-4.62zm-3.417 32.352c-4.824 8.645-41.006 9.247-41.006 9.247 29.347-2.007 41.006-9.246 41.006-9.246z"/><path fill="#DFE1E1" d="M213.27 275.94s38.797-1.006 33.97 34.373l15.277-3.417s5.024-6.23 10.25-46.23l-59.497 14.472"/><path fill="#0A3E51" d="M305.22 256.644c-3.985 9.54-9.42 11.834-9.42 11.834-7.857 5.41-37.19-7.208-46.087-11.246-8.47-3.658-17.278-7.19-25.14-7.19-15.952 0-25.226 8.903-32.646 30.42-.742 1.484-1.113 4.45-1.113 5.937 0 4.82 4.452 8.53 9.274 8.53 4.823 0 7.42-2.968 8.904-5.935 4.45-9.275 8.53-13.356 17.063-13.356 12.612 0 33.017 15.21 49.708 15.21 15.58 0 26.074-8 32.646-30.42.43-1.468.74-4.45.74-5.936 0-.876-.177-1.697-.43-2.483-1.417-1.59-3.5 4.634-3.5 4.634z"/><path fill="#1DA7DF" d="M305.02 255.84c-3.985 9.54-9.42 11.834-9.42 11.834-7.857 5.41-37.19-7.208-46.088-11.245-8.47-3.66-17.277-7.19-25.14-7.19-15.952 0-25.226 8.9-32.647 30.417-.74 1.485-1.112 4.452-1.112 5.938 0 4.822 4.452 8.53 9.274 8.53s7.42-2.967 8.904-5.934c4.453-9.273 8.532-13.354 17.065-13.354 12.612 0 33.017 15.21 49.708 15.21 15.58 0 26.074-8 32.646-30.42.43-1.468.74-4.45.74-5.935 0-.876-.176-1.696-.428-2.483-1.42-1.59-3.5 4.634-3.5 4.634z"/><path fill="#FFF" d="M203.422 263.68s7.838-16.08 30.955-8.644c0 0-19.7-4.423-28.543 9.046 0 0-1.81 2.01-2.412-.402z"/><path fill="none" stroke="#070909" stroke-width="2.412" stroke-miterlimit="10" d="M229.25 158.253s3.016 15.076 20.202 20.503c0 0-7.99-4.975-7.688-12.814 0 0 7.688 4.22 13.72 3.77 0 0-4.523-4.524-2.413-7.69l9.5 2.11s-5.277-5.728 2.41-6.632"/><path fill="#070909" d="M211.31 202.123s6.483 6.935 12.514.15c0 0-4.674 11.458-12.513-.15zM271.16 202.274s6.936 6.633 12.514.3c0 0-6.03 11.007-12.513-.3z"/><path fill="none" stroke="#2D1511" stroke-width="2.412" stroke-linecap="round" stroke-miterlimit="10" d="M235.432 234.234s10.1 4.674 20.955.15"/><path d="M218.396 226.094c-11.887 0-21.558-9.67-21.558-21.56 0-11.886 9.67-21.557 21.558-21.557s21.558 9.67 21.558 21.558-9.67 21.56-21.558 21.56zm0-38.293c-9.227 0-16.734 7.508-16.734 16.735s7.507 16.734 16.734 16.734c9.228 0 16.734-7.51 16.734-16.735s-7.506-16.734-16.734-16.734zM276.287 226.094c-11.888 0-21.56-9.67-21.56-21.56 0-11.886 9.672-21.557 21.56-21.557 11.887 0 21.558 9.67 21.558 21.558s-9.67 21.56-21.558 21.56zm0-38.293c-9.227 0-16.734 7.508-16.734 16.735s7.508 16.734 16.734 16.734 16.733-7.51 16.733-16.735-7.506-16.734-16.733-16.734z"/><path fill="none" stroke="#000" stroke-width="4.824" stroke-miterlimit="10" d="M236.79 200.465s12.512-6.332 21.104 1.81"/><path fill="#FFF" d="M195.238 295.444s-7.837-8.04-2.374-12.26c0 0 13.535-2.815 13.773 11.054 0 0-2.375 4.623-11.4 1.206z"/><path fill="#E85556" stroke="#FFF" stroke-width="1.206" stroke-miterlimit="10" d="M284.43 39.96c0-20.76-16.83-37.588-37.59-37.588s-37.59 16.83-37.59 37.588c0 19.21 14.415 35.044 33.016 37.302l4.774 18.78 3.862-18.715c18.848-2.025 33.527-17.98 33.527-37.367z"/><path fill="#FFFAFC" d="M262.106 36.21c-4.825-10.384-7.333-14.327-15.217-14.164-2.81.058-2.133-2.034-4.275-1.24-2.14.793-.304 1.955-2.494 3.75-6.14 5.043-5.575 9.707-2.725 20.822 1.2 4.683-2.894 4.913-1.273 9.45 1.182 3.31 9.897 4.696 19.098 1.282 9.197-3.413 15.003-10.186 13.82-13.494-1.62-4.54-4.898-2.033-6.934-6.406zm-7.885 17.104c-8.214 3.05-14.964 1.256-15.25.46-.49-1.375 2.652-5.96 12.044-9.444s14.633-2.193 15.18-.657c.325.905-3.757 6.594-11.973 9.64zm-2.638-7.393c-4.295 1.594-7.28 3.417-9.21 5.057 1.357 1.235 3.906 1.538 6.445.595 3.233-1.198 5.215-3.95 4.43-6.148-.007-.026-.02-.05-.032-.076-.53.176-1.072.364-1.633.573zm0 0"/><path fill="#E0D424" stroke="#FFF" stroke-width="1.206" stroke-miterlimit="10" d="M374.472 128.818c15.61-13.684 17.172-37.432 3.488-53.043s-37.433-17.174-53.044-3.49c-14.446 12.663-16.852 33.938-6.288 49.415l-10.976 15.97 16.618-9.433c13.95 12.84 35.623 13.36 50.202.58z"/><path fill="#47A3DA" stroke="#FFF" stroke-width="1.206" stroke-miterlimit="10" d="M168.175 71.164c-15.857-13.398-39.573-11.403-52.97 4.453-13.4 15.856-11.406 39.573 4.45 52.97 14.675 12.4 36.07 11.61 49.802-1.143l17.427 8.474-11.804-15.028c10.617-15.706 7.905-37.215-6.905-49.726z"/><path fill="#FFF" d="M355.402 84.98l-8.533 4.867c-.537.308-1.198.294-1.743-.042l-7.747-4.93c-1.264-.825-2.892.32-2.544 1.788l2.04 8.943c.155.61-.078 1.254-.55 1.655l-7.47 6.38c-1.11.953-.543 2.782.912 2.954l9.752 1.057c.632.072 1.146.464 1.388 1.05l3.408 8.7c.548 1.362 2.486 1.437 3.104.077l3.914-8.608c.258-.562.786-.932 1.4-.985l9.425-.77c1.49-.122 2.087-1.948.974-2.947l-7.006-6.17c-.472-.423-.663-1.04-.518-1.658l2.307-9.533c.31-1.414-1.243-2.55-2.515-1.828zm0 0M120.006 92.745l22.12 29.75 21.293-15.834-22.122-29.748-21.292 15.833zm41.714 13.613l-19.396 14.423-20.622-27.73 19.396-14.424 20.622 27.732zM130.185 93.59l-.387.287c-.032-.06-.046-.118-.04-.177.01-.055.042-.103.1-.145.053-.04.108-.058.165-.054.06.006.113.035.162.09zm3.94 5.855c-.22.165-.456.214-.71.15-.25-.065-.49-.248-.712-.548-.222-.3-.328-.58-.32-.84.014-.26.128-.47.35-.636.22-.164.456-.212.705-.145.253.067.49.25.71.547.224.3.33.58.32.84-.007.258-.12.47-.342.633zm6.715-19.066l-17.382 12.925 19.125 25.72 17.382-12.927-19.125-25.72zm6.176 12.12l.658.883-13.972 10.39-.658-.885 13.972-10.39zm-14.864 6.958c-.36-.487-.5-.952-.413-1.4.046-.354.26-.674.642-.957.38-.282.747-.395 1.102-.338.45.046.86.312 1.22.8.357.478.495.945.415 1.398-.048.357-.26.676-.642.96-.382.283-.75.395-1.104.338-.46-.054-.867-.323-1.222-.8zm3.96-.873l-1.98-2.662.584-.433 2.438 1.07-1.38-1.856.518-.386 1.98 2.663-.555.414-2.49-1.083 1.405 1.89-.52.385zm2.637-1.96l-1.98-2.663.552-.41 1.98 2.662-.553.41zm1.285-1.9c.252.026.47-.033.66-.173.188-.14.304-.306.342-.502.037-.195.01-.393-.09-.584l-.618.46-.332-.446 1.11-.825 1.06 1.428-.368.274-.304-.29c-.013.205-.042.364-.09.48-.08.2-.225.38-.44.538-.353.264-.732.355-1.14.28-.418-.072-.784-.323-1.1-.748-.32-.43-.46-.864-.415-1.297.045-.44.263-.803.65-1.09.34-.253.675-.37 1.01-.35.332.02.61.146.83.38l-.547.406c-.18-.15-.376-.203-.593-.15-.12.027-.238.084-.35.167-.213.16-.33.372-.347.637-.02.262.093.556.334.88.242.326.488.502.738.526zm3.026-3.864l-.754-1.014.553-.412 1.98 2.662-.555.412-.884-1.19-1.034.77.884 1.19-.553.412-1.98-2.662.554-.412.756 1.016 1.035-.77zm2.89.41l-1.63-2.19-.798.595-.35-.473 2.155-1.604.352.473-.798.593 1.628 2.19-.56.418zm-14.052.565l.24-.177.175.236-.24.178-.175-.237zm.44.59l.237-.178.174.234-.24.178-.173-.233zm-1.04-.182l-.18-.24.222-.165.18.24.14-.104.118.16-.14.104.336.453c.025.035.048.054.062.058.016 0 .046-.014.094-.05l.022-.016c.006-.005.012-.014.02-.02l.125.17-.106.083c-.102.083-.187.117-.256.106-.042-.005-.085-.037-.125-.09l-.394-.528-.122.09-.118-.16.122-.09zm-1.022.748l.22-.162.093.126c-.007-.064-.003-.117.01-.157.018-.067.064-.128.135-.18.088-.067.18-.095.268-.093.09.004.177.063.255.17l.43.577-.23.17-.387-.52c-.033-.045-.065-.073-.096-.09-.052-.03-.11-.02-.172.026-.077.057-.104.127-.086.212.01.046.037.096.077.15l.344.462-.224.167-.637-.856zm-.774.726c.02-.137.09-.255.215-.348.076-.057.154-.09.233-.107.082-.018.162-.013.243.014.072.026.138.07.2.126.035.036.08.092.136.167l-.626.464c.066.085.14.122.222.114.05-.003.1-.025.15-.062.05-.036.08-.08.094-.13.008-.025.007-.056.002-.094l.23-.17c.033.056.04.128.03.217-.013.14-.09.263-.228.365-.113.085-.24.124-.38.12-.14-.006-.268-.088-.385-.246-.114-.148-.157-.29-.138-.428zm-.85.484l.647.5-.29-.768.24-.178.328 1.086-.236.175-.944-.627.253-.188zm-1.442.602l.85-.632.152.204-.615.457.183.247.563-.42.15.203-.564.418.223.3.642-.477.153.208-.877.652-.86-1.158zm1.34 2.045l13.973-10.39.657.883-13.972 10.39-.657-.883zm.297 3.007l2.156-1.604.35.472-.795.592 1.63 2.19-.562.417-1.63-2.19-.797.594-.353-.47zm7.996 7.287l-.664-1.97 1.694 1.205 1.67-1.24-.62 1.983 1.694 1.202-2.077.025-.624 1.984-.662-1.97-2.08.022 1.67-1.24zm9.134 8.32c-1.576 1.172-3.802.842-4.974-.733-1.172-1.576-.846-3.8.73-4.973 1.577-1.172 3.804-.846 4.976.73 1.17 1.576.844 3.805-.733 4.976zm2.355-13.09l-5.97 4.44-.372-.5 5.97-4.44.372.5zm-1.123-1.51l-5.97 4.44-.375-.504 5.97-4.44.374.505zm-1.123-1.508l-5.97 4.44-.375-.504 5.97-4.44.375.504zm6.87-.208l-2.08.027-.622 1.983-.663-1.97-2.08.025 1.668-1.24-.664-1.974 1.694 1.207 1.67-1.24-.62 1.984 1.698 1.2zm-8.963 11.037l-1.814 4.184-.577-.247 1.815-4.187.576.25zm1.06.463l-1.816 4.183-.575-.25 1.813-4.185.577.253zm.485.207l.573.25-1.817 4.183-.575-.25 1.82-4.183zm0 0"/><ellipse fill="#1B9D6B" cx="248.246" cy="365.392" rx="63.921" ry="7.236"/></svg>