<?xml version="1.0" encoding="utf-8"?>
<!-- Generator: Adobe Illustrator 16.0.0, SVG Export Plug-In . SVG Version: 6.00 Build 0)  -->
<!DOCTYPE svg PUBLIC "-//W3C//DTD SVG 1.1//EN" "http://www.w3.org/Graphics/SVG/1.1/DTD/svg11.dtd">
<svg version="1.1" xmlns="http://www.w3.org/2000/svg" xmlns:xlink="http://www.w3.org/1999/xlink" x="0px" y="0px" width="486px"
	 height="376px" viewBox="0 0 486 376" enable-background="new 0 0 486 376" xml:space="preserve">
<g id="Layer_4">
	<path fill="#FFFFFF" d="M277.795,286.002c0,0,4.421,7.438,12.462,8.442c0,0,18.091,4.824,15.88-10.251c0,0-0.403-4.429-9.85-0.006
		c0,0,9.248-7.637,0.402-6.834l-4.624-0.603c0,0-4.621-19.098-12.261-21.107l23.92-33.169c0,0,25.328-24.725,6.835-26.733
		c0,0-2.614-56.479-50.654-62.108c0,0,3.014-2.613,6.23-2.411c0,0-3.818-5.226-12.864-0.804c0,0,0.603-6.834-2.814-7.035
		c0,0-4.221-1.014-4.824,7.835c0,0-6.431-9.045-11.457-4.422c0,0-3.015,2.613,1.809,6.231c0,0-56.282,13.867-50.453,68.943
		c0,0-10.653,0.002-3.216,11.459l7.839,9.647c0,0,16.281,22.31,23.316,27.736c0,0-24.925,36.392-17.085,45.437
		c0,0,8.643,9.046,21.91-12.061c0,0,6.834,21.911,7.438,22.112c0,0-27.136-9.645-29.75,4.024c0,0-1.608,10.451,10.251,15.275
		c0,0,13.467,8.442,60.705,0.201c0,0,21.106,5.427,29.749-1.407c0,0,17.688-14.069,1.607-19.096c0,0-13.265-3.619-31.155,1.608
		l3.215-16.282C270.356,290.625,273.172,282.586,277.795,286.002z M274.378,318.354c-4.824,8.645-41.006,9.247-41.006,9.247
		C262.719,325.593,274.378,318.354,274.378,318.354z"/>
	<path fill="#DFE1E1" d="M213.271,275.94c0,0,38.796-1.006,33.97,34.373l15.276-3.417c0,0,5.024-6.23,10.251-46.231l-59.498,14.473"
		/>
	<path fill="#0A3E51" d="M305.221,256.644c-3.986,9.54-9.42,11.834-9.42,11.834c-7.858,5.41-37.192-7.208-46.088-11.246
		c-8.471-3.658-17.278-7.19-25.141-7.19c-15.951,0-25.225,8.903-32.645,30.419c-0.742,1.485-1.113,4.452-1.113,5.938
		c0,4.821,4.452,8.53,9.274,8.53c4.823,0,7.419-2.967,8.904-5.934c4.451-9.275,8.531-13.356,17.063-13.356
		c12.612,0,33.017,15.21,49.708,15.21c15.58,0,26.074-7.999,32.646-30.418c0.431-1.469,0.741-4.452,0.741-5.937
		c0-0.876-0.177-1.697-0.429-2.483C307.303,250.419,305.221,256.644,305.221,256.644z"/>
	<path fill="#1DA7DF" d="M305.021,255.841c-3.986,9.54-9.42,11.833-9.42,11.833c-7.858,5.411-37.192-7.208-46.089-11.245
		c-8.471-3.658-17.277-7.19-25.141-7.19c-15.951,0-25.225,8.902-32.646,30.418c-0.741,1.485-1.112,4.452-1.112,5.938
		c0,4.822,4.452,8.53,9.274,8.53s7.419-2.967,8.904-5.934c4.452-9.274,8.531-13.355,17.064-13.355
		c12.612,0,33.017,15.21,49.708,15.21c15.58,0,26.074-8,32.646-30.419c0.432-1.469,0.742-4.452,0.742-5.936
		c0-0.877-0.177-1.697-0.429-2.484C307.103,249.616,305.021,255.841,305.021,255.841z"/>
	<path fill="#FFFFFF" d="M203.422,263.68c0,0,7.838-16.081,30.955-8.644c0,0-19.699-4.423-28.543,9.046
		C205.834,264.082,204.025,266.092,203.422,263.68z"/>
	<path fill="none" stroke="#070909" stroke-width="2.4121" stroke-miterlimit="10" d="M229.251,158.253
		c0,0,3.015,15.076,20.201,20.503c0,0-7.99-4.975-7.688-12.814c0,0,7.688,4.221,13.719,3.769c0,0-4.522-4.523-2.412-7.689
		l9.498,2.111c0,0-5.276-5.729,2.412-6.633"/>
	<path fill="#070909" d="M211.311,202.123c0,0,6.482,6.935,12.513,0.151C223.824,202.274,219.15,213.731,211.311,202.123z"/>
	<path fill="#070909" d="M271.161,202.274c0,0,6.935,6.633,12.513,0.301C283.674,202.575,277.644,213.581,271.161,202.274z"/>
	<path fill="none" stroke="#2D1511" stroke-width="2.4121" stroke-linecap="round" stroke-miterlimit="10" d="M235.432,234.234
		c0,0,10.1,4.674,20.955,0.15"/>
	<g>
		<path d="M218.396,226.094c-11.887,0-21.558-9.671-21.558-21.559c0-11.887,9.671-21.558,21.558-21.558
			c11.888,0,21.558,9.671,21.558,21.558C239.955,216.423,230.284,226.094,218.396,226.094z M218.396,187.801
			c-9.227,0-16.734,7.507-16.734,16.734s7.507,16.734,16.734,16.734c9.228,0,16.734-7.508,16.734-16.734
			S227.624,187.801,218.396,187.801z"/>
	</g>
	<g>
		<path d="M276.287,226.094c-11.888,0-21.559-9.671-21.559-21.559c0-11.887,9.671-21.558,21.559-21.558
			c11.887,0,21.558,9.671,21.558,21.558C297.845,216.423,288.174,226.094,276.287,226.094z M276.287,187.801
			c-9.227,0-16.734,7.507-16.734,16.734s7.508,16.734,16.734,16.734s16.733-7.508,16.733-16.734S285.514,187.801,276.287,187.801z"
			/>
	</g>
	<path fill="none" stroke="#000000" stroke-width="4.8242" stroke-miterlimit="10" d="M236.789,200.465
		c0,0,12.513-6.332,21.105,1.81"/>
	<path fill="#FFFFFF" d="M195.238,295.444c0,0-7.837-8.039-2.374-12.261c0,0,13.535-2.814,13.773,11.055
		C206.637,294.238,204.262,298.861,195.238,295.444z"/>
	<path fill="#E85556" stroke="#FFFFFF" stroke-width="1.206" stroke-miterlimit="10" d="M284.429,39.96
		c0-20.759-16.829-37.588-37.589-37.588s-37.589,16.829-37.589,37.588c0,19.211,14.414,35.044,33.015,37.302l4.774,18.78
		l3.862-18.715C269.75,75.302,284.429,59.348,284.429,39.96z"/>
	<path fill="#FFFAFC" d="M262.106,36.21c-4.825-10.384-7.333-14.327-15.217-14.164c-2.81,0.058-2.132-2.034-4.274-1.24
		c-2.141,0.793-0.304,1.955-2.494,3.751c-6.142,5.042-5.576,9.706-2.726,20.821c1.201,4.683-2.894,4.913-1.273,9.45
		c1.182,3.31,9.897,4.696,19.098,1.282c9.197-3.413,15.003-10.186,13.82-13.494C267.421,38.077,264.142,40.583,262.106,36.21
		L262.106,36.21z M254.221,53.314c-8.215,3.049-14.965,1.256-15.25,0.459c-0.492-1.374,2.651-5.959,12.043-9.443
		s14.633-2.193,15.18-0.657C266.519,44.578,262.437,50.267,254.221,53.314L254.221,53.314z M251.582,45.921
		c-4.295,1.593-7.281,3.416-9.21,5.056c1.357,1.235,3.906,1.538,6.445,0.595c3.233-1.198,5.215-3.951,4.431-6.148
		c-0.008-0.026-0.022-0.049-0.033-0.076C252.686,45.524,252.143,45.712,251.582,45.921L251.582,45.921z M251.582,45.921"/>
	<path fill="#E0D424" stroke="#FFFFFF" stroke-width="1.206" stroke-miterlimit="10" d="M374.472,128.818
		c15.611-13.684,17.172-37.432,3.488-53.043s-37.433-17.174-53.044-3.49c-14.446,12.663-16.852,33.938-6.288,49.415l-10.976,15.97
		l16.618-9.433C338.22,141.076,359.893,141.598,374.472,128.818z"/>
	<path fill="#47A3DA" stroke="#FFFFFF" stroke-width="1.206" stroke-miterlimit="10" d="M168.175,71.164
		c-15.857-13.398-39.573-11.403-52.971,4.453c-13.398,15.856-11.405,39.573,4.452,52.971c14.674,12.399,36.07,11.608,49.801-1.144
		l17.427,8.474L175.08,120.89C185.697,105.184,182.985,83.675,168.175,71.164z"/>
	<path fill="#FFFFFF" d="M355.402,84.979l-8.533,4.868c-0.536,0.308-1.197,0.294-1.742-0.042l-7.747-4.931
		c-1.264-0.824-2.892,0.32-2.544,1.789l2.039,8.943c0.156,0.611-0.077,1.254-0.55,1.655l-7.468,6.38
		c-1.112,0.952-0.544,2.781,0.911,2.953l9.752,1.057c0.632,0.071,1.146,0.463,1.388,1.048l3.408,8.7
		c0.548,1.363,2.486,1.438,3.104,0.078l3.914-8.608c0.258-0.561,0.786-0.931,1.399-0.984l9.426-0.769
		c1.49-0.123,2.088-1.949,0.975-2.948l-7.006-6.169c-0.472-0.424-0.663-1.041-0.518-1.659l2.307-9.533
		C358.227,85.393,356.674,84.256,355.402,84.979L355.402,84.979z M355.402,84.979"/>
	<g>
		<path fill="#FFFFFF" d="M120.006,92.745l22.121,29.749l21.292-15.833l-22.121-29.749L120.006,92.745z M161.72,106.358
			l-19.396,14.423l-20.622-27.732l19.396-14.423L161.72,106.358z M130.185,93.59l-0.387,0.287c-0.032-0.06-0.046-0.118-0.039-0.177
			c0.009-0.055,0.041-0.103,0.098-0.145c0.054-0.04,0.109-0.058,0.166-0.054C130.083,93.506,130.136,93.535,130.185,93.59
			L130.185,93.59z M134.126,99.445c-0.222,0.165-0.457,0.214-0.711,0.15c-0.25-0.065-0.489-0.248-0.712-0.548
			c-0.222-0.299-0.328-0.58-0.319-0.839c0.013-0.261,0.127-0.472,0.349-0.637c0.221-0.165,0.456-0.213,0.705-0.146
			c0.253,0.067,0.49,0.25,0.711,0.547c0.223,0.3,0.33,0.58,0.32,0.839C134.461,99.07,134.347,99.281,134.126,99.445L134.126,99.445z
			 M140.84,80.379l-17.382,12.926l19.125,25.719l17.382-12.926L140.84,80.379z M147.016,92.499l0.658,0.884l-13.972,10.39
			l-0.658-0.885L147.016,92.499z M132.152,99.458c-0.361-0.487-0.501-0.952-0.413-1.399c0.047-0.355,0.261-0.675,0.643-0.958
			c0.38-0.283,0.747-0.396,1.102-0.339c0.451,0.046,0.859,0.312,1.221,0.799c0.356,0.479,0.494,0.946,0.414,1.399
			c-0.047,0.357-0.26,0.676-0.641,0.959c-0.382,0.284-0.749,0.396-1.104,0.339C132.914,100.204,132.507,99.935,132.152,99.458
			L132.152,99.458z M136.113,98.585l-1.98-2.662l0.583-0.433l2.438,1.07l-1.38-1.856l0.518-0.386l1.98,2.663l-0.555,0.413
			l-2.49-1.083l1.405,1.89L136.113,98.585z M138.749,96.625l-1.98-2.663l0.553-0.411l1.98,2.663L138.749,96.625z M140.035,94.726
			c0.252,0.025,0.471-0.034,0.661-0.174c0.187-0.139,0.303-0.306,0.341-0.502c0.037-0.195,0.009-0.393-0.091-0.584l-0.617,0.459
			l-0.331-0.445l1.109-0.825l1.062,1.428l-0.369,0.274l-0.304-0.289c-0.013,0.204-0.042,0.363-0.089,0.479
			c-0.08,0.201-0.226,0.379-0.44,0.538c-0.354,0.264-0.733,0.355-1.14,0.279c-0.419-0.071-0.785-0.322-1.101-0.747
			c-0.32-0.43-0.46-0.864-0.415-1.297c0.044-0.439,0.262-0.803,0.65-1.091c0.339-0.252,0.674-0.368,1.009-0.349
			c0.332,0.02,0.609,0.146,0.829,0.38l-0.546,0.406c-0.18-0.149-0.376-0.203-0.593-0.151c-0.12,0.028-0.238,0.085-0.349,0.168
			c-0.214,0.159-0.331,0.372-0.348,0.637c-0.019,0.262,0.093,0.556,0.334,0.881C139.539,94.526,139.785,94.702,140.035,94.726
			L140.035,94.726z M143.061,90.861l-0.755-1.015l0.553-0.412l1.98,2.662l-0.554,0.412l-0.884-1.189l-1.035,0.77l0.884,1.19
			l-0.553,0.411l-1.98-2.662l0.554-0.412l0.755,1.016L143.061,90.861z M145.95,91.271l-1.629-2.19l-0.799,0.594l-0.351-0.473
			l2.156-1.604l0.352,0.473l-0.797,0.592l1.628,2.19L145.95,91.271z M131.898,91.835l0.239-0.177l0.176,0.236l-0.239,0.178
			L131.898,91.835z M132.337,92.425l0.238-0.178l0.174,0.234l-0.238,0.177L132.337,92.425z M131.298,92.243l-0.179-0.241
			l0.221-0.164l0.179,0.241l0.14-0.105l0.119,0.16l-0.14,0.104l0.336,0.453c0.025,0.034,0.048,0.053,0.062,0.057
			c0.016,0,0.046-0.014,0.094-0.049c0.004-0.003,0.014-0.011,0.022-0.017c0.006-0.005,0.012-0.014,0.02-0.019l0.125,0.169
			l-0.106,0.083c-0.103,0.083-0.188,0.117-0.257,0.106c-0.042-0.006-0.085-0.038-0.125-0.091l-0.393-0.528l-0.122,0.09l-0.118-0.16
			L131.298,92.243z M130.276,92.991l0.219-0.163l0.094,0.126c-0.006-0.064-0.002-0.117,0.01-0.157
			c0.019-0.067,0.065-0.128,0.136-0.181c0.088-0.066,0.179-0.094,0.268-0.092c0.091,0.004,0.177,0.063,0.255,0.169l0.43,0.578
			l-0.229,0.17l-0.388-0.521c-0.034-0.045-0.066-0.073-0.097-0.089c-0.052-0.03-0.111-0.021-0.172,0.025
			c-0.077,0.057-0.104,0.127-0.086,0.212c0.011,0.046,0.037,0.096,0.077,0.149l0.344,0.463l-0.224,0.167L130.276,92.991z
			 M129.502,93.716c0.021-0.137,0.09-0.255,0.215-0.348c0.076-0.057,0.154-0.091,0.233-0.107c0.082-0.019,0.162-0.014,0.243,0.013
			c0.072,0.026,0.138,0.069,0.2,0.126c0.035,0.036,0.081,0.092,0.136,0.167l-0.625,0.464c0.066,0.084,0.14,0.121,0.222,0.113
			c0.051-0.003,0.1-0.025,0.15-0.062c0.049-0.036,0.081-0.08,0.094-0.131c0.008-0.024,0.007-0.055,0.002-0.093l0.229-0.17
			c0.034,0.056,0.042,0.128,0.031,0.217c-0.013,0.141-0.09,0.263-0.228,0.365c-0.113,0.085-0.239,0.124-0.381,0.119
			c-0.138-0.005-0.267-0.087-0.384-0.245C129.526,93.996,129.483,93.854,129.502,93.716L129.502,93.716z M128.651,94.2l0.648,0.5
			l-0.289-0.768l0.24-0.178l0.328,1.086l-0.236,0.175l-0.944-0.627L128.651,94.2z M127.21,94.802l0.85-0.632l0.152,0.204
			l-0.615,0.457l0.183,0.246l0.563-0.419l0.149,0.202l-0.563,0.418l0.224,0.3l0.642-0.477l0.153,0.207l-0.877,0.652L127.21,94.802z
			 M128.551,96.847l13.972-10.39l0.657,0.883l-13.972,10.39L128.551,96.847z M128.847,99.854l2.156-1.604l0.351,0.472l-0.796,0.592
			l1.629,2.19l-0.561,0.417l-1.629-2.19l-0.798,0.593L128.847,99.854z M136.843,107.141l-0.664-1.972l1.695,1.206l1.669-1.241
			l-0.62,1.984l1.695,1.202l-2.077,0.025l-0.625,1.984l-0.662-1.97l-2.08,0.023L136.843,107.141z M145.977,115.46
			c-1.576,1.172-3.802,0.842-4.974-0.733c-1.172-1.576-0.846-3.801,0.731-4.973c1.576-1.172,3.803-0.846,4.975,0.73
			C147.881,112.06,147.554,114.289,145.977,115.46L145.977,115.46z M148.332,102.371l-5.969,4.439l-0.373-0.501l5.97-4.44
			L148.332,102.371z M147.209,100.861l-5.969,4.439l-0.375-0.504l5.969-4.44L147.209,100.861z M146.087,99.352l-5.97,4.439
			l-0.375-0.503l5.97-4.44L146.087,99.352z M152.958,99.144l-2.08,0.027l-0.623,1.982l-0.663-1.969l-2.081,0.024l1.669-1.241
			l-0.664-1.973l1.694,1.207l1.67-1.241l-0.621,1.984L152.958,99.144z M143.994,110.181l-1.814,4.183l-0.577-0.247l1.815-4.187
			L143.994,110.181z M145.053,110.643l-1.815,4.183l-0.575-0.249l1.813-4.186L145.053,110.643z M145.539,110.85l0.574,0.249
			l-1.817,4.184l-0.575-0.251L145.539,110.85z M145.539,110.85"/>
	</g>
	<ellipse fill="#1B9D6B" cx="248.246" cy="365.392" rx="63.921" ry="7.236"/>
</g>
<g id="Layer_5">
</g>
</svg>
