<?xml version="1.0" encoding="utf-8"?>
<!-- Generator: Adobe Illustrator 18.1.1, SVG Export Plug-In . SVG Version: 6.00 Build 0)  -->
<svg version="1.1" id="Layer_1" xmlns="http://www.w3.org/2000/svg" xmlns:xlink="http://www.w3.org/1999/xlink" x="0px" y="0px"
	 viewBox="251 208 486 376" enable-background="new 251 208 486 376" xml:space="preserve">
<g>
	<g>
		<g>
			<path fill="#FFFBC5" d="M679,451.6H540.1V556H679V451.6z"/>
			<path fill="#2B282A" d="M680.5,450.4H538.7v106.8h141.8V450.4z M543.1,552.8v-98h132.4v98H543.1z"/>
			<path fill="#0C0B0C" d="M678.3,452.1H540.4v103.8h137.9L678.3,452.1L678.3,452.1z M544.8,551.5v-95h129v95H544.8z"/>
			<path fill="#1F1D1E" d="M679.8,451.1H539.4v105.7h140.4V451.1z M543.8,552.5v-96.9h131v96.9H543.8L543.8,552.5z"/>
			
				<linearGradient id="SVGID_1_" gradientUnits="userSpaceOnUse" x1="2363.425" y1="2578.2119" x2="2413.5083" y2="2578.2119" gradientTransform="matrix(0 1 -1 0 3255.3662 -1912.2773)">
				<stop  offset="0" style="stop-color:#000000"/>
				<stop  offset="0.6315" style="stop-color:#343434;stop-opacity:0.3685"/>
				<stop  offset="1" style="stop-color:#4D4D4D;stop-opacity:0"/>
			</linearGradient>
			<path fill="url(#SVGID_1_)" d="M679.6,501.2v-50.1l-4.9,4.4v45.7H679.6z"/>
			
				<linearGradient id="SVGID_2_" gradientUnits="userSpaceOnUse" x1="4078.375" y1="2578.2119" x2="4128.1802" y2="2578.2119" gradientTransform="matrix(0 -1 -1 0 3255.3662 4635.2227)">
				<stop  offset="0" style="stop-color:#000000"/>
				<stop  offset="0.6315" style="stop-color:#343434;stop-opacity:0.3685"/>
				<stop  offset="1" style="stop-color:#4D4D4D;stop-opacity:0"/>
			</linearGradient>
			<path fill="url(#SVGID_2_)" d="M674.7,507v45.4l4.9,4.4V507H674.7z"/>
			
				<linearGradient id="SVGID_3_" gradientUnits="userSpaceOnUse" x1="4033.875" y1="-1362.3378" x2="4083.6799" y2="-1362.3378" gradientTransform="matrix(0 -1 1 0 1904.3652 4590.7227)">
				<stop  offset="0" style="stop-color:#000000"/>
				<stop  offset="0.6315" style="stop-color:#343434;stop-opacity:0.3685"/>
				<stop  offset="1" style="stop-color:#4D4D4D;stop-opacity:0"/>
			</linearGradient>
			<path fill="url(#SVGID_3_)" d="M539.6,507v49.8l4.9-4.4V507H539.6z"/>
			
				<linearGradient id="SVGID_4_" gradientUnits="userSpaceOnUse" x1="2407.925" y1="-1362.3397" x2="2458.0083" y2="-1362.3397" gradientTransform="matrix(0 1 1 0 1904.3672 -1956.7773)">
				<stop  offset="0" style="stop-color:#000000"/>
				<stop  offset="0.6315" style="stop-color:#343434;stop-opacity:0.3685"/>
				<stop  offset="1" style="stop-color:#4D4D4D;stop-opacity:0"/>
			</linearGradient>
			<path fill="url(#SVGID_4_)" d="M544.5,501.2v-45.7l-4.9-4.4v50.1H544.5z"/>
		</g>
		<g>
			<rect x="556" y="467.6" opacity="0.1" fill="#1F1D1E" enable-background="new    " width="107.7" height="73"/>
			<rect x="557.6" y="469.2" fill="#1C75BC" width="104.4" height="69.2"/>
		</g>
	</g>
	<g>
		<g>
			<path fill="#FFFBC5" d="M386.6,277.7V528h192.1V277.7H386.6z"/>
			<path fill="#2B282A" d="M384.4,275.1v255.6h196.7V275.1L384.4,275.1L384.4,275.1z M573,522.5H392.6V284H573V522.5z"/>
			<path fill="#0C0B0C" d="M387.5,279.1v248.5h191.1V279.1H387.5z M570.6,519.5H395.6V287h174.9L570.6,519.5L570.6,519.5z"/>
			<path fill="#1F1D1E" d="M385.7,276.4v252.9h194.7V276.4H385.7z M572.4,521.3H393.8v-236h178.5V521.3z"/>
			
				<linearGradient id="SVGID_5_" gradientUnits="userSpaceOnUse" x1="281.6987" y1="169.4867" x2="373.6587" y2="169.4867" gradientTransform="matrix(1 0 0 1 104.04 111.3398)">
				<stop  offset="0" style="stop-color:#000000"/>
				<stop  offset="0.6315" style="stop-color:#343434;stop-opacity:0.3685"/>
				<stop  offset="1" style="stop-color:#4D4D4D;stop-opacity:0"/>
			</linearGradient>
			<path fill="url(#SVGID_5_)" d="M477.7,276.4h-92l8.1,8.9h83.9V276.4z"/>
			
				<linearGradient id="SVGID_6_" gradientUnits="userSpaceOnUse" x1="6071.1138" y1="169.4873" x2="6163.0742" y2="169.4873" gradientTransform="matrix(-1 0 0 1 6651.5391 111.3398)">
				<stop  offset="0" style="stop-color:#000000"/>
				<stop  offset="0.6315" style="stop-color:#343434;stop-opacity:0.3685"/>
				<stop  offset="1" style="stop-color:#4D4D4D;stop-opacity:0"/>
			</linearGradient>
			<path fill="url(#SVGID_6_)" d="M488.5,285.3h83.9l8.1-8.9h-92V285.3z"/>
			
				<linearGradient id="SVGID_7_" gradientUnits="userSpaceOnUse" x1="6026.6138" y1="937.4946" x2="6118.5742" y2="937.4946" gradientTransform="matrix(-1 0 0 -1 6607.0391 1462.3398)">
				<stop  offset="0" style="stop-color:#000000"/>
				<stop  offset="0.6315" style="stop-color:#343434;stop-opacity:0.3685"/>
				<stop  offset="1" style="stop-color:#4D4D4D;stop-opacity:0"/>
			</linearGradient>
			<path fill="url(#SVGID_7_)" d="M488.5,529.3h92l-8.1-8.9h-83.9V529.3z"/>
			
				<linearGradient id="SVGID_8_" gradientUnits="userSpaceOnUse" x1="326.1987" y1="937.4946" x2="418.1587" y2="937.4946" gradientTransform="matrix(1 0 0 -1 59.54 1462.3398)">
				<stop  offset="0" style="stop-color:#000000"/>
				<stop  offset="0.6315" style="stop-color:#343434;stop-opacity:0.3685"/>
				<stop  offset="1" style="stop-color:#4D4D4D;stop-opacity:0"/>
			</linearGradient>
			<path fill="url(#SVGID_8_)" d="M477.7,520.4h-83.9l-8.1,8.9h92V520.4z"/>
		</g>
		<g>
			<g>
				<g opacity="0.1">
					<rect x="415.9" y="305.4" fill="#8C8678" width="134.8" height="193.7"/>
				</g>
				<g>
					<rect x="419.1" y="308.3" fill="#00A79D" width="127.4" height="188.1"/>
				</g>
			</g>
		</g>
	</g>
	<g>
		<g>
			<path fill="#FFFBC5" d="M308.9,425.5v156.3h120V425.5H308.9z"/>
			<path fill="#2B282A" d="M307.5,423.8v159.6h122.9V423.8H307.5z M425.3,578.4H312.6v-149h112.7V578.4z"/>
			<path fill="#0C0B0C" d="M309.5,426.3v155.2h119.4V426.3H309.5z M423.8,576.6H314.5V431.3h109.3V576.6z"/>
			<path fill="#1F1D1E" d="M308.3,424.7v158H430v-158H308.3z M424.9,577.7H313.4V430.2h111.5L424.9,577.7L424.9,577.7z"/>
			
				<linearGradient id="SVGID_9_" gradientUnits="userSpaceOnUse" x1="204.3053" y1="316.1069" x2="261.753" y2="316.1069" gradientTransform="matrix(1 0 0 1 104.04 111.3398)">
				<stop  offset="0" style="stop-color:#000000"/>
				<stop  offset="0.6315" style="stop-color:#343434;stop-opacity:0.3685"/>
				<stop  offset="1" style="stop-color:#4D4D4D;stop-opacity:0"/>
			</linearGradient>
			<path fill="url(#SVGID_9_)" d="M365.8,424.7h-57.4l5,5.5h52.4L365.8,424.7L365.8,424.7z"/>
			
				<linearGradient id="SVGID_10_" gradientUnits="userSpaceOnUse" x1="6221.5728" y1="316.1069" x2="6279.0205" y2="316.1069" gradientTransform="matrix(-1 0 0 1 6651.5391 111.3398)">
				<stop  offset="0" style="stop-color:#000000"/>
				<stop  offset="0.6315" style="stop-color:#343434;stop-opacity:0.3685"/>
				<stop  offset="1" style="stop-color:#4D4D4D;stop-opacity:0"/>
			</linearGradient>
			<path fill="url(#SVGID_10_)" d="M372.5,430.2h52.4l5-5.5h-57.4V430.2L372.5,430.2z"/>
			
				<linearGradient id="SVGID_11_" gradientUnits="userSpaceOnUse" x1="6177.0732" y1="882.4551" x2="6234.521" y2="882.4551" gradientTransform="matrix(-1 0 0 -1 6607.0391 1462.3398)">
				<stop  offset="0" style="stop-color:#000000"/>
				<stop  offset="0.6315" style="stop-color:#343434;stop-opacity:0.3685"/>
				<stop  offset="1" style="stop-color:#4D4D4D;stop-opacity:0"/>
			</linearGradient>
			<path fill="url(#SVGID_11_)" d="M372.5,582.7H430l-5-5.5h-52.4L372.5,582.7L372.5,582.7z"/>
			
				<linearGradient id="SVGID_12_" gradientUnits="userSpaceOnUse" x1="248.8053" y1="882.454" x2="306.2524" y2="882.454" gradientTransform="matrix(1 0 0 -1 59.54 1462.3398)">
				<stop  offset="0" style="stop-color:#000000"/>
				<stop  offset="0.6315" style="stop-color:#343434;stop-opacity:0.3685"/>
				<stop  offset="1" style="stop-color:#4D4D4D;stop-opacity:0"/>
			</linearGradient>
			<path fill="url(#SVGID_12_)" d="M365.8,577.1h-52.4l-5,5.5h57.4V577.1z"/>
		</g>
		<g>
			<rect x="327.3" y="442.8" opacity="0.1" fill="#1F1D1E" enable-background="new    " width="84" height="121.2"/>
			<rect x="329.2" y="444.6" fill="#9E1F63" width="79.6" height="117.5"/>
		</g>
	</g>
	<g>
		<path fill="#FFFBC5" d="M561.2,303.4v3.9h-1.4v-3.9l-2.7-3.9h1.4l2,2.7l2-2.7h1.4L561.2,303.4z"/>
		<path fill="#FFFBC5" d="M572.3,300.9v5c0,0.4-0.1,0.7-0.4,1c-0.3,0.3-0.6,0.4-1,0.4h-5.1c-0.4,0-0.7-0.1-1-0.4s-0.4-0.6-0.4-1v-5
			c0-0.4,0.1-0.7,0.4-1c0.3-0.3,0.6-0.4,1-0.4h5.2c0.4,0,0.7,0.1,1,0.4C572.2,300.2,572.3,300.5,572.3,300.9z M570.9,305.9v-5.1
			h-5.2v5.1H570.9z"/>
		<path fill="#FFFBC5" d="M580.2,305.9c0,0.4-0.1,0.7-0.4,1c-0.3,0.3-0.6,0.4-1,0.4h-4c-0.4,0-0.7-0.1-1-0.4c-0.3-0.3-0.4-0.6-0.4-1
			v-6.4h1.4v6.4h4.1v-6.4h1.4L580.2,305.9L580.2,305.9z"/>
		<path fill="#FFFBC5" d="M588,307.3h-1.9l-2.4-3.1h-1.2v3.1h-1.4v-7.8h5.4c0.4,0,0.7,0.1,1,0.4c0.3,0.3,0.4,0.6,0.4,1v1.9
			c0,0.4-0.1,0.7-0.4,1c-0.3,0.3-0.6,0.4-1,0.4h-0.9L588,307.3z M586.6,300.8h-4.1v2h4.1V300.8z"/>
		<path fill="#FFFBC5" d="M599.2,300.8h-2.7v6.4h-1.4v-6.4h-2.7v-1.3h6.8V300.8z"/>
		<path fill="#FFFBC5" d="M606.6,307.3h-5.4c-0.4,0-0.7-0.1-1-0.4c-0.3-0.3-0.4-0.6-0.4-1v-5c0-0.4,0.1-0.7,0.4-1
			c0.3-0.3,0.6-0.4,1-0.4h5.4v1.3h-5.5v1.9h5.5v1.3h-5.5v1.9h5.5L606.6,307.3L606.6,307.3z"/>
		<path fill="#FFFBC5" d="M611.3,303.4l2.6,3.9h-1.6l-1.8-2.7l-1.8,2.7h-1.6l2.6-3.9l-2.6-3.9h1.6l1.8,2.7l1.8-2.7h1.6L611.3,303.4z
			"/>
		<path fill="#FFFBC5" d="M621.2,300.8h-2.7v6.4h-1.4v-6.4h-2.7v-1.3h6.8V300.8z"/>
	</g>
	<g>
		<path fill="#FFFBC5" d="M581.1,318.1h-1.4v-3.2h-4.1v3.2h-1.4v-7.8h1.4v3.2h4.1v-3.2h1.4V318.1z"/>
		<path fill="#FFFBC5" d="M589,318.1h-5.4c-0.4,0-0.7-0.1-1-0.4c-0.3-0.3-0.4-0.6-0.4-1v-5c0-0.4,0.1-0.7,0.4-1
			c0.3-0.3,0.6-0.4,1-0.4h5.4v1.3h-5.5v1.9h5.5v1.3h-5.5v1.9h5.5L589,318.1L589,318.1z"/>
		<path fill="#FFFBC5" d="M596.5,318.1h-1.9l-2.4-3.1H591v3.1h-1.4v-7.8h5.4c0.4,0,0.7,0.1,1,0.4c0.3,0.3,0.4,0.6,0.4,1v1.9
			c0,0.4-0.1,0.7-0.4,1c-0.3,0.3-0.6,0.4-1,0.4h-0.9L596.5,318.1z M595.1,311.6H591v2h4.1V311.6z"/>
		<path fill="#FFFBC5" d="M604.3,318.1h-5.4c-0.4,0-0.7-0.1-1-0.4c-0.3-0.3-0.4-0.6-0.4-1v-5c0-0.4,0.1-0.7,0.4-1
			c0.3-0.3,0.6-0.4,1-0.4h5.4v1.3h-5.5v1.9h5.5v1.3h-5.5v1.9h5.5L604.3,318.1L604.3,318.1z"/>
	</g>
	<ellipse fill="#1F1D1E" cx="366.9" cy="387.1" rx="2.7" ry="2.7"/>
	<path fill="#1F1D1E" d="M323.1,426c-0.2,0-0.4-0.1-0.5-0.2c-0.4-0.3-0.5-0.8-0.2-1.2c1-1.3,23.7-32.7,44.2-38.5
		c0.2-0.1,0.4,0,0.6,0c0.7,0.3,17.9,7.1,42.8,38.2c0.3,0.4,0.2,0.9-0.1,1.2c-0.4,0.3-0.9,0.2-1.2-0.1
		c-22.9-28.6-39.5-36.6-41.8-37.6c-19.9,5.8-42.8,37.4-43,37.7C323.7,425.9,323.4,426,323.1,426z"/>
	<path opacity="0.3" fill="#999999" enable-background="new    " d="M324.8,428c-0.2,0-0.4-0.1-0.5-0.2c-0.4-0.3-0.5-0.8-0.2-1.2
		c1-1.3,23.7-32.7,44.2-38.5c0.2-0.1,0.4,0,0.6,0c0.7,0.3,17.9,7.1,42.8,38.2c0.3,0.4,0.2,0.9-0.1,1.2c-0.4,0.3-0.9,0.2-1.2-0.1
		c-22.9-28.6-39.5-36.6-41.8-37.6c-19.9,5.8-42.8,37.4-43,37.7C325.3,427.8,325,428,324.8,428z"/>
	<ellipse fill="#1F1D1E" cx="490.8" cy="234.6" rx="3.3" ry="3.3"/>
	<path fill="#1F1D1E" d="M437.4,282.2c-0.2,0-0.4-0.1-0.6-0.2c-0.5-0.3-0.6-1-0.3-1.5c1.2-1.6,28.9-39.9,54-46.9
		c0.2-0.1,0.5-0.1,0.7,0c0.9,0.3,21.9,8.7,52.2,46.6c0.4,0.5,0.3,1.1-0.2,1.5c-0.5,0.4-1.1,0.3-1.5-0.2c-28-35-48.3-44.6-51-45.8
		c-24.3,7.1-52.2,45.6-52.5,46C438.1,282,437.7,282.2,437.4,282.2z"/>
	<path opacity="0.3" fill="#999999" enable-background="new    " d="M439.4,284.5c-0.2,0-0.4-0.1-0.6-0.2c-0.5-0.3-0.6-1-0.3-1.5
		c1.2-1.6,28.9-39.9,54-46.9c0.2-0.1,0.5-0.1,0.7,0c0.9,0.3,21.9,8.7,52.2,46.6c0.4,0.5,0.3,1.1-0.2,1.5c-0.5,0.4-1.1,0.3-1.5-0.2
		c-28-35-48.3-44.6-51-45.8c-24.3,7.1-52.2,45.6-52.5,46C440.1,284.3,439.7,284.5,439.4,284.5z"/>
	<g>
		<g>
			<path fill="#FFFBC5" d="M530.7,231.5v156.3h120V231.5H530.7z"/>
			<path fill="#2B282A" d="M529.3,229.9v159.6h122.9V229.9H529.3z M647.1,384.5H534.4v-149h112.7V384.5z"/>
			<path fill="#0C0B0C" d="M531.2,232.4v155.2h119.4V232.4H531.2z M645.6,382.6H536.3V237.4h109.3V382.6z"/>
			<path fill="#1F1D1E" d="M530.1,230.7v158h121.6v-158H530.1z M646.7,383.7H535.1V236.2h111.5V383.7z"/>
			
				<linearGradient id="SVGID_13_" gradientUnits="userSpaceOnUse" x1="426.0554" y1="122.1363" x2="483.5037" y2="122.1363" gradientTransform="matrix(1 0 0 1 104.04 111.3398)">
				<stop  offset="0" style="stop-color:#000000"/>
				<stop  offset="0.6315" style="stop-color:#343434;stop-opacity:0.3685"/>
				<stop  offset="1" style="stop-color:#4D4D4D;stop-opacity:0"/>
			</linearGradient>
			<path fill="url(#SVGID_13_)" d="M587.5,230.7h-57.4l5,5.5h52.4L587.5,230.7L587.5,230.7z"/>
			
				<linearGradient id="SVGID_14_" gradientUnits="userSpaceOnUse" x1="5999.8218" y1="122.1357" x2="6057.2705" y2="122.1357" gradientTransform="matrix(-1 0 0 1 6651.5391 111.3398)">
				<stop  offset="0" style="stop-color:#000000"/>
				<stop  offset="0.6315" style="stop-color:#343434;stop-opacity:0.3685"/>
				<stop  offset="1" style="stop-color:#4D4D4D;stop-opacity:0"/>
			</linearGradient>
			<path fill="url(#SVGID_14_)" d="M594.3,236.2h52.4l5-5.5h-57.4L594.3,236.2L594.3,236.2z"/>
			
				<linearGradient id="SVGID_15_" gradientUnits="userSpaceOnUse" x1="5955.3237" y1="1076.4258" x2="6012.7715" y2="1076.4258" gradientTransform="matrix(-1 0 0 -1 6607.0391 1462.3398)">
				<stop  offset="0" style="stop-color:#000000"/>
				<stop  offset="0.6315" style="stop-color:#343434;stop-opacity:0.3685"/>
				<stop  offset="1" style="stop-color:#4D4D4D;stop-opacity:0"/>
			</linearGradient>
			<path fill="url(#SVGID_15_)" d="M594.3,388.7h57.4l-5-5.5h-52.4L594.3,388.7L594.3,388.7z"/>
			
				<linearGradient id="SVGID_16_" gradientUnits="userSpaceOnUse" x1="470.5543" y1="1076.4246" x2="528.0025" y2="1076.4246" gradientTransform="matrix(1 0 0 -1 59.54 1462.3398)">
				<stop  offset="0" style="stop-color:#000000"/>
				<stop  offset="0.6315" style="stop-color:#343434;stop-opacity:0.3685"/>
				<stop  offset="1" style="stop-color:#4D4D4D;stop-opacity:0"/>
			</linearGradient>
			<path fill="url(#SVGID_16_)" d="M587.5,383.1h-52.4l-5,5.5h57.4L587.5,383.1L587.5,383.1z"/>
		</g>
		<g>
			<rect x="549.1" y="248.8" opacity="0.1" fill="#1F1D1E" enable-background="new    " width="84" height="121.2"/>
			<rect x="550.9" y="250.7" fill="#EF4136" width="79.6" height="117.5"/>
		</g>
	</g>
	<ellipse fill="#1F1D1E" cx="590.8" cy="210.1" rx="1.6" ry="1.6"/>
	<path fill="#1F1D1E" d="M564.7,233.4c-0.1,0-0.2,0-0.3-0.1c-0.2-0.2-0.3-0.5-0.1-0.7c0.6-0.8,14.1-19.5,26.4-23c0.1,0,0.2,0,0.3,0
		c0.4,0.2,10.7,4.3,25.6,22.8c0.2,0.2,0.1,0.5-0.1,0.7c-0.2,0.2-0.6,0.1-0.7-0.1c-13.7-17.1-23.6-21.8-25-22.4
		c-11.9,3.5-25.5,22.3-25.7,22.5C565,233.3,564.8,233.4,564.7,233.4z"/>
	<path opacity="0.3" fill="#999999" enable-background="new    " d="M565.6,234.5c-0.1,0-0.2,0-0.3-0.1c-0.2-0.2-0.3-0.5-0.1-0.7
		c0.6-0.8,14.1-19.5,26.4-23c0.1,0,0.2,0,0.3,0c0.4,0.2,10.7,4.3,25.6,22.8c0.2,0.2,0.1,0.5-0.1,0.7c-0.2,0.2-0.6,0.1-0.7-0.1
		c-13.7-17.1-23.6-21.8-25-22.4c-11.9,3.5-25.5,22.3-25.7,22.5C566,234.5,565.8,234.5,565.6,234.5z"/>
	<ellipse fill="#1F1D1E" cx="618.7" cy="429.7" rx="1.6" ry="1.6"/>
	<path fill="#1F1D1E" d="M592.5,452.9c-0.1,0-0.2,0-0.3-0.1c-0.2-0.2-0.3-0.5-0.1-0.7c0.6-0.8,14.1-19.5,26.4-23c0.1,0,0.2,0,0.3,0
		c0.4,0.2,10.7,4.3,25.6,22.8c0.2,0.2,0.1,0.5-0.1,0.7c-0.2,0.2-0.6,0.1-0.7-0.1c-13.7-17.1-23.6-21.8-25-22.4
		c-11.9,3.5-25.5,22.3-25.7,22.5C592.9,452.9,592.7,452.9,592.5,452.9z"/>
	<path opacity="0.3" fill="#999999" enable-background="new    " d="M593.5,454.1c-0.1,0-0.2,0-0.3-0.1c-0.2-0.2-0.3-0.5-0.1-0.7
		c0.6-0.8,14.1-19.5,26.4-23c0.1,0,0.2,0,0.3,0c0.4,0.2,10.7,4.3,25.6,22.8c0.2,0.2,0.1,0.5-0.1,0.7c-0.2,0.2-0.6,0.1-0.7-0.1
		c-13.7-17.1-23.6-21.8-25-22.4c-11.9,3.5-25.5,22.3-25.7,22.5C593.9,454,593.7,454.1,593.5,454.1z"/>
	<g id="women_1">
		<g>
			<g>
				<defs>
					<ellipse id="SVGID_17_" cx="366.8" cy="499.3" rx="35.4" ry="35.1"/>
				</defs>
				<clipPath id="SVGID_18_">
					<use xlink:href="#SVGID_17_"  overflow="visible"/>
				</clipPath>
				<g clip-path="url(#SVGID_18_)">
					<g>
						<g>
							<g>
								<g>
									<ellipse fill="#482B1B" cx="366.8" cy="487" rx="15.5" ry="15.3"/>
									<polygon fill="#EAC8AD" points="372,519.8 366.7,534.4 361.6,519.8 361.6,508.6 372,508.6 									"/>
									<g>
										<path fill="#F2D7BC" d="M366.8,477.4c-5,0-13,2.8-13,16.1c0,7.7,3,11.3,4.1,12.7c1,1.3,6.2,5.4,8.9,5.4
											C366.8,498.1,366.8,477.4,366.8,477.4z"/>
										<path fill="#F2D7BC" d="M351.3,496.6c-0.2-2.1,0.8-4,2.3-4.2c1.5-0.2,2.9,1.4,3.1,3.5c0.2,2.1-0.8,4-2.3,4.2
											C352.9,500.3,351.5,498.8,351.3,496.6z"/>
									</g>
									<g>
										<g>
											<g>
												<path fill="#F2D7BC" d="M366.7,477.4c5,0,13,2.8,13,16.1c0,7.7-3,11.3-4.1,12.7c-1,1.3-6.2,5.4-8.9,5.4
													C366.7,498.1,366.7,477.4,366.7,477.4z"/>
											</g>
											<g>
												<path fill="#F2D7BC" d="M382.3,496.6c0.2-2.1-0.8-4-2.3-4.2c-1.5-0.2-2.9,1.4-3.1,3.5c-0.2,2.1,0.8,4,2.3,4.2
													C380.7,500.3,382.1,498.8,382.3,496.6z"/>
											</g>
										</g>
									</g>
									<path fill="#EAC8AD" d="M366.7,534.4v-14c0,0-3.9-0.9-4.7-4.1c-0.4-1.5-0.4-2.7-0.4-2.7s-8.5,2.8-10.4,5.8
										c-1.6,4.6-2,15-2,15H366.7L366.7,534.4z"/>
									<path fill="#EAC8AD" d="M366.7,534.4v-14c0,0,3.9-0.9,4.7-4.1c0.4-1.5,0.4-2.7,0.4-2.7s8.5,2.8,10.4,5.8c1.6,4.6,2,15,2,15
										H366.7L366.7,534.4z"/>
									<path fill="#EAC8AD" d="M366.7,534.4v-14c0,0-3.9-0.9-4.7-4.1c-0.4-1.5-0.4-2.7-0.4-2.7s-8.5,2.8-10.4,5.8
										c-1.6,4.6-2,15-2,15H366.7L366.7,534.4z"/>
									<path fill="#EAC8AD" d="M366.7,534.4v-14c0,0,3.9-0.9,4.7-4.1c0.4-1.5,0.4-2.7,0.4-2.7s8.5,2.8,10.4,5.8c1.6,4.6,2,15,2,15
										H366.7L366.7,534.4z"/>
									<path fill="#FFFFFF" d="M366.8,506.9c2,0,3.6-1.2,3.6-2.7h-7.1C363.2,505.7,364.8,506.9,366.8,506.9z"/>
								</g>
								<path fill="#482B1B" d="M366,473.5c-9.2,0-12,8-12,11.7c-3.3,4.6,0.3,8.7,2.9,10.1c0-0.9,0-1.2,0-2.3c0-3,2.9-5.7,7.1-5.3
									c3.8,0.4,6.3-1.7,8.3-5.4C374.9,477.5,371.7,473.5,366,473.5z"/>
								<path fill="#482B1B" d="M372,480.9c0,0,2.2,8.6,8,11.5c1-7.8,1.7-6.1,0-10.2c-1.7-4.1-8-7.1-8-7.1V480.9z"/>
							</g>
						</g>
					</g>
					<path fill="#FAA21C" d="M382.2,519.4c-1.6-2.4-7.7-4.8-9.7-5.5c-0.1,3-2.7,5.5-5.8,5.5s-5.6-2.4-5.8-5.5
						c-2,0.7-8.1,3.1-9.7,5.5c-1.6,4.6-2,15-2,15h17.5h17.5C384.2,534.4,383.8,524,382.2,519.4z"/>
					<path fill="#FAA21C" d="M384.2,534.4c0,0-0.4-10.4-2-15c-1.6-2.4-7.7-4.8-9.7-5.5c-0.1,3-2.7,5.5-5.8,5.5v15.1H384.2z"/>
					<path fill="#39B54A" d="M359.1,514.6c0.6,3.7,3.8,6.5,7.7,6.5s7.1-2.8,7.7-6.5c-0.8-0.3-1.4-0.6-1.9-0.7
						c-0.1,3-2.7,5.5-5.8,5.5c-3.1,0-5.6-2.4-5.8-5.5C360.5,514,359.8,514.3,359.1,514.6z"/>
					<ellipse fill="#482B1B" cx="366.8" cy="471.6" rx="5.2" ry="5.1"/>
				</g>
			</g>
		</g>
	</g>
	<g>
		<g>
			<g>
				<defs>
					<ellipse id="SVGID_19_" cx="589.9" cy="306.4" rx="43.3" ry="42.8"/>
				</defs>
				<clipPath id="SVGID_20_">
					<use xlink:href="#SVGID_19_"  overflow="visible"/>
				</clipPath>
				<g clip-path="url(#SVGID_20_)">
					<rect x="583.8" y="317.2" fill="#D9A78C" width="12.7" height="13.7"/>
					<path fill="#C74043" d="M609.9,329.7c-2.9-3.4-7.3-4.1-11.4-5.1h-2.2c0,2.7-2.8,4.9-6.3,4.9c-3.5,0-6.3-2.2-6.3-4.9h-2.2
						c-4,1-8.4,1.8-11.4,5.1c-1.8,2.1-5,19.6-5,19.6h7.7H590h17.2h7.7C614.9,349.3,611.7,331.8,609.9,329.7z"/>
					<path fill="#F2D7BC" d="M606.3,296.3c-0.1,0-0.2,0-0.3,0c-0.5-15.1-9.9-18.4-15.9-18.4c-6,0-15.4,3.3-15.9,18.4
						c-0.1,0-0.2,0-0.3,0c-1.8,0.2-3.1,2.5-2.8,5.1c0.3,2.6,2,4.5,3.8,4.2c0,0,0.1,0,0.1,0c1,4.8,2.7,8,3.6,9.1
						c1.2,1.6,8.2,4.9,11.5,4.9c3.3,0,10.2-3.3,11.5-4.9c0.9-1.1,2.6-4.3,3.6-9.1c0,0,0.1,0,0.1,0c1.8,0.2,3.5-1.7,3.8-4.2
						C609.3,298.9,608.1,296.6,606.3,296.3z"/>
					<path fill="#FFFFFF" d="M590.1,313.5c2.9,0,5.2-0.9,5.2-2.1h-10.4C584.9,312.6,587.2,313.5,590.1,313.5z"/>
					<path fill="#553828" d="M602.9,298.9c0.7-1.7,2-2.7,3.4-2.6c0,0,0,0,0,0c0.6-1.9,0.9-4.2,0-6.6c-4.6-12.9,0.6-15.2,0.6-15.2
						s-5.1-0.2-9,3c2.7-4.2,3.9-5.2,3.9-5.2s-5.7-1.2-11.8,5c1.4-3.4,3-5.1,3-5.1s-12.7,0.1-17.4,9.2c-2.6,5.2-2.8,10.8-2.2,15.1
						c0.2-0.1,0.3-0.1,0.5-0.1c0.6-0.1,1.2,0.1,1.7,0.4c0-2,0-3.7,0-4c2.4-1.1,5-2.4,4.9-7.8c5.7,0,8.8,0,8.8,0h9.1
						c0,0-0.4,6,4.5,7.5C602.9,295,602.9,297.2,602.9,298.9z"/>
					<path fill="#0F958C" d="M590,331c4.7,0,8.5-2.9,8.5-6.5h-2.2c0,2.7-2.8,4.9-6.3,4.9c-3.5,0-6.3-2.2-6.3-4.9h-2.2
						C581.5,328.1,585.3,331,590,331z"/>
				</g>
			</g>
		</g>
	</g>
	<g>
		<g>
			<g>
				<defs>
					<ellipse id="SVGID_21_" cx="616.9" cy="501.3" rx="28.5" ry="28.2"/>
				</defs>
				<clipPath id="SVGID_22_">
					<use xlink:href="#SVGID_21_"  overflow="visible"/>
				</clipPath>
				<g clip-path="url(#SVGID_22_)">
					<g>
						<g>
							<g>
								<ellipse fill="#461811" cx="617" cy="491.4" rx="12.5" ry="12.3"/>
								<polygon fill="#EAC8AD" points="621.2,517.8 616.9,529.5 612.8,517.8 612.8,508.7 621.2,508.7 								"/>
								<path fill="#F2D7BC" d="M627.6,495.8c-0.1,0-0.2,0-0.2,0c-0.3-9.9-6.5-12.1-10.4-12.1v0c0,0,0,0,0,0s0,0,0,0v0
									c-3.9,0-10.1,2.2-10.4,12.1c-0.1,0-0.1,0-0.2,0c-1.2,0.2-2,1.7-1.8,3.4c0.2,1.7,1.3,3,2.5,2.8c0.1,0,0.2,0,0.2-0.1
									c0.8,2.7,2,4.2,2.6,4.9c0.8,1,5,4.3,7.1,4.3c0,0,0,0,0,0c0,0,0,0,0,0s0,0,0,0c0,0,0,0,0,0c2.2,0,6.3-3.3,7.1-4.3
									c0.6-0.7,1.8-2.2,2.6-4.9c0.1,0,0.2,0.1,0.3,0.1c1.2,0.2,2.3-1.1,2.5-2.8C629.6,497.4,628.8,495.9,627.6,495.8z"/>
								<path fill="#EAC8AD" d="M629.4,517.4c-1.5-2.3-8.3-4.6-8.3-4.6s0,1-0.3,2.2c-0.7,2.5-3.8,3.3-3.8,3.3s-3.1-0.8-3.8-3.3
									c-0.3-1.2-0.3-2.2-0.3-2.2s-6.8,2.3-8.3,4.6c-1.3,3.7-1.6,12.1-1.6,12.1h14h14C631,529.5,630.6,521.1,629.4,517.4z"/>
								<path fill="#FFFFFF" d="M617,507.4c1.6,0,2.9-1,2.9-2.1h-5.7C614.1,506.4,615.4,507.4,617,507.4z"/>
							</g>
							<path fill="#461811" d="M616.4,480.6c-7.4,0-9.6,6.4-9.6,9.4c-2.7,3.7,0.2,7,2.3,8.1c0-0.7,0-0.9,0-1.8
								c0-2.4,2.3-4.6,5.7-4.2c3.1,0.3,5-1.4,6.7-4.3C623.5,483.8,621,480.6,616.4,480.6z"/>
							<path fill="#461811" d="M621.2,486.5c0,0,1.7,6.9,6.5,9.2c0.8-6.2,1.3-4.9,0-8.2c-1.3-3.3-6.5-5.7-6.5-5.7V486.5z"/>
						</g>
						<path fill="#F1F2F2" d="M616.9,529.5v-15l-4.1-1.7c0,0-6.8,2.3-8.3,4.6c-1.3,3.7-1.6,12.1-1.6,12.1H616.9z"/>
						<path fill="#F1F2F2" d="M616.9,529.5v-15l4.1-1.7c0,0,6.8,2.3,8.3,4.6c1.3,3.7,1.6,12.1,1.6,12.1H616.9z"/>
					</g>
					<path fill="#461811" d="M614.6,481.1c0,0-6.3-9.7-14.1-2.2c-7.8,7.5,1.2,21.4-3.5,23.6c5.1-0.7,6.4-7.8,5.9-14.1
						c-0.4-5.6,4.5-8.3,8.3-6C612.9,483.4,614.6,481.1,614.6,481.1z"/>
					<polygon fill="#FFFFFF" points="616.9,514.5 612.7,512.8 611.7,513.9 613.8,518.5 					"/>
					<polygon fill="#FFFFFF" points="616.9,514.5 621.2,512.8 622.2,513.9 620.1,518.5 					"/>
				</g>
			</g>
		</g>
	</g>
	<path fill="#01766F" d="M528.3,434.4c-2-2-11-4-17.6-5.2c-1.3-0.5-2.7-0.9-4.1-1.2l0,0l-6-3.5l-0.2,0.1v-8.3
		c4.3-1.9,8.1-4.2,9.3-5.6c1.8-2.2,5.2-8.7,7-18.6c3.2,0.3,6.2-3.1,6.7-7.7c0.4-4.1-1.2-7.8-3.8-9c1-5.4,0.2-15.8-3-22.6
		c0,0,0,0,0,0c-4.6-18.5-32.1-33.1-51.7-4.9c-6.1,5.1-7.8,20.5-6.5,27.5c-2.6,1.2-4.2,4.9-3.8,8.9c0.5,4.6,3.4,8,6.7,7.7
		c1.8,9.9,5.2,16.3,7,18.6c1.1,1.4,5,3.7,9.3,5.6v8.3l-0.2-0.1l-6,3.5l0,0c-1.4,0.4-2.8,0.8-4.1,1.2c-6.7,1.2-15.7,3.2-17.7,5.2
		c-2.8,2.9-8.7,30.7-10,36.8c38.4,0,49.5,0,49.5,0s11,0,49.5,0C536.9,465.1,531.1,437.3,528.3,434.4z"/>
</g>
</svg>
