<svg xmlns="http://www.w3.org/2000/svg" xmlns:xlink="http://www.w3.org/1999/xlink" viewBox="115 208.5 486 376"><defs><circle id="a" cx="198.8" cy="465.6" r="82.4"/></defs><clipPath id="b"><use xlink:href="#a" overflow="visible"/></clipPath><g clip-path="url(#b)"><path fill="#461811" d="M234.2 468.3c0 19.5-15.8 9.4-35.4 9.4-19.5 0-35.4 10.1-35.4-9.4v-32c0-19.5 15.8-35.4 35.4-35.4 19.5 0 35.4 15.8 35.4 35.4v32z"/><circle fill="#461811" cx="199" cy="436.7" r="36.1"/><path fill="#EAC8AD" d="M211 513.9l-12.2 34.3-11.9-34.3v-26.4H211"/><path fill="#F2D7BC" d="M229.7 449.5h-.7c-1-29-18.7-35.4-30.1-35.4-11.4 0-29.2 6.4-30.1 35.4h-.6c-3.4.5-5.8 4.9-5.3 9.9s3.7 8.6 7.2 8.2c.2 0 .5-.1.7-.2 2.3 7.8 5.9 12.2 7.5 14.3 2.3 3 14.3 12.6 20.6 12.7 6.2-.1 18.2-9.7 20.6-12.7 1.7-2.1 5.3-6.5 7.6-14.4.3.1.5.2.8.2 3.4.5 6.7-3.2 7.2-8.2.5-4.9-1.9-9.3-5.4-9.8z"/><path fill="#EAC8AD" d="M198.8 548.2v-33s-9-2.2-11-9.5c-1-3.5-.9-6.3-.9-6.3s-19.7 6.7-24.1 13.5c-3.7 10.9-4.7 35.3-4.7 35.3h40.7zM198.8 548.2v-33s9-2.2 11-9.5c1-3.5.9-6.3.9-6.3s19.7 6.7 24.1 13.5c3.7 10.9 4.7 35.3 4.7 35.3h-40.7z"/><path fill="#FFF" d="M199 483.5c4.6 0 8.3-2.8 8.3-6.3h-16.5c-.1 3.5 3.6 6.3 8.2 6.3z"/><path fill="#461811" d="M197.3 405.1c-21.4 0-27.9 18.8-27.9 27.4-7.8 10.8.7 20.5 6.7 23.9v-5.3c0-7 6.6-13.4 16.6-12.4 8.9 1 14.6-4.1 19.3-12.7 5.8-11.5-1.5-20.9-14.7-20.9z"/><path fill="#461811" d="M211 422.5s5 20.3 18.7 27.1c2.4-18.3 3.9-14.4 0-24S211 408.8 211 408.8v13.7z"/><path fill="#71B6E7" d="M234.8 512.9c-4.4-6.9-24.1-13.5-24.1-13.5l-11.9 21.1-11.9-21.1s-19.7 6.7-24.1 13.5c-3.7 10.9-4.7 35.3-4.7 35.3h81.4s-1-24.4-4.7-35.3z"/><path fill="#FFF" d="M198.8 520.5l-11.9-21.1-11 3.5 9.4 20.9M198.8 520.5l11.9-21.1 11 3.5-9.3 20.9"/></g><defs><circle id="c" cx="300.6" cy="488" r="82.4"/></defs><clipPath id="d"><use xlink:href="#c" overflow="visible"/></clipPath><g clip-path="url(#d)"><path fill="#2A2D34" d="M315.6 524.6s23 3.4 26.3 6.9c3 3.1 9.1 32.5 10.5 39h-51.9v-41.8l15.1-4.1z"/><path fill="#D9A78C" d="M288.6 509.4h24.1v26.5h-24.1z"/><path fill="#F2D7BC" d="M331.4 468.5h-.6c-1-29.1-18.8-35.4-30.2-35.4-11.4 0-29.3 6.3-30.2 35.4h-.6c-3.4.5-5.8 4.9-5.3 9.9s3.7 8.6 7.2 8.2h.2c1.9 9.2 5.1 15.3 6.9 17.5 2.4 3 15.6 9.4 21.8 9.4 6.2 0 19.5-6.4 21.8-9.4 1.7-2.2 4.9-8.3 6.9-17.5h.2c3.4.5 6.7-3.2 7.2-8.2.6-5-1.8-9.4-5.3-9.9z"/><path fill="#690102" d="M284.9 439.6s-10.2 12.1-6.3 23.5c.7 13.5-.7 18.1-5 21.8 1.1-13.1-.2-17.4-5-15.9-2-10.3 2.2-37.8 16.3-29.4zM316.4 439.6s10.2 12.1 6.3 23.5c-.7 13.5.7 18.1 5 21.8-1.1-13.1.2-17.4 5-15.9 2-10.3-2.3-37.8-16.3-29.4z"/><path fill="#2F343A" d="M285.6 524.6s-23 3.4-26.3 6.9c-3 3.1-9.1 32.5-10.5 39h51.9v-41.8l-15.1-4.1z"/><path fill="#B9C7D0" d="M315.9 524l-15.3 3.1-15.2-3.1 15.2 46.5"/><path fill="#129E95" d="M299.4 533.4l-2.5 31.4 3.7 5.7 3.8-5.7-2.5-31.4"/><path fill="#3A404C" d="M289.6 544.1l-12.1-18c3.3-1.2 6.9-2.1 10.6-2.7l12.5 47.2-17.6-25.1 6.6-1.4zM311.7 544.1l12.1-18c-3.3-1.2-6.9-2.1-10.6-2.7l-12.5 47.2 17.6-25.1-6.6-1.4z"/><path fill="#129E95" d="M304.8 531.4l-4.1 4.2-4.1-4.2 4.1-4.2 4.1 4.2z"/><path fill="#FFF" d="M300.6 527.1l12.3-6.2 6.3 3.7-13.1 10.5"/><path fill="#FFF" d="M300.7 527.1l-12.3-6.2-6.3 3.7 12.9 10.5"/><path fill="#690102" d="M329.6 444.9c-4.8-19.8-34.2-35.4-54.9-4.3-1.3 6.1 4.4 9 4.4 9s3.9-9 21.5-4.9c8.8-1.9 17.4-3.4 21.3 4.8 4.1 8.2 7.7-4.6 7.7-4.6zM318 500.1c-6.1 0-10.4-4.9-17.3-4.9s-11.3 4.9-17.3 4.9c-6.6 0-10.8-11.5-12.1-15.5 1.7 11.6 5.6 19.1 7.6 21.6 2.4 3 15.6 9.4 21.8 9.4 6.2 0 19.5-6.4 21.8-9.4 2-2.5 5.9-10.1 7.6-21.6-1.3 4-5.5 15.5-12.1 15.5z"/><path fill="#FFF" d="M300.7 505.6c2 0 3.7-.9 3.7-1.9H297c0 1.1 1.6 1.9 3.7 1.9z"/></g><defs><circle id="e" cx="400.6" cy="457.6" r="82.4"/></defs><clipPath id="f"><use xlink:href="#e" overflow="visible"/></clipPath><g clip-path="url(#f)"><path fill="#461811" d="M368.8 442.9c0 13.8-7.6 14.2-7 23.3.6 10.1 8.5 10.1 8.5 17.1 0 7-7.3 14.8-.8 22.3h31.1v-84.4l-31.8 21.7z"/><path fill="#461811" d="M432.3 442.9c0 13.8 7.6 14.2 7 23.3-.6 10.1-8.5 10.1-8.5 17.1 0 7 7.3 14.8.8 22.3h-31.1v-84.4l31.8 21.7z"/><circle fill="#461811" cx="400.7" cy="428.7" r="36.1"/><path fill="#EAC8AD" d="M412.8 505.9l-12.2 34.3-11.9-34.3v-26.4h24.1"/><path fill="#F2D7BC" d="M431.5 441.5h-.7c-1-29-18.7-35.4-30.1-35.4-11.4 0-29.2 6.4-30.1 35.4h-.6c-3.4.5-5.8 4.9-5.3 9.9s3.7 8.6 7.2 8.2c.2 0 .5-.1.7-.2 2.3 7.8 5.9 12.2 7.5 14.3 2.3 3 14.3 12.6 20.6 12.7 6.2-.1 18.2-9.7 20.6-12.7 1.7-2.1 5.3-6.5 7.6-14.4.3.1.5.2.8.2 3.4.5 6.7-3.2 7.2-8.2.4-4.9-1.9-9.3-5.4-9.8z"/><path fill="#EAC8AD" d="M400.6 540.2v-33s-9-2.2-11-9.5c-1-3.5-.9-6.3-.9-6.3s-19.7 6.7-24.1 13.5c-3.7 10.9-4.7 35.3-4.7 35.3h40.7zM400.6 540.2v-33s9-2.2 11-9.5c1-3.5.9-6.3.9-6.3s19.7 6.7 24.1 13.5c3.7 10.9 4.7 35.3 4.7 35.3h-40.7z"/><path fill="#FFF" d="M400.7 475.5c4.6 0 8.3-2.8 8.3-6.3h-16.5c0 3.5 3.7 6.3 8.2 6.3z"/><g fill="#EB1A3A"><path d="M380.6 494.5c-9.7 20.5-10.2 45.7-10.2 45.7h31.1v-12.9s-9.6-21.7-12.9-35.9c-3.2 1.3-5.9 2.1-8 3.1z"/><path d="M420.7 494.5c-2.1-1.1-4.7-1.9-8-3.1-3.3 14.2-11.9 35.9-11.9 35.9v12.9h30.1c-.1 0-.5-25.2-10.2-45.7z"/></g><path fill="#461811" d="M399 397.1c-21.4 0-27.9 18.8-27.9 27.4-7.8 10.8.7 20.5 6.7 23.9v-5.3c0-7 6.6-13.4 16.6-12.4 8.9 1 14.6-4.1 19.3-12.7 5.9-11.5-1.4-20.9-14.7-20.9z"/><path fill="#461811" d="M412.8 414.5s5 20.3 18.7 27.1c2.4-18.3 3.9-14.4 0-24s-18.7-16.8-18.7-16.8v13.7z"/></g><defs><circle id="g" cx="505.3" cy="494.2" r="82.4"/></defs><clipPath id="h"><use xlink:href="#g" overflow="visible"/></clipPath><g clip-path="url(#h)"><path fill="#D9A78C" d="M517.4 541.5l-11.8 28.6-12.3-28.6V515h24.1"/><path fill="#F1F2F2" d="M493.3 530.8s-25.9 3.4-29.3 6.9c-3 3.1-9.1 32.5-10.5 39h51.9v-15.5l-12.1-30.4z"/><path fill="#F1F2F2" d="M517.4 530.8s25.9 3.4 29.3 6.9c3 3.1 9.1 32.5 10.5 39h-51.9v-15.5l12.1-30.4z"/><path fill="#F2D7BC" d="M536.1 474.7h-.6c-1-29.1-18.8-35.4-30.2-35.4-11.4 0-29.3 6.3-30.2 35.4h-.6c-3.4.5-5.8 4.9-5.3 9.9s3.7 8.6 7.2 8.2h.2c1.9 9.2 5.1 15.3 6.9 17.5 2.4 3 15.6 9.4 21.8 9.4s19.5-6.4 21.8-9.4c1.7-2.2 4.9-8.3 6.9-17.5h.2c3.4.5 6.7-3.2 7.2-8.2.5-5-1.8-9.4-5.3-9.9z"/><path fill="#2F343A" d="M505.3 429.6s-31.1.7-31.1 23.3v21.9s2.3-.4 3.9 1c1.8 1.5 1 9.5 1 9.5h2.1s-1.3-8.1 2.5-10.8v-5.3s-1.4-.2-1.4-6.4 7.4-10.6 23.1-10.6c15.8 0 23.1 4.4 23.1 10.6 0 6.2-1.4 6.4-1.4 6.4v5.3c3.7 2.6 2.5 10.8 2.5 10.8h2.1s-.7-8 1-9.5c1.6-1.4 3.9-1 3.9-1v-23.3c-.1-22.7-31.3-21.9-31.3-21.9z"/><path fill="#A0B2BE" d="M505.3 561.1l-8.2-28-3 12.6"/><path fill="#FFF" d="M492.9 527.9l4.3 5.6-3.1 12.2-6.6-8.9"/><path fill="#A0B2BE" d="M505.3 561.1l7.5-28.3 3.8 12.9"/><path fill="#FFF" d="M517.8 527.9l-5.1 5.2 3.9 12.6 7.2-8.9M505.3 506.2c5.5 0 9.9-1.8 9.9-4h-19.8c0 2.2 4.5 4 9.9 4z"/></g><path fill="#E8D136" d="M289 338.3c0 4.3-3.5 7.8-7.8 7.8H149.8c-4.3 0-7.8-3.5-7.8-7.8V233.1c0-4.3 3.5-7.8 7.8-7.8h131.4c4.3 0 7.8 3.5 7.8 7.8v105.2z"/><path fill="#E8D136" d="M199.3 388.3v-53.9h30.6"/><path fill="#E39D30" d="M599.6 372.1c0 4.3-3.5 7.8-7.8 7.8H460.5c-4.3 0-7.8-3.5-7.8-7.8V266.9c0-4.3 3.5-7.8 7.8-7.8h131.4c4.3 0 7.8 3.5 7.8 7.8v105.2z"/><path fill="#E39D30" d="M502.9 421.2v-53.8h30.5"/><path fill="#3FA457" d="M372.4 366.4c0 4.3-3.5 7.8-7.8 7.8H259.4c-4.3 0-7.8-3.5-7.8-7.8V261.2c0-4.3 3.5-7.8 7.8-7.8h105.2c4.3 0 7.8 3.5 7.8 7.8v105.2z"/><g fill="#FFF"><path d="M329 284.3l-49.4 21.4c-.4.2-.7.7-.5 1.2l16.8 38.6c.2.4.7.6 1.2.5l49.4-21.4c.4-.2.6-.7.5-1.2l-16.8-38.6c-.3-.5-.8-.7-1.2-.5zm10.6 35.5l-16.1-6.7c-.2-.1-.4 0-.5.2l-4.8 10.1-15.1-7.8c-.1-.1-.2-.1-.3 0-.1 0-.2.1-.2.2l-4.9 20.7-12-27.7 41.3-17.9 12.6 28.9z"/><path d="M319.9 307.8c2.2-.9 3.2-3.5 2.2-5.7s-3.5-3.2-5.7-2.2-3.2 3.5-2.2 5.7 3.5 3.2 5.7 2.2z"/></g><path fill="#3FA457" d="M308.9 416.4v-53.8h30.6"/><path fill="#535353" d="M478.4 329.3c0 4.3-3.5 7.8-7.8 7.8H346c-4.3 0-7.8-3.5-7.8-7.8V224.1c0-4.3 3.5-7.8 7.8-7.8h124.6c4.3 0 7.8 3.5 7.8 7.8v105.2z"/><path fill="#535353" d="M407.1 379.3l-11.6-53.8H426"/><g><path fill="#FFF" d="M526.2 288.5c-17.1 0-31 13.9-31 31s13.9 31 31 31 31-13.9 31-31-13.9-31-31-31zM541 322l-18.5 12.7c-.5.4-1.1.5-1.7.5-.5 0-1-.1-1.4-.3-1-.5-1.6-1.6-1.6-2.7v-25.5c0-1.1.6-2.2 1.6-2.7s2.2-.5 3.1.2L541 317c.8.6 1.3 1.5 1.3 2.5s-.5 2-1.3 2.5z"/></g><g><path fill="#FFF" d="M216.2 304.3c0 .9-.7 1.6-1.5 1.6h-12.4c-.9 0-1.6-.7-1.6-1.6 0-.9.7-1.5 1.6-1.5h12.4c.8-.1 1.5.6 1.5 1.5zm-1.6 2.3h-12.4c-1 0-1.8 1-1.5 2.1.2.6.9 1 1.5 1 .9 0 1.7.5 2.1 1.3.5 1.1 1.6 1.8 2.9 1.8h2.3c1.2 0 2.3-.7 2.9-1.8.4-.8 1.2-1.3 2.1-1.3.7 0 1.3-.4 1.5-1 .4-1.1-.3-2.1-1.4-2.1zm-6.2-49.7c.9 0 1.6-.7 1.6-1.6v-6.2c0-.9-.7-1.6-1.6-1.6-.9 0-1.5.7-1.5 1.6v6.2c0 .9.7 1.6 1.5 1.6zm-16.4 6c.3.3.7.5 1.1.5.4 0 .8-.2 1.1-.5.6-.6.6-1.6 0-2.2l-4.4-4.4c-.6-.6-1.6-.6-2.2 0-.6.6-.6 1.6 0 2.2l4.4 4.4zm-3.7 14.2c0-.9-.7-1.5-1.6-1.5h-6.2c-.9 0-1.6.7-1.6 1.5 0 .9.7 1.6 1.6 1.6h6.2c.9 0 1.6-.7 1.6-1.6zm3.7 14.3l-4.4 4.4c-.6.6-.6 1.6 0 2.2.3.3.7.5 1.1.5s.8-.2 1.1-.5l4.4-4.4c.6-.6.6-1.6 0-2.2-.6-.6-1.6-.6-2.2 0zm32.9 0c-.6-.6-1.6-.6-2.2 0-.6.6-.6 1.6 0 2.2l4.4 4.4c.3.3.7.5 1.1.5.4 0 .8-.2 1.1-.5.6-.6.6-1.6 0-2.2l-4.4-4.4zm11.5-15.8h-6.2c-.9 0-1.6.7-1.6 1.5 0 .9.7 1.6 1.6 1.6h6.2c.9 0 1.6-.7 1.6-1.6-.1-.8-.8-1.5-1.6-1.5zm-12.6-12.3c.4 0 .8-.2 1.1-.5l4.4-4.4c.6-.6.6-1.6 0-2.2-.6-.6-1.6-.6-2.2 0l-4.4 4.4c-.6.6-.6 1.6 0 2.2.3.4.7.5 1.1.5zm-7.6 37.1c0 .9-.7 1.6-1.5 1.6h-12.4c-.9 0-1.6-.7-1.6-1.6 0-.8.6-1.5 1.5-1.5-1-8.7-10-10.7-10-21 0-9 7.3-16.3 16.3-16.3s16.3 7.3 16.3 16.3c0 10.3-9 12.2-10 21 .7 0 1.4.7 1.4 1.5zM204.8 266c-.2-.6-.9-.9-1.5-.6-4 1.6-7 5-8 9.2-.2.6.2 1.3.8 1.4h.3c.5 0 1-.3 1.1-.9.9-3.4 3.4-6.3 6.7-7.6.6-.3.9-1 .6-1.5z"/></g><g><path fill="#FFF" d="M379 251.1h58.6v7.3H379v-7.3zm0 11h36.6v7.3H379v-7.3zm0 22h36.6v7.3H379v-7.3zm0-11h58.6v7.3H379v-7.3zm0 21.9h58.6v7.3H379V295z"/></g></svg>