<?xml version="1.0" encoding="utf-8"?>
<!-- Generator: Adobe Illustrator 18.1.1, SVG Export Plug-In . SVG Version: 6.00 Build 0)  -->
<svg version="1.1" id="Objects" xmlns="http://www.w3.org/2000/svg" xmlns:xlink="http://www.w3.org/1999/xlink" x="0px" y="0px"
	 viewBox="115 208.5 486 376" enable-background="new 115 208.5 486 376" xml:space="preserve">
<g>
	<g id="women_2">
		<g>
			<g>
				<g>
					<defs>
						<circle id="SVGID_1_" cx="198.8" cy="465.6" r="82.4"/>
					</defs>
					<clipPath id="SVGID_2_">
						<use xlink:href="#SVGID_1_"  overflow="visible"/>
					</clipPath>
					<g clip-path="url(#SVGID_2_)">
						<path fill="#461811" d="M234.2,468.3c0,19.5-15.8,9.4-35.4,9.4l0,0c-19.5,0-35.4,10.1-35.4-9.4v-32
							c0-19.5,15.8-35.4,35.4-35.4l0,0c19.5,0,35.4,15.8,35.4,35.4V468.3z"/>
						<g>
							<g>
								<circle fill="#461811" cx="199" cy="436.7" r="36.1"/>
								<polygon fill="#EAC8AD" points="211,513.9 198.8,548.2 186.9,513.9 186.9,487.5 211,487.5 								"/>
								<path fill="#F2D7BC" d="M229.7,449.5c-0.2,0-0.4,0-0.7,0c-1-29-18.7-35.4-30.1-35.4v0c0,0,0,0,0,0s0,0,0,0v0
									c-11.4,0-29.2,6.4-30.1,35.4c-0.2,0-0.4,0-0.6,0c-3.4,0.5-5.8,4.9-5.3,9.9c0.5,5,3.7,8.6,7.2,8.2c0.2,0,0.5-0.1,0.7-0.2
									c2.3,7.8,5.9,12.2,7.5,14.3c2.3,3,14.3,12.6,20.6,12.7c0,0,0,0,0,0c0,0,0,0,0,0c0,0,0,0,0,0c0,0,0,0,0,0
									c6.2-0.1,18.2-9.7,20.6-12.7c1.7-2.1,5.3-6.5,7.6-14.4c0.3,0.1,0.5,0.2,0.8,0.2c3.4,0.5,6.7-3.2,7.2-8.2
									C235.6,454.4,233.2,450,229.7,449.5z"/>
								<path fill="#EAC8AD" d="M198.8,548.2v-33c0,0-9-2.2-11-9.5c-1-3.5-0.9-6.3-0.9-6.3s-19.7,6.7-24.1,13.5
									c-3.7,10.9-4.7,35.3-4.7,35.3L198.8,548.2L198.8,548.2z"/>
								<path fill="#EAC8AD" d="M198.8,548.2v-33c0,0,9-2.2,11-9.5c1-3.5,0.9-6.3,0.9-6.3s19.7,6.7,24.1,13.5
									c3.7,10.9,4.7,35.3,4.7,35.3L198.8,548.2L198.8,548.2z"/>
								<path fill="#FFFFFF" d="M199,483.5c4.6,0,8.3-2.8,8.3-6.3h-16.5C190.7,480.7,194.4,483.5,199,483.5z"/>
							</g>
							<path fill="#461811" d="M197.3,405.1c-21.4,0-27.9,18.8-27.9,27.4c-7.8,10.8,0.7,20.5,6.7,23.9c0-2,0-2.7,0-5.3
								c0-7,6.6-13.4,16.6-12.4c8.9,1,14.6-4.1,19.3-12.7C217.8,414.5,210.5,405.1,197.3,405.1z"/>
							<path fill="#461811" d="M211,422.5c0,0,5,20.3,18.7,27.1c2.4-18.3,3.9-14.4,0-24c-3.9-9.6-18.7-16.8-18.7-16.8V422.5z"/>
						</g>
						<path fill="#71B6E7" d="M234.8,512.9c-4.4-6.9-24.1-13.5-24.1-13.5l-11.9,21.1l-11.9-21.1c0,0-19.7,6.7-24.1,13.5
							c-3.7,10.9-4.7,35.3-4.7,35.3h40.7h40.7C239.5,548.2,238.5,523.8,234.8,512.9z"/>
						<polygon fill="#FFFFFF" points="198.8,520.5 186.9,499.4 175.9,502.9 185.3,523.8 						"/>
						<polygon fill="#FFFFFF" points="198.8,520.5 210.7,499.4 221.7,502.9 212.4,523.8 						"/>
					</g>
				</g>
			</g>
		</g>
	</g>
	<g>
		<g>
			<g>
				<defs>
					<circle id="SVGID_3_" cx="300.6" cy="488" r="82.4"/>
				</defs>
				<clipPath id="SVGID_4_">
					<use xlink:href="#SVGID_3_"  overflow="visible"/>
				</clipPath>
				<g clip-path="url(#SVGID_4_)">
					<g>
						<path fill="#2A2D34" d="M315.6,524.6c0,0,23,3.4,26.3,6.9c3,3.1,9.1,32.5,10.5,39c-40.3,0-51.9,0-51.9,0v-41.8L315.6,524.6z"
							/>
						<rect x="288.6" y="509.4" fill="#D9A78C" width="24.1" height="26.5"/>
						<path fill="#F2D7BC" d="M331.4,468.5c-0.2,0-0.4,0-0.6,0c-1-29.1-18.8-35.4-30.2-35.4l0,0c0,0,0,0,0,0l0,0l0,0
							c-11.4,0-29.3,6.3-30.2,35.4c-0.2,0-0.4,0-0.6,0c-3.4,0.5-5.8,4.9-5.3,9.9c0.5,5,3.7,8.6,7.2,8.2c0.1,0,0.1,0,0.2,0
							c1.9,9.2,5.1,15.3,6.9,17.5c2.4,3,15.6,9.4,21.8,9.4l0,0l0,0h0l0,0c6.2,0,19.5-6.4,21.8-9.4c1.7-2.2,4.9-8.3,6.9-17.5
							c0.1,0,0.1,0,0.2,0c3.4,0.5,6.7-3.2,7.2-8.2C337.3,473.4,334.9,469,331.4,468.5z"/>
						<path fill="#690102" d="M284.9,439.6c0,0-10.2,12.1-6.3,23.5c0.7,13.5-0.7,18.1-5,21.8c1.1-13.1-0.2-17.4-5-15.9
							C266.6,458.7,270.8,431.2,284.9,439.6z"/>
						<path fill="#690102" d="M316.4,439.6c0,0,10.2,12.1,6.3,23.5c-0.7,13.5,0.7,18.1,5,21.8c-1.1-13.1,0.2-17.4,5-15.9
							C334.7,458.7,330.4,431.2,316.4,439.6z"/>
						<path fill="#2F343A" d="M285.6,524.6c0,0-23,3.4-26.3,6.9c-3,3.1-9.1,32.5-10.5,39c40.3,0,51.9,0,51.9,0v-41.8L285.6,524.6z"
							/>
						<polyline fill="#B9C7D0" points="315.9,524 300.6,527.1 285.4,524 300.6,570.5 						"/>
						<polygon fill="#129E95" points="299.4,533.4 296.9,564.8 300.6,570.5 304.4,564.8 301.9,533.4 						"/>
						<path fill="#3A404C" d="M289.6,544.1l-12.1-18c3.3-1.2,6.9-2.1,10.6-2.7l12.5,47.2l-17.6-25.1L289.6,544.1z"/>
						<path fill="#3A404C" d="M311.7,544.1l12.1-18c-3.3-1.2-6.9-2.1-10.6-2.7l-12.5,47.2l17.6-25.1L311.7,544.1z"/>
						<path fill="#129E95" d="M304.8,531.4l-4.1,4.2l-4.1-4.2l4.1-4.2L304.8,531.4z"/>
						<polygon fill="#FFFFFF" points="300.6,527.1 312.9,520.9 319.2,524.6 306.1,535.1 						"/>
						<polygon fill="#FFFFFF" points="300.7,527.1 288.4,520.9 282.1,524.6 295,535.1 						"/>
					</g>
					<path fill="#690102" d="M329.6,444.9c-4.8-19.8-34.2-35.4-54.9-4.3c-1.3,6.1,4.4,9,4.4,9s3.9-9,21.5-4.9
						c8.8-1.9,17.4-3.4,21.3,4.8C326,457.7,329.6,444.9,329.6,444.9z"/>
					<path fill="#690102" d="M318,500.1c-6.1,0-10.4-4.9-17.3-4.9s-11.3,4.9-17.3,4.9c-6.6,0-10.8-11.5-12.1-15.5
						c1.7,11.6,5.6,19.1,7.6,21.6c2.4,3,15.6,9.4,21.8,9.4h0l0,0c6.2,0,19.5-6.4,21.8-9.4c2-2.5,5.9-10.1,7.6-21.6
						C328.8,488.6,324.6,500.1,318,500.1z"/>
					<path fill="#FFFFFF" d="M300.7,505.6c2,0,3.7-0.9,3.7-1.9H297C297,504.8,298.6,505.6,300.7,505.6z"/>
				</g>
			</g>
		</g>
	</g>
	<g id="women_3">
		<g>
			<g>
				<g>
					<defs>
						<circle id="SVGID_5_" cx="400.6" cy="457.6" r="82.4"/>
					</defs>
					<clipPath id="SVGID_6_">
						<use xlink:href="#SVGID_5_"  overflow="visible"/>
					</clipPath>
					<g clip-path="url(#SVGID_6_)">
						<path fill="#461811" d="M368.8,442.9c0,13.8-7.6,14.2-7,23.3c0.6,10.1,8.5,10.1,8.5,17.1c0,7-7.3,14.8-0.8,22.3
							c28.4,0,31.1,0,31.1,0v-84.4L368.8,442.9z"/>
						<path fill="#461811" d="M432.3,442.9c0,13.8,7.6,14.2,7,23.3c-0.6,10.1-8.5,10.1-8.5,17.1c0,7,7.3,14.8,0.8,22.3
							c-28.4,0-31.1,0-31.1,0v-84.4L432.3,442.9z"/>
						<g>
							<circle fill="#461811" cx="400.7" cy="428.7" r="36.1"/>
							<polygon fill="#EAC8AD" points="412.8,505.9 400.6,540.2 388.7,505.9 388.7,479.5 412.8,479.5 							"/>
							<path fill="#F2D7BC" d="M431.5,441.5c-0.2,0-0.4,0-0.7,0c-1-29-18.7-35.4-30.1-35.4v0c0,0,0,0,0,0s0,0,0,0v0
								c-11.4,0-29.2,6.4-30.1,35.4c-0.2,0-0.4,0-0.6,0c-3.4,0.5-5.8,4.9-5.3,9.9c0.5,5,3.7,8.6,7.2,8.2c0.2,0,0.5-0.1,0.7-0.2
								c2.3,7.8,5.9,12.2,7.5,14.3c2.3,3,14.3,12.6,20.6,12.7c0,0,0,0,0,0c0,0,0,0,0,0c0,0,0,0,0,0c0,0,0,0,0,0
								c6.2-0.1,18.2-9.7,20.6-12.7c1.7-2.1,5.3-6.5,7.6-14.4c0.3,0.1,0.5,0.2,0.8,0.2c3.4,0.5,6.7-3.2,7.2-8.2
								C437.3,446.4,435,442,431.5,441.5z"/>
							<path fill="#EAC8AD" d="M400.6,540.2v-33c0,0-9-2.2-11-9.5c-1-3.5-0.9-6.3-0.9-6.3s-19.7,6.7-24.1,13.5
								c-3.7,10.9-4.7,35.3-4.7,35.3L400.6,540.2L400.6,540.2z"/>
							<path fill="#EAC8AD" d="M400.6,540.2v-33c0,0,9-2.2,11-9.5c1-3.5,0.9-6.3,0.9-6.3s19.7,6.7,24.1,13.5
								c3.7,10.9,4.7,35.3,4.7,35.3L400.6,540.2L400.6,540.2z"/>
							<path fill="#FFFFFF" d="M400.7,475.5c4.6,0,8.3-2.8,8.3-6.3h-16.5C392.5,472.7,396.2,475.5,400.7,475.5z"/>
							<g>
								<path fill="#EB1A3A" d="M380.6,494.5c-9.7,20.5-10.2,45.7-10.2,45.7h31.1v-12.9c0,0-9.6-21.7-12.9-35.9
									C385.4,492.7,382.7,493.5,380.6,494.5z"/>
								<path fill="#EB1A3A" d="M420.7,494.5c-2.1-1.1-4.7-1.9-8-3.1c-3.3,14.2-11.9,35.9-11.9,35.9v12.9h30.1
									C430.8,540.2,430.4,515,420.7,494.5z"/>
							</g>
						</g>
						<path fill="#461811" d="M399,397.1c-21.4,0-27.9,18.8-27.9,27.4c-7.8,10.8,0.7,20.5,6.7,23.9c0-2,0-2.7,0-5.3
							c0-7,6.6-13.4,16.6-12.4c8.9,1,14.6-4.1,19.3-12.7C419.6,406.5,412.3,397.1,399,397.1z"/>
						<path fill="#461811" d="M412.8,414.5c0,0,5,20.3,18.7,27.1c2.4-18.3,3.9-14.4,0-24c-3.9-9.6-18.7-16.8-18.7-16.8L412.8,414.5
							L412.8,414.5z"/>
					</g>
				</g>
			</g>
		</g>
	</g>
	<g id="men_6">
		<g>
			<g>
				<g>
					<g>
						<defs>
							<circle id="SVGID_7_" cx="505.3" cy="494.2" r="82.4"/>
						</defs>
						<clipPath id="SVGID_8_">
							<use xlink:href="#SVGID_7_"  overflow="visible"/>
						</clipPath>
						<g clip-path="url(#SVGID_8_)">
							<polygon fill="#D9A78C" points="517.4,541.5 505.6,570.1 493.3,541.5 493.3,515 517.4,515 							"/>
							<path fill="#F1F2F2" d="M493.3,530.8c0,0-25.9,3.4-29.3,6.9c-3,3.1-9.1,32.5-10.5,39c40.3,0,51.9,0,51.9,0v-15.5L493.3,530.8
								z"/>
							<path fill="#F1F2F2" d="M517.4,530.8c0,0,25.9,3.4,29.3,6.9c3,3.1,9.1,32.5,10.5,39c-40.3,0-51.9,0-51.9,0v-15.5L517.4,530.8
								z"/>
							<path fill="#F2D7BC" d="M536.1,474.7c-0.2,0-0.4,0-0.6,0c-1-29.1-18.8-35.4-30.2-35.4c-11.4,0-29.3,6.3-30.2,35.4
								c-0.2,0-0.4,0-0.6,0c-3.4,0.5-5.8,4.9-5.3,9.9c0.5,5,3.7,8.6,7.2,8.2c0.1,0,0.1,0,0.2,0c1.9,9.2,5.1,15.3,6.9,17.5
								c2.4,3,15.6,9.4,21.8,9.4s19.5-6.4,21.8-9.4c1.7-2.2,4.9-8.3,6.9-17.5c0.1,0,0.1,0,0.2,0c3.4,0.5,6.7-3.2,7.2-8.2
								C541.9,479.6,539.6,475.2,536.1,474.7z"/>
							<path fill="#2F343A" d="M505.3,429.6c0,0-31.1,0.7-31.1,23.3c0,9.4,0,21.9,0,21.9s2.3-0.4,3.9,1c1.8,1.5,1,9.5,1,9.5h2.1
								c0,0-1.3-8.1,2.5-10.8c0-4.1,0-5.3,0-5.3s-1.4-0.2-1.4-6.4c0-6.2,7.4-10.6,23.1-10.6c15.8,0,23.1,4.4,23.1,10.6
								c0,6.2-1.4,6.4-1.4,6.4s0,1.2,0,5.3c3.7,2.6,2.5,10.8,2.5,10.8h2.1c0,0-0.7-8,1-9.5c1.6-1.4,3.9-1,3.9-1s0-13.9,0-23.3
								C536.5,428.8,505.3,429.6,505.3,429.6z"/>
							<g>
								<polygon fill="#A0B2BE" points="505.3,561.1 497.1,533.1 494.1,545.7 								"/>
								<polygon fill="#FFFFFF" points="492.9,527.9 497.2,533.5 494.1,545.7 487.5,536.8 								"/>
							</g>
							<g>
								<polygon fill="#A0B2BE" points="505.3,561.1 512.8,532.8 516.6,545.7 								"/>
								<polygon fill="#FFFFFF" points="517.8,527.9 512.7,533.1 516.6,545.7 523.8,536.8 								"/>
							</g>
							<path fill="#FFFFFF" d="M505.3,506.2c5.5,0,9.9-1.8,9.9-4h-19.8C495.4,504.4,499.9,506.2,505.3,506.2z"/>
						</g>
					</g>
				</g>
			</g>
		</g>
	</g>
	<path fill="#E8D136" d="M289,338.3c0,4.3-3.5,7.8-7.8,7.8H149.8c-4.3,0-7.8-3.5-7.8-7.8V233.1c0-4.3,3.5-7.8,7.8-7.8h131.4
		c4.3,0,7.8,3.5,7.8,7.8V338.3z"/>
	<polyline fill="#E8D136" points="199.3,388.3 199.3,334.4 229.9,334.4 	"/>
	<path fill="#E39D30" d="M599.6,372.1c0,4.3-3.5,7.8-7.8,7.8H460.5c-4.3,0-7.8-3.5-7.8-7.8V266.9c0-4.3,3.5-7.8,7.8-7.8h131.4
		c4.3,0,7.8,3.5,7.8,7.8V372.1z"/>
	<polyline fill="#E39D30" points="502.9,421.2 502.9,367.4 533.4,367.4 	"/>
	<path fill="#3FA457" d="M372.4,366.4c0,4.3-3.5,7.8-7.8,7.8H259.4c-4.3,0-7.8-3.5-7.8-7.8V261.2c0-4.3,3.5-7.8,7.8-7.8h105.2
		c4.3,0,7.8,3.5,7.8,7.8V366.4z"/>
	<g>
		<path fill="#FFFFFF" d="M329,284.3l-49.4,21.4c-0.4,0.2-0.7,0.7-0.5,1.2l16.8,38.6c0.2,0.4,0.7,0.6,1.2,0.5l49.4-21.4
			c0.4-0.2,0.6-0.7,0.5-1.2l-16.8-38.6C329.9,284.3,329.4,284.1,329,284.3L329,284.3z M339.6,319.8l-16.1-6.7
			c-0.2-0.1-0.4,0-0.5,0.2l-4.8,10.1l-15.1-7.8c-0.1-0.1-0.2-0.1-0.3,0c-0.1,0-0.2,0.1-0.2,0.2l-4.9,20.7l-12-27.7l41.3-17.9
			L339.6,319.8z"/>
		<path fill="#FFFFFF" d="M319.9,307.8c2.2-0.9,3.2-3.5,2.2-5.7c-1-2.2-3.5-3.2-5.7-2.2c-2.2,1-3.2,3.5-2.2,5.7
			C315.2,307.8,317.7,308.8,319.9,307.8L319.9,307.8z"/>
	</g>
	<polyline fill="#3FA457" points="308.9,416.4 308.9,362.6 339.5,362.6 	"/>
	<path fill="#535353" d="M478.4,329.3c0,4.3-3.5,7.8-7.8,7.8H346c-4.3,0-7.8-3.5-7.8-7.8V224.1c0-4.3,3.5-7.8,7.8-7.8h124.6
		c4.3,0,7.8,3.5,7.8,7.8V329.3z"/>
	<polyline fill="#535353" points="407.1,379.3 395.5,325.5 426,325.5 	"/>
	<g>
		<path fill="#FFFFFF" d="M526.2,288.5c-17.1,0-31,13.9-31,31c0,17.1,13.9,31,31,31c17.1,0,31-13.9,31-31
			C557.2,302.4,543.3,288.5,526.2,288.5L526.2,288.5z M541,322l-18.5,12.7c-0.5,0.4-1.1,0.5-1.7,0.5c-0.5,0-1-0.1-1.4-0.3
			c-1-0.5-1.6-1.6-1.6-2.7v-25.5c0-1.1,0.6-2.2,1.6-2.7c1-0.5,2.2-0.5,3.1,0.2L541,317c0.8,0.6,1.3,1.5,1.3,2.5S541.8,321.5,541,322
			L541,322z"/>
	</g>
	<g>
		<path fill="#FFFFFF" d="M216.2,304.3c0,0.9-0.7,1.6-1.5,1.6h-12.4c-0.9,0-1.6-0.7-1.6-1.6c0-0.9,0.7-1.5,1.6-1.5h12.4
			C215.5,302.7,216.2,303.4,216.2,304.3L216.2,304.3z M214.6,306.6h-12.4c-1,0-1.8,1-1.5,2.1c0.2,0.6,0.9,1,1.5,1h0
			c0.9,0,1.7,0.5,2.1,1.3l0,0c0.5,1.1,1.6,1.8,2.9,1.8h2.3c1.2,0,2.3-0.7,2.9-1.8l0,0c0.4-0.8,1.2-1.3,2.1-1.3h0
			c0.7,0,1.3-0.4,1.5-1C216.4,307.6,215.7,306.6,214.6,306.6L214.6,306.6z M208.4,256.9c0.9,0,1.6-0.7,1.6-1.6v-6.2
			c0-0.9-0.7-1.6-1.6-1.6c-0.9,0-1.5,0.7-1.5,1.6v6.2C206.9,256.2,207.6,256.9,208.4,256.9L208.4,256.9z M192,262.9
			c0.3,0.3,0.7,0.5,1.1,0.5c0.4,0,0.8-0.2,1.1-0.5c0.6-0.6,0.6-1.6,0-2.2l-4.4-4.4c-0.6-0.6-1.6-0.6-2.2,0c-0.6,0.6-0.6,1.6,0,2.2
			L192,262.9z M188.3,277.1c0-0.9-0.7-1.5-1.6-1.5h-6.2c-0.9,0-1.6,0.7-1.6,1.5c0,0.9,0.7,1.6,1.6,1.6h6.2
			C187.6,278.7,188.3,278,188.3,277.1L188.3,277.1z M192,291.4l-4.4,4.4c-0.6,0.6-0.6,1.6,0,2.2c0.3,0.3,0.7,0.5,1.1,0.5
			s0.8-0.2,1.1-0.5l4.4-4.4c0.6-0.6,0.6-1.6,0-2.2C193.6,290.8,192.6,290.8,192,291.4L192,291.4z M224.9,291.4
			c-0.6-0.6-1.6-0.6-2.2,0c-0.6,0.6-0.6,1.6,0,2.2l4.4,4.4c0.3,0.3,0.7,0.5,1.1,0.5c0.4,0,0.8-0.2,1.1-0.5c0.6-0.6,0.6-1.6,0-2.2
			L224.9,291.4z M236.4,275.6h-6.2c-0.9,0-1.6,0.7-1.6,1.5c0,0.9,0.7,1.6,1.6,1.6h6.2c0.9,0,1.6-0.7,1.6-1.6
			C237.9,276.3,237.2,275.6,236.4,275.6L236.4,275.6z M223.8,263.3c0.4,0,0.8-0.2,1.1-0.5l4.4-4.4c0.6-0.6,0.6-1.6,0-2.2
			c-0.6-0.6-1.6-0.6-2.2,0l-4.4,4.4c-0.6,0.6-0.6,1.6,0,2.2C223,263.2,223.4,263.3,223.8,263.3L223.8,263.3z M216.2,300.4
			c0,0.9-0.7,1.6-1.5,1.6h-12.4c-0.9,0-1.6-0.7-1.6-1.6c0-0.8,0.6-1.5,1.5-1.5c-1-8.7-10-10.7-10-21c0-9,7.3-16.3,16.3-16.3
			c9,0,16.3,7.3,16.3,16.3c0,10.3-9,12.2-10,21C215.5,298.9,216.2,299.6,216.2,300.4L216.2,300.4z M204.8,266
			c-0.2-0.6-0.9-0.9-1.5-0.6c-4,1.6-7,5-8,9.2c-0.2,0.6,0.2,1.3,0.8,1.4c0.1,0,0.2,0,0.3,0c0.5,0,1-0.3,1.1-0.9
			c0.9-3.4,3.4-6.3,6.7-7.6C204.8,267.2,205.1,266.5,204.8,266L204.8,266z"/>
	</g>
	<g>
		<path fill="#FFFFFF" d="M379,251.1h58.6v7.3H379V251.1z M379,262.1h36.6v7.3H379L379,262.1L379,262.1z M379,284.1h36.6v7.3H379
			L379,284.1L379,284.1z M379,273.1h58.6v7.3H379V273.1z M379,295h58.6v7.3H379V295z"/>
	</g>
</g>
</svg>
