<svg xmlns="http://www.w3.org/2000/svg" viewBox="40 209 486 376"><path fill="#F2D7BC" d="M281.8 259s-15.6 17.4 7.2 32.4l6.1 5.2s-1.2 7.5 2.3 14.5l3.8 13.3s2 2.9 9-12.4l4.6-9.8-7.8-11s6.7-8.1 7.2-17.4c.1-.1-8.3-29.6-32.4-14.8z"/><path fill="#EABF5E" d="M283.3 309.6s5.2 7.5 3.2 18.2c0 0-2.6 16.5 7.8 18.5 0 0 5.5 3.8 6.7 9 0 0 9.3-14.8 17.9-14.8 0 0 10.4 23.4 3.8 35.3l-14.8 25.8 36.8-3.5s1.7-6.1-10.7-24.3c0 0-3.8-7.5-.9-20.3 0 0 2.6-16.5.6-28.7l-3.2-4.9-5.2-12.7-7.2-5.2s-10.4 19.4-14.8 21.7c0 0-2.9 2.3-9.3-15.1 0 .2-7.8-3.3-10.7 1z"/><path fill="#C7442D" d="M291.1 250s-12.7-2.6-16.5 11.9v16.8s10.7 13 11 17.1c0 0-.3-6.4-2-11.3 0 0-10.4-9.8-4.1-7.8 0 0 .9-10.1 5.8-12.7 0 0-1.2 5.8 7.8 5.8 0 0-2.6-4.6-.6-4.9 0 0 6.9 5.2 12.2 4.6 0 0 1.7 5.2 4.6 3.8 0 0 1.2-6.7 3.5-2.9 0 0 0 7.2-3.2 10.4 0 0-.6 4.1-2.3 5.5l7.5 8.1s2 3.8 1.2 11.3c0 0-4.6 23.7-.3 28.9 0 0 4.6-11.9 8.1-16.8 0 0 7.5-16.5-7.2-25.8 0 0 3.2-19.1-1.2-26 0 0-3.2-15.1-22.3-16.2l-2 .2z"/><path fill="#FBC3A7" d="M280.1 312l-7.5 51.8-20.6 4.3 2.3 6.1 22-3.5s5.2-2.6 5.2-7.2l4.3-24c.1-.1 3.6-25.5-5.7-27.5zM329.9 302.1l.6 17.9 19.4 25.5-9.8 34.7-3.5-2.3s-7.8-.6-12.2 2.6c0 0-.9 3.8 3.2 4.6 0 0 6.1-1.2 9 .6 0 0 4.1 4.3 6.1 2.6l15.6-38.8s4.1-8.1-2.3-13.6l-26.1-33.8z"/><path fill="#B58F42" d="M300.9 355.4s6.1-18.8 19.4-15.9c0 0 13.3 23.4 4.1 39.1l-14.8 23.2-17.7-.6s10.4-12.2 11-23.2c.1-.1.4-17.4-2-22.6z"/><path fill="#FBC3A7" d="M311.7 547.3l1.7 11 5.8-1.5-1.5-12.1M324.7 552.5h7.5v10.7h-7.5z"/><path fill="#067E9A" d="M294 402.3l-5.8 83.4s-.6 4.6 4.1 8.7c0 0 16.8 49.8 18.5 56.7l7.5-2.3s-1.7-28.4-1.2-34.2l-12.7-27.8-5.8 2.3s18.5-38.2 18.5-61.4c0 0 1.2 49.2 8.7 64.8l-3.5-.6 2.3 63.1 9.3-1.2s1.7-15.6 4.1-23.2c0 0 5.8-15.6-.6-26.6 0 0 0-32.4 4.1-47.5l5.8-37.6s1.7-16.8-2.6-20.8c0 0-51.2.6-52.7 2.9"/><path fill="#F1613E" d="M308.2 557.7l13.3-3.5-.3 7.2s12.4 1.7 13.6-.6l.3 20.3-2.9.9-1.4-8.1s-9.3 9.3-21.1 7.8c0 0 11.9-7.8 10.4-13.6 0 0-10.7 15.3-20.3 13.9 0 0 11-9.8 8.4-24.3z"/><path fill="#B2ACAA" d="M414.4 493.5h5.4v73.3h-5.4z"/><path fill="#213367" d="M412.1 509.7h10v25.5h-10zM400.9 563h36.3v6.2h-36.3z"/><g><path fill="#213367" d="M254.2 440.3c0 5.1-4.1 9.3-9.3 9.3h-58.7c-5.1 0-9.3-4.1-9.3-9.3v-37c0-5.1 4.1-9.3 9.3-9.3H245c5.1 0 9.3 4.1 9.3 9.3v37z"/><path fill="#F2D7BC" d="M140.4 218.4L130 236.1l-1.9 16.6s.8 8.1-1.5 11.6c0 0 9.6 20.5 20.5 17.4l7.3-6.6-1.9-13.1s12-20.5 15.4-30.5l-27.5-13.1z"/><path d="M130.4 214.5l-.4 21.6s7.3-12.3 10.4-12.3l1.2 1.9 17.8 2.3 3.1 8.5-6.2 17 .8 5.4 8.1-17.8s11.6-18.9 2.7-20.8l-5-5.8-18.1-5.4c-.2 0-12.9.4-14.4 5.4z"/><path d="M130 236.1s-7.3 12.3-1.9 16.6l12.3 13.1 15.8-3.5v-8.9s-1.5 7.7-6.6 7.7h-8.5s-10.8-9.3-10.8-12.7c.1.1-1.3-6.8-.3-12.3z"/><path fill="#F26722" d="M99.9 265.8s17.4 23.9-6.2 31.6c0 0 7.3 45.9 3.1 59L95.6 373s58.7-9.3 64.8-10.8l-6.2-12.7-23.5-4.2 32.8-14.7 2.3-30.1s-2.7-11.2 3.1-24.7l-16.6-2.3s-17 17.4-31.6-8.9l-20.8 1.2z"/><path d="M142.9 250.6s-7.2-5.2-9-.9l-1.2 4.6s2.6-4.3 4.6-3.5l6.7 3.2 5.8 1.2s3.2 1.7 1.2 5.5c0 0 4.3-5.5-.6-7.8 0 0-4.3.6-7.5-2.3z"/><path fill="#F68B49" d="M96.8 265.8s-12.3-6.6-6.9 15.8l17 57.1s.8 1.2 4.2 1.2c0 0 9.3 4.6 16.2-7.7l26.2-55.6-8.1-4.2s-25.9 45.2-26.2 46.3c0 0-4.6-31.6-12.3-36.3l-10.1-16.6z"/><path fill="#5E554D" d="M193.3 362.7s3.5 7.7 8.5 11.6c0 0 32.8 11.2 32.4-12 0 0 12.3-.4 15.1 5v11.6l2.7-9.6s20.1 37 20.5 42.5c0 0 2.3 5.4-7.3 9.3l-19.3 7.7-1.5-12.3 12-4.6h9.3s-2.3-3.9-8.1-3.1l-9.6-14.3-18.5 24.5-39.7-8.5-6.9-11.2L179 416s-5 3.9-5.8 6.9c0 0 5-7.3 16.2-3.5l-.8 12.3s-18.5 2.3-23.5-6.2c0 0-.8-7.3 2.7-21.2l9.6-35.5c.1.1 5.8-5.3 15.9-6.1z"/><path fill="#F68B49" d="M170.9 278.2s-18.5 37.4-16.2 49.4c0 0-15.8 5.4-22.4 7.7l-25.1 5.8.4 11.2s54.4-6.6 57.1-7.7c0 0 12.7-56 11.2-61.7 0-.1-2.7-8.2-5-4.7z"/><path fill="#6591AA" d="M94.9 377l32-8.1 33.6-6.6s-7.7 182.5-13.5 201.1l-16.2-1.2V456.1s-11.6 98.8-13.9 106.5l-14.3-.8s2.3-72.2-3.9-120c0 0-1.5-51.7-3.8-64.8z"/><path fill="#A05931" d="M132.3 563s-3.5 6.6 1.9 8.1l29.3 12.3-16.5-20s-14.7-2.7-14.7-.4zM103.4 562.6s-3.5 6.6 1.9 8.1l29.3 12.3-16.6-20s-14.6-2.7-14.6-.4z"/><path fill="#213367" d="M453.4 440.3c0 5.1-4.1 9.3-9.3 9.3h-58.7c-5.1 0-9.3-4.1-9.3-9.3v-37c0-5.1 4.1-9.3 9.3-9.3h58.7c5.1 0 9.3 4.1 9.3 9.3v37z"/><path fill="#F2D7BC" d="M197.9 325.8s-5.8 10.4 1.4 13.3l3.5 7.2.9 9 9.3 11.9 11.9-12.7-.3-7.5s4.3-3.8 4.6-8.1c0 0 7.5-6.4 2-12.2l-2.3-8.1-27.2.3-3.8 6.9z"/><path fill="#321213" d="M203.1 322.1s-3.8 4.6-3.8 12.2c0 0-2.3 2-2.3-6.1 0 0-3.5-12.2.3-13.3 0 0 0-2.6 2.3-1.7 0 0-1.2-4.3 1.7-4.3l2.6-.3s-.6-4.1 1.7-2.6c0 0 3.5-3.2 5.8-.3 0 0 1.7-2 3.2-.3 0 0 6.1-2.9 7.5.9 0 0 3.8-.3 4.9 2.9 0 0 3.8 1.4 3.8 4.1v1.7s2-1.4 1.2 5.2l.3 7.5-1.4.6-.9 6.9s-.6-5.5-1.7-9l-2.3-3.8s-9.8 3.5-15.9 1.2l2.9-1.2s-8.7 1.4-9.9-.3z"/><path fill="#41C2D1" d="M201.8 355.8l11.2 11.5s9.5-7 11.9-12.7c0 0 5.9-3 3.6 4 0 0-1.9 8.5-4.6 12.3 0 0 5-4.2 6.9-12 0 0 5 3.9.8 12.7 0 0-5 14.7-4.2 18.9h-23.9s-1.2-14.3-5.4-22c0 0-3.9-8.1.8-7.7-.2 0-1-7 2.9-5z"/><path fill="#E54437" d="M471.5 411.7c-.4-5.4-20.5-42.5-20.5-42.5l-2.7 9.6v-11.6c-1.9-3.8-8.5-4.7-12.3-5-1.4-1.4-7.5-7-13.6-7 0 0-13.9 21.2-20.7.8 0 0-9.8 0-11.5 6.7-8.8 1.3-13.8 5.9-13.8 5.9l-9.6 35.5c-3.5 13.9-2.7 21.2-2.7 21.2 5 8.5 23.5 6.2 23.5 6.2l.8-12.3c-11.2-3.9-16.2 3.5-16.2 3.5.8-3.1 5.8-6.9 5.8-6.9l3.9-16.6 6.9 11.2 39.8 8.5 18.1-24.7 9.6 14.3c5.8-.8 8.1 3.1 8.1 3.1h-9.3l-12 4.6 1.5 12.3 19.3-7.7c9.9-3.7 7.6-9.1 7.6-9.1z"/><path fill="#2CA4AA" d="M199.8 356.1s3.1 11.6 12 17.4c0 0-16.2-8.9-12-17.4zM197.9 368.5s12 14.7 12.3 21.6l-6.9.4s.8-8.9-5.4-22zM230.7 358.8s-3.1 8.9-9.6 15.8c0 .1 16.2-10.7 9.6-15.8z"/><path fill="#3A342E" d="M179 370.4s6.9 15.8 3.1 27l-3.5 16.6s1.6-30.8.4-43.6zM245.8 366.9s-4.2 17.8 3.9 26.2c-.1.1-4.3-19.6-3.9-26.2z"/><path fill="#EAEAEA" d="M181.7 390.1h66.8v44.4h-66.8z"/><path fill="#F2D7BC" d="M403.4 326.1s-8.2 8.7-1.9 13.3l1.6 7.9-1.4 8.9 6.1 13.8 14.6-9.4 1.6-7.4s5.1-2.6 6.5-6.7c0 0 8.9-4.3 5-11.3l-.3-8.4-26.4-6.4-5.4 5.7z"/><path fill="#EFE672" d="M409.4 323.8s-4.8 3.6-6.6 10.9c0 0-2.7 1.4-.7-6.5 0 0-.4-12.6 3.6-12.8 0 0 .6-2.5 2.7-1.1 0 0-.1-4.5 2.8-3.8l2.6.4s.4-4.1 2.3-2.1c0 0 4.1-2.2 5.7 1.1 0 0 2.2-1.5 3.2.5 0 0 6.6-1.3 7.1 2.7 0 0 3.7.6 4.1 4 0 0 3.3 2.3 2.7 4.9l-.4 1.7s2.3-.9-.2 5.3l-1.6 7.4-1.5.2-2.5 6.5s.8-5.5.5-9.1l-1.3-4.2s-10.4.9-15.7-2.8l3.1-.4c-.4-.1-9.2-.9-9.9-2.8z"/><path fill="#686868" d="M380.8 390.1h66.8v44.4h-66.8z"/><path fill="#5E554D" d="M186.3 439.9l1.2 11.6s11.2 6.9 20.1 10l18.9-.4s5-16.6 20.1-11.2l.4-7.3c-.1 0-47.9-3.9-60.7-2.7z"/><path fill="#213367" d="M174.4 486.2h81v7.7h-81zM377 487.3h81v7.7h-81z"/><path fill="#AB2B24" d="M194 461.5l9.3-2.3 32 1.9-10 29.3s-13.9 1.2-17.4-1.5L194 461.5z"/><path fill="#E54837" d="M236.1 450.3s-10.4 3.1-10 15.4c0 0-9.6 31.7-8.9 44.4 0 0 1.9 1.4 1.9 7.3l-5.4 21.2s-2.5-1.7-4.4-4.4l-2.1 12.5 5.8 2.7 3.9 1.2 31.6-68.7 6.9-17s-2.7 1.2-4.2 1.2c0 0 3.1-1.9 3.1-5-.1 0-2.4-16.6-18.2-10.8z"/><path fill="#E54837" d="M201.8 463s-20.5-20.1-26.2 5c0 0 1.2 5.4 5.8 5.4 0 0-.4 1.9-4.6 0 0 0 28.2 56.7 36.7 71.4l6.2 11.2s10.8-2.3 11.6-6.9c-.2 0-25.7-82.2-29.5-86.1z"/><path fill="#443B36" d="M239 549.9l-19.5 6.2-2.7-5.4-19.5-5.1-1.2 8.4 3.5.6s-.6 12.2-4.6 15.9L182 585s24-6.7 27.8-9.6c0 0 5.8-5.8 6.9-14.2h3.2v5.8h4.3s1.4 11.9 7.5 13.6c0 0 16.5 2.9 23.2.6 0 0-11-5.2-16.2-20.3l2.6-.3v-5.2l-1.7-.6-.6-4.9z"/><path fill="#F5AA75" d="M55.5 433.3h455v4.6h-455z"/><path fill="#6A5240" d="M60.1 438.1h437.8v4.1H60.1z"/><path fill="#6A5240" d="M78.1 441.6h6.4v136h-6.4zM470.6 441.6h6.4v136h-6.4z"/><path fill="#EFE672" d="M412.1 320.1s-5.8 6.4 6.4 13.9c0 0-5.2-11-2.3-13.9 0 0 1.7 12.7 9.8 13.3 0 0-7.5-11-4.6-15.1s-7.6-2.3-9.3 1.8z"/><path fill="#A02320" d="M400.1 357.7s-6.6-2.7-7.7 5l-5.4 4.6 9.6 22.8 32.4-.4s1.5-25.5 4.2-27.4l-11.6-5c.1 0-14.9 29.7-21.5.4z"/><path fill="#E54437" d="M385.5 442.2l3 13.1 52.1 1.2 5.1-13.9"/><path fill="#138481" d="M388.5 455.3s-3.9 6.2 5.8 13.1l9.3 17s18.1 6.9 27.8 1.2l12.7-22.8-3.5-7.3-52.1-1.2z"/><path fill="#30C0D0" d="M390.1 460s-4.2 3.1-4.2 6.2l7.7 7.7-9.6-5 5.8 93.4 1.9-5 6.6-.4 2.3 4.2 8.1-71.8s3.1-25.9-6.6-30.1c0 0-7-2.7-12 .8zM431.8 461.1s-12.7 2.3-8.9 24.3l11.6 76 2.3-5 8.1-.4 1.5 5.8 1.9-69.1c.1.1 3.2-32.4-16.5-31.6z"/><path fill="#443B36" d="M400.5 561.1l-2.3-4.2-6.6.4.2 5.4-2.1-.4-3.7 12s2.9 7.5 9.8 7.5c0 0 5.2-.6 7.5-4.6l-.6-14.5-2.2-1.6zM436.4 558.7l2.3-4.2 6.6.4-.2 5.4 2.1-.4 3.7 12s-2.9 7.5-9.8 7.5c0 0-5.2-.6-7.5-4.6l.6-14.5 2.2-1.6z"/></g></svg>