<svg xmlns="http://www.w3.org/2000/svg" xmlns:xlink="http://www.w3.org/1999/xlink" width="486" height="376" viewBox="0 0 486 376"><path fill="#C0912D" d="M7.95 264.273c-.78 1.023 4.803.135 4.487.08-.976-.244-3.873-.966-4.487-.08-.245.32.212-.304 0 0zM193.922 318.406c-.107-.678-1.35-1.037-.303-.967-1.126-1.17-4.354-1.798-6.26-2.558h.522c-1.78-.78-3.417.092-4.98-.586-.93-.39-2.358-.672-3.124-1.084-3.666-2.01-4.8 1.94-6.534.98.663.382 2.303-1.91 2.26-1.88-.584-1.787-4.69 1.848-5.35.375-.733-1.596 7.1-.627 2.362-2.938h.38c-.8-.16-2.478-2.038-3.31-2.567h.35c-.764-.46-2.146-1.338-3.45-1.186-.568.064-1.606.594-2.232.44-.73-.19-2.27-1.46-2.73-1.806h.326c-.564-.526-2.562-.138-3.132-.542-.077-.06 1.167-2.44.965-2.396-.442.098-.815.678-1.13.95-.674.585-1.564-.425-2.27-.575h.603c-.61-.232-1.72-.232-2.366 0-.366.15-.606.693-1.125 1.03-.87.145-1.492-1.866-3.48-.677-.772.438-.904-1.26-1.58-1.26-2.524 0-2.41 1.842-3.055 2.7-.952-.257-.472-1.567-.445-1.794.76-2.2.274-.982-2.336-.588-2.106.184-2.585 1.88-4.122 2.477-1.186.346-2.178-.842-3.494-.977-.644-.057-4.628 1.934-4.628.117-.923-.613-1.026-1.742-.892-2.56.213-1.134 1.18-1.704-.283-2.577-1.874-1.322-4.79.71-6.35-.422-.077-.063 1.103-2.922 1.48-3.17 1.04-2.303.425-1.63-3.356-1.89-2.342-.216-.865 1.724-1.903 2.216-.31.158-.587.148-.862-.023-1.032-.304-1.75.522-2.646.614-2.153.248-4.317-2.697-4.53-3.48-.16-.825.853-4.04-.272-4.304-.454-.102 4.54-2.47 4.89-2.475 1.93-.104 3.32.627 4.933.596 1.144-.017.396-.616.95-.82.944-.347 3.496-.37 4.696-.51.773-.122 1.004.606 1.48.845.726.34 1.252-.56 1.55-.402.438.23 2.86 6.156 4.66 3.547.984-1.414-1.51-2.74-1.575-4.15.353-1.232 3.295-2.295 4.594-3.262.473-.37 3.688-1.203 3.2-1.67-.257-.213-.91-1.303-1.312-1.748.006-.39 1.535.3 2.223-.373.405-.39.025-.764.21-1.14 1.034-.718 1.548-1.507 3.386-1.327 4.507.412 2.006-.545 2.006-1.813 0-.52 4.26-2.02 4.968-1.89.47.08.314 1.17.516 1.394.383.536 1.462.052 1.52.052 1.653-.566 3.154-.875 5.048-1.094 4.064-.48.62-2.035.572-2.014-1.766.916-1.534.646-2.244-.367.043.094-1.864.465-2.316-.127-.31-.313 1.17-1.535-.588-1.535-2.38 0-4.51.457-6.685 1.086.4-1.67 1.416-1.657 4.058-2.077 1.362-.22 3.036.107 3.852-.328 0 0-.132 2.027 2.198 1.148.928-.348.077-1.473 2.61-1.44 2.567.022 1.185-.345 3.343-.788 1.825 0-.64 1.664-.902 1.982-1.057 1.387-1.156 2.336 2.247 1.668 1.043-.217 1.193.566 1.75.436.483-.116.558-.306 1.105-.347.628-.045 3.114.723 2.084-.484-.75-.872-.948-.597-1.348-1.16-.642-.894-2.02-.183-3.073-.726h.377c-.39-.193-1.02-.117-1.192-.193-.335-.142 2.318-2.437 2.115-2.724-.04-.03-4.592-2.11-4.93-2.2h.562c-.97-.433-1.93-.003-3.02-.147-.42-.067-1.298-1.366-1.314-1.403-.84-1.127-1.814-1.996-3.557-2.87-.836-.388-2 1.11-2.457 1.358-.87.506-2.404.287-3.442.04-2.73-.647 2.572-1.704-2.463-2.116h1.13c-1.79-.23-2.42-.528-4.017-.962-1.696-.484-3.61-.027-5.368-.027-.94 0-.93 1.22-.984 1.472-.04.367.023.723.188 1.064-.303.135-1.474.28-1.354.496.293.674 3.042 1.037 2.814 1.975-.183.727-1.772 1.86-2.94 1.12h.34c-.655-.677-1.968-.134-.89.74.482.42 1.402 2.216.702 2.608-3.05 1.79-2.353-1.662-2.59-2.016-.157.163-.668.532-1.106.796-.462 0-.887-2.23-1.046-2.13-.972-.884-2.777-.267-4.216-.35-1.96-.095-3.85-.462-5.522-1.042-.83-.273-1.595.04-2.47-.158-1.575.318-.915-.674-1.994-1.012h.445c-3.29-2.27 2.4-5.656 6.936-4.56.11.032.763-1.67.815-1.784.028.506 2.085.928 1.2 1.393-1.772.938 1.61.39 2.186.21.555-.183 2.177-.724 2.654-.21 1.447 1.473 3.368.275 2.322-.162h.414c-.618-.384-3.792-1.62-4.64-1.565-.55-.094-2.924.25-3.272-.217-.167-.248 4.42-.326 5.412-.547 3.32-.745 1.167-1.024 0-1.866-.622-.432 4.514-.572 4.556-1.377-.632.137 3.033.98 3.068.98 1.398.578-1.708 1.615-1.492 1.768.487.32 2.338.252 2.923.105.754-.18.583-1.238 1.7-1.104.23.027 1.913.438 1.748.643-1.175.53-2.16.48-2.87 1.312-.628.752-2.54.15-3.718.303-.936.336-1.323 1.004-.676 1.695-.014-.033 5.058-.13 5.58-.13 1.53.052 3.215.69 4.428 1.25.278.128.667-.104.83-.24.7-.265 1.396.567 1.748.765.475.22 2.25.05 2.688.018.342-.018.077-.69 1.02-.54.42.046 1.708.724 2.175.474.64-.316-.753-1.56-1.184-1.725h.43c-1.113-.582-2.534-.71-2.927-1.566.977-.906 3.968 1.426 5.213.857 1.363-.617 2.268-.73 2.915-1.62-.665-.08-1.332-.153-1.966-.245h.7c-1.682-.236-3.74-1.697-5.39-1.385-2.326.484-1.822-1.172-2.13-1.8-.243-.493-8.575-1.526-10.023-1.946h.45c-1.637-.45-3.036-1.305-4.986-1.21-1.77.09-3.54.138-5.34.202-.987.032-2.085.276-2.953.31.153-.014-.24 2.336-1.978 1.465-.605-.326 1.7-3.248-2.207-1.988-1.735.55-5.576 1.344-2.442 2.86 1.65.812 6.51.077 5.777 1.524-.25.448-3.208 1.132-3.208 1.35 0-.583.314-.942-.453-1.313-1.152-.582-1.525-.16-2.578.22-.522.175-1.19-.724-1.395-.847h.42c-1.504-1.148-6.64-3.596-4.506-.305.16.234.953 1.553-.15 1.646-.617.085-1.343 1.157-2.085.522-.547-.48-.79-1.678-.385-2.094-.272.275-3.468-.396-3.623.348-.053.38 2.84.96.904 1.605-1.266.22-2.813.08-4.097.026-1.587-.05-5.298.484-4.94-.727.07-.024 8.425-1.02 5.266-1.927-1.17-.334-2.81-.084-3.775-.64-2.187-1.18.715-.952-.036-1.958-.126-.178-4.477-.33-4.763-.19-1.01.097.26 1.86.295 2.208-2.05-.654-.32-1.96-3.854-1.69-2.99.204-5 .19-7.615-.925-2.327-.514-4.417-.305-7.238-.17-.743.035-3.272-.29-3.63.26-.195.182-2.295 1.86-2.295 1.883-.108 1.09 7.117.95 7.985.587h-.388c.583-.145.986-.395 1.208-.746.287-.08 2.717 1.978 3.3 2.263 2.362 1.16-3.198.527-4.044.03h.418c-2.484-.99-7.144-.966-9.34.235.008-.06-.47-1.453-1.323-.965-1.517.525-2.176-.365-3.85.03-1.17.282-1.432.604-2.81.542-1.378-.055-2.666-.37-3.916-.074-.532.116-.9 1.077-2.015 1.077-.515 0-1.583-.67-2.12-.846h.5c-1.185-.313-2.185-.042-3.323-.27-.996-.197-1.89-1.18-2.962-1.09-3.83.428-5.41.355-9.145-.184-2.93-.234-7.364.725-9.787-.643-.872 1.854-7.485 1.502-10.04 2.188-.578.067-2.61 1.1-.713 1.61 1.642.447 3.87.295 5.273 1.107 2.178 1.318-2.67.46-3.632-.096-.21-.126-4.42.823-4.917.946.988 1.164 2.547 1.566 4.65 1.648 1.63.047 3.238-.797 4.663-.547 1.737.31-3.948 1.21-3.74 1.17-1.05.227-1.57.498-2.462.88-2 .87 1.473 1.77 1.724 2.612.177.587 2.75-1.134 3.203-.75-.138-.11.51 2.302 1.254 1.5 1.138.187.243-.997 2.09.16.192.108 3.086-.563 2.214.388-.702.736-3.057 1.092-4.214 1.424-1.17.36-2.737 1.225-4.075 1.225-.667 0-.76.945.206.863.99-.078 2.008-.352 2.94-.57 1.943-.475 2.04.037 3.73-.143 1.426-.125 2.597-.98 3.526-1.55 1.24-.792 1.004.175 2.253.392.935.173 1.848-.526 2.45-.767 1.624-.645-.418-1.145-1.77-1.014 1.147-.376 2.19-2.577 3.3-2.347.564.11-.694 1.146-.287 1.45-.197-.144 4.524-.23 4.524-.23.915-.405.86-1.952 2.37-1.376 3.005 1.125 7.888 1.096 11.398 1.787 2.216.45 1.782 2.428 3.717 2.428 3.232 0 1.618 1.7 2.416 2.762.856 1.127 3.167 1.54 3.416.404-.08-.275-1.776-1.857-1.252-1.96.236-.07 4.528 2.87 4.17 3.454-1.313 2.152 4.758 1.547 4.758 3.473 0 .748.903 1.408.832 2.2-.098 1.06-.28 2.126-.418 3.17-.144 1.058.882 2.325 2.016 3.112 1.053.738.414 2.303 1.59 2.832 1.35.64 2.647.505 4.064.888 1.607.412 2.334 2.127 2.935 2.98.638.96 2.117 1.397 2.704 2.216.412.516-2.396 1.953.303 1.578 2.53-.352 3.54 3.95 6.4 3.576 2.396 0-1.085-1.756-1.36-1.88h.374c-1.152-.57-1.638-1.825-2.69-2.577.026.026-1.362-1.3-1.66-1.522-.767-.592-2.378-1.27-1.046-1.98.34-.112 3.344 2.747 4.005 3.175 2.21 1.402 4.197 2.965 6.238 4.42 1 .717.875 1.256 1.08 2.12.396 1.546 2.173 1.464 4.136 1.94 1.796.407 1.408 1.35 2.23 2.214 1.152 1.21 3.455-.2 4.898.764.825.556 1.372.14 1.603.14 1.972-1.635 3.55.297 5.086 1.084 1.49.764 3.307.498 4.888.887 2.54.628 1.207 2.187 2.99 2.907 1.653.686 3.255 1.656 5.103 2.076.54.158.81.623 1.36.666 1.222.145 1.206-.827 1.756-.948.403-1.475 2.536 1.26 2.74 1.354 1.48.684.417 2.8.054 3.637-.303.73-3.07 1.363-3.785 2.186-1.088 1.228.298 2.46-.64 3.726-1.243 1.69.677 1.785 2.138 2.863.96.688 1.575 2.34 2.107 3.218.67 1.102.935 2.75 1.908 3.727 1.06 1.01 3.705 1.22 5.225 1.963 3.735 1.83 3.398 3.43 2.906 6.133-.253 1.407.222 2.74.07 4.147-.07.568-1.162.547-1.6.953-.604.576.915.488-.263 1.102-.755.402.098 2.154-.35 2.902-.444.73-1.04 2.768-1.75 3.283-1.373.98.47 1.434-.28 2.64-.85 1.317.58 2.464-.574 3.73-.52.565-1.41 1.02-1.835 1.628-.512.736 1.07 1.104.357 1.863-.613.645-1.145 1.318.252 1.64 1.42.34-1.022.884-.252 1.325 1.434.826 1.586 1.715 2.917 2.63 2.257 1.544 2.042.14 3.24-.657 1.784-.29-.755 1.375-.683 1.324-.912.55-.05.504.82.74 1.22.328 6.893.258 7.73-.604-.04-.035 0-.05.108-.05-2.75-.355-5.545-.714-5.917-2.558-.464-1.69 3.14-2.135 4.128-3.586.462-.953.79-.965-1.207-1.096-1.503-.066-.496-.816.094-1.125.48-.233 4.492-3.005 4.026-3.173-1.06-.387-2.022.164-2.022-1.176 0-.157 3.17.728 3.43.272.44-.11-.43-1.066.097-1.395.254-.61 3.036-.287 3.99-.38 1.71-.136 3.547-1.312 3.707-2.183.932-.982-1.14-1.05-1.672-1.543-1.495-.866-.795-1.325-.14-2.464.612 2.465 2.915 3.516 6.303 1.445.882-.562 1.737-1.177 1.8-1.657.23-1.148 1.393-1.197 2.265-2.035.55-.354.43-.97 1.56-1.21 1.7-.33.61-1.276.67-1.74-.657-1.458 3.045-2.442 4.936-2.878 1.23-.28 3.433-.223 4.39-.73 1.054-.554 1.35-1.835 2.056-2.56.546-.807 1.977-3.148 1.557-4.104.043-.447-.57-.97-.14-1.67.516-.805 1.897-1.277 2.77-1.916 1.45-1.058 3.03-2.972 2.735-4.164-.053-.31 0 .028 0 0zm-69.432-46.05c-.205-.644-.133-1.79.1-2.565 1.25-1.32 11.04-.91 9.787.892-.964 0-1.154-.486-1.32-.89.048-.017-.52.222-.274.052-.708.488.397 2.623-1.395 2.512-1.36 0-.465-1.64-.91-2.127-1.047-1.194-4.032.01-4.374.9-.152.4.34 3.333-1.306 2.75h.337c-.926-.146-.715-1.177-.645-1.525 0 0-.1.547 0 0zm11.217-1.045c1.343-.843 6.16-.353 1.343.876-1.156.28-2.89.883-3.637 1.41-1.338.932-3.023.322-1.332-.373 1.83-.668 2.062-1.067 3.627-1.912.308-.2 0 0 0 0zM74.51 266.6c-.294-.117-1.08-.822-.848-1.137 1.17.376 5.347 1.866 3.76 2.872-.558-.31-.858-.658-.896-1.113-.482-.18-1.55-.427-2.017-.622-.174-.063.535.238 0 0zm52.984 1.63c-1.093.146-3.137-.636-3.74-.538-.125.02-5.94.813-3.662-.22.81-.22 4.552-1.726 5.14-1.333.964.664 4.2 1.064 2.262 2.092-.38.053.425-.218 0 0zm35.387 73.297c.088-.105.055-.023 0 0 .024-.01 0 0 0 0z"/><path fill="#C0912D" d="M79.21 242.898c2.33 0 4.734-.924 5.824.31.86.97 1.51.345 2.65.054.726-.203 1.91 1.23 3.524 1.145.775-.037 7.568.115 7.674-.053.25-.36 2.226-1.512 1.633-2.06-.67-.575-1.142-.233-2.043 0-1.235.31-1.37-.694-2.464-.694-1.312 0-1.68.814-2.888 1.018-1.013.162-1.764-.598-2.633-.77-1.632-.336-3.142.088-4.28-.686-1.032-.723-3.124-.295-4.372-.06-1.82.327-2.206.194-2.543 1-1.657-.022-2.427.796-.08.796.978 0-.977 0 0 0z"/><path fill="#C0912D" d="M90.21 241.256c.712 0 3.227.094 3.783-.094.495-.164.933-1.6.016-1.646-1.693-.102-4.8 1.74-3.8 1.74.603 0-.543 0 0 0zM101.872 240.467c1.444 0 2.42-.45 3.154.29.86.89 3.37.405 3.407-.194-.503-1.268-2.784-1.49-4.707-1.49-.877-.016-2.336-.07-3.013.303-.97.554.242 1.09 1.16 1.09.922 0-.89 0 0 0zM117.828 245.443c1.984-.094-.455-1.355-1.867-1.28-5.002 1.187-1.44 1.536 1.868 1.28.04 0-.687.055 0 0zM115.514 243.422c-.24-.105-.476-.213-.693-.3h.668c-.596-.43-2.038-.52-2.385 0-.424.845 2.6.653 2.41.3-.11-.16.35.62 0 0zM114.453 242.02c2.726.732 5.344 1.9 8.454 1.918 2.558.03 5.19 0 7.808.07.798 0 4.64-.404 2.114-.885h.627c-3.15-.752-8.502-.564-11.85-.344-1.378.07-3.47-1.134-4.684-1.573-.9-.326-2.52-.53-3.53-.645h.695c-.544-.096-3.163-.545-3.163-.512 0 1.206 1.745 1.497 3.528 1.97.984.26-.97-.262 0 0zM218.336 253.178c.51 0 1.59-.967 1.128-1.23-.485-.29-2.23-.546-2.896-.604-1.4-.104-3.224.484-4.678.484-1.456 0-2.44-.656-4.01-.604-1.775.084-.718 1.398-.265 1.818.8.77 3.162.076 3.547.79.583 1.087 3.075.417 4.197.054.63-.183 2.623-.478 2.976-.708 0 0-.048.043 0 0zM140.096 293.637c2.016-.31-3.046-1.373-2.93-1.344-2.6-.746-3.806-1.914-7.725-1.174-3.53.65 2.424.75 3.588.782 2.038.01 5.08 2.555 7.068 1.735.2-.03-.466.176 0 0zM136.904 289.975c.814-.082.823-.547.1-.705h.48c-.44-.2-.883-.2-1.285 0-.317.216-.632.882.704.705.98-.127-1.138.14 0 0zM152.434 295.975c.14-.027.72-.496.72-.557-1.583-2.014-2.766 1.22-.72.557.023 0-.07.015 0 0zM347.567 304.906c-.123-.105-.263-2.018-1.48-1.643-.868.275-.937 1.36-1.014 1.896-.668 4.258 4.173 1.2 2.494-.254-.073-.06.135.084 0 0zM251.638 276.064c1.734-.166 1.07-1.693-.26-1.693-1.708 0-1.548 2.16.26 1.694.335-.02-.372.086 0 0zM243.963 275.658c1.648-.805-2.352-.28-1.008.172.303.11.885.06 1.008-.172.067-.035 0 0 0 0zM258.903 278.49c3.096.514.452-2.867-2.697-1.56-.448.177 2.388 1.498 2.697 1.56.242.026-.457-.095 0 0zM230.052 264.592c1.825-.566 2.572-1.596 1.632-2.508-.98-2.006-2.82 0-4.108 0-.976.64-1.28.03-.888 1.404.202.697-1.24.635-.138 1.41 1.002.71 2.5-.027 3.502-.306.566-.184-.78.226 0 0z"/><path fill="#C0912D" d="M232.864 261.854c.18.07 3.38.66 2.577.945-1.09.364-2.04 1.007-2.86 1.562-1.707 1.156.33 1.156 2.073.98-.114.176-.672.557-.13.713.55.162 1.19-.563 1.81-.563 1.24 0 2.355.406 3.604.406 2.594 0 2.478-1.49 1.516-2.268h.327c-1.18-1.018-2.987-1.586-4.234-2.56h.337c-1.53-1.233 3.73-2.335-1.508-2.564.48.006.978-.004 1.464 0-1.913-.168-4.03-.748-5.312.332-.672.533-2.095-.447-2.458.445-.342.867 1.578 2.244 2.794 2.57 1.116.32-1.143-.314 0 0zM374.995 240.688c.132-.333-.196-.34 0 0z"/><path fill="#C0912D" d="M459.342 256.81c3.584 0 6.055.12 9.373-.942 1.084-.346 8.72-.914 8.88-1.162.165-.262-1.758-1.258-1.758-1.31-1.025-.716 1.62-.726 2.018-1.415.01-.022-.41-1.21-.398-1.16-.644-1.18 1.304-1.952-1.7-2.558h.585c-1.335-.373-3.066-.188-4.486-.166-1.91.01-2.847-.46-4.61-.672-1.02-.096-1.467.553-1.84.96-1.042 1.16-1.076.376-2.66-.122h.57c-1.564-.766-5.134-.527-6.99-.373-1.28.1-3.52.57-4.617-.097-.668-.387-1.92-.912-2.846-1.076-1.816-.324-4.57.027-6.447.11-2.618.085-3.482-.397-5.746-1.138h.494c-3.21-1.108-6.51-.02-9.617-1.528.274-.408 3.165-.637 3.968-.8-.13-.882-.02.065 0-.24-1.79-1.34-4.76-.575-6.76-.84-.76-.032-1.52 0-2.282.07-.4-.085-.708-.235-.954-.446-1.09-.102-1.684 1.152-.462 1.383 1.002.183 4.303-.118 3.884 1.036-.226.633-.754 1.924-2.232 1.783-1.486-.14-3.117.347-4.698.347-.326 0-3.024-.334-2.893-.383-2.783.754-3.382 1.422-4.404-.385-.158-1.876-2.637-1.663-5.158-1.487-2.945.227-4.794 1.342-7.576.572-2.793-.748-6.127 0-8.847-.613-.134-.463 1.707-1.04 1.813-1.576.23-1.04-4.062-.986-5.104-.986-1.51 0-5.066.096-5.474.096-.614-.004-5.196-.676-5.373-1.008-.425.96-3.287 1.373-4.573 1.594-2.394.41-3.074-.664-4.093-1.234-.476-.256-1.85.965-2.28 1.113-2.395.704-4.66.108-6.95.74-3.12.876-5.418 1.638-9.217 1.638-4.673 0 2.71 1.727 2.71 3.016 0 1.734-2.09-.96-1.925-.836-.918-.453-2.7-.418-3.695-1.027h.33c-.895-.526-2.395-1.007-3.367-.23.046-.034-2.282 2.804-2.46 1.16-.714-4.337-2.685 2.58-1.446 2.58.535 0 4.775-2.175 5.053-.7.088.69 1.28 1.295-.85 1.305-1.05.02-1.017-.52-1.705-.52-1.664 0-1.74-.023-2.935.87-.556.395-3.03 2.267-4.296 1.675-.414-.19 3.105-2.19 3.27-2.545-.9-.6-.936-3.08-.072-3.594-1.512-1.423-3.803-1.464-5.455-.356-.98.662-5.228 1.762-2.337 2.7 6.242 2.015-4.554.347-5.485.23h.75c-1.097-.226-2.787-.366-3.84 0h.52c-1.717.196-2.287 1.507-4.132.765-1.676-.663-4.46.66-6.217.255-1.905.045-3.515.54-5.435.52-.157 0-2.448-.217-2.448.182-.165.063-1.52 1.436-1.874.848-.404-.238 1.99-1.762-.132-1.943-1.745-.14-3 .06-2.672 1.18.052.135.853 2.023.092 1.76-.447-.14-.572-.996-1.23-.922-.904.107-1.505.47-2.386.57-1.88.258-1.174 1.932-2.985 1.652-.53-.086-1.664-.81-2.222-.506-.683.084-1.104.725-1.982.53.622.132-1.714-2.122-1.765-1.942-.35 1.26 11.782-.467 9.767-1.086-1.298-.408-2.058-1.23-3.616-1.365-2.878-.3-5.02.268-7.906-.498h.508c-4.422-1.182-10.438-3.06-15.228-1.906-2.208.544-4.512 1.23-6.494 1.905-2.347.766-2.918 1.69-4.857 2.717-2.08 1.107-12.058 2.578-10.75 5.107.5.97.328 2.585 2.23 3.058 3.377.844 3.19-1.41 5.13-1.23 1.326.123.605 3.48 2.043 3.33 1.544-.15 4.005-.29 5.273-.852 1.343-.404 1.14-1.633 2.313-2.355 2.233-1.38.483-1.19-1.184-2.104.31-1.488 5.512-1.393 6.177-3.29.184-.495-.514-.84.662-.888.997-.03 2.843-.242 3.808.053.91.286-4.843 2.325-5.157 2.608-.757.65.353 2.234 1.284 2.7.358.187 6.115-.546 7.146-.61 2.106-.09 2.226 1.227-.542 1.27-.518 0-5.872-.05-5.872.424 0 .143 3.654 1.457.78 1.322-2.543-.115-3.23-.375-4.13 1.32-.726 1.373.312.992-1.66 1.244-1.96-.36-3.727-.064-5.732 0-1.548.248-5.283.51-5.526-.764-.138-.77 1.102-1.973-1.515-1.508-3.37.61-1.134 2.04-.716 3.135-1.53-.06-2.827-.433-4.154.24-.786.407-1.51.856-2.214 1.314-.47.28-1.743.227-2.38.43-1.198.28-.377.79-1.002 1.287-.477.4-2.36.417-3.064.524-.346.037-5.636.934-5.42 1.207.316.495 3.503.73 4.312 1.26.87.538.645 2.712-.84 2.915-1.938.234-8.018-1.023-9.125.234-.55.653-.357 1.577-.04 2.233.473.957-1.168 1.3-.9 2.176.195.597 1.43 1.55 2.535 1.462.813-.055 3.6.984 3.2 1.248 1.524-1 1.616-.94 4.274-1.16.494-.033 3.096-1.21 3.135-1.568.125-.705.156-1.248 1.354-2.07-.37.25 5.83-2.197 3.918-2.322 2.255.2 2.476.36 4.564 0 2.235-.936 2.654-.566 4.064.607 1.373 1.158 3.395 1.408 5.45 2 .488.146 3.45 3.266 3.728 2.49-.59-.965-1.1-2.277 1.377-2.396-1.09-.292-2.11-.767-3.18-1.175h.438c-1.41-.47-6.564-2.75-5.094-3.523 1.318-.225 4.48 1.834 5.436 2.33 2.17 1.096 3.124 2.217 4.666 3.605.934.88.082 2.26.872 3.184.278.32 4.455-1.778 4.67-2.022-.06-.09-.166-.688-.716-1.01h.322c-1.707-1.06-1.17-.484.435-1.387 1.988-1.058 2.09.35 2.137 1.407.09 2.133 6.062 2.92 9.013 2.64 1.09-.112 3.825-1.11 3.682.1-.18 1.7-1.216 2.733-2.496 4.218-1.072.695-3.876-.322-5.794.096-.533.097-3.66 1.964-3.943 1.57-.41-.58 3.756-1.474 3.006-2.1-.82-.708-4.634-.105-5.933-.388-1.34-.172-2.86-1.012-3.832-.063-1.175 1.188-1.572 2.5-4.26 1.597h.456c-2.88-.963-6.736-1.398-9.285-2.566h.396c-1.906-.9-2.647-.917-.088-1.54.268-1.17-.926-3.385-4.49-2.322-2.793.834-6.845.043-9.99.834-1.184.295-1.844.533-2.968.818-1.732.43-4.567.104-5.894.61-.714.276-2.02 1.32-2.91 1.32-2.322 0-2.083 3.097-2.55 3.83-.735 1.25-4.71 1.13-5.762 2.444-.936 1.172-1.114 2.555-2.335 3.674-1.302 1.162.467 2.59.65 3.818.098.654-2.68 3.254-2.448 3.48 1.108 1.047.04 2.6 2.006 3.258 2.774.908 4.022.934 5.38 2.672.438.563 5.172 5.434 6.35 3.762-.503-1.133 7.653-.42 9.423-1.633 1.465-.95 3.52-1.395 5.55-.53 1.923.81 1.882 3.48 5.188 1.696 1.35-.724 3.91.888 2.463 1.806-.798.48-1.835 3.44-.92 3.867 2.584 1.264 5.002 3.477 4.897 5.625-.064.977 1.747 3.33.538 3.96-.99.505-1.76 1.46-2.004 2.177-.968 2.725 1.57 5.516 4.344 7.592 1.905 1.406.395 2.082.1 3.586-.232 1.105 2.522 2.314 3.073 3.373.48.955.562 1.92.892 2.887.66 2 3.26 1.09 5.02.553 3.712-1.166 7.087-.11 9.88-2.143 1.31-.943 5.795-3.357 4.896-4.61-.086-.767-1.92-1.267.647-1.745 1.822-.328 2.907-.357 2.66-1.266-.518-1.986-1.388-2.924 1.355-4.697 2.312-1.348 5.617-2.47 5.494-4.453-.043-.727-.666-1.355-.04-2.14.558-.667-1.227-1.812-1.427-2.12-1.2-1.574-1.716-3.174.278-4.605 2.235-1.563 3.758-3.73 6.648-4.982 3.64-1.572 4.562-3.088 6.636-5.342.707-.754 2.007-2.285 1.808-3.01.563-1.803-2.958-.693-4.504-.32-1.3.334-2.322.816-3.862.988-1.897.237-1.88-.228-2.296-.667-.12-1.168-.262-1.193-1.168-2.04-1.64-1.567-3.94-3.233-6.342-4.61-2.243-1.05-1.138-2.354-1.446-3.61-.098-1.175-1.323-2.413-1.96-3.347-.62-.9-3.1-2.445.54-2.2.822.065 3.653 3.978 3.874 4.57.595 1.59 1.66 2.35 3.354 3.53 1.873 1.297 1.998 2.955 2.562 4.55.655 1.804 3.104 1.903 5.625.85 2.094-.85 4.574-1.09 6.716-1.8.585-.574 5.22-1.738 6.436-2.543 1.446-.96 5.052-3.615 3.257-4.66-.71-.422-2.386-1.006-3.39-1.096-1.062-.086-.142-1.072-1.364-1.072-.53 0-2.803 1.47-3.385 1.695-1.653.594-1.514-.533-2.253-1.016h.347c-1.398-.813-6.875-4.61-3.117-5.098.876-.12 1.78 1.686 2.238 2.016.92.64 2.586 1.15 3.78 1.635 1.14.46 1.876-.11 2.933-.42.992-.295 1.625.678 2.068 1.055 1.4 1.078 4.03.97 6.163.97 1.863 0 3.31-.837 4.7-.837.41 0 4.537 2.332 4.487 2.645-.222 2.188 2.396 2.137 4.05.754 0 3.598.913 6.55 4.07 9.697.9.888 1.423 1.606 1.587 2.618.23 1.504.917 1.184 2.165.33 1.548-1.84 3.166-3.305 2.98-5.123-.48-2.555 1.582-2.234 4.104-4.092.628-.416 2.124-1.36 2.754-1.938 1.327-1.234 2.59-1.002 4.95-1.195.497-.045 1.022-.322 1.287-.516 1.335-.94 2.33 1.234 3.085 1.824 1.354 1.035 1.996 1.96 1.8 3.31-.04.263-.647 3.007-.04 3.007 2.233 0 1.13-3.383 4.24-3.285.908.025.442 5.285 2.688 6.137.273.125 1.107-2.877 1.24-2.916 2.974-.688 5.403 4.91 5.918 5.798.026.047 2.268-2.197 2.385-2.38.518-.702 1.71-.698 2.866-1.194 3.14-1.613.946-3.508-.93-5.12-1.1-.892-4.002-2.33-2.015-3.577 6.287-3.965.176 2.72 3.527 2.72 1.612 0 2.226-1.665 1.68-2.18-2.223-2.056 5.564-2.01 7.437-2.73 2.336-1.012 5.03-3.016 6.962-4.488 1.915-1.66 1.05-3.487-.774-5.128h.353c-.53-.5-1.305-1.125-1.838-1.54.292-.452 5.32-1.194 3.254-2.272-1.058-.56-3.114.42-4.468-.3-1.416-.907-1.167-1.08.493-1.593 1.014-.328 2.324-1.572 3.5-1.592.288-.018-2.323 3.184 1.863 1.45 3.59-1.495 1.16 2.354 2.01 2.222 1.084-.188 3.623-.88 2.358 1.018-.382.574-1.618 1.174-.32 1.7 1.186.474 2.64-.026 3.406-.634.97-.675.638-1.85.248-2.57-.71-.642-.82-.933-1.237-1.495-.56-.697 1.128-.693 1.8-1.055-.007-.21 3.292-2.904 3.738-2.477 1.69 1.53 4.134-.578 5.026-1.117 3.575-2.076 8.192-4.652 6.87-7.68.984 1.31.69 2.75.766 4.2.02.61-.133 1.403.648 1.872.41.225 1.48.498 1.65.088-.834-1.54 1.86-3.176.277-4.666-1.172-1.156-.56-.195-.433-1.494.033.072.23-.537-.167-.81-.38-.255-2.483.114-2.698.392-.997-1.54-2.497-.414-4.325-.414-.888 0-.365-1.025-.888-1.025-.015 0-3.035.95-1.773-.07 1.013-.813 2.974-.948 4.277-1.554 1.056-.496 2.743-2.143 4.354-2.254 2.896-.184 5.815.404 8.66-.21 2.254-.466 3.502 1.036 5.854.608 1.493-.258 4.06-1.697 5.077-2.363 1.19-.498 3.333-1.63 3.333 0 0 1.52 4.948-.527 5.974-.97-2.864 1.335-6.082 2.438-8.887 3.546-2.174.672-4.004 2.203-3.156 3.686 1.236 2.114.242 2.755-.358 4.86 2.376-2.105 5.84-3.922 9.266-5.377 3.19-1.36-1.07-4.874 5.214-4.874 3.35 0-1.336 0 0 0zm-147.47 13.645c-1.635.535-3.128-.578-4.424-.03-2.897.913.2 1.454.805 2.1.676.75 3.09 1.26 1.907 2.003-.798.52.82 1.994 1.04 2.656.69 2.2-6.196 1.535-7.2.27-.533-.39-.617-.922-.244-1.494.035-.012 2.916-1.055 2.84-1.055-.07-.602-1.23-.836-2.358-1.023h.677c-2.152-.387-6.39-4.826-2.016-4.568 2.325.14 3.044-.033 4.853-.93 1.283-.394 4.94 1.493 4.12 2.07-.65.224.347-.26 0 0zm-35.095 3.426c-.167-1.14.945-3.122 3.13-4.09 1.904-1.43 3.236.464 3.907 1.384.618.863 3.208-1.246 3.278-1.383.257-.39 2.775-.784 2.587-.353-.11.248-1.552.576-1.552.764 0 .315 4.837 2.073 5.44 2.292 1.324.518 2.03 1.688.047 1.88-2.484.255-4.08.155-6.374-.49h.655c-1.563-.5-4.854-.608-5.665.187-.303.288-5.855.58-5.71.755.117-.298.22-.614.257-.944 0 0-.038.458 0 0zm5.358 38.433c.41-1.354 3.714-.582 1.836 1.213-1.675 1.66-2.346-.524-1.835-1.213.057-.18 0 0 0 0zm.77-55.346c-.957.05-3.16-.3-2.395-1.035.67-1.04 4.392.775 2.396 1.035 0 0 .227-.037 0 0z"/><path fill="#C0912D" d="M307.938 246.62c1.547.37 5.762 1.765 7.185.786 1.327-1.035-.867-.78-.92-1.717 1.454-1.847 5.974-2.362 9.3-2.39 1.146-.012 8.285.303 7.49-1.7-1.746-.726-4.246.46-6.39.306-2.51-.182-4.886.314-7.41.508-2.053.145-4.14 1.553-6.052 2.154.16-.047-5.11 1.627-3.202 2.05.672.17-.49-.106 0 0zM422.367 278.207c-1.522.12-2.678 1.176-4.073 1.26-.744.05-3.353-.547-3.85-.117-.812.693-4.005 1.31-3.697 2.16.293.81 2.32 2.822 3.424 1.088-.948-.832 3.228-.47 3.977-1.736.32 1.11 7.846-1.295 8.08-1.992.48-1.33-.15-1.416 1.07-2.426.237-.785-.468-1.85-1.435-2.563h.364c-1.137-1.218-2.736 4.112-3.86 4.327-.292.022.452-.076 0 0zM398.956 291.682c2.384-.11 1.32-2.352 2.12-2.412-.642-1.264-4.405 2.54-2.12 2.412.06-.016-1.258.088 0 0zM391.107 319.924c1.805-.107-1.723-1.377-2.27-1.457-1.154-.225-2.89-.406-3.887.08-.465-.645-4.844-.182-3.778-1.107-.397-.316-.895-.283-1.27 0-2.602 1.22 2.47 1.916 4.035 1.623 1.658-.307 4.692 1.746 7.17.86.228-.028-.516.173 0 0zM397.163 320.74c-.276.756 1.637.824 1.93.305-.06-.244-1.54-1.35-1.93-.305-.22.623.225-.61 0 0zM397.047 315.615c.953.414 1.652-.803 2.312-.732 1.013-.514 1.074 1.146 1.395 1.426 2.165 1.933 2.69-.28 1.253-1.427h.405c-.33-.31-1.98-.738-1.83-1.135.626-.084 2.27.104 2.65-.412-.406-.588-1.893-.61-3.373-.436-1.19.137-2.062-.795-2.308.36-.124.498-1.404 1.967-.505 2.355.617.258-.9-.388 0 0zM410.28 309.94c-1.23-.35-2.32 2.165-1.886 2.634.7.762 3.683-2.094 1.885-2.635-1.01-.3.26.07 0 0zM392.12 307.537c-2.02 0-5.472 3.404-6.89 2.857-2.602-1-.897 2.248-.518 2.818 1.234 1.973 3.143 1.627 5.83 2.17 4.135.813 3.236-1.656 4.422-3.07 1.72-1.035 1.552-1.584 1.108-2.563-1.664-2.075.974-.925.974-2.454 0 .008-1.33.05-1.543-.113 0-.025.212-1.662-1.03-1.54-2.514-.05-.027 1.894-2.352 1.894-2.14 0 2.118 0 0 0zM397.726 297.986c.253.336 2.947 1.68 2.458 2.01-.056.06-2.756 2.037-2.343 2.008 2.032-.072 2.513-1.87 4.066-2.283 1.223-.315 1.918-.077 2.532-.808-1.21-.16-4.3-.123-3.96-.95-.084-.735 2.262-1.157 1.94-1.987-.088-.3-2.28-1.613-2.38-.818-.13 1.187-3.136 1.702-2.312 2.83.68.935-.68-.946 0 0zM102.1 242.098c-.897.52-.274 2.713.696 1.775.543-.51 3.172-1.898 4.02-.602.745 1.114 4.31-.267 3.43-1.03-.727-.594-7.29-.656-8.147-.142-.027.02.59-.346 0 0zM19.142 256.967c-2.927.764 2.567.932 1.233 0h-1.233c-.124.045 0 0 0 0zM375.087 240.563h.215c.134-.342-.428-.377-.215 0zM110.842 244.682c-.67-.275-5.386-.113-5.993.15-2.385 1.29 2.735.96 2.794 1.066 1.377 2.97 5.397-.242 3.198-1.216-.598-.252.365.15 0 0zM19.088 262.273c-.69.22-.38.86-1.153 1.082-.414.06-1.596.3-1.924.52-.152.138 2.87.456 3.38-.085.225-.178 1.045-1.46.315-1.62-.193.043-.405.084-.617.103-.48.16.12-.1 0 0zM407.476 304.586c-.296-.496-1.124-.98-1.814-1.322-.714.67-1.178 1.164-2.56.768-1.372-.377-4.512 1.13-.76 1.38 1.91.126 2.298 2.064 4.344.415.247-.186.84-1.17.79-1.24-.33-.556 0 .022 0 0zM432.277 316.46c-.937-.538-1.567-1.323-3.03-1.577h.71c-2.867-.883-6.784-2.33-10.233-1.68-1.263.227-5.113-.545-4.373-.89-.34-.42-1.017-.505-1.856 0 .12-.02-1.17.495-1.092.743.2.637 4.495.016 3.062 1.16-3.09 2.426 1.63.623 2.24 1.49.692.936 3.316.54 4.563 1.434.527.348 1.122.75 1.416 1.182.172.268-2.166 1.164-1.37 1.254 1.054.12 2.44-.432 2.967.27.464.6 1.46 1.72 2.8 1.2 1.2-1.27 3.35-3.155 5.155-.917 1.602 1.956 7.39 2.532 3.79-.122h.368c-1.13-.996-2.633-1.486-3.54-2.568h.407c-.17-.508-1.447-.645-1.983-.98-.228-.103.628.374 0 0zM443.85 338.975c-.746-1.64-1.69-3.17-3.056-4.63-1.528-1.718-.675-3.558-4.59-4.08h.756c-4.014-.53-3.672-2.524-5.005-4.105-.395-.428-4.9-4.174-4.066-4.57-1.425.65.124 8.055-3.647 6.123h.354c-2.788-1.402-5.746-1.23-4.26-3.367.53-.738.408-1.332-1.353-1.313-2.26.04-1.902.123-3.79-.46h.58c-1.27-.688-1.454.753-1.454 1.19-.16-.104-2.112-1.21-2.08-1.21.082-.052-1.276 1.98-1.343 2.105-.762 1.486-1.788.686-2.526.133-1.253-.976-2.833.19-3.326.9-1.045 1.53-1.667.657-4.07.67-2.793.034 1.033 3.358-1.757 3.562-2.78.19-5.668.652-7.882 1.738-1.36.672-3.03 1.393-3.387 2.482-.112.406 2.604 1.76 2.374 1.832-2.613.707 3.724 4.81 3.157 5.732-.638 1.05-3.182 1.123-1.324 2.402 1.49 1.08 3.6.643 5.355-.016 2.397-.604 4.01.125 6.26.068-.12-.91.48-2.988 3.09-2.764 1.84.164 5.22-1.367 6.67-.7 2.374 1.063 4.43 1.063 3.823 3.114-.254.893 4.153-1.484 4.34-1.463.227.19-.314 1.71.437 1.633.346-.05.495-.55.77-.55-.28 0 2.09 1.99 2.09 2.01 0 2.124 1.964.784 3.255 2.323.84.992 2.403-1.146 4.265.156.396.276 4.083-1.257 4.86-1.257 1.247-1.176 1.584-2.496 3.128-3.592 1.476-.93 5.41-2.802 3.353-4.095-.14-.317 0 0 0 0z"/><path fill="#C0912D" d="M427.79 270.71c-.79.144-1.325.77-1.325 1.245 0 .082-2.098.785-2.186.84-1.164.844 8.846.805 8.915-.44-.968-.84-2.95-.458-4.02-1.044h.352c-.423-.353-1-.54-1.736-.6-.06.005.67-.106 0 0zM436.006 349.24c-1.398-.162-1.916 1-3.546.64-1.29-.28-2.347.09-.908.83 1.18.6.274 1.798 2.76 1.097 1.144-.313 2.02-2.06 1.694-2.567-.286-.037 0 0 0 0zM401.64 301.55c-4.227 1.01 5.255 3.036 1.528.52h.34c-.44-.422-1.06-.59-1.867-.52-.05 0 .69-.175 0 0zM405.377 300.537c-.894-.146-1.66 1.064-.886 1.395 1.704.7 3.37-1.477.887-1.395-.103-.016 0 0 0 0zM474.982 346.666c-.458-.29-1.348.14-2.063-.14-1.402-.538-1.227-.964-1.774-1.84.286.45-1.448-1.278-1.448-.577-.93.255.79 2.075.875 2.538.103.748-2.72 1.662-.086 1.77 2.387.12-.093 1.715 1.637 1.422 1.085 0 3.73-2.86 2.858-3.174-.105-.078 0 0 0 0zM460.673 332.238c.224-.807-2.328-1.393-3.412-1.25-.388.047 2.918 2.936 3.413 1.25.08-.287-.07.235 0 0zM477.953 326.727c-1.05-.242-2.817 1.324-3.254 1.713 1.44.365 4.025-1.54 3.253-1.713-.237-.06.485.095 0 0z"/><path fill="#C0912D" d="M469.138 349.24c-.728-.387-4.687 2.242-5.39 2.5-1.056.422-3.957 1.336-3.602 2.33.222.66 3.257 1.04 4.054.666 1.577-.29 8.944-5.1 4.938-5.496-.247-.12 0 0 0 0zM379.54 317.44c.316-.487.757-2.16.757-2.558 1.07-1.156-1.98-1.785-3.313-2.57h.38c-1.572-.984-3.482-1.545-4.96-2.563h.342c-1.243-.925-3.535-2.075-5.39-2.567h.55c-3.23-1.04-1.984.63-.558 1.412 1.417.814 4.23 2.16 4.23 3.38 0 .9.325 3.526 1.963 3.946 1.277.36 5.388 1.81 6 1.52.054-.09 0 0 0 0zM146.98 293.707c-2.223-.387-3.973.54-5.366 1.393 1.48.082 10.423 1.674 6.783-.73h.358c-.49-.32-1.062-.546-1.776-.663-.906-.152.542.1 0 0zM137.05 295.63c-1.115.15-.803 1.536.405 1.27 1.347-.283.796-1.658-.405-1.27-.006.016.065-.02 0 0zM129.67 254.514c-.23.107-.426.178-.634.258-.283.2 1.394.598 1.648.236.78-.22-.428-.645-1.015-.494-.23.025.692-.188 0 0zM133.397 255.25c-1.248.22.054.836.717.53 1.03-.124.34-.92-.717-.53 0 0 .07-.03 0 0zM204.612 246.717c-1.777-.855-1.456-2.873 1.808-2.195 3.24.68 1.944-1.635 3.442-2.922-4.5-.725 1.06-3.77 3.18-4.73 1.195-.518 4.984-1.77 1.955-2.33-3.988-.783-3.8 1.234-6.93 1.71-4.983.726-2.816-5.575-6.914-5.146-1.802.195-3.28 0-5.05.473-1.087.31-2.36 0-3.54.295-2.02.514-4.348.424-6.46.057 1.168.067 9.64-.17 9.85-.968.115-.438-3.068-.61-3.39-.672h.763c-4.155-.53-8.72-.486-12.935 0h.69c-.72.06-5.678.896-6.188 1.346-.73.168-1.17 1.15-1.573 1.53-.872.792-1.52-.335-1.24-.29-1.406-1.63-1.884.383-2.073 1.092-.424 1.924-3.877.662-5.635.525-.787-.064-8.918.27-7.767 1.416.82.845-2.06.536-2.695.714-.59.13-1.63.492-1.548.934.296 1.354-1.217.914-2.545 1.254-1.255.3-.91 1.096-2.327 1.393-1.183.27-2.394.123-3.55.36h.523c-.437-.013-.822.08-1.114.25.22-.458 4.618 1.94 4.974 2.038 1.828.512 2.385-1.217 2.45-1.715-.25 2.035 6.524.992 8.912 1.81 2.53.897 3.842.788 4.258 2.68.178.946.05 2.673 1.922 1.09 1.552-.417 2.442-.565 3.75.983 1.195 1.386-1.66 1.362-1.217.564-.49-.58 1.254-1.416-1.37-1.305-1.134.032-1.846.82-1.85 1.407-.03 1.04 2.238.64 2.238 1.014 0 .99-1.405.94-.564 2.167.585.875 1.15 1.252 2.817 1.465-1.058-.158-.27.873-.21.96.875 1.038 2.718 1.366 4.012 2.206.807.52 2.748-.064 2.832.086.49.875 1.037 1.252 2.63.705.184-.126 1.207-.882 1.314-1.036-.013-.47.072-.936.286-1.418.8-.29 1.923.268 1.783-.682-.212-1.633 3.004-2.145 5.737-2.03 2.88.136 2.342-2.01 5.693-1.882 2.403.088 4.06-.41 6.237-.914 1.068-.246 3.143.254 1.74-.744h.334c.096.037-4.306-2.254-2.873-2.254 1.826 0 2.328.924 2.824 1.674.757 1.154 3.574.11 2.602-.967 0 0 .062.06 0 0zM22.197 250.82c.58-.076.214-.025 0 0zM373.012 304.586c-.233-.262-2.142-1.86-2.79-1.715-2.578.228.704 2.12.987 2.396 1.163 1.26 1.535 2.826 2.61 4.145.39.472 3.852 2.665 4.54 1.37-1.254-.77-1.736-2.406-2.7-3.596-.28-.362-2.39-2.227-2.648-2.598-.387-.41.005.023 0 0zM405.102 319.42c-2 1.162-2.792 2.35.063 1.625.583-.29 2.214-.352 2.214-.916-.002-.194-1.238-1.663-2.278-.71 0 0 .67-.606 0 0zM305.963 323.602c-1.936-1.047-2.618.873-3.52 1.574-1.066.79-4.77 1.646-5.063 2.564-.25.71.7 1.514.666 2.277-.04.87-1.096 1.355-.768 2.25.318.94.09 2.598 1.643 3.113 4.828 1.188 8.832-9.91 7.043-11.778 0 0 .37.378 0 0zM405.475 310.78c-.835-.052-6.335.13-6.458.265-.836-.104-.553.74-.147.88.718.274 2.15.024 2.906-.032 1.283-.094 3.53-.016 3.7-1.114 0 0-.04.206 0 0z"/><path fill="#FFCE09" d="M77.324 62.547h1.593V259.5h-1.593z"/><path fill="#BE1B88" d="M142.524 104.102h1.593V263h-1.593z"/><path fill="#3873B8" d="M437.674 128.64h1.594V250.5h-1.594z"/><path fill="#BBD432" d="M369.396 88.61h1.594V247h-1.594z"/><path fill="#3FB8EA" d="M197.634 61.27h1.593v172.58h-1.593z"/><path fill="#7E3E1C" d="M263.81 155.98h1.593V315h-1.594z"/><circle fill="#FFCE09" cx="79.714" cy="37.85" r="35.85"/><circle fill="#BE1B88" cx="143.511" cy="91.131" r="31.643"/><circle fill="#FFF" cx="143.511" cy="91.131" r="28.138"/><circle fill="#3873B8" cx="438.662" cy="131.093" r="26.035"/><circle fill="#FFF" cx="438.662" cy="131.093" r="23.932"/><circle fill="#3FB8EA" cx="198.896" cy="46.964" r="26.035"/><circle fill="#FFF" cx="198.896" cy="46.964" r="23.23"/><circle fill="#BBD432" cx="370.681" cy="76.408" r="35.851"/><circle fill="#FFF" cx="370.681" cy="76.408" r="33.046"/><circle fill="#7E3E1C" cx="265.498" cy="144.413" r="35.85"/><circle fill="#FFF" cx="265.498" cy="144.413" r="32.345"/><g fill="#FFCE09"><path d="M77.654 80.966l.127-7.36-5.725-.82s4.708 3.04 5.6 8.18zM78.716 73.605l.127 7.36c.89-5.14 5.598-8.178 5.598-8.178l-5.724.818z"/></g><g fill="#BE1B88"><path d="M142.853 129.574l.127-7.36-5.726-.82s4.708 3.04 5.6 8.18zM143.915 122.212l.127 7.36c.89-5.14 5.598-8.178 5.598-8.178l-5.725.818z"/></g><g fill="#7E3E1C"><path d="M263.788 187.412l.127-7.36-5.726-.818s4.707 3.037 5.598 8.178zM264.85 180.05l.128 7.36c.89-5.14 5.598-8.178 5.598-8.178l-5.726.818z"/></g><g fill="#BBD432"><path d="M369.65 118.707l.126-7.36-5.725-.818c.002-.002 4.71 3.036 5.6 8.177zM370.71 111.346l.13 7.36c.89-5.14 5.597-8.178 5.597-8.178l-5.726.818z"/></g><g fill="#3873B8"><path d="M437.887 164.043l.128-7.36-5.726-.82s4.706 3.038 5.597 8.18zM438.95 156.682l.126 7.36c.89-5.14 5.598-8.178 5.598-8.178l-5.725.818z"/></g><g fill="#3FB8EA"><path d="M198.004 80.03l.127-7.36-5.724-.817s4.707 3.037 5.598 8.178zM199.066 72.67l.127 7.36c.89-5.14 5.598-8.178 5.598-8.178l-5.724.818z"/></g><ellipse fill="#FFCE09" cx="78.073" cy="259.563" rx="5.083" ry="1.928"/><ellipse fill="#BE1B88" cx="143.273" cy="263.418" rx="5.083" ry="1.928"/><ellipse fill="#BBD432" cx="370.27" cy="247.498" rx="5.083" ry="1.928"/><ellipse fill="#3873B8" cx="438.62" cy="249.602" rx="5.083" ry="1.928"/><ellipse fill="#3FB8EA" cx="198.165" cy="233.828" rx="5.083" ry="1.928"/><ellipse fill="#7E3E1C" cx="264.558" cy="314.947" rx="5.083" ry="1.928"/><path fill="#EE2C28" d="M338.823 177.713h1.594V290h-1.594z"/><circle fill="#EE2C28" cx="340.512" cy="150.021" r="28.138"/><circle fill="#FFF" cx="340.512" cy="150.021" r="25.387"/><g fill="#EE2C28"><path d="M338.803 184.608l.127-7.36-5.726-.82s4.708 3.038 5.6 8.18zM339.864 177.247l.127 7.36c.892-5.14 5.6-8.18 5.6-8.18l-5.726.82z"/></g><ellipse fill="#EE2C28" cx="339.397" cy="290.234" rx="5.083" ry="1.928"/><circle fill="#FFF" cx="79.364" cy="37.149" r="31.644"/><g><path fill="#8D6839" d="M149.78 99.946c-.722 0-1.186-.98-1.482-2.433-.033-.158-.064-.322-.09-.498v-.008c-.064-.39-.112-.808-.16-1.25-.025-.248-.048-.505-.073-.763-.104-1.285-.135-2.672-.135-3.995 0 0-1.548.15-2.794.15h-.02c-1.245 0-2.787-.152-2.787-.152 0 1.33-.03 2.735-.14 4.03l-.07.773c-.04.43-.095.84-.16 1.222-.033.233-.072.45-.12.662-.298 1.363-.748 2.26-1.444 2.26 0 0-7.01.842-7.01 12.13 0 0 .1.04.286.124H156.514c.167-.083.272-.123.272-.123 0-11.287-7.005-12.13-7.005-12.13z"/><path fill="#554222" d="M148.208 97.007v.01c-.283.448-1.253 1.725-3.17 1.725h-.014c-1.822-.008-2.882-1.33-3.154-1.718.064-.383.12-.792.16-1.22l.07-.776c.892.224 1.854.36 2.89.375h.035c1.057-.016 2.036-.16 2.95-.41.025.258.048.516.073.765.048.442.095.858.16 1.25"/><path fill="#C58B8E" d="M156.804 112.082s-.105.04-.276.123H133.57c-.184-.083-.282-.123-.282-.123 0-8.602 4.072-11.135 6.01-11.857 1.26 1.388 3.758 3.298 5.687 3.392h.056c.008 0 .024.008.04 0 1.938-.094 4.436-2.012 5.7-3.4 1.925.713 6.024 3.24 6.024 11.865"/><path fill="#FFF" d="M138.217 100.726c1.495 1.65 4.465 3.915 6.75 4.03h.066c.01 0 .032.007.047 0 2.294-.115 5.253-2.38 6.754-4.03-.398-.224-.77-.395-1.08-.51-1.262 1.39-3.76 3.307-5.695 3.4-.017.01-.036 0-.04 0h-.057c-1.928-.093-4.426-2.003-5.687-3.39-.308.113-.67.28-1.06.5"/><path fill="#4E4C49" d="M138.08 76.286s-.146 4.02-.888 5.294c-.74 1.27-.35 2.22-5.066 3.444-2.91.755-7.67.15-9.303-4.115-.43-1.122-1.672-3.674 3.196-3.988 4.868-.318 12.06-.636 12.06-.636"/><path fill="#554222" d="M144.855 67.012c-12.115 0-12.186 10.146-11.648 16.788-.832-1.575-3.29-1.09-3.09 1.392.198 2.388 3.67 3.62 3.62 3.343.995 5.465 6.7 8.62 11.12 8.62h.094V67.013h-.095"/><path fill="#342A18" d="M130.894 84.143c.6-.96 1.522-.546 1.75-.334.24.228.434.534.283 1.1-.084.32-.42.34-.34.826.093.542.344.58.488.702.14.123.32.222.41.45.085.228.1.472.052.68-.09.393-.662.082-1.046-.088-.25-.12-1.05-.792-1.254-1.02-.508-.58-.742-1.68-.342-2.317"/><path fill="#554222" d="M144.918 67.012c12.12 0 12.187 10.146 11.65 16.788.83-1.575 3.29-1.09 3.087 1.392-.195 2.388-3.668 3.62-3.62 3.343-.994 5.465-6.696 8.62-11.118 8.62h-.092V67.013h.093"/><path fill="#342A18" d="M158.884 84.143c-.6-.96-1.523-.546-1.753-.334-.24.228-.428.534-.282 1.1.084.32.42.34.34.826-.09.542-.344.58-.486.702-.142.123-.32.222-.41.45-.083.228-.1.472-.05.68.088.393.66.082 1.044-.088.25-.12 1.05-.792 1.255-1.02.51-.58.742-1.68.344-2.317"/><path fill="#8D6839" d="M153.61 73.322c-1.754-2.273-4.64-3.43-8.566-3.448h-.09c-3.99 0-6.904 1.154-8.675 3.445-2.467 3.19-2.373 8.067-1.46 11.565.274 1.074.418 3.956.61 5.016.862 4.737 6.085 7.255 9.526 7.255.028 0 .06-.004.09-.004 3.93-.04 8.624-2.803 9.432-7.25.19-1.06.334-3.94.614-5.015.902-3.49.994-8.36-1.483-11.563z"/><path fill="#ED1C24" d="M133.336 75.662s.423-6.94 2.645-7.65c2.224-.71 6.578-2.217 10.052-1.403 3.647.847 10.067 1.9 10.795 7.99.354 2.976-.26 9.2-.26 9.2s-.056-3.06-2.383-4.967c-2.33-1.903-4.977-4.114-9.528-3.804-4.547.313-11.32.632-11.32.632"/><path fill="#ED1C24" d="M133.385 75.085c-1.27.627-1.365.73-2.43.894-2.323.362-4.708.832-6.293.787-1.588-.05-2.215.057-2.326 1.54-.11 1.48 0 .63 0 .63s-.11-.844 1.476-1.16c1.59-.32 5.613 1.724 11.01 1.303 5.393-.422 12.532-3.92 12.532-3.92s-3.117-1.02-5.447-1.106c-2.33-.087-8.522 1.03-8.522 1.03"/></g><g><path fill="#EDD9B4" d="M358.02 98.924l.543 4.006h24.144l.758-4.222"/><path fill="#BC9F82" d="M364.95 82.792s2.707 4.006 2.6 7.47c0 0 4.005 2.274 6.603-.216 0 0-.216-4.872 1.732-7.362 0 0-4.006 4.114-10.935.108z"/><path fill="#13150E" d="M371.54 94.6v.146c-.023 2.43-.04 6.937-.045 8.31H360.48l-.24-2.884s-1.412-.093-2.172-.127c-.035 0-.106-.144-.175-.38-.023-.06-.044-.135-.063-.225-.366-1.382-.802-4.875.83-7.424.54-.84 2.29-1.285 2.29-1.285s1.05-.74 2.98-.9c1.106-.086 1.58-.094 1.867-.253.07-.032.12-.076.175-.138.096-.1.165-.237.263-.423.243-.498.407-1.063.537-1.485.037-.11.064-.218.1-.31v-.014c.06-.183.114-.294.164-.294h.134l-.047.227c.22.263.377.75 1.362 1.266.99.525 1.32.462 1.752 1.31.278.562.388 1.73.427 2.57.01.19.017.364.017.515.01.095.01.175.01.246 0 .06-.01.102-.01.138 0 .08.77.56.85 1.284.01.043.01.087.01.132"/><path fill="#13150E" d="M383.245 100.044c-.758.03-2.18.126-2.18.126l-.232 2.884h-11.01c-.007-1.163-.017-4.57-.034-7.06v-.27c0-.41-.01-.796-.01-1.125-.01-.795.856-1.33.856-1.418-.01-.13-.01-.472.012-.897.036-.84.153-2.008.433-2.57.427-.848.762-.785 1.747-1.31.985-.515 1.144-1.003 1.36-1.265l-.046-.227h.134c.157 0 .354 1.17.803 2.102.097.187.176.325.265.422.05.062.1.102.165.138.285.16.76.167 1.875.252 1.93.16 2.975.902 2.975.902s1.757.443 2.296 1.284c2.07 3.238.81 8.007.592 8.03"/><path fill="#E6B821" d="M360.157 99.577l-.017.217-2.29-.13c-.022-.06-.04-.135-.06-.225l2.367.137zM381.154 99.577l.016.217 2.288-.13c.028-.06.042-.135.062-.225l-2.366.137zM370.273 92.37v.24l-.125-.023c-.607-.092-3.282-1.097-4.392-3.012.07-.03.125-.075.176-.137.952 1.675 3.282 2.714 4.12 2.91 0-.813 0-1.818-.367-2.585-.137-.28-.725-.562-1.25-.814-.386-.184-.75-.352-.993-.544-.288-.216-.536-.533-.707-.875.034-.11.062-.217.097-.31.14.382.417.76.745 1.013.226.173.598.347.96.524.6.286 1.175.556 1.354.916.383.812.383 1.862.383 2.696M371.08 92.37v.24l.12-.023c.614-.092 3.285-1.097 4.394-3.012-.07-.03-.118-.075-.172-.137-.956 1.675-3.282 2.714-4.12 2.91 0-.813 0-1.818.365-2.585.14-.28.728-.562 1.25-.814.38-.184.75-.352.996-.544.286-.216.542-.533.704-.875-.034-.11-.063-.217-.095-.31-.14.382-.42.76-.745 1.013-.226.173-.6.347-.958.524-.608.286-1.18.556-1.357.916-.382.812-.382 1.862-.382 2.696"/><path fill="#E6B821" d="M370.606 92.875c-.574 0-1.046-.235-1.293-.445l.552-.674c.076.062.757.568 1.604-.075l.53.693c-.483.37-.97.502-1.394.502"/><path fill="#E6B821" d="M371.842 92.37c-.372.217-.76.44-1.15.675-3.592 2.115-7.917 4.963-9.384 9.153-.105.29-.174.57-.234.857h-.22c.063-.305.142-.62.243-.93 1.507-4.304 5.94-7.187 9.585-9.325.354-.213.714-.41 1.053-.612l.107.18z"/><path fill="#CCAE8B" d="M370.648 55.52c-13-.02-13.07 10.426-12.494 17.236-.89-1.6-3.53-1.003-3.313 1.556.213 2.453 3.936 3.563 3.884 3.292 1.062 5.55 7.188 8.632 11.924 9.072h.1v-31.15c-.03 0-.063-.005-.1-.005"/><path fill="#BC9F82" d="M355.495 73.233c.653-.99 1.656-.565 1.908-.348.26.237.47.552.306 1.137-.092.33-.457.35-.37.854.1.564.374.6.532.73.152.124.347.22.445.46.094.235.11.49.057.708-.1.404-.723.083-1.137-.1-.272-.115-1.145-.817-1.365-1.052-.557-.59-.81-1.732-.377-2.39"/><path fill="#D9BF9F" d="M370.72 55.52c12.995-.02 13.068 10.426 12.49 17.236.896-1.6 3.524-1.003 3.31 1.556-.206 2.453-3.933 3.563-3.878 3.292-1.063 5.55-7.19 8.632-11.923 9.072h-.105v-31.15c.033 0 .07-.005.104-.005"/><path fill="#BC9F82" d="M385.962 73.233c-.653-.99-1.658-.565-1.903-.348-.264.237-.47.552-.31 1.137.09.33.458.35.367.854-.1.564-.376.6-.528.73-.158.124-.35.22-.447.46-.093.235-.107.49-.055.708.095.404.718.083 1.136-.1.27-.115 1.146-.817 1.364-1.052.553-.59.807-1.732.374-2.39"/><g fill="#EDD9B4"><path d="M361.142 62.04c-2.685 3.303-2.584 8.345-1.593 11.962.3 1.105.46 4.088.667 5.18.936 4.896 6.623 7.5 10.366 7.5.03 0 .065-.005.1-.005V58.485c-.034 0-.064-.003-.1-.003-4.343 0-7.516 1.195-9.44 3.56zM380 62.045c-1.91-2.346-5.044-3.54-9.315-3.56v28.192c4.275-.044 9.385-2.896 10.264-7.495.21-1.093.358-4.075.667-5.18.987-3.61 1.08-8.643-1.616-11.957z"/></g><path fill="#B47070" d="M372.87 82.26s-.98 1.05-2.192 1.05c-1.21 0-2.133-1.026-2.133-1.026s.924-.16 2.133-.16c1.213 0 2.19.137 2.19.137"/><path fill="#C07874" d="M371.3 81.777c-.345 0-.615.208-.622.476-.004-.267-.275-.476-.616-.476-.345 0-1.576.485-1.576.485s1.2.124 1.54.124c.346 0 .648.134.652-.12.007.253.253.154.594.154.343 0 1.598-.16 1.598-.16s-1.23-.483-1.57-.483"/><path fill="#221A15" d="M380.13 60.178c.902-.33 2.037-.595 2.083-2.143.05-1.547 1.185-2.73-.282-4.387-1.467-1.658-3.217-2.557-3.217-2.557s-1.608-.756-2.794-1.04c-1.182-.285-1.553-.477-2.604 0-1.832.83-2.08 1.087-2.934 2.65-.854 1.562-1.23 1.513-1.378 2.46-.137.95-1.036 1.47 0 1.847 1.05.378 1.237 1.658 2.326 1.94 1.088.283 8.657 1.23 8.657 1.23h.144z"/><path fill="#221A15" d="M383.783 71.624c-.27.257-.573.59-.78 1.123-.42 1.093-.584.908-.584.908s.664-4.267.664-5.458c0-1.177-3.8-6.38-5.924-7.087-2.128-.696-4.09.77-6.37.77h-.184c-2.236-.045-4.17-1.458-6.263-.77-2.12.708-5.924 5.91-5.924 7.087 0 1.19.66 5.458.66 5.458s-.16.185-.58-.908c-.245-.63-.63-.99-.938-1.25-.563-7.392-.24-18.282 13.083-18.282h.074c13.387 0 13.65 11.015 13.063 18.41"/></g><g><path fill="#EDD9B4" d="M261.355 151.78h6.528v7.445h-6.528z"/><path fill="#83C2E1" d="M276.457 168.74s-.105.032-.272.12H253.08c-.187-.088-.293-.12-.293-.12 0-8.746 4.173-11.266 6.107-11.97 1.113.555 2.914 1.46 3.563 1.753.5.217 1.223.75 2.164.74.87-.017 1.927-.546 3.188-.94 1.163-.367 2.208-.898 3.046-1.357 2.07.943 5.603 3.722 5.603 11.773"/><path fill="#010101" d="M273.88 168.86h-18.51c.055-.905.11-2.548.085-4.76v-.414c-.007-.153-.007-.313-.02-.485-.01-.11-.02-.234-.027-.353-.07-.888-.22-1.94-.396-3.037.542-.803 1.12-1.415 1.7-1.88.05-.053.104-.095.152-.127.75-.595 1.48-.946 2.02-1.147.104-.042.2-.074.29-.1.422-.126.68-.16.68-.16.22 0 .412-.09.58-.24 0 0 0-.01.01-.01.06-.057.114-.127.173-.2.02.015.063.08.1.208.22.575 2.405 2.27 3.907 3.75 1.5-1.48 3.685-3.175 3.9-3.75.045-.128.085-.193.11-.21.055.074.11.145.17.202.006 0 .006.01.006.01.17.15.365.24.582.24 0 0 .244.025.64.144.09.034.185.065.292.107.54.193 1.275.535 2.044 1.14.05.04.106.082.152.13.582.47 1.172 1.083 1.715 1.894-.187 1.13-.332 2.204-.396 3.1-.018.124-.026.243-.033.357-.008.12-.008.243-.016.346v.416c-.033 2.24.032 3.916.09 4.83"/><path fill="#FFF" d="M259.9 161.318l.008-.013h-.013l-1.175-2.014-1.167-2.04-1.167 2.04-1.178 2.015h-.013l.01.013-.01.007h.013l1.178 2.02 1.167 2.035 1.167-2.036 1.175-2.02h.013M264.612 161.318l.006-.013h-.014l-1.17-2.014-1.168-2.04-1.168 2.04-1.176 2.015h-.014l.007.013-.007.007h.014l1.176 2.02 1.165 2.035 1.17-2.036 1.17-2.02h.015M269.324 161.318l.004-.013h-.012l-1.174-2.014-1.164-2.04-1.17 2.04-1.175 2.015h-.012l.004.013-.003.007h.013l1.175 2.02 1.165 2.035 1.17-2.036 1.173-2.02h.012M274.033 161.318l.007-.013h-.013l-1.175-2.014-1.165-2.04-1.17 2.04-1.174 2.015h-.012l.007.013-.006.007h.013l1.174 2.02 1.167 2.035 1.168-2.036 1.175-2.02h.013"/><path fill="#FFF" d="M259.564 168.86h-4.028l.85-1.443 1.165-2.042 1.173 2.042M264.275 168.86h-4.025l.85-1.443 1.163-2.042 1.163 2.042M268.987 168.86h-4.025l.85-1.443 1.166-2.042 1.162 2.042M273.69 168.86h-4.018l.844-1.443 1.17-2.042 1.167 2.042"/><path fill="#1E1F18" d="M262.248 167.695l-1.254-2.187-1.145-1.966h-.123l.06-.11-.064-.104.123-.01 1.147-1.968 1.258-2.187 1.253 2.187 1.144 1.965h.113l-.052.11.06.104-.12.007-1.145 1.97-1.255 2.188zm-2.232-4.268l1.155 1.977 1.078 1.884 1.082-1.884 1.15-1.977-1.15-1.973-1.078-1.883-1.08 1.884-1.156 1.973z"/><path fill="#1E1F18" d="M262.248 167.284l-.896 1.575h.232l.664-1.173.67 1.172h.233M266.96 167.695l-1.254-2.187-1.148-1.966h-.118l.058-.11-.062-.104.122-.01 1.148-1.968 1.256-2.187 1.252 2.187 1.147 1.965h.11l-.048.11.054.104-.115.007-1.146 1.97-1.253 2.188zm-2.232-4.268l1.154 1.977 1.08 1.884 1.08-1.884 1.15-1.977-1.15-1.973-1.08-1.883-1.08 1.884-1.154 1.973z"/><path fill="#1E1F18" d="M266.96 167.284l-.898 1.575h.236l.663-1.173.67 1.172h.235M260 163.427l.047-.11h-.103l-1.148-1.966-1.253-2.19-1.26 2.19-.876 1.498c.007.12.018.244.027.354l1.024-1.747 1.084-1.89 1.074 1.89 1.155 1.973-1.154 1.98-1.082 1.885-1.076-1.884-1.004-1.723v.415l.827 1.402 1.254 2.192 1.26-2.192 1.15-1.96.113-.01-.057-.107z"/><path fill="#1E1F18" d="M257.535 167.284l-.9 1.575h.24l.66-1.173.682 1.172h.23M258.883 156.655l-1.34 2.327-.68-1.18c-.048.032-.103.074-.153.127l.833 1.454 1.63-2.828c-.088.025-.185.057-.29.1M271.672 159.563l1.084 1.89 1.05 1.812c.008-.114.017-.233.032-.356l-.916-1.56-1.25-2.19-1.253 2.19-1.148 1.966-.13.017.062.095-.056.115h.123l1.148 1.96 1.253 2.19 1.25-2.19.87-1.475v-.416l-1.035 1.796-1.084 1.884-1.075-1.884-1.156-1.98 1.155-1.973 1.077-1.892z"/><path fill="#1E1F18" d="M271.672 167.284l-.906 1.575h.228l.678-1.173.66 1.172h.244M272.367 157.786l-.688 1.197-1.357-2.336c-.107-.042-.203-.073-.292-.107l1.65 2.845.84-1.467c-.046-.05-.103-.09-.153-.132"/><path fill="#83C2E1" d="M269.036 155.755c-.177-.45-.596-.87-.75-1.225-.254-.592-.485-1.114-.485-1.114-.06.563-.934 3.08-.934 3.08s-2.744 2.93-2.316 3.024c.435.095 2.467 1.042 3.047 1.72.59.678.488 1.31.642.394.15-.92 1.265-4.674.796-5.88"/><path fill="#83C2E1" d="M262.385 156.494s-.875-2.516-.934-3.08c0 0-.235.523-.49 1.116-.15.356-.573.776-.752 1.225-.463 1.205.65 4.96.803 5.878.152.918.053.285.638-.395.583-.677 2.545-1.608 2.976-1.703.428-.09-2.24-3.04-2.24-3.04"/><path fill="#CCAE8B" d="M264.392 123.34c-12.21 0-12.28 10.216-11.737 16.906-.834-1.583-3.313-1.094-3.11 1.4.197 2.407 3.693 3.652 3.645 3.373 1.003 5.505 6.748 8.683 11.202 8.683.03 0 .065-.004.094-.004v-30.36h-.094"/><path fill="#BC9F82" d="M250.324 140.592c.604-.963 1.534-.547 1.762-.333.247.228.438.534.285 1.105-.08.32-.42.345-.336.833.09.548.345.584.487.708.14.124.323.217.413.453.087.23.102.476.056.686-.097.393-.672.082-1.053-.097-.258-.115-1.062-.797-1.267-1.024-.51-.578-.75-1.69-.346-2.334"/><path fill="#D9BF9F" d="M264.45 123.34c12.212 0 12.282 10.216 11.738 16.906.837-1.583 3.317-1.094 3.112 1.4-.197 2.407-3.698 3.652-3.65 3.373-.998 5.505-6.742 8.683-11.2 8.683-.027 0-.06-.004-.09-.004v-30.36h.09"/><path fill="#BC9F82" d="M278.522 140.592c-.605-.963-1.536-.547-1.765-.333-.242.228-.436.534-.29 1.105.09.32.426.345.345.833-.092.548-.345.584-.49.708-.14.124-.322.217-.412.453-.085.23-.103.476-.053.686.093.393.665.082 1.052-.097.254-.115 1.06-.797 1.262-1.024.513-.578.752-1.69.35-2.334"/><path fill="#EDD9B4" d="M273.25 129.692c-1.77-2.287-4.675-3.45-8.627-3.47-.032 0-.062-.005-.092-.005-4.02 0-6.956 1.167-8.737 3.47-2.487 3.214-2.392 8.127-1.475 11.656.28 1.076.422 3.984.616 5.048.867 4.775 6.128 7.312 9.597 7.312.027 0 .06-.004.093-.004 3.955-.04 8.687-2.825 9.498-7.307.195-1.062.34-3.97.62-5.046.912-3.515 1.002-8.424-1.49-11.652z"/><path fill="#B65528" d="M253.75 144.065c-.232 0 .02-1.5-.77-2.535-.788-1.037-1.986-4.522-1.986-8 0-3.48 1.027-6.577 3.702-9.865 2.68-3.29 6.614-4.89 6.614-4.89l-1.81 1.973s.975-1.6 4.48-2.884c2.77-1.01 4.556.116 4.556.116s-1.82-.074-2.377.874c-.14.24-.65.604-.65.604s.848-2.27 4.785-.387c3.937 1.882 3.863 5.25 6.602 6.286 2.803 1.06 3.616-.3 3.616-.3s-1.216 2.384-3.376 2.39c-.414 0-.386-.01-.386-.01s.808 2.554.966 4.46c.157 1.947-.337 3.277-.49 6.918-.13 3.11-.842 1.516-1.688 3.81-.284.77-.297 1.634-.297 1.634-.313.09-1.138-1.867-.547-5.27.388-2.208-1.518-10.58-6.105-8.947-2.806 1-3.515 3.033-5.613 1.228-1.812-1.56-4.34-2.453-6.228-1.222-1.89 1.232-2.955 4-2.628 8.417.42 5.643-.37 5.602-.37 5.602"/></g><g><path fill="#CCB393" d="M338.58 155.644h6.192v7.83h-6.193z"/><defs><path id="a" d="M338.88 155.27h5.486v3.242h-5.487z"/></defs><clipPath id="b"><use xlink:href="#a" overflow="visible"/></clipPath><path clip-path="url(#b)" fill="#BC9F82" d="M344.366 157.012v.008c-.244.388-1.086 1.493-2.74 1.493h-.016c-1.576-.006-2.493-1.155-2.73-1.486.056-.333.105-.69.14-1.057.02-.223.04-.444.062-.67.77.19 1.604.31 2.498.324h.03c.917-.014 1.763-.138 2.556-.354l.06.657c.044.385.083.746.14 1.085"/><path fill="#3B7FC2" d="M351.78 170.055s-.092.03-.235.104H331.7c-.162-.075-.253-.105-.253-.105 0-7.513 3.584-9.677 5.244-10.282.957.478 2.506 1.255 3.064 1.506.43.185 1.05.642 1.86.633.746-.014 1.65-.47 2.735-.808.998-.313 1.895-.77 2.617-1.167 1.778.814 4.814 3.2 4.814 10.117"/><path fill="#0F4669" d="M349.567 170.16h-15.903c.047-.778.097-2.187.075-4.088v-.357c-.01-.13-.01-.268-.022-.417-.008-.094-.015-.202-.022-.303-.06-.764-.188-1.668-.34-2.61.467-.69.966-1.216 1.46-1.615.042-.045.09-.083.132-.11.646-.513 1.27-.813 1.736-.985.088-.036.175-.063.25-.084.362-.11.582-.138.582-.138.19 0 .355-.077.5-.208 0 0 0-.008.006-.008.05-.05.1-.11.15-.172.02.013.055.07.088.18.186.493 2.063 3.54 3.354 4.812 1.29-1.27 3.165-4.318 3.353-4.812.036-.11.07-.167.092-.18.045.063.095.123.145.172.007 0 .007.008.007.008.145.13.313.208.5.208 0 0 .21.022.55.125.075.03.157.057.25.09.464.168 1.096.46 1.755.98.043.035.09.07.13.112.504.402 1.01.928 1.474 1.625-.156.97-.286 1.894-.337 2.664-.016.104-.02.206-.028.305-.007.102-.007.21-.015.297v.356c-.028 1.93.027 3.367.077 4.15"/><path fill="#CCB393" d="M351.475 142.773c-1.562-5.825.75-9.226-9.712-9.242l.526.088-.614-.525-.264.35.526-.525-.79.175c-10.458.016-8.587 4.47-9.89 9.68-.72-1.36-2.85-.938-2.676 1.206.17 2.064 3.176 3.134 3.134 2.894.86 4.73 5.78 9.705 9.608 9.705.01 0 1.8 1.72 1.14-.44.008.002.254.264.262.264 3.828 0 7.428-4.8 8.288-9.53-.04.24 2.967-.83 3.13-2.895.177-2.146-1.953-2.567-2.67-1.207z"/><path fill="#BC9F82" d="M329.255 143.07c.52-.826 1.316-.47 1.516-.286.21.198.374.46.244.95-.07.276-.363.297-.29.718.08.47.295.5.42.607.12.104.275.187.353.388.075.198.087.41.048.59-.082.337-.575.07-.906-.082-.218-.1-.91-.685-1.086-.88-.438-.497-.647-1.452-.3-2.005M353.48 142.983c-.522-.827-1.322-.47-1.518-.287-.21.198-.374.46-.248.95.075.277.364.297.295.72-.08.468-.296.5-.422.606-.122.105-.275.188-.353.39-.074.197-.09.408-.046.588.076.34.568.07.9-.08.22-.1.91-.686 1.088-.88.443-.498.644-1.453.302-2.007"/><path fill="#15150E" d="M351.585 145.44c-.21.204-.445.466-.604.893-.328.863-.45.714-.45.714s.514-3.377.514-4.316c0-.93-2.938-7.88-4.578-8.437-1.644-.552-3.12 1.317-4.88 1.317h-.14c-1.73-.036-3.262-1.862-4.88-1.317-1.64.558-4.58 7.506-4.58 8.438 0 .94.517 4.317.517 4.317s-.127.15-.452-.714c-.186-.505-.485-.788-.723-.993-.436-5.85-.187-14.464 10.106-14.464h.055c10.348 0 10.547 8.714 10.097 14.564"/><path fill="#15150E" d="M332.123 146.676s-1.05 4.995 2.104 7.45c0 0 2.19 2.628 6.923 3.154 0 0 6.66-.263 8.938-5.083 0 0 1.753-2.454.438-5.608 0 0 .79 6.045-5.608 7.71 0 0-11.013 3.52-12.867-7.967"/><path fill="#15150E" d="M340.448 148.867s-5.96.526-2.278 6.572c0 0-2.016-5.61 2.717-6.047 0 0 6.66-1.314 3.593 6.222 0 0 5.17-7.712-4.032-6.748z"/><path fill="#292321" d="M348.114 144.422c-.036-.046-.74-.108-1.657-.163-.776-.045-2.02-.016-2.51.028-.198.016-.564.06-.926.12-.404.066-.802.152-.97.174-.16.02-.285.028-.415.025h-.06c-.132.003-.257-.004-.417-.025-.168-.022-.565-.108-.97-.175-.36-.06-.73-.103-.93-.12-.487-.043-1.733-.072-2.508-.028-.918.054-1.62.116-1.657.162-.024.03-.08.45-.007.493s.333.134.397.28c.063.148.317 1.21.885 1.498.936.477 4.077.5 4.62-1.24.073-.238.172-.378.342-.417.068-.014.17-.025.274-.027.103 0 .203.013.273.026.17.04.268.178.343.416.54 1.74 3.68 1.718 4.618 1.24.567-.288.82-1.348.886-1.496.063-.147.32-.237.394-.28.075-.045.022-.463-.004-.494m-7.62 1.187c-.487 1.36-2.855 1.204-3.427 1.096-.252-.047-.986-.225-1.105-1.334-.083-.768.512-.815 1.354-.882.683-.052 1.29-.03 1.7.002.412.034 1.37.157 1.466.366.095.21.12.452.013.75m6.752-.236c-.118 1.11-.854 1.287-1.104 1.334-.572.108-2.94.265-3.43-1.097-.105-.3-.082-.54.016-.752.093-.21 1.05-.333 1.463-.366.41-.03 1.017-.054 1.7-.002.842.067 1.436.114 1.354.882"/><path fill="#292321" d="M335.42 144.688l-3.367-2.594 2.916 2.796M347.68 144.678l3.426-2.514-2.98 2.726"/><path fill="#15150E" d="M332.123 147.114s.7 2.542 2.016 1.665l-.352.875.79-.613-.176 1.402.525-.7.263 1.927.088-1.138s.525 2.278 2.804 4.207c0-.002-4.557-.002-5.96-7.626zM350.53 147.047s.697 2.696-1.23 1.47l.088.788-.965-.613.176 1.14-.527.174.176 1.14-.702-.527s.964 3.242-1.402 4.206c0 0 5.614-3.114 4.383-7.78z"/></g><path fill="#EDD9B4" d="M202.847 55.372c-.584 0-.96-.794-1.2-1.97-.028-.13-.054-.26-.074-.403v-.008c-.053-.317-.09-.655-.128-1.012l-.06-.62c-.083-1.04-.108-2.164-.108-3.235 0 0-1.255.123-2.265.123h-.018c-1.01 0-2.257-.123-2.257-.123 0 1.077-.025 2.215-.11 3.263l-.058.628c-.034.348-.078.68-.13.99-.03.187-.06.362-.097.535-.242 1.105-.604 1.832-1.17 1.832 0 0-5.678.682-5.678 9.828l.23.1h18.578c.135-.067.222-.1.222-.1 0-9.146-5.678-9.828-5.678-9.828z"/><path fill="#BC9F82" d="M201.573 52.992v.006c-.228.364-1.014 1.398-2.567 1.398h-.012c-1.476-.006-2.334-1.077-2.555-1.39.052-.313.096-.643.128-.99.02-.205.037-.414.057-.63.722.183 1.503.293 2.34.307h.028c.856-.014 1.65-.13 2.39-.332l.06.62c.04.357.078.694.13 1.012"/><path fill="#0F100B" d="M208.538 65.203s-.087.033-.222.1h-18.6c-.15-.067-.23-.1-.23-.1 0-6.967 3.3-9.02 4.87-9.605 1.022 1.125 3.046 2.673 4.61 2.748H199.006c.007 0 .02.007.034 0 1.57-.075 3.594-1.63 4.618-2.755 1.558.58 4.88 2.626 4.88 9.613"/><path fill="#C58B8E" d="M193.48 56.004c1.21 1.336 3.616 3.17 5.468 3.264h.057c.008 0 .023.006.036 0 1.86-.094 4.257-1.928 5.473-3.264-.322-.182-.624-.32-.875-.414-1.02 1.125-3.044 2.68-4.614 2.755-.01.007-.027 0-.03 0h-.047c-1.56-.076-3.584-1.624-4.607-2.748-.25.092-.545.23-.86.407"/><path fill="#CCAE8B" d="M208.347 42.292c.435-5.376.378-13.584-9.412-13.6H198.833c-9.792.017-9.846 8.225-9.41 13.6-.676-1.276-2.666-.882-2.502 1.127.158 1.933 2.972 2.932 2.933 2.706.803 4.418 5.403 6.972 8.98 6.984h.104c3.578-.012 8.178-2.566 8.98-6.985-.04.226 2.777-.772 2.932-2.707.164-2.008-1.828-2.402-2.5-1.126z"/><path fill="#EDD9B4" d="M205.948 33.805c-1.418-1.842-3.757-2.778-6.937-2.794h-.073c-3.234 0-5.594.936-7.03 2.79-1.998 2.587-1.92 6.538-1.183 9.372.225.87.34 3.204.497 4.064.697 3.834 4.93 5.876 7.717 5.876.023 0 .05-.004.074-.004 3.184-.033 6.986-2.27 7.642-5.872.152-.86.27-3.195.496-4.064.734-2.828.807-6.772-1.2-9.367z"/><path fill="#15150E" d="M208.607 34.474c.02-1.66-.764-2.198-1.26-3.007s-1.605-1.772-2.102-2.172c-.497-.398-1.03-.903-1.03-.903s-.84-.586-1.987-.82c-1.146-.23-1.49.04-2.56.42-.133.047-.252.096-.355.144-.664-.563-.654-.613-1.39-.878-1.373-.5-2.173.24-2.173.24l.8.11s-1.297-.16-2.366.495c-1.07.656-1.44 1.19-1.44 1.19s1.54-.318.547 0c-.994.324-1.87.823-2.672 1.48-.802.656-1.644 1.58-2.027 2.544-.38.964.192-.502.957-1.04.762-.542 1.376-.733 1.376-.733s-1.045.95-1.95 2.89c-.55 1.187-1.12 2.754-.937 5.31.285 4.083 2.395 5.572 2.395 5.572s-.488-.474-.684-1.107c-.198-.635-.103-1.428-.083-1.33.04.19 2.118 3.005 2.118 3.005s-1.664-2.19-1.042-5.025c.224-1.024.84-1.637 1.103-1.953.082-.097.15-.194.22-.29 1.008 1.18 2.914 1.678 2.914 1.678s-1.23-1.21-1.384-2.098c-.15-.887-.085-2.727.985-3.767.146-.142.315-.288.498-.432-.495 1.02-.46 1.967.01 2.944.236.483.662.86 1.067 1.133 1.084.853 2.733 1.397 4.58 1.397.89 0 1.733-.127 2.49-.353 0 0 .003-.003.005-.003.13-.04.254-.078.376-.123 1.312-.387 5.453-1.202 3.48 4.693l-.017.088-.003-.002c-.285 1.317-1.546 2.152-1.546 2.152s1.48-.886 2.32-2.274c.84-1.387.943-2.68.867-4.442-.015-.36-.045-.677-.086-.974.092.118.188.222.287.3.69.538 1.237.53 1.237.53s-1.575-.835-1.53-4.59"/><g><path fill="#EDD9B4" d="M436.495 134.948h4.907v9.64h-4.907z"/><path fill="#263171" d="M438.96 145.97v1.652h-8.098c-.127-.06-.195-.083-.195-.083 0-7.988 4.956-8.592 4.956-8.592.056 0 .106-.003.15-.02.134.3.497.3 1.107.823.804.695 1.953 2.346 2.022 3.565.036.625.05 1.714.06 2.655"/><path fill="#263171" d="M438.938 145.97v1.652h8.165c.13-.06.2-.083.2-.083 0-7.988-5-8.592-5-8.592-.056 0-.11-.003-.15-.02-.134.3-.5.3-1.12.823-.808.695-1.968 2.346-2.037 3.565-.035.625-.053 1.714-.058 2.655"/><path fill="#17224E" d="M433.92 139.395c-.858 1.135-1.785 1.005-1.785 1.005s1.563 1.317 2.164 1.314c3.298-.01 4.345 1.167 4.603 1.6.072.123.137-.092.035-.45-.25-.898-1.076-2.81-1.928-3.318-1.042-.618-.503-1.664-.503-1.664s-1.364.448-1.76.687c-.212.127-.677.626-.827.825"/><path fill="#17224E" d="M443.997 139.395c.858 1.135 1.787 1.005 1.787 1.005s-1.567 1.317-2.165 1.314c-3.3-.01-4.347 1.167-4.603 1.6-.074.126-.133-.076-.028-.442.26-.903 1.07-2.818 1.92-3.326 1.042-.618.502-1.664.502-1.664s1.362.448 1.76.687c.213.127.674.626.825.825"/><path fill="#D9BF9F" d="M447.124 127.528c.38-4.694.332-11.86-8.22-11.873h-.086c-8.552.013-8.6 7.18-8.223 11.873-.587-1.112-2.325-.768-2.185.984.14 1.69 2.598 2.565 2.563 2.368.703 3.867 4.735 6.098 7.866 6.098h.04c3.13 0 7.167-2.23 7.867-6.098-.034.197 2.422-.678 2.56-2.368.14-1.752-1.595-2.096-2.183-.984z"/><path fill="#BC9F82" d="M428.96 127.77c.424-.675 1.077-.383 1.238-.233.17.16.307.375.2.776-.06.225-.295.242-.238.585.063.385.242.41.342.498.1.087.228.152.29.318.06.162.07.334.037.482-.065.276-.47.057-.74-.068-.177-.08-.743-.56-.885-.72-.362-.405-.527-1.184-.244-1.637M448.76 127.77c-.42-.675-1.076-.383-1.236-.233-.172.16-.305.375-.202.776.062.225.298.242.24.585-.062.385-.242.41-.343.498-.102.087-.23.152-.293.318-.058.162-.068.334-.034.482.063.276.468.057.74-.068.176-.08.74-.56.886-.72.36-.405.523-1.184.24-1.637"/><path fill="#EDD9B4" d="M445.03 120.132c-1.238-1.605-3.28-2.426-6.06-2.44h-.062c-2.824 0-4.888.82-6.14 2.437-1.745 2.257-1.68 5.708-1.034 8.183.195.76.3 2.798.435 3.55.606 3.348 4.302 5.133 6.738 5.133l.062-.003c2.78-.033 6.104-1.988 6.675-5.13.133-.75.233-2.792.434-3.55.638-2.47.703-5.917-1.05-8.18z"/><path fill="#221A15" d="M447.434 122.194c-.136-1.227-.23-.993-.32-1.708.47-.874.88-2.644-.043-3.95-.783-1.11-1.395-1.75-1.562-1.923.11.13.39.57.52 1.87.022.213.028.406.022.582-.086-.1-.17-.197-.26-.29l-1.256 1.466c-.008-.56-.18-1.048-.524-1.61-.575-.942-.165-1.858-2.512-3.134-1.076-.586-2.283-.197-2.805.027-.767-.083-1.213.08-1.213.08.442-.017.653-.023 1.13.358.5.397.42.66.48.915-.467-.57-1.803-1.686-4.083-1.062-1.648.455-2.036.806-2.036.806s.898-.182 1.5-.182c.605 0 .817-.003 2.226.675 1.41.68-3.905-1.456-6.003.335-.69.586-.8 1.187-.8 1.187s1.122-1.246 2.527-.377c-.415.322-.886.84-1.198 1.31-.643.962-.53 1.14-.638 2.453-.104 1.31-.207.737-.366 2.175-.155 1.435-.32.748-.164 3.046.155 2.3.97 3.394.97 3.394l.59.37s-.234-1.138-.257-1.828c-.052-1.568.287-1.5.91-2.328.556-.744.757-.537.767-1.475.047-4.52 4.843-2.443 5.784-2.443.942 0 1.73-.4 1.99-.557s.488.228 1.166.228c.245 0 .568.013.9-.025.968.26 1.726 1.014 1.744 2.798.01.938.214.73.77 1.475.62.83.96.76.907 2.328-.022.69-.26 1.83-.26 1.83l.596-.372s.813-1.094.97-3.393c.153-2.298-.01-1.61-.166-3.046m-6.368-6.54s-1.01-1.88-2.002-2.073c-.083-.016-.157-.025-.233-.036.41-.067 1.062-.058 1.6.467.86.836.636 1.644.636 1.644"/></g><g><path fill="#EDD9B4" d="M75.836 43.02h6.485V53.89h-6.484z"/><path fill="#E2434A" d="M89.894 58.75s-.093.027-.253.11H68.598c-.163-.083-.255-.11-.255-.11 0-1.71.177-3.16.458-4.393l.007-.03c.04-.173.088-.34.133-.505l.13-.468c.097-.304.197-.59.312-.86.076-.193.153-.38.244-.557.175-.396.374-.752.578-1.078l.156-.24c.385-.574.797-1.042 1.208-1.42.275-.254.54-.468.795-.636.052-.038.097-.076.142-.11.198-.123.382-.235.56-.32h.005c.073-.055.147-.09.213-.122.03-.014.067-.03.093-.044.386-.188.716-.3.96-.363h.006c.162-.045.28-.067.352-.075h.015c.044-.015.06-.015.06-.015.2 0 .374-.082.532-.225 0 0 0-.008.01-.008.076-.015.166-.015.245.008.686.194 1.393 1.65 2.116 2.756.102.15.195.292.293.427.37.502.75.86 1.133.86h.013c1.333 0 2.622-4.31 3.835-4.043.157.15.325.225.52.225 0 0 6.426.78 6.426 11.235"/><path fill="#15150E" d="M75.226 56.114l-.433-.42-.353-.397-.348-.478-.404-.178-.36-.442-.342-.61-.425-.106-.14-.274-.203-.39-.443-.1-.392-.375-.4-.386-.153-.275h-.008l-.207-.36-.405-.396h-.01c.056-.08.11-.163.157-.238.385-.565.797-1.03 1.208-1.407.275-.247.54-.46.795-.63l.143-.103c.198-.124.382-.237.56-.323h.005l.212-.12c.03-.016.067-.03.093-.045l.025.068.042.126.016.483.404.61-.125.445.214.345.16.255-.04.47.252.572.098.508v.47l.19.545.088.505.172.54-.113.42.02.47.26.58.19.636zM82.997 56.114l.435-.42.356-.397.345-.478.404-.178.36-.44.34-.61.426-.107.14-.273.205-.39.44-.1.393-.375.397-.386.156-.273h.008l.207-.36.404-.396h.008c-.052-.08-.106-.16-.157-.236-.383-.565-.793-1.03-1.204-1.407-.275-.247-.536-.46-.796-.63l-.143-.103c-.196-.124-.38-.237-.555-.323h-.008l-.214-.117c-.03-.017-.063-.03-.093-.046l-.02.068-.045.126-.016.485-.407.61.125.445-.215.345-.16.255.036.47-.25.572-.098.508v.47l-.19.545-.084.505-.175.54.11.42-.02.47-.26.58-.183.634z"/><path fill="#292413" d="M82.74 46.908l-.223-.138c.193.928-.37 1.66-1.014 2.307-.32.326-.65.66-.875 1.04-.465.783-.957 1.36-1.506 2.005-.09-.255-.282-.484-.453-.667-.544-.573-.87-1.032-1.317-1.673l-.08-.116c-.18-.26-.434-.51-.676-.75-.524-.52-1.034-1.216-.984-1.94l-.22.08c-.057.81.52 1.442 1.077 1.993.248.243.483.478.657.722l.078.116c.454.648.775 1.112 1.33 1.698.187.198.39.453.436.714l-.103.104.118-.026c-.106.026.003.01.003.014h.016l.123.004.12.003c0-.016-.03-.105-.034-.12 0 0 1.074-1.228 1.573-2.067.217-.364.54-.69.85-1.008.643-.652 1.32-1.27 1.103-2.297"/><path fill="#15150E" d="M79.975 52.958c0 .49-.4.89-.89.89-.493 0-.893-.398-.893-.89 0-.494.4-.893.892-.893s.89.4.89.893"/><path fill="#CCAE8B" d="M89.87 32.797c.498-6.084.43-15.383-10.66-15.4h-.113c-11.09.017-11.154 9.315-10.66 15.4-.76-1.442-3.02-.997-2.835 1.277.18 2.194 3.368 3.326 3.323 3.07.915 5.015 6.146 7.91 10.2 7.91H79.184c4.06 0 9.292-2.895 10.203-7.91-.048.256 3.145-.876 3.32-3.07.186-2.274-2.072-2.72-2.835-1.277z"/><path fill="#BC9F82" d="M91.996 33.116c-.55-.88-1.4-.503-1.605-.308-.22.208-.396.49-.262 1.01.078.29.385.31.312.757-.083.498-.314.532-.446.646-.13.112-.29.2-.374.413-.08.21-.094.435-.05.624.086.36.607.076.96-.082.23-.105.963-.725 1.152-.937.464-.524.682-1.54.314-2.122M66.413 33.116c.55-.88 1.4-.503 1.605-.308.222.208.398.49.263 1.01-.076.29-.384.31-.31.757.082.498.313.532.446.646.13.112.292.2.373.413.078.21.092.435.05.624-.088.36-.607.076-.96-.082-.232-.105-.964-.725-1.152-.937-.465-.524-.682-1.54-.315-2.122"/><path fill="#EDD9B4" d="M86.97 23.187c-1.604-2.085-4.253-3.146-7.856-3.166l-.082-.002c-3.66 0-6.336 1.064-7.963 3.165-2.263 2.925-2.175 7.402-1.342 10.613.256.985.386 3.63.562 4.603.79 4.338 5.585 6.653 8.742 6.653h.082v-.003c3.607-.037 7.913-2.572 8.655-6.65.175-.974.307-3.618.562-4.603.83-3.203.912-7.673-1.362-10.61z"/><path fill="#15150E" d="M78.638 44.234l.467-.82.48.817.477.816-.95.005-.94.004"/><path fill="#24323D" d="M75.838 16.53c-.57-.335-3.01-1.35-3.01-1.35s.83.536.933 1.015c.106.48-5.51 2.717-6.29 8.823-.776 6.107 1.207 8.542 1.207 8.542l-.368-4.263c0 .01-1.507 1.912-1.352 3.412.156 1.49.505 1.337 1.574 3.016.977 1.53-.025-.8-.025-.8s.775 2.768 1.138 1.592c.623-2.04.37-2.887.58-4.025.21-1.136.37-4.2.37-4.2s-.928 2.475.156 4.903c.33.74.755 1.26.755 1.26s-.654-1.54-.528-3.17c.083-1.02.67-1.178 1.968-4.92.615-1.775.092-5.187-.014-4.355-.1.83-.176 2.905.47 3.945.98 1.57 2.4 2.088 2.4 2.088s-1.55-1.25-1.57-3.466c-.01-1.2.416-2.155.416-2.155s-.397 2.496 3.198 3.99c1.035.43 1.84.143 1.84.143s-1.494-.92-1.505-2.514c0 0 2.263 3.058 6.385 4.07 1.595.388 2.677.28 2.677.28s.165-.36.114 1.327c-.054 1.69-.333 2.408-.714 2.992-.15.232-.623.668-.623.668s1.193-.463 1.938-2.053c.51-1.09.346-2.557.346-2.557s.15 1.792 0 4.25c-.222 3.555-1.403 5.102-1.403 5.102s1.154-.67 1.895-2.75c.022-.065-.083 1.26.025.36 0 0 1.05.154 1.802-2.033 0 0 .487 2.333.12-.44-.467-3.522.335-6.268-.287-9.02-.625-2.754-.792-3.023-1.833-4.518-1.035-1.5-2.036-2.702-4.84-3.692-2.8-.992-3.397-.655-4.47-.64-1.706.024-2.798.866-2.798.866s-.157-.618.103-1.458c.26-.838.47-1.235.47-1.235s-.684 1.1-.83 1.378c-.61 1.137-.42 1.59-.42 1.59"/></g></svg>