<?xml version="1.0" encoding="utf-8"?>
<!-- Generator: Adobe Illustrator 18.1.1, SVG Export Plug-In . SVG Version: 6.00 Build 0)  -->
<svg version="1.1" id="Layer_1" xmlns="http://www.w3.org/2000/svg" xmlns:xlink="http://www.w3.org/1999/xlink" x="0px" y="0px"
	 viewBox="40 209 486 376" enable-background="new 40 209 486 376" xml:space="preserve">
<g>
	<g id="Layer_3">
		<path fill="#F2D7BC" d="M281.8,259c0,0-15.6,17.4,7.2,32.4l6.1,5.2c0,0-1.2,7.5,2.3,14.5l3.8,13.3c0,0,2,2.9,9-12.4l4.6-9.8
			l-7.8-11c0,0,6.7-8.1,7.2-17.4C314.3,273.7,305.9,244.2,281.8,259z"/>
		<path fill="#EABF5E" d="M283.3,309.6c0,0,5.2,7.5,3.2,18.2c0,0-2.6,16.5,7.8,18.5c0,0,5.5,3.8,6.7,9c0,0,9.3-14.8,17.9-14.8
			c0,0,10.4,23.4,3.8,35.3l-14.8,25.8l36.8-3.5c0,0,1.7-6.1-10.7-24.3c0,0-3.8-7.5-0.9-20.3c0,0,2.6-16.5,0.6-28.7l-3.2-4.9
			l-5.2-12.7l-7.2-5.2c0,0-10.4,19.4-14.8,21.7c0,0-2.9,2.3-9.3-15.1C294,308.8,286.2,305.3,283.3,309.6z"/>
		<path fill="#C7442D" d="M291.1,250c0,0-12.7-2.6-16.5,11.9v16.8c0,0,10.7,13,11,17.1c0,0-0.3-6.4-2-11.3c0,0-10.4-9.8-4.1-7.8
			c0,0,0.9-10.1,5.8-12.7c0,0-1.2,5.8,7.8,5.8c0,0-2.6-4.6-0.6-4.9c0,0,6.9,5.2,12.2,4.6c0,0,1.7,5.2,4.6,3.8c0,0,1.2-6.7,3.5-2.9
			c0,0,0,7.2-3.2,10.4c0,0-0.6,4.1-2.3,5.5l7.5,8.1c0,0,2,3.8,1.2,11.3c0,0-4.6,23.7-0.3,28.9c0,0,4.6-11.9,8.1-16.8
			c0,0,7.5-16.5-7.2-25.8c0,0,3.2-19.1-1.2-26c0,0-3.2-15.1-22.3-16.2L291.1,250z"/>
		<path fill="#FBC3A7" d="M280.1,312l-7.5,51.8l-20.6,4.3l2.3,6.1l22-3.5c0,0,5.2-2.6,5.2-7.2l4.3-24
			C285.9,339.4,289.4,314,280.1,312z"/>
		<path fill="#FBC3A7" d="M329.9,302.1l0.6,17.9l19.4,25.5l-9.8,34.7l-3.5-2.3c0,0-7.8-0.6-12.2,2.6c0,0-0.9,3.8,3.2,4.6
			c0,0,6.1-1.2,9,0.6c0,0,4.1,4.3,6.1,2.6l15.6-38.8c0,0,4.1-8.1-2.3-13.6L329.9,302.1z"/>
		<path fill="#B58F42" d="M300.9,355.4c0,0,6.1-18.8,19.4-15.9c0,0,13.3,23.4,4.1,39.1l-14.8,23.2l-17.7-0.6c0,0,10.4-12.2,11-23.2
			C303,377.9,303.3,360.6,300.9,355.4z"/>
		<polygon fill="#FBC3A7" points="311.7,547.3 313.4,558.3 319.2,556.8 317.7,544.7 		"/>
		<rect x="324.7" y="552.5" fill="#FBC3A7" width="7.5" height="10.7"/>
		<path fill="#067E9A" d="M294,402.3l-5.8,83.4c0,0-0.6,4.6,4.1,8.7c0,0,16.8,49.8,18.5,56.7l7.5-2.3c0,0-1.7-28.4-1.2-34.2
			l-12.7-27.8l-5.8,2.3c0,0,18.5-38.2,18.5-61.4c0,0,1.2,49.2,8.7,64.8l-3.5-0.6l2.3,63.1l9.3-1.2c0,0,1.7-15.6,4.1-23.2
			c0,0,5.8-15.6-0.6-26.6c0,0,0-32.4,4.1-47.5l5.8-37.6c0,0,1.7-16.8-2.6-20.8c0,0-51.2,0.6-52.7,2.9"/>
		<path fill="#F1613E" d="M308.2,557.7l13.3-3.5l-0.3,7.2c0,0,12.4,1.7,13.6-0.6l0.3,20.3l-2.9,0.9l-1.4-8.1c0,0-9.3,9.3-21.1,7.8
			c0,0,11.9-7.8,10.4-13.6c0,0-10.7,15.3-20.3,13.9C299.8,582,310.8,572.2,308.2,557.7z"/>
		<rect x="414.4" y="493.5" fill="#B2ACAA" width="5.4" height="73.3"/>
		<rect x="412.1" y="509.7" fill="#213367" width="10" height="25.5"/>
		<rect x="400.9" y="563" fill="#213367" width="36.3" height="6.2"/>
	</g>
	<g id="Layer_2">
		<path fill="#213367" d="M254.2,440.3c0,5.1-4.1,9.3-9.3,9.3h-58.7c-5.1,0-9.3-4.1-9.3-9.3v-37c0-5.1,4.1-9.3,9.3-9.3H245
			c5.1,0,9.3,4.1,9.3,9.3V440.3z"/>
		<path fill="#F2D7BC" d="M140.4,218.4L130,236.1l-1.9,16.6c0,0,0.8,8.1-1.5,11.6c0,0,9.6,20.5,20.5,17.4l7.3-6.6l-1.9-13.1
			c0,0,12-20.5,15.4-30.5L140.4,218.4z"/>
		<path d="M130.4,214.5l-0.4,21.6c0,0,7.3-12.3,10.4-12.3l1.2,1.9l17.8,2.3l3.1,8.5l-6.2,17l0.8,5.4l8.1-17.8
			c0,0,11.6-18.9,2.7-20.8l-5-5.8l-18.1-5.4C144.6,209.1,131.9,209.5,130.4,214.5z"/>
		<path d="M130,236.1c0,0-7.3,12.3-1.9,16.6l12.3,13.1l15.8-3.5v-8.9c0,0-1.5,7.7-6.6,7.7h-8.5c0,0-10.8-9.3-10.8-12.7
			C130.4,248.5,129,241.6,130,236.1z"/>
		<path fill="#F26722" d="M99.9,265.8c0,0,17.4,23.9-6.2,31.6c0,0,7.3,45.9,3.1,59l-1.2,16.6c0,0,58.7-9.3,64.8-10.8l-6.2-12.7
			l-23.5-4.2l32.8-14.7l2.3-30.1c0,0-2.7-11.2,3.1-24.7l-16.6-2.3c0,0-17,17.4-31.6-8.9L99.9,265.8z"/>
		<path d="M142.9,250.6c0,0-7.2-5.2-9-0.9l-1.2,4.6c0,0,2.6-4.3,4.6-3.5l6.7,3.2l5.8,1.2c0,0,3.2,1.7,1.2,5.5c0,0,4.3-5.5-0.6-7.8
			C150.4,252.9,146.1,253.5,142.9,250.6z"/>
		<path fill="#F68B49" d="M96.8,265.8c0,0-12.3-6.6-6.9,15.8l17,57.1c0,0,0.8,1.2,4.2,1.2c0,0,9.3,4.6,16.2-7.7l26.2-55.6l-8.1-4.2
			c0,0-25.9,45.2-26.2,46.3c0,0-4.6-31.6-12.3-36.3L96.8,265.8z"/>
		<path fill="#5E554D" d="M193.3,362.7c0,0,3.5,7.7,8.5,11.6c0,0,32.8,11.2,32.4-12c0,0,12.3-0.4,15.1,5v11.6l2.7-9.6
			c0,0,20.1,37,20.5,42.5c0,0,2.3,5.4-7.3,9.3l-19.3,7.7l-1.5-12.3l12-4.6h9.3c0,0-2.3-3.9-8.1-3.1l-9.6-14.3L229.5,419l-39.7-8.5
			l-6.9-11.2L179,416c0,0-5,3.9-5.8,6.9c0,0,5-7.3,16.2-3.5l-0.8,12.3c0,0-18.5,2.3-23.5-6.2c0,0-0.8-7.3,2.7-21.2l9.6-35.5
			C177.5,368.9,183.2,363.5,193.3,362.7z"/>
		<path fill="#F68B49" d="M170.9,278.2c0,0-18.5,37.4-16.2,49.4c0,0-15.8,5.4-22.4,7.7l-25.1,5.8l0.4,11.2c0,0,54.4-6.6,57.1-7.7
			c0,0,12.7-56,11.2-61.7C175.9,282.8,173.2,274.7,170.9,278.2z"/>
		<path fill="#6591AA" d="M94.9,377l32-8.1l33.6-6.6c0,0-7.7,182.5-13.5,201.1l-16.2-1.2V456.1c0,0-11.6,98.8-13.9,106.5l-14.3-0.8
			c0,0,2.3-72.2-3.9-120C98.7,441.8,97.2,390.1,94.9,377z"/>
		<path fill="#A05931" d="M132.3,563c0,0-3.5,6.6,1.9,8.1l29.3,12.3L147,563.4C147,563.4,132.3,560.7,132.3,563z"/>
		<path fill="#A05931" d="M103.4,562.6c0,0-3.5,6.6,1.9,8.1l29.3,12.3L118,563C118,563,103.4,560.3,103.4,562.6z"/>
		<path fill="#213367" d="M453.4,440.3c0,5.1-4.1,9.3-9.3,9.3h-58.7c-5.1,0-9.3-4.1-9.3-9.3v-37c0-5.1,4.1-9.3,9.3-9.3h58.7
			c5.1,0,9.3,4.1,9.3,9.3V440.3z"/>
		<path fill="#F2D7BC" d="M197.9,325.8c0,0-5.8,10.4,1.4,13.3l3.5,7.2l0.9,9l9.3,11.9l11.9-12.7l-0.3-7.5c0,0,4.3-3.8,4.6-8.1
			c0,0,7.5-6.4,2-12.2l-2.3-8.1l-27.2,0.3L197.9,325.8z"/>
		<path fill="#321213" d="M203.1,322.1c0,0-3.8,4.6-3.8,12.2c0,0-2.3,2-2.3-6.1c0,0-3.5-12.2,0.3-13.3c0,0,0-2.6,2.3-1.7
			c0,0-1.2-4.3,1.7-4.3l2.6-0.3c0,0-0.6-4.1,1.7-2.6c0,0,3.5-3.2,5.8-0.3c0,0,1.7-2,3.2-0.3c0,0,6.1-2.9,7.5,0.9
			c0,0,3.8-0.3,4.9,2.9c0,0,3.8,1.4,3.8,4.1v1.7c0,0,2-1.4,1.2,5.2l0.3,7.5l-1.4,0.6l-0.9,6.9c0,0-0.6-5.5-1.7-9l-2.3-3.8
			c0,0-9.8,3.5-15.9,1.2l2.9-1.2C213,322.4,204.3,323.8,203.1,322.1z"/>
		<path fill="#41C2D1" d="M201.8,355.8l11.2,11.5c0,0,9.5-7,11.9-12.7c0,0,5.9-3,3.6,4c0,0-1.9,8.5-4.6,12.3c0,0,5-4.2,6.9-12
			c0,0,5,3.9,0.8,12.7c0,0-5,14.7-4.2,18.9h-23.9c0,0-1.2-14.3-5.4-22c0,0-3.9-8.1,0.8-7.7C198.7,360.8,197.9,353.8,201.8,355.8z"/>
		<path fill="#E54437" d="M471.5,411.7c-0.4-5.4-20.5-42.5-20.5-42.5l-2.7,9.6v-11.6c-1.9-3.8-8.5-4.7-12.3-5c-1.4-1.4-7.5-7-13.6-7
			c0,0-13.9,21.2-20.7,0.8c0,0-9.8,0-11.5,6.7c-8.8,1.3-13.8,5.9-13.8,5.9l-9.6,35.5c-3.5,13.9-2.7,21.2-2.7,21.2
			c5,8.5,23.5,6.2,23.5,6.2l0.8-12.3c-11.2-3.9-16.2,3.5-16.2,3.5c0.8-3.1,5.8-6.9,5.8-6.9l3.9-16.6l6.9,11.2l39.8,8.5l18.1-24.7
			l9.6,14.3c5.8-0.8,8.1,3.1,8.1,3.1h-9.3l-12,4.6l1.5,12.3l19.3-7.7C473.8,417.1,471.5,411.7,471.5,411.7z"/>
		<path fill="#2CA4AA" d="M199.8,356.1c0,0,3.1,11.6,12,17.4C211.8,373.5,195.6,364.6,199.8,356.1z"/>
		<path fill="#2CA4AA" d="M197.9,368.5c0,0,12,14.7,12.3,21.6l-6.9,0.4C203.3,390.5,204.1,381.6,197.9,368.5z"/>
		<path fill="#2CA4AA" d="M230.7,358.8c0,0-3.1,8.9-9.6,15.8C221.1,374.7,237.3,363.9,230.7,358.8z"/>
		<path fill="#3A342E" d="M179,370.4c0,0,6.9,15.8,3.1,27l-3.5,16.6C178.6,414,180.2,383.2,179,370.4z"/>
		<path fill="#3A342E" d="M245.8,366.9c0,0-4.2,17.8,3.9,26.2C249.6,393.2,245.4,373.5,245.8,366.9z"/>
		<rect x="181.7" y="390.1" fill="#EAEAEA" width="66.8" height="44.4"/>
		<path fill="#F2D7BC" d="M403.4,326.1c0,0-8.2,8.7-1.9,13.3l1.6,7.9l-1.4,8.9l6.1,13.8l14.6-9.4l1.6-7.4c0,0,5.1-2.6,6.5-6.7
			c0,0,8.9-4.3,5-11.3l-0.3-8.4l-26.4-6.4L403.4,326.1z"/>
		<path fill="#EFE672" d="M409.4,323.8c0,0-4.8,3.6-6.6,10.9c0,0-2.7,1.4-0.7-6.5c0,0-0.4-12.6,3.6-12.8c0,0,0.6-2.5,2.7-1.1
			c0,0-0.1-4.5,2.8-3.8l2.6,0.4c0,0,0.4-4.1,2.3-2.1c0,0,4.1-2.2,5.7,1.1c0,0,2.2-1.5,3.2,0.5c0,0,6.6-1.3,7.1,2.7
			c0,0,3.7,0.6,4.1,4c0,0,3.3,2.3,2.7,4.9l-0.4,1.7c0,0,2.3-0.9-0.2,5.3l-1.6,7.4l-1.5,0.2l-2.5,6.5c0,0,0.8-5.5,0.5-9.1l-1.3-4.2
			c0,0-10.4,0.9-15.7-2.8l3.1-0.4C418.9,326.5,410.1,325.7,409.4,323.8z"/>
		<rect x="380.8" y="390.1" fill="#686868" width="66.8" height="44.4"/>
		<path fill="#5E554D" d="M186.3,439.9l1.2,11.6c0,0,11.2,6.9,20.1,10l18.9-0.4c0,0,5-16.6,20.1-11.2l0.4-7.3
			C246.9,442.6,199.1,438.7,186.3,439.9z"/>
		<rect x="174.4" y="486.2" fill="#213367" width="81" height="7.7"/>
		<rect x="377" y="487.3" fill="#213367" width="81" height="7.7"/>
		<path fill="#AB2B24" d="M194,461.5l9.3-2.3l32,1.9l-10,29.3c0,0-13.9,1.2-17.4-1.5L194,461.5z"/>
		<path fill="#E54837" d="M236.1,450.3c0,0-10.4,3.1-10,15.4c0,0-9.6,31.7-8.9,44.4c0,0,1.9,1.4,1.9,7.3l-5.4,21.2
			c0,0-2.5-1.7-4.4-4.4l-2.1,12.5l5.8,2.7l3.9,1.2l31.6-68.7l6.9-17c0,0-2.7,1.2-4.2,1.2c0,0,3.1-1.9,3.1-5
			C254.2,461.1,251.9,444.5,236.1,450.3z"/>
		<path fill="#E54837" d="M201.8,463c0,0-20.5-20.1-26.2,5c0,0,1.2,5.4,5.8,5.4c0,0-0.4,1.9-4.6,0c0,0,28.2,56.7,36.7,71.4l6.2,11.2
			c0,0,10.8-2.3,11.6-6.9C231.1,549.1,205.6,466.9,201.8,463z"/>
		<path fill="#443B36" d="M239,549.9l-19.5,6.2l-2.7-5.4l-19.5-5.1l-1.2,8.4l3.5,0.6c0,0-0.6,12.2-4.6,15.9l-13,14.5
			c0,0,24-6.7,27.8-9.6c0,0,5.8-5.8,6.9-14.2h3.2v5.8h4.3c0,0,1.4,11.9,7.5,13.6c0,0,16.5,2.9,23.2,0.6c0,0-11-5.2-16.2-20.3
			l2.6-0.3v-5.2l-1.7-0.6L239,549.9z"/>
		<rect x="55.5" y="433.3" fill="#F5AA75" width="455" height="4.6"/>
		<rect x="60.1" y="438.1" fill="#6A5240" width="437.8" height="4.1"/>
		<rect x="78.1" y="441.6" fill="#6A5240" width="6.4" height="136"/>
		<rect x="470.6" y="441.6" fill="#6A5240" width="6.4" height="136"/>
		<path fill="#EFE672" d="M412.1,320.1c0,0-5.8,6.4,6.4,13.9c0,0-5.2-11-2.3-13.9c0,0,1.7,12.7,9.8,13.3c0,0-7.5-11-4.6-15.1
			S413.8,316,412.1,320.1z"/>
		<path fill="#A02320" d="M400.1,357.7c0,0-6.6-2.7-7.7,5l-5.4,4.6l9.6,22.8l32.4-0.4c0,0,1.5-25.5,4.2-27.4l-11.6-5
			C421.7,357.3,406.7,387,400.1,357.7z"/>
		<polygon fill="#E54437" points="385.5,442.2 388.5,455.3 440.6,456.5 445.7,442.6 		"/>
		<path fill="#138481" d="M388.5,455.3c0,0-3.9,6.2,5.8,13.1l9.3,17c0,0,18.1,6.9,27.8,1.2l12.7-22.8l-3.5-7.3L388.5,455.3z"/>
		<path fill="#30C0D0" d="M390.1,460c0,0-4.2,3.1-4.2,6.2l7.7,7.7l-9.6-5l5.8,93.4l1.9-5l6.6-0.4l2.3,4.2l8.1-71.8
			c0,0,3.1-25.9-6.6-30.1C402.1,459.2,395.1,456.5,390.1,460z"/>
		<path fill="#30C0D0" d="M431.8,461.1c0,0-12.7,2.3-8.9,24.3l11.6,76l2.3-5l8.1-0.4l1.5,5.8l1.9-69.1
			C448.4,492.8,451.5,460.3,431.8,461.1z"/>
		<path fill="#443B36" d="M400.5,561.1l-2.3-4.2l-6.6,0.4l0.2,5.4l-2.1-0.4l-3.7,12c0,0,2.9,7.5,9.8,7.5c0,0,5.2-0.6,7.5-4.6
			l-0.6-14.5L400.5,561.1z"/>
		<path fill="#443B36" d="M436.4,558.7l2.3-4.2l6.6,0.4l-0.2,5.4l2.1-0.4l3.7,12c0,0-2.9,7.5-9.8,7.5c0,0-5.2-0.6-7.5-4.6l0.6-14.5
			L436.4,558.7z"/>
	</g>
</g>
</svg>
