<svg xmlns="http://www.w3.org/2000/svg" viewBox="-120.3 208.5 486 376"><ellipse transform="rotate(-85.78 93.015 325.19)" fill="#F2B58C" cx="93" cy="325.2" rx="26.2" ry="37.8"/><circle fill="#351F10" cx="115.7" cy="325.8" r="4.4"/><path fill="#351F10" d="M63.7 296.5c-9-15.8-13.5-36.4 15.8-35.3 24.1.9 13.9 20.6 9.5 27.5 27.2-3.6 34.1 18.7 34.1 18.7l-53.8 37c-.1.1-37.6-25.9-5.6-47.9z"/><path fill="#017396" d="M82.5 348.3s28 23.7-9.7 68.9l-21.5-6.5 24.4-63 6.8.6z"/><path fill="#3F3F3F" d="M51.3 410.7c5.3-1.9 21.5 6.5 21.5 6.5l25.8 64.6L14.7 470c0-.1 3.2-47.5 36.6-59.3z"/><path fill="#F2B58C" d="M107.2 360.1l5.4 44.1s-47.3-24.7-42-33.4c5.4-8.6 34.4 21.5 34.4 21.5l2.2-32.2zM57.7 475.8L47 538.7h-7.6l6.5-64.5"/><path fill="#FE0000" d="M39.4 538.7h25.9l-24.8-9.6"/><g><path fill="#F2B58C" d="M228.8 309.5c-.7-6.1 2.3-11.4 6.7-11.9 1.8-.2 3.5.4 5 1.6 6.3-9.6 5.6-26.1 37.8-25.6 33.5.6 32.9 20 37.3 31.2 2.3-1.8 4.9-2.5 7.3-1.6 4.1 1.6 5.7 7.5 3.5 13.2-2.2 5.7-7.3 9.1-11.4 7.5-.6-.2-1.2-.6-1.7-1-6.5 9.3-20.9 15.4-37.4 14.6-16.7-.8-30.7-8.3-36.1-18.4-.5.2-1.1.4-1.7.4-4.5.6-8.6-3.9-9.3-10z"/><g fill="#351F10"><ellipse transform="rotate(75.186 286.88 300.557)" cx="286.9" cy="300.6" rx="3.5" ry="3.6"/><ellipse transform="rotate(75.186 258.884 301.017)" cx="258.9" cy="301" rx="3.5" ry="3.6"/></g><path fill="#351F10" d="M248.4 321.2c3.1 2.4 8.2 2.7 10.9-5.5 2.7-8.2 14.5-2.2 14.5-2.2v.2-.2s11.8-6 14.5 2.2c2.7 8.2 7.7 8 10.9 5.5 3.1-2.4-9.9 15.3-25.4.2-15.5 15.1-28.5-2.6-25.4-.2z"/><path fill="#F2B58C" d="M247.2 359.1L191 343.6l54.6-3.5 27.6-6.1 27.8 7.9 14.4 38.2 23.9-21.1-26.3 38.4-11.7-18-.8 50.3-10.2 97.4 17.3 12.8-26.2-1.4V525s-8.5-91-8.5-89.3v102.4l-29.5-.3 17.4-10.5-15.3-96.6 1.7-71.6z"/><path fill="#AF3C3C" d="M245.6 340.1l6.7.2c.8 10.3 38.7 11 40.2 1.3l8.5.3 13.8 36.9c-.9 5.4-2.3 10.7-3.7 15.9l-9.9-15.3-.8 49c-18.3-1.3-38-2.9-56.3-3.7l1-67.1s-21.1-3.3-23.2-4.9c-.8-.7 3-12 2.1-12.6h21.6z"/><path fill="#017396" d="M244 423.4c16.9.7 36.5 2.3 56.2 3.7l-8.6 100.1 15.9 12.8-26.2-1.4V525s-8.5-91-8.5-89.3v102.4l-29.5-.3 17.4-10.5L244 423.4z"/><path fill="#161C1E" d="M291.7 526.2l-.1.9 15.9 12.9-26.2-1.5v-12.3M260.5 526.2h12.3v11.9l-29.5-.3 17.4-10.5-.2-1.1z"/><g><path fill="#351F10" d="M139.5 285.2c3.5-11.4 7.5-14.9 18.1-20 7.5-3.5 13.8-7.7 18-15 17.9 13.7 41 29.4 41.3 54.7l-78 9.8c-3.3-9.6-2.4-19.6.6-29.5z"/><path fill="#F2B58C" d="M224.8 314c.6-5.7-2.2-10.7-6.3-11.2-1.7-.2-3.3.4-4.7 1.5-5.9-9-5.2-24.6-35.6-24.1-31.6.5-30.9 18.8-35.1 29.4-2.1-1.7-4.7-2.4-6.9-1.5-3.9 1.5-5.4 7-3.3 12.4 2.1 5.4 6.9 8.5 10.7 7.1.6-.2 1.1-.6 1.6-1 6.1 8.7 19.7 14.5 35.2 13.7 15.7-.7 28.9-7.8 34-17.3.5.2 1 .4 1.6.4 4.3.6 8.2-3.7 8.8-9.4z"/><g fill="#351F10"><ellipse transform="rotate(-75.18 161.452 305.54)" cx="161.4" cy="305.5" rx="3.3" ry="3.4"/><ellipse transform="rotate(-75.186 187.825 305.996)" cx="187.8" cy="306" rx="3.3" ry="3.4"/></g><path fill="#F2B58C" d="M206.4 356.3l56.2-15.5-54.6-3.5-55.3 1.8-14.4 38.2-13.4 58.7 18-38.2 9.5-21.1.8 50.3 10.2 103-17.3 12.8 26.2-1.4v-13.6s8.5-96.7 8.5-94.9V541l29.5-.3-17.4-10.5L208.2 428l-1.8-71.7z"/><path fill="#1E46C4" d="M208 337.3l-6.7.2c-.8 10.3-38.7 11-40.2 1.3l-8.5.3-13.8 36.9c.9 5.4 3.8 12 5.2 17.3l8.4-16.6.8 49c18.3-1.3 38-2.9 56.3-3.7l-1-67.1s21.1-3.3 23.2-4.9c.8-.7-3-12-2.1-12.6l-21.6-.1z"/><path fill="#161C1E" d="M209.6 420.5c-16.9.7-36.5 2.3-56.2 3.7l8.6 105.7-15.9 12.8 26.2-1.4v-13.6s8.5-96.7 8.5-94.9v108.1l29.5-.3-17.4-10.5 16.7-109.6z"/><path fill="#161C1E" d="M161.9 529l.1.9-15.9 12.9 26.2-1.4V529M193.1 529h-12.3v11.9l29.5-.3-17.4-10.5.2-1.1z"/></g><path fill="#FFC23B" d="M338.8 343.6v6.3c-4.1 1.5-9.6 5.8-8.6 14.8.8 6.5 4.8 10.4 8.6 12.6v7.1h26.4v-40.7h-26.4zm-1.8 20.3c-.4-3.1.6-5 1.7-6.1v10.6c-.8-1.2-1.5-2.6-1.7-4.5z"/></g><g><path fill="#FFC23B" d="M47.1 424c-5.8-7.7-10.6-11-14.8-9.9-4.9 1.3-7.3 8.5-8.4 15.1l-10.7 2.4 6.6 74.2 65.6-14.1-26.9-70.2-11.4 2.5zm-19.6 4.4c1.1-5.5 2.9-10.2 5.6-11 1.6-.4 4.8.3 10.3 7.4l-15.9 3.6z"/><path fill="#FC8F00" d="M-66.6 491.4l-53.1-30 34.3-52.2 39.4 17.1"/><path fill="#F2B58C" d="M-15.1 541.3l3.4-121.1 4.3 120.6h5.1l6.9-144.3h-30.8l5.1 144.8"/><path fill="#017396" d="M-13.5 541.3l-1.6-9.8-4.3-1.7-15.7 11.5M13.8 541.3l-16.9-11.5-4.3 1.7-1.7 9.8"/><path fill="#351F10" d="M-22.3 270c-23.8 6.1-51.9 25.4-44.5 59.9 9 41.9 79.3 45.5 107.9 15.3 19.9-21-5-53.9-23.6-66.9-13.6-9.5-27.4-11.5-39.8-8.3z"/><path fill="#F2B58C" d="M6.3 346.7c8.1-2.2 14.9-6.1 19.5-11 2.7 0 6.1-2.9 8.2-7.3 2.5-5.2 2.1-10.5-.7-11.8-.7-.3-6.5-.4-7.3-.2-3.6-12.7-20.5-22.2-40.7-22.2-18.1 0-28.3 7.6-33.9 18.3-1-.8-2.1-1.2-3.2-1-3.2.5-5 5.3-4.2 10.8.8 5.5 4 9.6 7.2 9.1.2 0 .4-.1.5-.1 3.9 6.8 11.8 12.3 21.8 15.3l-26.3 72.2 26.8-51 29.5-3.4 29.3 55.2-26.5-72.9z"/><path fill="#1CC6AA" d="M-21.5 402.4l-6.2-41.6s11.4-7.2 15.5-7.2c4.6-.1 17.4 7.2 17.4 7.2l-7 41.4-19.7.2z"/><ellipse fill="#351F10" cx="-31.1" cy="317.4" rx="3.7" ry="3.9"/><ellipse fill="#351F10" cx="-5.2" cy="319.2" rx="3.7" ry="3.9"/><path fill="#1CC6AA" d="M-62.2 477.6s5.1-77.6 53.6-76.2c42.4 1.2 56 71.1 56 71.1s-34.3 23.7-109.6 5.1z"/><path fill="#017396" d="M-26.2 393.3H4.6v11.8h-30.8z"/><path fill="#FFF" d="M24.3 300.5c2-1.3 8.1-6.2 4.8-8.7-2.6-2-9.4 3.6-9 5.8 0-2.9-1-9.4-4.9-7.2-2.8 1.6-1.5 9.1.3 11.3-2-3.2-9.9-2.8-10.6.5-1.1 5.8 7.9 6 11.5 4-2.4 2.8-6 7.4-2.5 9.8.3.2 3.8.3 4.3 0 1.1-.6 2.1-2.3 2.5-3.9.3 2.6 1.6 5.7 4 5.4 5-.6 3.2-9.8 1.4-12 2.4 2.2 7 1.9 7.7-1.2.9-5.2-6.1-6.1-9.5-3.8z"/><path fill="#D8D32B" d="M-46.5 432.1c-.2-9.6-2.3-15.1-6.4-16.6-4.8-1.8-10.9 2.7-15.6 7.4l-10.1-4.3-37.7 64.2 61.7 26.5 18.8-72.8-10.7-4.4zm-18.5-7.8c4-3.8 8.3-6.7 11-5.7 1.5.6 3.7 3 4.1 12l-15.1-6.3z"/></g></svg>