<?xml version="1.0" encoding="utf-8"?>
<!-- Generator: Adobe Illustrator 16.0.0, SVG Export Plug-In . SVG Version: 6.00 Build 0)  -->
<!DOCTYPE svg PUBLIC "-//W3C//DTD SVG 1.1//EN" "http://www.w3.org/Graphics/SVG/1.1/DTD/svg11.dtd">
<svg version="1.1" id="Layer_2" xmlns="http://www.w3.org/2000/svg" xmlns:xlink="http://www.w3.org/1999/xlink" x="0px" y="0px"
	 width="486px" height="376px" viewBox="0 0 486 376" enable-background="new 0 0 486 376" xml:space="preserve">
<g>
	<defs>
		<rect id="SVGID_1_" y="2" width="486" height="374"/>
	</defs>
	<clipPath id="SVGID_2_">
		<use xlink:href="#SVGID_1_"  overflow="visible"/>
	</clipPath>
	<g clip-path="url(#SVGID_2_)">
		<g id="Layer_2_1_">
			<polygon fill="#FFFFFF" points="180.804,190.1 188.528,197.488 133.451,252.901 126.734,246.521 			"/>
			<polygon fill="#F15D4A" points="126.734,246.521 133.451,252.901 102.554,283.126 114.98,295.887 109.607,309.657 
				68.635,268.349 85.763,254.915 101.211,270.028 			"/>
			<path fill="#FFFFFF" d="M76.359,274.058c0,0-7.389,15.357,7.053,28.377l11.753-9.014L76.359,274.058z"/>
		</g>
		<g id="Objects">
			<g>
				<g>
					<g>
						<defs>
							<rect id="SVGID_3_" x="42.188" y="-25.758" width="403" height="403"/>
						</defs>
						<clipPath id="SVGID_4_">
							<use xlink:href="#SVGID_3_"  overflow="visible"/>
						</clipPath>
						<g clip-path="url(#SVGID_4_)">
							<path fill="#7DCED1" d="M319.211,321.916c-4.21,0-8.54-0.203-12.985-0.61c-19.471-1.784-34.557-9.791-46.12-24.479
								c-9.608-12.212-14.905-26.633-19.577-39.354c-3.983-10.849-7.746-21.095-12.42-23.752c-4.75-2.695-9.01-3.365-13.023-2.047
								c-8.757,2.881-13.981,14.142-14.031,14.255c-1.471,3.304-5.342,4.791-8.646,3.318c-3.304-1.471-4.79-5.341-3.319-8.646
								c0.302-0.678,7.555-16.649,21.904-21.369c7.617-2.503,15.551-1.46,23.583,3.103c8.846,5.024,13.202,16.887,18.246,30.622
								c4.336,11.808,9.25,25.191,17.576,35.769c9.218,11.711,21.326,18.101,37.02,19.537c26.722,2.447,48.387-3.246,64.396-16.927
								c12.635-10.79,21.95-26.604,27.695-46.995c4.739-16.83,5.749-32.209,6.234-39.599l0.019-0.288
								c0.368-5.628-0.069-16.016-1.904-25.521c-2.273-11.771-5.784-17.405-8.313-18.753c-3.191-1.701-4.399-5.667-2.698-8.859
								c1.7-3.192,5.666-4.4,8.858-2.699c7.13,3.8,12.183,13.164,15.015,27.828c2.065,10.703,2.55,22.208,2.111,28.864l-0.019,0.285
								c-0.514,7.837-1.584,24.143-6.696,42.292c-6.457,22.932-17.155,40.899-31.792,53.407
								C364.276,315.004,343.762,321.915,319.211,321.916z"/>
						</g>
					</g>
				</g>
				<g>
					<g>
						<defs>
							<rect id="SVGID_5_" x="42.188" y="-25.758" width="403" height="403"/>
						</defs>
						<clipPath id="SVGID_6_">
							<use xlink:href="#SVGID_5_"  overflow="visible"/>
						</clipPath>
						<g clip-path="url(#SVGID_6_)">
							<path fill="#FFFFFF" d="M318.3,265.63c-7.751,0-15.987-1.586-24.601-4.745c-6.449-2.364-13.725-8.492-22.938-16.255
								c-19.828-16.703-44.507-37.487-66.146-24.64c-3.11,1.846-7.127,0.821-8.974-2.288c-1.846-3.11-0.822-7.129,2.289-8.976
								c13.208-7.839,28.338-7.777,44.967,0.185c13.417,6.423,26.105,17.113,36.303,25.702c7.573,6.379,14.725,12.403,19.009,13.974
								c26.201,9.606,39.201-0.904,42.563-4.355c3.852-3.953,4.613-7.707,4.165-8.839c-1.334-3.363,0.311-7.169,3.674-8.502
								c3.362-1.333,7.167,0.312,8.501,3.674c2.682,6.766-0.05,15.718-6.958,22.807c-3.957,4.063-11.04,9.34-22.296,11.405
								C324.764,265.346,321.574,265.63,318.3,265.63z"/>
						</g>
					</g>
				</g>
				<g>
					<g>
						<defs>
							<rect id="SVGID_7_" x="42.188" y="-25.758" width="403" height="403"/>
						</defs>
						<clipPath id="SVGID_8_">
							<use xlink:href="#SVGID_7_"  overflow="visible"/>
						</clipPath>
						<g clip-path="url(#SVGID_8_)">
							<path fill="#F99F38" d="M186.305,210.063c-0.688,0-1.388-0.11-2.076-0.34c-3.43-1.146-5.283-4.855-4.137-8.286
								c6.256-18.73,38.334-24.306,72.298-30.208c25.743-4.474,57.777-10.042,62.623-21.273c1.447-3.355,0.264-7.955-3.515-13.669
								c-6.86-10.37-18.964-14.53-30.666-18.554c-12.306-4.229-25.025-8.602-29.711-20.673c-2.195-5.653-2.173-11.221,0.06-16.104
								c4.024-8.794,13.883-13.158,20.95-15.675c8.937-3.184,31.886-5.999,54.565-6.693c36.284-1.111,52.504,3.238,59.725,7.082
								c3.192,1.699,4.403,5.665,2.703,8.858c-1.699,3.192-5.665,4.403-8.857,2.703c-7.985-4.251-27.861-6.324-53.169-5.552
								c-23.214,0.71-43.943,3.578-50.573,5.939c-7.462,2.66-11.982,5.616-13.435,8.788c-0.476,1.043-0.973,2.792,0.24,5.914
								c2.486,6.4,11.417,9.471,21.757,13.026c13.132,4.514,28.018,9.631,37.332,23.714c6.373,9.634,7.927,18.41,4.618,26.082
								c-7.649,17.734-39.104,23.201-72.406,28.99c-15.085,2.621-30.682,5.332-42.54,9.099c-7.885,2.509-17.684,6.687-19.577,12.353
								C191.601,208.329,189.045,210.063,186.305,210.063z"/>
						</g>
					</g>
				</g>
				<g>
					<g>
						<defs>
							<rect id="SVGID_9_" x="42.188" y="-25.758" width="403" height="403"/>
						</defs>
						<clipPath id="SVGID_10_">
							<use xlink:href="#SVGID_9_"  overflow="visible"/>
						</clipPath>
						<g clip-path="url(#SVGID_10_)">
							<path fill="#AFC037" d="M140.961,172.282c-3.287,0-6.121-2.469-6.499-5.813c-0.339-3.002,1.408-5.76,4.089-6.823
								c1.487-3.927,0.722-17.589-2.656-24.194c-3.075-6.012-8.883-10.503-15.032-15.256c-4.06-3.139-8.257-6.384-11.893-10.259
								c-14.829-15.808-19.174-45.807-2.007-65.266c11.584-13.131,27.304-16.176,38.452-16.417
								c12.25-0.266,25.163,2.785,33.705,7.962c3.093,1.875,4.081,5.902,2.207,8.994c-1.875,3.094-5.902,4.082-8.995,2.207
								c-5.271-3.194-15.555-6.318-26.633-6.069c-8.529,0.185-20.47,2.415-28.915,11.987c-9.846,11.161-11.554,33.471,1.738,47.641
								c2.92,3.113,6.529,5.903,10.351,8.858c7.017,5.425,14.273,11.034,18.682,19.652c4.238,8.287,7.124,27.866,2.271,36.902
								c-2.453,4.569-6.141,5.628-8.122,5.851C141.456,172.268,141.207,172.282,140.961,172.282z"/>
						</g>
					</g>
				</g>
				<g>
					<g>
						<defs>
							<rect id="SVGID_11_" x="42.188" y="-25.758" width="403" height="403"/>
						</defs>
						<clipPath id="SVGID_12_">
							<use xlink:href="#SVGID_11_"  overflow="visible"/>
						</clipPath>
						<g clip-path="url(#SVGID_12_)">
							<path fill="#002738" d="M158.125,186.006c-0.99,0-1.995-0.225-2.939-0.701c-3.231-1.627-4.531-5.565-2.904-8.794
								c0.551-1.096,1.154-2.303,1.808-3.614c7.213-14.456,20.639-41.366,38.81-64.409c36.999-46.924,70.33-63.285,82.942-68.14
								c3.376-1.298,7.164,0.384,8.463,3.758c1.3,3.376-0.382,7.166-3.757,8.465c-11.605,4.467-42.372,19.649-77.363,64.027
								c-17.336,21.986-30.372,48.112-37.375,62.147c-0.662,1.326-1.271,2.551-1.829,3.658
								C162.829,184.687,160.521,186.006,158.125,186.006z"/>
						</g>
					</g>
				</g>
				<g>
					<g>
						<defs>
							<rect id="SVGID_13_" x="42.188" y="-25.758" width="403" height="403"/>
						</defs>
						<clipPath id="SVGID_14_">
							<use xlink:href="#SVGID_13_"  overflow="visible"/>
						</clipPath>
						<g clip-path="url(#SVGID_14_)">
							<path fill="#F15D4A" d="M151.042,223.16c-0.82,0-1.653-0.155-2.46-0.482c-3.352-1.36-4.966-5.18-3.606-8.531
								c14.222-35.059,40.051-57.448,59.214-70.058c23.455-15.434,50.188-24.667,71.517-24.699c0.004,0,0.008,0,0.01,0
								c3.612,0,6.543,2.926,6.549,6.539c0.005,3.617-2.922,6.553-6.539,6.558c-18.877,0.03-42.928,8.457-64.336,22.543
								c-17.611,11.588-41.321,32.105-54.277,64.041C156.08,221.616,153.628,223.16,151.042,223.16z"/>
						</g>
					</g>
				</g>
				<g>
					<g>
						<defs>
							<rect id="SVGID_15_" x="42.188" y="-25.758" width="403" height="403"/>
						</defs>
						<clipPath id="SVGID_16_">
							<use xlink:href="#SVGID_15_"  overflow="visible"/>
						</clipPath>
						<g clip-path="url(#SVGID_16_)">
							<path fill="#7DCED1" d="M172.263,289.329c11.015,3.871,16.805,15.939,12.934,26.954l-4.909,13.962
								c-3.872,11.015-15.939,16.805-26.956,12.933l-7.091-2.493c-11.014-3.871-16.057-9.347-16.918-28.948
								c-0.2-4.547-0.076-14.956-0.076-14.956c3.872-11.015,24.91-13.815,35.924-9.941L172.263,289.329z"/>
							<g>
								<path fill="#FFFFFF" d="M133.257,277.44c0,0,31.391,34.381,68.016,32.637"/>
								<path fill="#EF3924" d="M208.745,317.554c-1.794,1.796-4.235,2.952-6.969,3.081c-41.11,1.959-74.907-34.515-76.324-36.068
									c-3.936-4.312-3.613-11.015,0.678-14.934c4.309-3.934,10.988-3.632,14.926,0.67c0.478,0.517,28.716,30.691,59.715,29.215
									c5.83-0.277,10.782,4.226,11.06,10.055C211.978,312.672,210.777,315.521,208.745,317.554z"/>
							</g>
							<path fill="#16BDC4" d="M164.732,270.877c2.201,2.203,2.201,5.771,0,7.973l-15.28,15.28c-2.202,2.202-5.771,2.202-7.973,0
								l0,0c-2.201-2.199-2.201-5.771,0-7.972l15.281-15.28C158.961,268.677,162.531,268.677,164.732,270.877L164.732,270.877z"/>
							<path fill="#16BDC4" d="M188.65,294.796c2.202,2.202,2.202,5.771,0,7.973L173.37,318.05c-2.201,2.199-5.771,2.199-7.973,0
								l0,0c-2.202-2.201-2.202-5.772,0-7.974l15.281-15.28C182.878,292.596,186.449,292.596,188.65,294.796L188.65,294.796z"/>
							<path fill="#16BDC4" d="M175.197,276.36c2.201,2.199,2.201,5.77,0,7.969l-21.26,21.262c-2.202,2.2-5.771,2.2-7.973,0l0,0
								c-2.201-2.203-2.201-5.771,0-7.973l21.26-21.258C169.425,274.159,172.995,274.159,175.197,276.36L175.197,276.36z"/>
							<path fill="#16BDC4" d="M183.168,284.331c2.201,2.202,2.201,5.771,0,7.973l-21.259,21.261c-2.201,2.2-5.771,2.2-7.973,0l0,0
								c-2.202-2.201-2.202-5.772,0-7.973l21.26-21.261C177.398,282.13,180.968,282.13,183.168,284.331L183.168,284.331z"/>
							<path fill="#7DCED1" d="M161.998,290.999c0.606,3.054-1.377,6.021-4.429,6.628l-21.195,4.214
								c-3.055,0.606-6.022-1.377-6.629-4.431l0,0c-0.606-3.054,1.376-6.021,4.43-6.628l21.194-4.214
								C158.423,285.964,161.391,287.946,161.998,290.999L161.998,290.999z"/>
							<g>
								<path fill="#FFFFFF" d="M72.218,272.043c-5.321,5.321-1.863,17.402,7.723,26.989l9.634-9.634L72.218,272.043z"/>
								<path fill="#F15D4A" d="M99.208,279.766l30.562-30.562l-17.357-17.355l-3.82-3.821l-40.195,40.194l3.82,3.821
									C77.54,266.721,89.623,270.179,99.208,279.766z"/>
								<path fill="#F15D4A" d="M99.208,279.766c-9.585-9.587-21.669-13.045-26.99-7.723l17.356,17.355L99.208,279.766z"/>
								<path fill="#FFFFFF" d="M185.079,193.895l-43.267-43.269c-1.927-1.925-5.051-1.924-6.977,0c-1.926,1.927-1.927,5.05,0,6.978
									l1.744,1.744l-24.167,72.5l17.357,17.355L185.079,193.895z"/>
								<path fill="#F0EFEF" d="M106.931,306.756l-17.356-17.357l-9.634,9.634C89.528,308.62,101.611,312.076,106.931,306.756z"/>
								<path fill="#F04A3D" d="M99.208,279.766c9.587,9.586,13.043,21.669,7.722,26.99l3.821,3.819l40.195-40.193l-3.821-3.821
									l-17.356-17.356L99.208,279.766z"/>
								<path fill="#E63E38" d="M99.208,279.766l-9.634,9.633l17.356,17.357C112.252,301.435,108.795,289.352,99.208,279.766z"/>
								<path fill="#F0EFEF" d="M147.126,266.561l72.5-24.168l1.744,1.743c1.926,1.928,5.049,1.927,6.976,0
									c1.927-1.924,1.927-5.048,0-6.977l-43.267-43.266l-55.309,55.311L147.126,266.561z"/>
							</g>
						</g>
					</g>
				</g>
				<g>
					<g>
						<defs>
							<rect id="SVGID_17_" x="42.188" y="-25.758" width="403" height="403"/>
						</defs>
						<clipPath id="SVGID_18_">
							<use xlink:href="#SVGID_17_"  overflow="visible"/>
						</clipPath>
						<g clip-path="url(#SVGID_18_)">
							<circle fill="#076C88" cx="206.004" cy="47.619" r="31.438"/>
							<path fill="#F3AC45" d="M212.306,54.274c-5.407,4.218-13.208,3.253-17.426-2.154c-4.218-5.407-3.251-13.209,2.154-17.427
								c5.407-4.218,13.21-3.252,17.427,2.154C218.678,42.253,217.713,50.057,212.306,54.274z M212.303,38.531
								c-3.288-4.215-9.37-4.966-13.584-1.679c-4.217,3.287-4.969,9.371-1.681,13.584c3.288,4.215,9.37,4.966,13.584,1.679
								C214.837,48.828,215.59,42.747,212.303,38.531z M212.3,55.043l0.753-0.585c0.621-0.486,1.519-0.375,2.003,0.247l2.143,2.724
								l-3.006,2.346l-2.14-2.726C211.566,56.428,211.678,55.53,212.3,55.043z M219.204,62.282l-0.754,0.587
								c-0.621,0.486-1.519,0.376-2.004-0.247l-1.432-1.842l3.005-2.344l1.433,1.842C219.936,60.9,219.826,61.797,219.204,62.282z
								 M211.07,41.459c-0.075,0.031-0.151,0.05-0.229,0.058c-0.349,0.035-0.693-0.159-0.834-0.499
								c-0.598-1.422-1.437-2.049-2.276-2.391c-0.84-0.335-1.708-0.328-2.183-0.276c-0.184,0.018-0.31,0.043-0.347,0.051
								c-0.011,0.002-0.011,0.002-0.011,0.002l0,0c-0.437,0.104-0.876-0.164-0.981-0.602c-0.105-0.437,0.166-0.878,0.604-0.982
								c0.027-0.006,0.233-0.055,0.568-0.09c0.639-0.064,1.752-0.089,2.947,0.381c1.194,0.464,2.445,1.478,3.184,3.285
								C211.682,40.812,211.485,41.288,211.07,41.459z M210.349,43.242c-0.049-0.479,0.299-0.907,0.778-0.957
								c0.478-0.05,0.908,0.298,0.957,0.778c0.049,0.479-0.299,0.906-0.778,0.957C210.828,44.068,210.398,43.721,210.349,43.242z"/>
						</g>
					</g>
				</g>
				<g>
					<g>
						<defs>
							<rect id="SVGID_19_" x="42.188" y="-25.758" width="403" height="403"/>
						</defs>
						<clipPath id="SVGID_20_">
							<use xlink:href="#SVGID_19_"  overflow="visible"/>
						</clipPath>
						<g clip-path="url(#SVGID_20_)">
							<circle fill="#076C88" cx="295.974" cy="37.158" r="31.438"/>
							<path fill="#AFC037" d="M302.369,35.829l9.85-8.425V46.59L302.369,35.829z M279.728,27.34v19.754l10.447-11.171
								L279.728,27.34z M310.856,26.201h-29.679l15.14,12.437L310.856,26.201z M301,37l-4.086,3.496l-0.57,0.493l-0.587-0.481
								l-4.186-3.438l-10.332,11.044h29.935L301,37z"/>
						</g>
					</g>
				</g>
				<g>
					<g>
						<defs>
							<rect id="SVGID_21_" x="42.188" y="-25.758" width="403" height="403"/>
						</defs>
						<clipPath id="SVGID_22_">
							<use xlink:href="#SVGID_21_"  overflow="visible"/>
						</clipPath>
						<g clip-path="url(#SVGID_22_)">
							<circle fill="#076C88" cx="386.337" cy="52.139" r="31.438"/>
							<path fill="#F15D4A" d="M402.294,64.174H371.57c-1.035,0-1.877,0.839-1.877,1.877c0,1.035,0.842,1.875,1.877,1.875h30.724
								c1.037,0,1.879-0.839,1.879-1.875C404.173,65.013,403.33,64.174,402.294,64.174z M372.579,66.88
								c-0.458,0-0.828-0.369-0.828-0.825c0-0.455,0.369-0.822,0.828-0.822c0.449,0,0.822,0.367,0.822,0.822
								C373.401,66.511,373.028,66.88,372.579,66.88z M375.238,66.88c-0.458,0-0.823-0.369-0.823-0.825
								c0-0.455,0.365-0.822,0.823-0.822c0.453,0,0.824,0.367,0.824,0.822C376.063,66.511,375.691,66.88,375.238,66.88z
								 M372.62,63.144h28.266c1.661,0,3.007-1.343,3.007-3.003V39.513c0-1.66-1.346-3.004-3.007-3.004H372.62
								c-1.658,0-3.004,1.344-3.006,3.004V60.14C369.616,61.801,370.962,63.144,372.62,63.144z M371.807,39.513
								c0-0.45,0.362-0.811,0.813-0.811h28.266c0.45,0,0.814,0.361,0.814,0.811V60.14c0,0.451-0.364,0.811-0.814,0.811H372.62
								c-0.451,0-0.813-0.36-0.813-0.811V39.513z"/>
						</g>
					</g>
				</g>
				<g>
					<g>
						<defs>
							<rect id="SVGID_23_" x="42.188" y="-25.758" width="403" height="403"/>
						</defs>
						<clipPath id="SVGID_24_">
							<use xlink:href="#SVGID_23_"  overflow="visible"/>
						</clipPath>
						<g clip-path="url(#SVGID_24_)">
							<circle fill="#034960" cx="378.481" cy="134.578" r="31.438"/>
							<path fill="#3CBFE3" d="M392.085,132.114c-0.094-1.471-0.402-2.89-0.946-4.252h0.104l-0.694-1.332l-0.256-0.496h-0.042
								c-2.365-4.134-6.598-6.763-11.324-7.068v-0.066h-1.819v0.066c-4.731,0.306-8.955,2.935-11.322,7.068h-0.042l-0.256,0.496
								l-0.691,1.332h0.095c-0.539,1.363-0.844,2.782-0.938,4.252h-0.06v1.82h0.06c0.095,1.463,0.399,2.891,0.938,4.252h-0.095
								l0.691,1.332l0.256,0.489h0.042c2.367,4.142,6.592,6.77,11.322,7.077v0.058h1.819v-0.058
								c4.727-0.307,8.959-2.936,11.324-7.077h0.042l0.256-0.489l0.694-1.332h-0.104c0.544-1.362,0.853-2.789,0.946-4.252h0.05
								v-1.82H392.085z M372.817,122.009c-0.793,1.09-1.462,2.46-1.979,4.024h-2.797
								C369.279,124.265,370.909,122.91,372.817,122.009z M366.912,127.861h3.416c-0.313,1.362-0.494,2.782-0.548,4.252h-3.954
								C365.938,130.636,366.287,129.208,366.912,127.861z M366.912,138.187c-0.625-1.354-0.975-2.781-1.086-4.252h3.954
								c0.054,1.463,0.235,2.891,0.548,4.252H366.912z M368.042,140.007h2.797c0.517,1.572,1.186,2.934,1.979,4.026
								C370.909,143.14,369.279,141.777,368.042,140.007z M377.106,145.076c-1.71-0.502-3.253-2.33-4.289-5.067h4.289V145.076z
								 M377.106,138.187h-4.829c-0.341-1.354-0.514-2.781-0.579-4.252h5.408V138.187z M377.106,132.114h-5.408
								c0.065-1.471,0.239-2.907,0.579-4.252h4.829V132.114z M377.106,126.033h-4.289c1.036-2.73,2.578-4.565,4.289-5.066V126.033z
								 M387.993,126.033h-2.804c-0.517-1.563-1.18-2.934-1.974-4.024C385.117,122.91,386.754,124.265,387.993,126.033z
								 M378.926,120.967c1.707,0.501,3.257,2.335,4.29,5.066h-4.29V120.967z M378.926,127.861h4.829
								c0.342,1.346,0.519,2.782,0.576,4.252h-5.405V127.861z M378.926,133.934h5.405c-0.058,1.471-0.234,2.899-0.576,4.252h-4.829
								V133.934z M378.926,145.076v-5.067h4.29C382.183,142.746,380.633,144.573,378.926,145.076z M383.216,144.034
								c0.794-1.092,1.457-2.454,1.974-4.026h2.804C386.754,141.777,385.117,143.14,383.216,144.034z M389.112,138.187h-3.406
								c0.313-1.362,0.488-2.789,0.546-4.252h3.955C390.099,135.405,389.745,136.834,389.112,138.187z M386.252,132.114
								c-0.058-1.471-0.233-2.89-0.546-4.252h3.406c0.634,1.346,0.986,2.774,1.095,4.252H386.252z"/>
						</g>
					</g>
				</g>
				<g>
					<g>
						<defs>
							<rect id="SVGID_25_" x="42.188" y="-25.758" width="403" height="403"/>
						</defs>
						<clipPath id="SVGID_26_">
							<use xlink:href="#SVGID_25_"  overflow="visible"/>
						</clipPath>
						<g clip-path="url(#SVGID_26_)">
							<circle fill="#034960" cx="285.516" cy="117.494" r="31.439"/>
						</g>
					</g>
					<g>
						<defs>
							<rect id="SVGID_27_" x="42.188" y="-25.758" width="403" height="403"/>
						</defs>
						<clipPath id="SVGID_28_">
							<use xlink:href="#SVGID_27_"  overflow="visible"/>
						</clipPath>
						<path clip-path="url(#SVGID_28_)" fill="#E8D51F" d="M295.297,109.377c-5.023-5.097-11.123-7.57-18.228-7.57
							c-0.696,0-1.316,0.233-1.857,0.772c-0.462,0.542-0.773,1.083-0.696,1.855c-0.077,0.696,0.234,1.392,0.696,1.856
							c0.541,0.462,1.161,0.771,1.857,0.771c5.711,0,10.503,2.008,14.518,6.025c4.017,3.939,6.027,8.728,6.027,14.444
							c-0.076,0.695,0.231,1.313,0.693,1.854c0.542,0.465,1.158,0.774,1.854,0.774c0.773,0,1.391-0.308,1.856-0.774
							c0.541-0.54,0.771-1.159,0.771-1.854C302.79,120.347,300.318,114.321,295.297,109.377z M277.069,111
							c-0.696,0-1.316,0.232-1.855,0.772c-0.464,0.464-0.775,1.082-0.697,1.855c-0.078,0.693,0.233,1.312,0.697,1.854
							c0.539,0.462,1.159,0.694,1.855,0.694c3.165,0,5.791,1.159,8.033,3.32c2.162,2.241,3.319,4.869,3.319,8.035
							c0,0.695,0.233,1.313,0.773,1.854c0.462,0.465,1.078,0.774,1.853,0.774c0.695,0,1.314-0.308,1.855-0.774
							c0.464-0.54,0.695-1.159,0.695-1.854c0-4.634-1.622-8.497-4.79-11.742C285.563,112.622,281.701,111,277.069,111z
							 M278.919,120.811c-0.073,0-0.152,0-0.152,0c-1.234,0-2.241,0.462-3.165,1.312c-0.851,0.926-1.316,2.009-1.316,3.324
							c0,1.235,0.466,2.393,1.316,3.242c0.924,0.927,2.007,1.393,3.317,1.393c1.239,0,2.397-0.465,3.246-1.393
							c0.85-0.849,1.39-2.007,1.39-3.242c0-1.314-0.54-2.397-1.39-3.324C281.315,121.273,280.158,120.811,278.919,120.811z"/>
					</g>
				</g>
				<g>
					<g>
						<defs>
							<rect id="SVGID_29_" x="42.188" y="-25.758" width="403" height="403"/>
						</defs>
						<clipPath id="SVGID_30_">
							<use xlink:href="#SVGID_29_"  overflow="visible"/>
						</clipPath>
						<g clip-path="url(#SVGID_30_)">
							<circle fill="#034960" cx="338.036" cy="209.504" r="31.438"/>
						</g>
					</g>
				</g>
				<g>
					<g>
						<defs>
							<rect id="SVGID_31_" x="42.188" y="-25.758" width="403" height="403"/>
						</defs>
						<clipPath id="SVGID_32_">
							<use xlink:href="#SVGID_31_"  overflow="visible"/>
						</clipPath>
						<polygon clip-path="url(#SVGID_32_)" fill="#7DCED1" points="135.233,333.839 79.647,393.165 129.209,393.165 158.13,344.379 
													"/>
					</g>
				</g>
			</g>
			<g>
				<path fill="#F26D7A" d="M344.918,194.645h-13.542c-1.127,0-2.051,0.924-2.051,2.05v26.269c0,1.127,0.924,2.051,2.051,2.051
					h13.542c1.126,0,2.05-0.924,2.05-2.051v-26.269C346.968,195.568,346.044,194.645,344.918,194.645L344.918,194.645z
					 M335.98,196.123h4.331c0.14,0,0.25,0.111,0.25,0.25c0,0.136-0.11,0.245-0.25,0.245h-4.331c-0.139,0-0.249-0.109-0.249-0.245
					C335.731,196.234,335.842,196.123,335.98,196.123L335.98,196.123z M338.147,223.989c-0.568,0-1.027-0.459-1.027-1.026
					c0-0.568,0.459-1.025,1.027-1.025c0.567,0,1.025,0.457,1.025,1.025C339.173,223.53,338.715,223.989,338.147,223.989
					L338.147,223.989z M345.54,221.217h-14.787v-23.318h14.787V221.217z"/>
			</g>
		</g>
	</g>
</g>
</svg>
