<?xml version="1.0" encoding="utf-8"?>
<!-- Generator: Adobe Illustrator 16.0.0, SVG Export Plug-In . SVG Version: 6.00 Build 0)  -->
<!DOCTYPE svg PUBLIC "-//W3C//DTD SVG 1.1//EN" "http://www.w3.org/Graphics/SVG/1.1/DTD/svg11.dtd">
<svg version="1.1" id="Layer_1" xmlns="http://www.w3.org/2000/svg" xmlns:xlink="http://www.w3.org/1999/xlink" x="0px" y="0px"
	 width="486px" height="376px" viewBox="0 0 486 376" enable-background="new 0 0 486 376" xml:space="preserve">
<g>
	<g>
		<g>
			<g>
				<g>
					<g>
						<g>
							<g>
								<path fill="#C0912D" d="M7.95,264.273c-0.78,1.023,4.803,0.135,4.487,0.08C11.461,264.109,8.564,263.387,7.95,264.273
									C7.705,264.592,8.162,263.969,7.95,264.273z"/>
							</g>
						</g>
					</g>
				</g>
			</g>
		</g>
		<g>
			<g>
				<g>
					<g>
						<g>
							<g>
								<path fill="#C0912D" d="M193.922,318.406c-0.107-0.678-1.351-1.037-0.303-0.967c-1.125-1.17-4.353-1.797-6.258-2.557
									c0.17,0,0.351,0,0.521,0c-1.779-0.781-3.417,0.092-4.981-0.586c-0.93-0.391-2.357-0.672-3.123-1.084
									c-3.666-2.01-4.799,1.939-6.534,0.979c0.663,0.383,2.303-1.908,2.261-1.879c-0.585-1.787-4.69,1.848-5.352,0.375
									c-0.732-1.596,7.102-0.627,2.363-2.938c0.148,0,0.263,0,0.379,0c-0.799-0.16-2.477-2.037-3.31-2.566
									c0.111,0,0.233,0,0.352,0c-0.765-0.459-2.147-1.338-3.451-1.186c-0.568,0.064-1.606,0.594-2.232,0.441
									c-0.729-0.191-2.27-1.461-2.729-1.807c0.119,0,0.212,0,0.325,0c-0.564-0.527-2.562-0.139-3.132-0.543
									c-0.077-0.059,1.167-2.441,0.965-2.396c-0.442,0.098-0.815,0.678-1.13,0.949c-0.674,0.586-1.564-0.424-2.271-0.574
									c0.202,0,0.408,0,0.604,0c-0.609-0.232-1.721-0.232-2.366,0c-0.366,0.15-0.606,0.693-1.125,1.029
									c-0.87,0.146-1.492-1.865-3.481-0.676c-0.771,0.438-0.903-1.26-1.579-1.26c-2.524,0-2.41,1.842-3.055,2.701
									c-0.952-0.258-0.472-1.568-0.445-1.795c0.759-2.199,0.274-0.982-2.336-0.588c-2.105,0.184-2.584,1.879-4.121,2.477
									c-1.186,0.346-2.178-0.842-3.494-0.977c-0.644-0.057-4.628,1.934-4.628,0.117c-0.923-0.613-1.026-1.742-0.892-2.561
									c0.213-1.133,1.179-1.703-0.283-2.576c-1.875-1.322-4.79,0.711-6.351-0.422c-0.077-0.063,1.103-2.922,1.479-3.17
									c1.04-2.303,0.426-1.629-3.355-1.891c-2.342-0.215-0.865,1.725-1.903,2.217c-0.311,0.158-0.588,0.148-0.863-0.023
									c-1.032-0.303-1.751,0.523-2.646,0.615c-2.153,0.248-4.317-2.697-4.531-3.479c-0.16-0.826,0.854-4.041-0.271-4.305
									c-0.454-0.102,4.539-2.469,4.89-2.475c1.93-0.104,3.319,0.627,4.933,0.596c1.144-0.018,0.396-0.617,0.951-0.82
									c0.943-0.348,3.495-0.371,4.695-0.512c0.774-0.121,1.005,0.607,1.481,0.846c0.726,0.34,1.252-0.561,1.549-0.402
									c0.439,0.229,2.862,6.156,4.661,3.547c0.984-1.414-1.511-2.74-1.575-4.15c0.353-1.232,3.295-2.295,4.594-3.262
									c0.474-0.369,3.689-1.203,3.2-1.67c-0.256-0.213-0.908-1.303-1.311-1.748c0.006-0.391,1.535,0.301,2.223-0.373
									c0.404-0.391,0.024-0.764,0.209-1.141c1.034-0.717,1.548-1.506,3.386-1.326c4.507,0.412,2.006-0.545,2.006-1.813
									c0-0.52,4.261-2.02,4.968-1.891c0.469,0.08,0.314,1.17,0.516,1.395c0.383,0.535,1.462,0.051,1.519,0.051
									c1.654-0.566,3.155-0.875,5.049-1.094c4.064-0.48,0.619-2.035,0.572-2.014c-1.766,0.916-1.534,0.646-2.244-0.367
									c0.043,0.094-1.864,0.465-2.316-0.127c-0.311-0.313,1.17-1.535-0.588-1.535c-2.379,0-4.509,0.457-6.685,1.086
									c0.399-1.672,1.416-1.658,4.058-2.078c1.361-0.221,3.035,0.107,3.851-0.328c0,0-0.132,2.027,2.198,1.148
									c0.928-0.348,0.077-1.473,2.61-1.439c2.567,0.021,1.185-0.346,3.343-0.789c1.825,0-0.641,1.664-0.902,1.982
									c-1.058,1.387-1.157,2.336,2.246,1.668c1.043-0.217,1.193,0.566,1.749,0.436c0.484-0.117,0.559-0.307,1.106-0.348
									c0.628-0.045,3.114,0.723,2.084-0.484c-0.749-0.871-0.948-0.596-1.348-1.158c-0.642-0.895-2.02-0.184-3.073-0.727
									c0.123,0,0.247,0,0.377,0c-0.391-0.193-1.021-0.117-1.192-0.193c-0.335-0.143,2.318-2.438,2.115-2.725
									c-0.039-0.031-4.592-2.111-4.931-2.199c0.168,0,0.355,0,0.563,0c-0.969-0.434-1.929-0.004-3.021-0.148
									c-0.42-0.066-1.297-1.365-1.313-1.402c-0.84-1.127-1.814-1.996-3.557-2.871c-0.836-0.387-2.001,1.111-2.457,1.359
									c-0.869,0.506-2.403,0.287-3.441,0.039c-2.731-0.646,2.572-1.703-2.463-2.115c0.386,0,0.747,0,1.129,0
									c-1.79-0.229-2.419-0.527-4.016-0.961c-1.696-0.484-3.61-0.027-5.368-0.027c-0.939,0-0.929,1.219-0.984,1.471
									c-0.039,0.367,0.023,0.723,0.188,1.064c-0.303,0.135-1.474,0.281-1.354,0.496c0.293,0.674,3.042,1.037,2.814,1.975
									c-0.183,0.727-1.772,1.859-2.939,1.121c0.108,0,0.235,0,0.338,0c-0.654-0.678-1.967-0.135-0.89,0.738
									c0.483,0.42,1.403,2.217,0.703,2.609c-3.049,1.789-2.353-1.662-2.589-2.016c-0.158,0.164-0.669,0.533-1.107,0.797
									c-0.462,0-0.887-2.23-1.046-2.129c-0.972-0.885-2.777-0.268-4.216-0.35c-1.96-0.096-3.849-0.463-5.522-1.043
									c-0.83-0.273-1.595,0.039-2.47-0.158c-1.575,0.318-0.915-0.674-1.994-1.012c0.15,0,0.291,0,0.445,0
									c-3.289-2.27,2.401-5.656,6.936-4.561c0.11,0.033,0.763-1.67,0.815-1.783c0.028,0.506,2.085,0.928,1.201,1.393
									c-1.773,0.938,1.609,0.391,2.185,0.211c0.555-0.184,2.177-0.725,2.654-0.211c1.447,1.473,3.368,0.275,2.322-0.162
									c0.144,0,0.287,0,0.414,0c-0.618-0.385-3.792-1.621-4.639-1.566c-0.551-0.094-2.925,0.25-3.273-0.217
									c-0.167-0.248,4.419-0.326,5.412-0.547c3.321-0.746,1.167-1.025,0-1.867c-0.622-0.432,4.514-0.572,4.556-1.377
									c-0.632,0.137,3.033,0.98,3.068,0.98c1.398,0.578-1.708,1.615-1.492,1.768c0.487,0.32,2.338,0.252,2.923,0.105
									c0.755-0.18,0.584-1.238,1.701-1.104c0.229,0.027,1.913,0.438,1.748,0.643c-1.175,0.531-2.159,0.48-2.869,1.313
									c-0.629,0.752-2.542,0.15-3.719,0.303c-0.936,0.336-1.323,1.004-0.676,1.695c-0.014-0.033,5.058-0.129,5.579-0.129
									c1.531,0.051,3.216,0.688,4.429,1.25c0.278,0.127,0.667-0.105,0.829-0.242c0.702-0.264,1.397,0.568,1.749,0.766
									c0.475,0.219,2.249,0.051,2.688,0.018c0.342-0.018,0.077-0.691,1.021-0.541c0.42,0.047,1.707,0.725,2.174,0.475
									c0.641-0.316-0.753-1.561-1.184-1.725c0.152,0,0.281,0,0.431,0c-1.113-0.582-2.534-0.709-2.927-1.566
									c0.977-0.906,3.968,1.426,5.213,0.857c1.363-0.617,2.268-0.729,2.915-1.621c-0.666-0.078-1.333-0.152-1.967-0.244
									c0.215,0,0.477,0,0.7,0c-1.682-0.236-3.74-1.697-5.389-1.385c-2.327,0.484-1.823-1.172-2.131-1.801
									c-0.243-0.492-8.575-1.525-10.023-1.945c0.147,0,0.294,0,0.45,0c-1.638-0.451-3.037-1.305-4.987-1.211
									c-1.769,0.09-3.54,0.139-5.339,0.203c-0.988,0.033-2.086,0.277-2.954,0.311c0.152-0.014-0.241,2.336-1.979,1.465
									c-0.605-0.326,1.7-3.248-2.207-1.988c-1.735,0.551-5.576,1.344-2.442,2.859c1.65,0.813,6.509,0.078,5.777,1.525
									c-0.25,0.447-3.208,1.131-3.208,1.35c0-0.584,0.314-0.943-0.453-1.314c-1.151-0.582-1.524-0.16-2.577,0.219
									c-0.522,0.176-1.189-0.723-1.395-0.846c0.148,0,0.273,0,0.419,0c-1.503-1.148-6.639-3.596-4.505-0.305
									c0.158,0.234,0.952,1.553-0.152,1.646c-0.616,0.084-1.342,1.156-2.084,0.521c-0.547-0.479-0.791-1.678-0.385-2.094
									c-0.272,0.275-3.468-0.396-3.623,0.348c-0.053,0.381,2.839,0.961,0.904,1.605c-1.267,0.219-2.814,0.078-4.098,0.025
									c-1.587-0.051-5.298,0.484-4.94-0.727c0.071-0.023,8.425-1.02,5.266-1.926c-1.169-0.334-2.81-0.084-3.774-0.641
									c-2.187-1.178,0.715-0.951-0.036-1.957c-0.125-0.178-4.476-0.33-4.762-0.191c-1.009,0.098,0.26,1.861,0.295,2.209
									c-2.049-0.654-0.319-1.961-3.854-1.689c-2.991,0.203-5.001,0.188-7.615-0.926c-2.327-0.514-4.417-0.305-7.238-0.17
									c-0.743,0.035-3.272-0.289-3.631,0.26C75.1,244.43,73,246.109,73,246.131c-0.108,1.088,7.117,0.949,7.985,0.586
									c-0.132,0-0.248,0-0.388,0c0.583-0.145,0.986-0.395,1.208-0.746c0.287-0.082,2.717,1.977,3.3,2.262
									c2.362,1.16-3.198,0.527-4.044,0.029c0.131,0,0.265,0,0.417,0c-2.484-0.988-7.144-0.965-9.339,0.236
									c0.007-0.061-0.471-1.453-1.324-0.965c-1.517,0.525-2.176-0.365-3.851,0.029c-1.169,0.283-1.431,0.605-2.81,0.543
									c-1.377-0.055-2.665-0.371-3.915-0.074c-0.531,0.115-0.9,1.076-2.014,1.076c-0.515,0-1.583-0.67-2.121-0.846
									c0.167,0,0.336,0,0.5,0c-1.184-0.314-2.184-0.043-3.322-0.271c-0.996-0.197-1.889-1.18-2.962-1.09
									c-3.83,0.428-5.411,0.355-9.145-0.184c-2.931-0.234-7.364,0.725-9.787-0.643c-0.872,1.854-7.485,1.502-10.04,2.188
									c-0.578,0.066-2.611,1.1-0.713,1.609c1.642,0.447,3.869,0.295,5.273,1.107c2.178,1.318-2.671,0.459-3.632-0.096
									c-0.21-0.127-4.421,0.822-4.917,0.945c0.989,1.164,2.548,1.566,4.652,1.648c1.629,0.047,3.237-0.797,4.662-0.547
									c1.737,0.309-3.948,1.209-3.739,1.17c-1.052,0.227-1.57,0.498-2.463,0.881c-2,0.869,1.472,1.768,1.723,2.611
									c0.177,0.588,2.75-1.133,3.203-0.75c-0.138-0.109,0.511,2.303,1.254,1.502c1.137,0.186,0.242-0.998,2.09,0.16
									c0.191,0.107,3.085-0.564,2.213,0.387c-0.702,0.736-3.057,1.092-4.214,1.424c-1.171,0.361-2.737,1.225-4.075,1.225
									c-0.667,0-0.761,0.945,0.206,0.863c0.989-0.078,2.007-0.352,2.939-0.57c1.943-0.475,2.041,0.037,3.73-0.143
									c1.426-0.125,2.597-0.979,3.526-1.551c1.24-0.791,1.004,0.176,2.253,0.393c0.936,0.174,1.849-0.525,2.45-0.766
									c1.625-0.645-0.417-1.145-1.77-1.014c1.148-0.375,2.192-2.576,3.302-2.346c0.563,0.109-0.695,1.146-0.288,1.449
									c-0.197-0.143,4.524-0.23,4.524-0.23c0.915-0.404,0.859-1.951,2.371-1.375c3.004,1.125,7.887,1.096,11.397,1.787
									c2.216,0.449,1.782,2.428,3.717,2.428c3.232,0,1.618,1.699,2.416,2.762c0.856,1.127,3.167,1.541,3.416,0.404
									c-0.081-0.275-1.776-1.857-1.252-1.959c0.236-0.07,4.528,2.869,4.171,3.453c-1.314,2.152,4.757,1.547,4.757,3.473
									c0,0.748,0.903,1.408,0.832,2.199c-0.098,1.061-0.281,2.127-0.418,3.172c-0.144,1.057,0.882,2.324,2.016,3.111
									c1.053,0.738,0.414,2.303,1.59,2.832c1.351,0.641,2.647,0.506,4.064,0.889c1.607,0.412,2.334,2.127,2.935,2.979
									c0.639,0.961,2.118,1.398,2.705,2.217c0.412,0.516-2.396,1.953,0.303,1.578c2.529-0.352,3.539,3.949,6.4,3.576
									c2.396,0-1.085-1.756-1.359-1.881c0.118,0,0.248,0,0.373,0c-1.153-0.568-1.639-1.824-2.692-2.576
									c0.027,0.025-1.361-1.301-1.658-1.523c-0.768-0.592-2.379-1.27-1.047-1.979c0.34-0.113,3.344,2.746,4.005,3.174
									c2.212,1.402,4.198,2.965,6.239,4.42c1,0.717,0.875,1.256,1.08,2.121c0.396,1.545,2.173,1.463,4.136,1.938
									c1.796,0.408,1.408,1.35,2.231,2.215c1.151,1.211,3.454-0.199,4.897,0.764c0.825,0.555,1.372,0.139,1.603,0.139
									c1.972-1.635,3.549,0.297,5.086,1.084c1.488,0.764,3.306,0.498,4.887,0.887c2.54,0.627,1.207,2.186,2.991,2.906
									c1.652,0.686,3.254,1.656,5.102,2.076c0.538,0.158,0.809,0.623,1.359,0.666c1.222,0.146,1.206-0.826,1.756-0.947
									c0.403-1.475,2.536,1.26,2.739,1.354c1.481,0.684,0.418,2.799,0.055,3.637c-0.303,0.729-3.069,1.363-3.785,2.186
									c-1.088,1.229,0.298,2.461-0.639,3.727c-1.244,1.689,0.676,1.785,2.137,2.863c0.959,0.689,1.575,2.342,2.107,3.219
									c0.67,1.102,0.935,2.75,1.908,3.727c1.061,1.01,3.705,1.221,5.225,1.963c3.735,1.83,3.398,3.43,2.906,6.133
									c-0.252,1.406,0.223,2.74,0.072,4.146c-0.072,0.568-1.163,0.547-1.6,0.953c-0.605,0.576,0.914,0.488-0.264,1.102
									c-0.755,0.402,0.098,2.154-0.351,2.902c-0.443,0.73-1.039,2.768-1.749,3.283c-1.373,0.98,0.471,1.434-0.28,2.641
									c-0.85,1.316,0.58,2.463-0.574,3.73c-0.519,0.564-1.41,1.02-1.835,1.627c-0.512,0.736,1.07,1.104,0.357,1.863
									c-0.613,0.645-1.145,1.318,0.252,1.641c1.419,0.338-1.022,0.883-0.252,1.324c1.434,0.826,1.586,1.715,2.917,2.629
									c2.257,1.545,2.042,0.141,3.239-0.656c1.785-0.291-0.754,1.375-0.682,1.324c-0.911,0.549-0.05,0.504,0.822,0.74
									c1.22,0.328,6.892,0.258,7.73-0.604c-0.04-0.035,0-0.051,0.107-0.051c-2.75-0.354-5.545-0.713-5.917-2.557
									c-0.465-1.691,3.139-2.135,4.127-3.586c0.462-0.953,0.79-0.965-1.207-1.096c-1.504-0.066-0.497-0.816,0.093-1.125
									c0.48-0.234,4.492-3.006,4.026-3.174c-1.061-0.387-2.022,0.164-2.022-1.176c0-0.158,3.169,0.727,3.429,0.271
									c0.441-0.109-0.43-1.066,0.098-1.395c0.254-0.609,3.036-0.287,3.99-0.381c1.709-0.135,3.547-1.311,3.707-2.182
									c0.932-0.982-1.14-1.049-1.672-1.543c-1.495-0.867-0.795-1.326-0.14-2.465c0.612,2.465,2.915,3.516,6.303,1.445
									c0.882-0.563,1.737-1.178,1.799-1.658c0.232-1.148,1.394-1.197,2.266-2.035c0.551-0.354,0.429-0.969,1.559-1.211
									c1.701-0.328,0.61-1.275,0.67-1.74c-0.656-1.457,3.046-2.441,4.937-2.877c1.231-0.279,3.433-0.223,4.389-0.729
									c1.055-0.555,1.352-1.836,2.057-2.561c0.546-0.807,1.977-3.148,1.557-4.104c0.043-0.447-0.57-0.969-0.141-1.67
									c0.517-0.805,1.898-1.277,2.772-1.916C192.636,321.512,194.217,319.598,193.922,318.406
									C193.869,318.096,193.922,318.434,193.922,318.406z M124.49,272.355c-0.205-0.643-0.133-1.789,0.1-2.564
									c1.25-1.322,11.04-0.91,9.787,0.891c-0.964,0-1.154-0.486-1.321-0.891c0.049-0.016-0.519,0.223-0.273,0.053
									c-0.708,0.488,0.397,2.623-1.395,2.512c-1.361,0-0.465-1.641-0.91-2.127c-1.047-1.193-4.032,0.01-4.374,0.902
									c-0.152,0.4,0.341,3.332-1.306,2.75c0.11,0,0.226,0,0.337,0C124.209,273.734,124.42,272.703,124.49,272.355
									C124.49,272.355,124.391,272.902,124.49,272.355z M135.707,271.311c1.343-0.844,6.161-0.354,1.343,0.875
									c-1.156,0.281-2.889,0.883-3.637,1.41c-1.338,0.932-3.023,0.322-1.332-0.373
									C133.91,272.555,134.142,272.156,135.707,271.311C136.015,271.109,135.707,271.311,135.707,271.311z M74.509,266.598
									c-0.293-0.117-1.078-0.822-0.847-1.137c1.169,0.375,5.347,1.865,3.76,2.871c-0.558-0.309-0.858-0.658-0.896-1.113
									C76.044,267.039,74.975,266.793,74.509,266.598C74.336,266.535,75.045,266.836,74.509,266.598z M127.494,268.229
									c-1.093,0.145-3.137-0.637-3.74-0.539c-0.125,0.02-5.941,0.813-3.662-0.221c0.811-0.219,4.552-1.725,5.141-1.332
									C126.196,266.801,129.431,267.201,127.494,268.229C127.114,268.283,127.919,268.012,127.494,268.229z M162.881,341.525
									C162.968,341.42,162.935,341.502,162.881,341.525C162.904,341.514,162.881,341.525,162.881,341.525z"/>
							</g>
						</g>
					</g>
				</g>
			</g>
		</g>
		<g>
			<g>
				<g>
					<g>
						<g>
							<g>
								<path fill="#C0912D" d="M79.211,242.898c2.329,0,4.733-0.924,5.823,0.311c0.86,0.969,1.509,0.344,2.651,0.053
									c0.725-0.203,1.91,1.229,3.523,1.145c0.775-0.037,7.568,0.115,7.674-0.053c0.249-0.361,2.226-1.512,1.633-2.059
									c-0.67-0.576-1.142-0.234-2.043-0.002c-1.235,0.311-1.369-0.693-2.464-0.693c-1.312,0-1.68,0.814-2.888,1.018
									c-1.013,0.162-1.764-0.598-2.633-0.77c-1.632-0.336-3.142,0.088-4.281-0.686c-1.031-0.723-3.123-0.295-4.371-0.061
									c-1.82,0.328-2.206,0.195-2.543,1C77.635,242.08,76.865,242.898,79.211,242.898
									C80.19,242.898,78.235,242.898,79.211,242.898z"/>
							</g>
						</g>
					</g>
				</g>
			</g>
		</g>
		<g>
			<g>
				<g>
					<g>
						<g>
							<g>
								<path fill="#C0912D" d="M90.21,241.256c0.712,0,3.227,0.094,3.783-0.094c0.495-0.164,0.933-1.6,0.016-1.646
									C92.317,239.414,89.21,241.256,90.21,241.256C90.813,241.256,89.667,241.256,90.21,241.256z"/>
							</g>
						</g>
					</g>
				</g>
			</g>
		</g>
		<g>
			<g>
				<g>
					<g>
						<g>
							<g>
								<path fill="#C0912D" d="M101.872,240.467c1.444,0,2.419-0.449,3.154,0.289c0.86,0.891,3.369,0.406,3.407-0.193
									c-0.503-1.268-2.784-1.49-4.707-1.49c-0.877-0.016-2.336-0.07-3.013,0.303C99.744,239.93,100.955,240.467,101.872,240.467
									C102.795,240.467,100.984,240.467,101.872,240.467z"/>
							</g>
						</g>
					</g>
				</g>
			</g>
		</g>
		<g>
			<g>
				<g>
					<g>
						<g>
							<g>
								<path fill="#C0912D" d="M117.828,245.443c1.984-0.094-0.455-1.355-1.867-1.281
									C110.958,245.35,114.521,245.699,117.828,245.443C117.868,245.443,117.141,245.498,117.828,245.443z"/>
							</g>
						</g>
					</g>
				</g>
			</g>
		</g>
		<g>
			<g>
				<g>
					<g>
						<g>
							<g>
								<path fill="#C0912D" d="M115.514,243.422c-0.241-0.105-0.476-0.213-0.693-0.299c0.217,0,0.452,0,0.667,0
									c-0.596-0.432-2.038-0.52-2.385,0C112.679,243.967,115.704,243.775,115.514,243.422
									C115.403,243.262,115.864,244.043,115.514,243.422z"/>
							</g>
						</g>
					</g>
				</g>
			</g>
		</g>
		<g>
			<g>
				<g>
					<g>
						<g>
							<g>
								<path fill="#C0912D" d="M114.453,242.02c2.726,0.732,5.344,1.9,8.454,1.918c2.558,0.029,5.191,0,7.808,0.07
									c0.798,0,4.639-0.404,2.114-0.885c0.214,0,0.426,0,0.628,0c-3.149-0.752-8.502-0.564-11.851-0.344
									c-1.377,0.072-3.47-1.133-4.683-1.572c-0.9-0.326-2.521-0.529-3.53-0.645c0.243,0,0.469,0,0.695,0
									c-0.544-0.096-3.163-0.545-3.163-0.512C110.926,241.256,112.67,241.547,114.453,242.02
									C115.437,242.281,113.484,241.758,114.453,242.02z"/>
							</g>
						</g>
					</g>
				</g>
			</g>
		</g>
		<g>
			<g>
				<g>
					<g>
						<g>
							<g>
								<path fill="#C0912D" d="M218.336,253.178c0.511,0,1.59-0.967,1.128-1.229c-0.485-0.291-2.23-0.547-2.896-0.605
									c-1.401-0.104-3.224,0.484-4.678,0.484c-1.456,0-2.441-0.656-4.011-0.604c-1.774,0.084-0.717,1.398-0.264,1.818
									c0.799,0.77,3.162,0.076,3.547,0.789c0.583,1.088,3.075,0.418,4.197,0.055C215.989,253.703,217.983,253.408,218.336,253.178
									C218.336,253.178,218.288,253.221,218.336,253.178z"/>
							</g>
						</g>
					</g>
				</g>
			</g>
		</g>
		<g>
			<g>
				<g>
					<g>
						<g>
							<g>
								<path fill="#C0912D" d="M140.096,293.637c2.016-0.311-3.046-1.373-2.931-1.344c-2.598-0.746-3.805-1.914-7.724-1.174
									c-3.531,0.65,2.423,0.752,3.587,0.783C135.066,291.912,138.108,294.457,140.096,293.637
									C140.295,293.607,139.63,293.813,140.096,293.637z"/>
							</g>
						</g>
					</g>
				</g>
			</g>
		</g>
		<g>
			<g>
				<g>
					<g>
						<g>
							<g>
								<path fill="#C0912D" d="M136.904,289.975c0.814-0.082,0.823-0.547,0.099-0.705c0.162,0,0.324,0,0.482,0
									c-0.441-0.199-0.884-0.199-1.286,0C135.883,289.486,135.568,290.152,136.904,289.975
									C137.883,289.848,135.766,290.115,136.904,289.975z"/>
							</g>
						</g>
					</g>
				</g>
			</g>
		</g>
		<g>
			<g>
				<g>
					<g>
						<g>
							<g>
								<path fill="#C0912D" d="M152.434,295.975c0.14-0.027,0.72-0.496,0.72-0.557
									C151.571,293.404,150.388,296.637,152.434,295.975C152.457,295.975,152.365,295.99,152.434,295.975z"/>
							</g>
						</g>
					</g>
				</g>
			</g>
		</g>
		<g>
			<g>
				<g>
					<g>
						<g>
							<g>
								<path fill="#C0912D" d="M347.567,304.906c-0.123-0.105-0.263-2.018-1.48-1.643c-0.868,0.275-0.937,1.361-1.014,1.896
									C344.405,309.418,349.246,306.359,347.567,304.906C347.494,304.846,347.702,304.99,347.567,304.906z"/>
							</g>
						</g>
					</g>
				</g>
			</g>
		</g>
		<g>
			<g>
				<g>
					<g>
						<g>
							<g>
								<path fill="#C0912D" d="M251.638,276.064c1.734-0.166,1.069-1.693-0.259-1.693
									C249.67,274.371,249.83,276.531,251.638,276.064C251.973,276.043,251.266,276.15,251.638,276.064z"/>
							</g>
						</g>
					</g>
				</g>
			</g>
		</g>
		<g>
			<g>
				<g>
					<g>
						<g>
							<g>
								<path fill="#C0912D" d="M243.963,275.658c1.648-0.805-2.352-0.279-1.008,0.172
									C243.258,275.939,243.84,275.889,243.963,275.658C244.03,275.623,243.963,275.658,243.963,275.658z"/>
							</g>
						</g>
					</g>
				</g>
			</g>
		</g>
		<g>
			<g>
				<g>
					<g>
						<g>
							<g>
								<path fill="#C0912D" d="M258.903,278.49c3.096,0.514,0.452-2.867-2.697-1.561
									C255.758,277.107,258.594,278.428,258.903,278.49C259.145,278.516,258.446,278.395,258.903,278.49z"/>
							</g>
						</g>
					</g>
				</g>
			</g>
		</g>
		<g>
			<g>
				<g>
					<g>
						<g>
							<g>
								<path fill="#C0912D" d="M230.052,264.592c1.825-0.566,2.572-1.596,1.632-2.508c-0.981-2.006-2.821,0-4.108,0
									c-0.976,0.641-1.279,0.029-0.888,1.404c0.202,0.697-1.24,0.635-0.138,1.41C227.552,265.607,229.05,264.871,230.052,264.592
									C230.618,264.408,229.271,264.818,230.052,264.592z"/>
							</g>
						</g>
					</g>
				</g>
			</g>
		</g>
		<g>
			<g>
				<g>
					<g>
						<g>
							<g>
								<path fill="#C0912D" d="M232.864,261.854c0.18,0.07,3.379,0.66,2.577,0.945c-1.09,0.365-2.041,1.008-2.86,1.563
									c-1.708,1.156,0.329,1.156,2.072,0.98c-0.114,0.176-0.672,0.557-0.131,0.713c0.55,0.162,1.192-0.563,1.812-0.563
									c1.238,0,2.354,0.406,3.603,0.406c2.594,0,2.478-1.49,1.516-2.268c0.103,0,0.219,0,0.327,0
									c-1.181-1.018-2.987-1.586-4.234-2.561c0.105,0,0.216,0,0.337,0c-1.53-1.232,3.73-2.334-1.508-2.563
									c0.48,0.006,0.978-0.004,1.464,0c-1.912-0.168-4.03-0.748-5.311,0.332c-0.672,0.533-2.095-0.447-2.458,0.445
									C229.728,260.15,231.648,261.527,232.864,261.854C233.98,262.172,231.721,261.539,232.864,261.854z"/>
							</g>
						</g>
					</g>
				</g>
			</g>
		</g>
		<g>
			<g>
				<g>
					<g>
						<g>
							<g>
								<path fill="#C0912D" d="M374.995,240.688C375.127,240.355,374.799,240.348,374.995,240.688L374.995,240.688z"/>
							</g>
						</g>
					</g>
				</g>
			</g>
		</g>
		<g>
			<g>
				<g>
					<g>
						<g>
							<g>
								<path fill="#C0912D" d="M459.342,256.809c3.584,0,6.055,0.121,9.373-0.941c1.084-0.346,8.721-0.914,8.879-1.162
									c0.166-0.262-1.757-1.258-1.757-1.311c-1.025-0.715,1.619-0.725,2.018-1.414c0.01-0.023-0.411-1.211-0.398-1.16
									c-0.644-1.182,1.304-1.953-1.701-2.559c0.187,0,0.385,0,0.586,0c-1.335-0.373-3.066-0.188-4.486-0.166
									c-1.909,0.01-2.847-0.461-4.611-0.672c-1.02-0.096-1.466,0.553-1.84,0.961c-1.041,1.158-1.075,0.375-2.66-0.123
									c0.183,0,0.387,0,0.572,0c-1.565-0.766-5.135-0.527-6.99-0.373c-1.282,0.102-3.521,0.57-4.618-0.096
									c-0.667-0.387-1.918-0.912-2.845-1.076c-1.816-0.324-4.569,0.027-6.447,0.111c-2.618,0.084-3.482-0.398-5.746-1.139
									c0.16,0,0.329,0,0.493,0c-3.211-1.107-6.511-0.02-9.617-1.527c0.274-0.408,3.165-0.637,3.968-0.799
									c-0.13-0.883-0.021,0.064,0-0.24c-1.789-1.34-4.76-0.576-6.761-0.842c-0.758-0.031-1.519,0-2.281,0.072
									c-0.4-0.086-0.708-0.236-0.954-0.447c-1.09-0.102-1.683,1.152-0.461,1.383c1.002,0.184,4.303-0.117,3.884,1.037
									c-0.226,0.633-0.754,1.924-2.232,1.783c-1.486-0.139-3.117,0.348-4.698,0.348c-0.326,0-3.024-0.334-2.893-0.383
									c-2.782,0.754-3.381,1.422-4.403-0.385c-0.158-1.875-2.637-1.662-5.158-1.486c-2.945,0.227-4.794,1.342-7.576,0.572
									c-2.793-0.748-6.127,0-8.847-0.613c-0.134-0.463,1.707-1.039,1.813-1.576c0.229-1.039-4.062-0.986-5.104-0.986
									c-1.509,0-5.066,0.096-5.474,0.096c-0.614-0.004-5.196-0.676-5.373-1.008c-0.425,0.959-3.287,1.373-4.573,1.594
									c-2.394,0.41-3.074-0.664-4.093-1.234c-0.477-0.256-1.85,0.965-2.28,1.113c-2.396,0.703-4.66,0.107-6.952,0.738
									c-3.118,0.877-5.417,1.639-9.216,1.639c-4.673,0,2.709,1.727,2.709,3.016c0,1.734-2.088-0.961-1.924-0.836
									c-0.918-0.453-2.7-0.418-3.695-1.027c0.103,0,0.244,0,0.331,0c-0.896-0.527-2.396-1.008-3.368-0.23
									c0.046-0.035-2.282,2.803-2.461,1.16c-0.713-4.338-2.684,2.578-1.445,2.578c0.535,0,4.775-2.174,5.053-0.699
									c0.088,0.691,1.281,1.295-0.851,1.305c-1.049,0.02-1.016-0.52-1.704-0.52c-1.664,0-1.741-0.023-2.935,0.869
									c-0.556,0.396-3.029,2.268-4.296,1.676c-0.414-0.191,3.105-2.189,3.27-2.545c-0.901-0.6-0.936-3.08-0.072-3.594
									c-1.512-1.424-3.803-1.465-5.455-0.357c-0.981,0.662-5.228,1.762-2.337,2.699c6.242,2.016-4.554,0.348-5.485,0.23
									c0.261,0,0.509,0,0.75,0c-1.097-0.225-2.787-0.365-3.84,0c0.17,0,0.337,0,0.52,0c-1.717,0.197-2.287,1.508-4.132,0.766
									c-1.676-0.662-4.459,0.66-6.217,0.256c-1.904,0.045-3.514,0.539-5.434,0.52c-0.157,0-2.448-0.217-2.448,0.182
									c-0.165,0.063-1.519,1.436-1.874,0.848c-0.404-0.238,1.989-1.762-0.132-1.943c-1.746-0.141-3.002,0.061-2.673,1.18
									c0.052,0.135,0.853,2.023,0.092,1.76c-0.447-0.141-0.572-0.996-1.231-0.922c-0.903,0.107-1.504,0.469-2.385,0.57
									c-1.88,0.258-1.174,1.932-2.985,1.652c-0.529-0.086-1.663-0.809-2.221-0.506c-0.683,0.084-1.104,0.725-1.982,0.529
									c0.622,0.133-1.714-2.121-1.765-1.941c-0.352,1.26,11.781-0.467,9.766-1.086c-1.298-0.408-2.058-1.23-3.616-1.365
									c-2.879-0.301-5.02,0.268-7.907-0.498c0.172,0,0.342,0,0.508,0c-4.422-1.182-10.438-3.061-15.228-1.906
									c-2.208,0.545-4.512,1.232-6.494,1.906c-2.347,0.766-2.918,1.689-4.857,2.717c-2.079,1.107-12.058,2.578-10.75,5.107
									c0.499,0.971,0.328,2.586,2.231,3.059c3.376,0.844,3.189-1.41,5.13-1.23c1.325,0.123,0.604,3.479,2.042,3.33
									c1.544-0.15,4.005-0.289,5.273-0.852c1.344-0.404,1.141-1.633,2.314-2.355c2.233-1.381,0.483-1.191-1.184-2.105
									c0.312-1.488,5.513-1.393,6.178-3.289c0.184-0.496-0.514-0.842,0.662-0.889c0.998-0.031,2.844-0.242,3.809,0.053
									c0.911,0.285-4.843,2.324-5.157,2.607c-0.758,0.65,0.352,2.234,1.283,2.701c0.358,0.186,6.115-0.547,7.146-0.611
									c2.106-0.09,2.226,1.227-0.542,1.27c-0.518,0-5.872-0.049-5.872,0.424c0,0.143,3.654,1.457,0.781,1.322
									c-2.544-0.115-3.232-0.375-4.132,1.32c-0.725,1.373,0.313,0.992-1.66,1.244c-1.959-0.361-3.726-0.064-5.731,0
									c-1.548,0.248-5.283,0.51-5.526-0.764c-0.138-0.771,1.102-1.973-1.515-1.508c-3.369,0.611-1.134,2.041-0.716,3.135
									c-1.531-0.061-2.827-0.434-4.154,0.24c-0.786,0.406-1.51,0.855-2.214,1.313c-0.47,0.281-1.742,0.227-2.379,0.43
									c-1.198,0.281-0.377,0.791-1.002,1.287c-0.477,0.398-2.359,0.416-3.064,0.523c-0.346,0.037-5.636,0.934-5.421,1.207
									c0.317,0.494,3.504,0.73,4.313,1.26c0.871,0.537,0.645,2.711-0.841,2.914c-1.937,0.234-8.017-1.023-9.124,0.234
									c-0.551,0.654-0.358,1.578-0.04,2.234c0.472,0.957-1.169,1.299-0.9,2.176c0.194,0.598,1.43,1.551,2.534,1.463
									c0.813-0.055,3.601,0.984,3.199,1.248c1.525-1,1.617-0.939,4.275-1.16c0.495-0.033,3.097-1.209,3.136-1.568
									c0.125-0.705,0.156-1.248,1.354-2.07c-0.369,0.25,5.83-2.197,3.919-2.322c2.255,0.199,2.476,0.361,4.564,0
									c2.235-0.936,2.654-0.566,4.064,0.607c1.373,1.158,3.395,1.408,5.45,2c0.488,0.146,3.45,3.266,3.728,2.49
									c-0.59-0.965-1.101-2.277,1.377-2.396c-1.091-0.293-2.111-0.768-3.182-1.176c0.141,0,0.28,0,0.439,0
									c-1.411-0.469-6.564-2.75-5.094-3.523c1.318-0.225,4.481,1.834,5.436,2.33c2.17,1.096,3.124,2.217,4.666,3.605
									c0.934,0.879,0.082,2.26,0.872,3.184c0.278,0.32,4.455-1.779,4.67-2.023c-0.061-0.09-0.166-0.688-0.716-1.01
									c0.104,0,0.204,0,0.322,0c-1.707-1.059-1.169-0.484,0.435-1.387c1.989-1.059,2.091,0.348,2.138,1.406
									c0.091,2.133,6.062,2.92,9.013,2.641c1.089-0.113,3.825-1.111,3.682,0.098c-0.181,1.701-1.216,2.734-2.496,4.219
									c-1.072,0.695-3.876-0.322-5.794,0.096c-0.533,0.096-3.661,1.963-3.943,1.568c-0.408-0.58,3.757-1.473,3.007-2.1
									c-0.821-0.707-4.634-0.104-5.933-0.387c-1.34-0.172-2.86-1.012-3.832-0.063c-1.176,1.189-1.573,2.5-4.261,1.598
									c0.147,0,0.31,0,0.456,0c-2.88-0.963-6.736-1.398-9.285-2.566c0.136,0,0.262,0,0.395,0c-1.906-0.9-2.647-0.918-0.088-1.541
									c0.268-1.17-0.926-3.385-4.49-2.322c-2.793,0.834-6.845,0.043-9.991,0.834c-1.183,0.295-1.843,0.533-2.967,0.818
									c-1.732,0.43-4.567,0.104-5.894,0.609c-0.714,0.277-2.02,1.32-2.909,1.32c-2.323,0-2.084,3.098-2.55,3.83
									c-0.736,1.25-4.71,1.131-5.763,2.445c-0.936,1.172-1.114,2.555-2.335,3.674c-1.301,1.162,0.468,2.59,0.651,3.818
									c0.098,0.654-2.681,3.254-2.448,3.48c1.108,1.047,0.039,2.6,2.006,3.258c2.774,0.908,4.022,0.934,5.379,2.672
									c0.439,0.563,5.173,5.434,6.352,3.762c-0.504-1.133,7.652-0.42,9.422-1.633c1.464-0.949,3.52-1.395,5.548-0.529
									c1.924,0.809,1.883,3.479,5.189,1.695c1.349-0.725,3.911,0.887,2.463,1.805c-0.799,0.48-1.836,3.439-0.92,3.867
									c2.583,1.264,5.001,3.477,4.896,5.625c-0.064,0.977,1.747,3.33,0.538,3.959c-0.989,0.506-1.759,1.461-2.004,2.178
									c-0.969,2.725,1.57,5.516,4.343,7.592c1.905,1.406,0.395,2.082,0.101,3.586c-0.233,1.105,2.521,2.314,3.072,3.373
									c0.479,0.955,0.562,1.92,0.892,2.887c0.661,2,3.262,1.09,5.021,0.553c3.712-1.166,7.087-0.111,9.881-2.143
									c1.31-0.943,5.794-3.357,4.895-4.609c-0.086-0.768-1.919-1.268,0.647-1.746c1.822-0.328,2.907-0.357,2.661-1.266
									c-0.519-1.986-1.389-2.924,1.354-4.697c2.312-1.348,5.617-2.471,5.494-4.453c-0.043-0.727-0.666-1.355-0.039-2.139
									c0.557-0.668-1.228-1.813-1.428-2.121c-1.2-1.574-1.716-3.174,0.278-4.605c2.235-1.563,3.758-3.73,6.648-4.982
									c3.638-1.572,4.561-3.088,6.635-5.342c0.707-0.754,2.007-2.285,1.808-3.01c0.563-1.803-2.958-0.693-4.504-0.32
									c-1.3,0.334-2.322,0.816-3.862,0.988c-1.897,0.236-1.879-0.229-2.296-0.668c-0.12-1.168-0.262-1.193-1.168-2.041
									c-1.64-1.566-3.94-3.232-6.342-4.609c-2.243-1.049-1.138-2.354-1.446-3.609c-0.098-1.176-1.323-2.414-1.96-3.348
									c-0.62-0.9-3.1-2.445,0.541-2.199c0.821,0.064,3.652,3.977,3.873,4.568c0.595,1.59,1.659,2.35,3.354,3.531
									c1.873,1.297,1.998,2.955,2.562,4.551c0.655,1.803,3.104,1.902,5.625,0.85c2.093-0.85,4.573-1.09,6.715-1.801
									c0.585-0.574,5.219-1.738,6.436-2.543c1.446-0.961,5.052-3.615,3.257-4.66c-0.71-0.422-2.385-1.006-3.389-1.096
									c-1.062-0.086-0.142-1.072-1.364-1.072c-0.53,0-2.803,1.471-3.385,1.695c-1.654,0.594-1.515-0.533-2.254-1.016
									c0.127,0,0.221,0,0.347,0c-1.398-0.813-6.875-4.609-3.117-5.098c0.876-0.121,1.779,1.686,2.238,2.016
									c0.919,0.639,2.586,1.15,3.779,1.635c1.14,0.461,1.877-0.111,2.934-0.42c0.992-0.295,1.625,0.678,2.068,1.055
									c1.401,1.078,4.031,0.971,6.163,0.971c1.864,0,3.311-0.838,4.701-0.838c0.411,0,4.537,2.332,4.487,2.645
									c-0.222,2.188,2.396,2.137,4.049,0.754c0,3.598,0.914,6.551,4.072,9.697c0.898,0.887,1.422,1.605,1.586,2.617
									c0.23,1.504,0.917,1.184,2.165,0.33c1.549-1.84,3.167-3.305,2.982-5.123c-0.482-2.555,1.581-2.234,4.103-4.092
									c0.628-0.416,2.124-1.361,2.754-1.938c1.327-1.234,2.59-1.002,4.951-1.195c0.496-0.045,1.021-0.322,1.286-0.516
									c1.335-0.941,2.329,1.234,3.085,1.824c1.354,1.035,1.996,1.959,1.801,3.311c-0.042,0.262-0.648,3.006-0.042,3.006
									c2.234,0,1.13-3.383,4.242-3.285c0.907,0.025,0.441,5.285,2.687,6.137c0.273,0.125,1.107-2.877,1.239-2.916
									c2.975-0.689,5.404,4.908,5.919,5.797c0.026,0.047,2.268-2.197,2.385-2.379c0.517-0.703,1.71-0.699,2.865-1.195
									c3.14-1.613,0.946-3.508-0.929-5.121c-1.102-0.891-4.003-2.33-2.016-3.576c6.286-3.965,0.175,2.719,3.526,2.719
									c1.612,0,2.226-1.664,1.679-2.18c-2.222-2.055,5.565-2.008,7.438-2.729c2.336-1.012,5.031-3.016,6.962-4.488
									c1.915-1.658,1.05-3.486-0.774-5.127c0.117,0,0.239,0,0.353,0c-0.531-0.5-1.305-1.125-1.838-1.541
									c0.292-0.451,5.319-1.193,3.254-2.271c-1.059-0.559-3.115,0.42-4.469-0.301c-1.416-0.906-1.167-1.08,0.493-1.592
									c1.014-0.328,2.324-1.572,3.501-1.592c0.287-0.018-2.324,3.184,1.862,1.449c3.59-1.494,1.161,2.355,2.01,2.223
									c1.084-0.188,3.623-0.879,2.358,1.018c-0.382,0.574-1.618,1.174-0.32,1.701c1.186,0.473,2.641-0.027,3.406-0.635
									c0.97-0.676,0.638-1.852,0.248-2.572c-0.711-0.641-0.821-0.932-1.237-1.494c-0.56-0.697,1.128-0.693,1.799-1.055
									c-0.006-0.209,3.293-2.904,3.739-2.477c1.688,1.531,4.133-0.578,5.025-1.117c3.575-2.076,8.192-4.652,6.87-7.68
									c0.984,1.309,0.689,2.75,0.766,4.201c0.021,0.609-0.133,1.402,0.648,1.871c0.409,0.225,1.48,0.498,1.649,0.088
									c-0.833-1.539,1.861-3.176,0.278-4.666c-1.172-1.156-0.56-0.195-0.433-1.494c0.033,0.072,0.229-0.537-0.167-0.809
									c-0.38-0.256-2.483,0.113-2.698,0.391c-0.996-1.541-2.496-0.414-4.324-0.414c-0.888,0-0.365-1.025-0.888-1.025
									c-0.015,0-3.035,0.951-1.773-0.068c1.013-0.814,2.974-0.949,4.277-1.555c1.055-0.496,2.742-2.143,4.353-2.254
									c2.896-0.184,5.815,0.404,8.661-0.211c2.253-0.465,3.501,1.037,5.853,0.609c1.493-0.258,4.06-1.697,5.077-2.363
									c1.191-0.498,3.333-1.631,3.333,0c0,1.521,4.948-0.527,5.974-0.971c-2.864,1.336-6.082,2.439-8.887,3.547
									c-2.174,0.672-4.004,2.203-3.156,3.686c1.237,2.115,0.243,2.756-0.357,4.861c2.376-2.105,5.84-3.922,9.266-5.377
									C457.319,260.324,453.058,256.809,459.342,256.809C462.692,256.809,458.006,256.809,459.342,256.809z M311.872,270.455
									c-1.635,0.535-3.128-0.578-4.424-0.029c-2.897,0.912,0.201,1.453,0.805,2.1c0.676,0.748,3.091,1.258,1.907,2.002
									c-0.798,0.521,0.82,1.994,1.04,2.656c0.689,2.199-6.196,1.535-7.199,0.27c-0.534-0.391-0.618-0.922-0.245-1.494
									c0.035-0.012,2.916-1.055,2.839-1.055c-0.068-0.602-1.23-0.836-2.357-1.023c0.236,0,0.452,0,0.677,0
									c-2.152-0.387-6.389-4.826-2.016-4.568c2.326,0.139,3.045-0.033,4.854-0.93C309.036,267.99,312.692,269.877,311.872,270.455
									C311.224,270.678,312.22,270.195,311.872,270.455z M276.777,273.881c-0.167-1.141,0.945-3.123,3.129-4.09
									c1.905-1.43,3.237,0.463,3.908,1.383c0.618,0.863,3.208-1.246,3.278-1.383c0.257-0.391,2.775-0.785,2.587-0.354
									c-0.108,0.248-1.551,0.576-1.551,0.764c0,0.314,4.837,2.072,5.44,2.291c1.324,0.518,2.029,1.688,0.047,1.879
									c-2.484,0.256-4.081,0.156-6.374-0.49c0.218,0,0.43,0,0.654,0c-1.563-0.498-4.854-0.607-5.665,0.188
									c-0.303,0.289-5.855,0.58-5.709,0.756C276.637,274.527,276.739,274.211,276.777,273.881
									C276.777,273.881,276.739,274.338,276.777,273.881z M282.135,312.313c0.409-1.354,3.714-0.582,1.836,1.213
									C282.295,315.186,281.624,313.002,282.135,312.313C282.192,312.133,282.135,312.313,282.135,312.313z M282.906,256.967
									c-0.958,0.051-3.162-0.299-2.396-1.035C281.181,254.893,284.902,256.707,282.906,256.967
									C282.906,256.967,283.133,256.93,282.906,256.967z"/>
							</g>
						</g>
					</g>
				</g>
			</g>
		</g>
		<g>
			<g>
				<g>
					<g>
						<g>
							<g>
								<path fill="#C0912D" d="M307.938,246.619c1.547,0.371,5.762,1.766,7.185,0.787c1.327-1.035-0.867-0.779-0.92-1.717
									c1.454-1.846,5.974-2.361,9.3-2.389c1.146-0.012,8.285,0.303,7.489-1.701c-1.745-0.725-4.245,0.461-6.388,0.307
									c-2.512-0.182-4.887,0.314-7.412,0.508c-2.052,0.145-4.138,1.553-6.051,2.154
									C311.301,244.521,306.029,246.195,307.938,246.619C308.61,246.789,307.448,246.512,307.938,246.619z"/>
							</g>
						</g>
					</g>
				</g>
			</g>
		</g>
		<g>
			<g>
				<g>
					<g>
						<g>
							<g>
								<path fill="#C0912D" d="M422.367,278.207c-1.522,0.119-2.678,1.176-4.073,1.26c-0.744,0.051-3.353-0.547-3.849-0.117
									c-0.813,0.693-4.006,1.311-3.698,2.16c0.293,0.809,2.32,2.822,3.424,1.088c-0.949-0.832,3.227-0.469,3.976-1.736
									c0.319,1.109,7.846-1.295,8.08-1.992c0.481-1.33-0.15-1.416,1.069-2.426c0.238-0.785-0.467-1.85-1.434-2.563
									c0.118,0,0.223,0,0.364,0C425.089,272.662,423.49,277.992,422.367,278.207C422.074,278.229,422.818,278.131,422.367,278.207
									z"/>
							</g>
						</g>
					</g>
				</g>
			</g>
		</g>
		<g>
			<g>
				<g>
					<g>
						<g>
							<g>
								<path fill="#C0912D" d="M398.956,291.682c2.384-0.109,1.321-2.352,2.12-2.412
									C400.434,288.006,396.671,291.809,398.956,291.682C399.017,291.666,397.698,291.77,398.956,291.682z"/>
							</g>
						</g>
					</g>
				</g>
			</g>
		</g>
		<g>
			<g>
				<g>
					<g>
						<g>
							<g>
								<path fill="#C0912D" d="M391.107,319.924c1.805-0.107-1.723-1.377-2.27-1.457c-1.154-0.225-2.891-0.406-3.887,0.08
									c-0.465-0.645-4.844-0.182-3.778-1.107c-0.397-0.316-0.895-0.283-1.27,0c-2.602,1.219,2.47,1.916,4.035,1.623
									C385.595,318.756,388.629,320.809,391.107,319.924C391.335,319.895,390.591,320.096,391.107,319.924z"/>
							</g>
						</g>
					</g>
				</g>
			</g>
		</g>
		<g>
			<g>
				<g>
					<g>
						<g>
							<g>
								<path fill="#C0912D" d="M397.163,320.74c-0.276,0.756,1.637,0.824,1.93,0.305
									C399.032,320.801,397.552,319.695,397.163,320.74C396.942,321.363,397.388,320.129,397.163,320.74z"/>
							</g>
						</g>
					</g>
				</g>
			</g>
		</g>
		<g>
			<g>
				<g>
					<g>
						<g>
							<g>
								<path fill="#C0912D" d="M397.047,315.615c0.953,0.414,1.652-0.803,2.312-0.732c1.014-0.514,1.075,1.146,1.396,1.426
									c2.165,1.934,2.689-0.279,1.253-1.426c0.146,0,0.271,0,0.405,0c-0.33-0.309-1.979-0.738-1.831-1.135
									c0.627-0.084,2.27,0.104,2.652-0.412c-0.407-0.588-1.894-0.611-3.374-0.436c-1.191,0.137-2.062-0.795-2.308,0.359
									C397.428,313.758,396.148,315.227,397.047,315.615C397.664,315.873,396.148,315.227,397.047,315.615z"/>
							</g>
						</g>
					</g>
				</g>
			</g>
		</g>
		<g>
			<g>
				<g>
					<g>
						<g>
							<g>
								<path fill="#C0912D" d="M410.279,309.939c-1.228-0.35-2.319,2.166-1.885,2.635
									C409.093,313.336,412.077,310.48,410.279,309.939C409.271,309.641,410.541,310.01,410.279,309.939z"/>
							</g>
						</g>
					</g>
				</g>
			</g>
		</g>
		<g>
			<g>
				<g>
					<g>
						<g>
							<g>
								<path fill="#C0912D" d="M392.121,307.537c-2.02,0-5.473,3.404-6.891,2.857c-2.602-1-0.897,2.248-0.518,2.818
									c1.234,1.973,3.143,1.627,5.831,2.17c4.134,0.813,3.235-1.656,4.421-3.07c1.72-1.035,1.552-1.584,1.108-2.563
									c-1.664-2.074,0.974-0.924,0.974-2.453c0,0.008-1.331,0.051-1.543-0.113c0-0.025,0.212-1.662-1.029-1.541
									C391.959,305.594,394.446,307.537,392.121,307.537C389.98,307.537,394.238,307.537,392.121,307.537z"/>
							</g>
						</g>
					</g>
				</g>
			</g>
		</g>
		<g>
			<g>
				<g>
					<g>
						<g>
							<g>
								<path fill="#C0912D" d="M397.726,297.986c0.253,0.336,2.947,1.68,2.458,2.01c-0.056,0.059-2.756,2.037-2.343,2.008
									c2.031-0.072,2.512-1.869,4.065-2.283c1.223-0.316,1.918-0.078,2.532-0.809c-1.209-0.16-4.299-0.123-3.959-0.951
									c-0.085-0.734,2.261-1.156,1.94-1.986c-0.089-0.301-2.28-1.613-2.382-0.818
									C399.907,296.344,396.902,296.859,397.726,297.986C398.405,298.922,397.047,297.041,397.726,297.986z"/>
							</g>
						</g>
					</g>
				</g>
			</g>
		</g>
		<g>
			<g>
				<g>
					<g>
						<g>
							<g>
								<path fill="#C0912D" d="M102.099,242.098c-0.896,0.52-0.273,2.713,0.697,1.775c0.543-0.51,3.172-1.898,4.019-0.602
									c0.746,1.113,4.31-0.268,3.43-1.031C109.519,241.646,102.955,241.584,102.099,242.098
									C102.073,242.117,102.691,241.752,102.099,242.098z"/>
							</g>
						</g>
					</g>
				</g>
			</g>
		</g>
		<g>
			<g>
				<g>
					<g>
						<g>
							<g>
								<path fill="#C0912D" d="M19.142,256.967c-2.927,0.764,2.567,0.932,1.233,0C19.951,256.967,19.566,256.967,19.142,256.967
									C19.018,257.012,19.142,256.967,19.142,256.967z"/>
							</g>
						</g>
					</g>
				</g>
			</g>
		</g>
		<g>
			<g>
				<g>
					<g>
						<g>
							<g>
								<path fill="#C0912D" d="M375.087,240.563h0.215C375.436,240.221,374.874,240.186,375.087,240.563z"/>
							</g>
						</g>
					</g>
				</g>
			</g>
		</g>
		<g>
			<g>
				<g>
					<g>
						<g>
							<g>
								<path fill="#C0912D" d="M110.842,244.682c-0.67-0.275-5.386-0.113-5.993,0.15c-2.384,1.291,2.736,0.961,2.795,1.066
									C109.021,248.867,113.041,245.656,110.842,244.682C110.244,244.43,111.207,244.832,110.842,244.682z"/>
							</g>
						</g>
					</g>
				</g>
			</g>
		</g>
		<g>
			<g>
				<g>
					<g>
						<g>
							<g>
								<path fill="#C0912D" d="M19.088,262.273c-0.691,0.221-0.379,0.859-1.153,1.082c-0.414,0.061-1.596,0.301-1.924,0.521
									c-0.153,0.137,2.869,0.455,3.378-0.086c0.226-0.178,1.046-1.459,0.316-1.619C19.512,262.213,19.3,262.254,19.088,262.273
									C18.608,262.432,19.208,262.172,19.088,262.273z"/>
							</g>
						</g>
					</g>
				</g>
			</g>
		</g>
		<g>
			<g>
				<g>
					<g>
						<g>
							<g>
								<path fill="#C0912D" d="M407.476,304.586c-0.296-0.496-1.124-0.98-1.814-1.322c-0.714,0.67-1.178,1.164-2.561,0.768
									c-1.371-0.377-4.511,1.129-0.759,1.381c1.91,0.125,2.298,2.063,4.344,0.414
									C406.933,305.641,407.527,304.656,407.476,304.586C407.145,304.031,407.476,304.609,407.476,304.586z"/>
							</g>
						</g>
					</g>
				</g>
			</g>
		</g>
		<g>
			<g>
				<g>
					<g>
						<g>
							<g>
								<path fill="#C0912D" d="M432.277,316.461c-0.937-0.539-1.567-1.324-3.03-1.578c0.223,0,0.463,0,0.71,0
									c-2.867-0.883-6.784-2.33-10.233-1.68c-1.263,0.227-5.113-0.545-4.373-0.891c-0.341-0.42-1.018-0.504-1.857,0
									c0.121-0.018-1.171,0.496-1.092,0.744c0.201,0.637,4.495,0.016,3.062,1.16c-3.089,2.426,1.631,0.623,2.239,1.49
									c0.693,0.936,3.317,0.541,4.564,1.434c0.527,0.348,1.122,0.75,1.416,1.182c0.172,0.268-2.166,1.164-1.371,1.254
									c1.055,0.119,2.44-0.432,2.968,0.27c0.464,0.6,1.461,1.719,2.801,1.199c1.199-1.27,3.349-3.154,5.154-0.916
									c1.602,1.957,7.39,2.533,3.79-0.121c0.138,0,0.244,0,0.368,0c-1.13-0.996-2.633-1.486-3.54-2.568c0.132,0,0.271,0,0.407,0
									C434.09,316.932,432.813,316.795,432.277,316.461C432.049,316.357,432.905,316.834,432.277,316.461z"/>
							</g>
						</g>
					</g>
				</g>
			</g>
		</g>
		<g>
			<g>
				<g>
					<g>
						<g>
							<g>
								<path fill="#C0912D" d="M443.851,338.975c-0.747-1.641-1.69-3.17-3.057-4.629c-1.528-1.719-0.675-3.559-4.589-4.082
									c0.231,0,0.495,0,0.755,0c-4.014-0.529-3.672-2.523-5.005-4.104c-0.395-0.428-4.901-4.174-4.066-4.57
									c-1.424,0.65,0.125,8.055-3.646,6.123c0.124,0,0.244,0,0.354,0c-2.788-1.402-5.746-1.229-4.259-3.367
									c0.528-0.738,0.407-1.332-1.354-1.313c-2.261,0.039-1.902,0.123-3.79-0.459c0.18,0,0.374,0,0.579,0
									c-1.27-0.689-1.453,0.752-1.453,1.189c-0.161-0.104-2.112-1.209-2.079-1.209c0.081-0.053-1.277,1.98-1.344,2.104
									c-0.762,1.486-1.788,0.686-2.526,0.133c-1.254-0.977-2.834,0.188-3.327,0.898c-1.045,1.531-1.667,0.658-4.069,0.67
									c-2.794,0.035,1.032,3.359-1.758,3.563c-2.781,0.191-5.668,0.652-7.882,1.738c-1.361,0.672-3.031,1.393-3.387,2.482
									c-0.112,0.406,2.604,1.76,2.374,1.832c-2.613,0.707,3.724,4.809,3.157,5.732c-0.637,1.051-3.181,1.123-1.323,2.402
									c1.491,1.08,3.601,0.643,5.355-0.016c2.396-0.604,4.01,0.125,6.26,0.068c-0.12-0.91,0.48-2.988,3.09-2.764
									c1.838,0.164,5.22-1.367,6.669-0.701c2.374,1.064,4.431,1.064,3.823,3.115c-0.254,0.893,4.153-1.484,4.34-1.463
									c0.227,0.191-0.314,1.711,0.437,1.633c0.346-0.051,0.495-0.549,0.771-0.549c-0.281,0,2.088,1.99,2.088,2.01
									c0,2.123,1.965,0.783,3.256,2.322c0.839,0.992,2.403-1.146,4.265,0.156c0.396,0.277,4.083-1.256,4.861-1.256
									c1.246-1.176,1.583-2.496,3.127-3.592C441.974,342.139,445.907,340.268,443.851,338.975
									C443.711,338.658,443.851,338.975,443.851,338.975z"/>
							</g>
						</g>
					</g>
				</g>
			</g>
		</g>
		<g>
			<g>
				<g>
					<g>
						<g>
							<g>
								<path fill="#C0912D" d="M427.791,270.709c-0.791,0.145-1.326,0.771-1.326,1.246c0,0.082-2.098,0.785-2.186,0.84
									c-1.163,0.844,8.847,0.805,8.916-0.439c-0.968-0.842-2.95-0.459-4.02-1.045c0.104,0,0.223,0,0.352,0
									C429.104,270.957,428.526,270.77,427.791,270.709C427.729,270.715,428.46,270.604,427.791,270.709z"/>
							</g>
						</g>
					</g>
				</g>
			</g>
		</g>
		<g>
			<g>
				<g>
					<g>
						<g>
							<g>
								<path fill="#C0912D" d="M436.006,349.24c-1.398-0.162-1.916,1-3.546,0.641c-1.289-0.281-2.347,0.088-0.908,0.828
									c1.181,0.6,0.274,1.799,2.76,1.098C435.456,351.494,436.331,349.746,436.006,349.24
									C435.72,349.203,436.006,349.24,436.006,349.24z"/>
							</g>
						</g>
					</g>
				</g>
			</g>
		</g>
		<g>
			<g>
				<g>
					<g>
						<g>
							<g>
								<path fill="#C0912D" d="M401.641,301.551c-4.228,1.01,5.254,3.035,1.527,0.518c0.133,0,0.22,0,0.34,0
									C403.069,301.648,402.447,301.48,401.641,301.551C401.591,301.551,402.331,301.375,401.641,301.551z"/>
							</g>
						</g>
					</g>
				</g>
			</g>
		</g>
		<g>
			<g>
				<g>
					<g>
						<g>
							<g>
								<path fill="#C0912D" d="M405.377,300.537c-0.894-0.146-1.659,1.064-0.886,1.395
									C406.194,302.633,407.86,300.455,405.377,300.537C405.274,300.521,405.377,300.537,405.377,300.537z"/>
							</g>
						</g>
					</g>
				</g>
			</g>
		</g>
		<g>
			<g>
				<g>
					<g>
						<g>
							<g>
								<path fill="#C0912D" d="M474.982,346.666c-0.458-0.291-1.348,0.141-2.063-0.141c-1.401-0.537-1.226-0.963-1.773-1.84
									c0.286,0.451-1.448-1.277-1.448-0.576c-0.931,0.256,0.789,2.076,0.875,2.539c0.103,0.748-2.719,1.662-0.086,1.77
									c2.387,0.121-0.093,1.715,1.637,1.422C473.209,349.84,475.854,346.979,474.982,346.666
									C474.877,346.588,474.982,346.666,474.982,346.666z"/>
							</g>
						</g>
					</g>
				</g>
			</g>
		</g>
		<g>
			<g>
				<g>
					<g>
						<g>
							<g>
								<path fill="#C0912D" d="M460.673,332.238c0.224-0.807-2.328-1.393-3.412-1.25
									C456.872,331.035,460.178,333.924,460.673,332.238C460.754,331.951,460.604,332.473,460.673,332.238z"/>
							</g>
						</g>
					</g>
				</g>
			</g>
		</g>
		<g>
			<g>
				<g>
					<g>
						<g>
							<g>
								<path fill="#C0912D" d="M477.953,326.727c-1.051-0.242-2.817,1.324-3.254,1.713
									C476.14,328.805,478.725,326.9,477.953,326.727C477.716,326.668,478.438,326.822,477.953,326.727z"/>
							</g>
						</g>
					</g>
				</g>
			</g>
		</g>
		<g>
			<g>
				<g>
					<g>
						<g>
							<g>
								<path fill="#C0912D" d="M469.138,349.24c-0.728-0.387-4.687,2.242-5.391,2.5c-1.055,0.422-3.956,1.336-3.601,2.33
									c0.222,0.66,3.257,1.039,4.054,0.666C465.777,354.445,473.144,349.637,469.138,349.24
									C468.891,349.119,469.138,349.24,469.138,349.24z"/>
							</g>
						</g>
					</g>
				</g>
			</g>
		</g>
		<g>
			<g>
				<g>
					<g>
						<g>
							<g>
								<path fill="#C0912D" d="M379.539,317.439c0.317-0.486,0.758-2.158,0.758-2.557c1.069-1.156-1.979-1.785-3.313-2.57
									c0.123,0,0.262,0,0.38,0c-1.572-0.984-3.482-1.545-4.959-2.563c0.123,0,0.221,0,0.341,0
									c-1.243-0.924-3.535-2.074-5.389-2.566c0.179,0,0.363,0,0.548,0c-3.228-1.041-1.983,0.631-0.557,1.412
									c1.417,0.814,4.229,2.16,4.229,3.381c0,0.898,0.326,3.525,1.964,3.945C374.817,316.279,378.928,317.729,379.539,317.439
									C379.594,317.35,379.539,317.439,379.539,317.439z"/>
							</g>
						</g>
					</g>
				</g>
			</g>
		</g>
		<g>
			<g>
				<g>
					<g>
						<g>
							<g>
								<path fill="#C0912D" d="M146.979,293.707c-2.222-0.387-3.972,0.541-5.365,1.393c1.479,0.082,10.423,1.674,6.783-0.73
									c0.125,0,0.231,0,0.358,0C148.265,294.051,147.693,293.824,146.979,293.707
									C146.074,293.555,147.522,293.807,146.979,293.707z"/>
							</g>
						</g>
					</g>
				</g>
			</g>
		</g>
		<g>
			<g>
				<g>
					<g>
						<g>
							<g>
								<path fill="#C0912D" d="M137.05,295.631c-1.115,0.148-0.803,1.535,0.405,1.268
									C138.802,296.617,138.251,295.242,137.05,295.631C137.044,295.646,137.115,295.611,137.05,295.631z"/>
							</g>
						</g>
					</g>
				</g>
			</g>
		</g>
		<g>
			<g>
				<g>
					<g>
						<g>
							<g>
								<path fill="#C0912D" d="M129.669,254.514c-0.228,0.107-0.425,0.178-0.633,0.258c-0.283,0.199,1.394,0.598,1.648,0.236
									C131.463,254.789,130.256,254.363,129.669,254.514C129.439,254.539,130.362,254.326,129.669,254.514z"/>
							</g>
						</g>
					</g>
				</g>
			</g>
		</g>
		<g>
			<g>
				<g>
					<g>
						<g>
							<g>
								<path fill="#C0912D" d="M133.397,255.25c-1.248,0.221,0.054,0.836,0.717,0.529
									C135.143,255.656,134.455,254.859,133.397,255.25C133.397,255.25,133.466,255.219,133.397,255.25z"/>
							</g>
						</g>
					</g>
				</g>
			</g>
		</g>
		<g>
			<g>
				<g>
					<g>
						<g>
							<g>
								<path fill="#C0912D" d="M204.612,246.717c-1.777-0.855-1.456-2.873,1.808-2.195c3.239,0.68,1.944-1.635,3.442-2.922
									c-4.5-0.725,1.059-3.77,3.179-4.73c1.196-0.518,4.985-1.77,1.956-2.33c-3.988-0.783-3.801,1.234-6.931,1.709
									c-4.982,0.727-2.815-5.574-6.913-5.145c-1.802,0.195-3.279,0-5.051,0.473c-1.086,0.311-2.358,0-3.539,0.295
									c-2.021,0.514-4.348,0.424-6.46,0.057c1.168,0.068,9.639-0.168,9.85-0.967c0.115-0.438-3.068-0.611-3.39-0.672
									c0.249,0,0.492,0,0.763,0c-4.155-0.531-8.72-0.486-12.935,0c0.239,0,0.455,0,0.688,0c-0.719,0.061-5.677,0.896-6.187,1.346
									c-0.73,0.168-1.171,1.15-1.573,1.531c-0.871,0.791-1.518-0.336-1.24-0.291c-1.405-1.631-1.883,0.383-2.072,1.092
									c-0.424,1.924-3.877,0.662-5.635,0.525c-0.787-0.064-8.918,0.271-7.767,1.416c0.821,0.846-2.061,0.537-2.695,0.715
									c-0.589,0.131-1.629,0.492-1.548,0.934c0.296,1.354-1.217,0.914-2.545,1.254c-1.255,0.299-0.91,1.096-2.327,1.393
									c-1.183,0.27-2.394,0.123-3.551,0.359c0.179,0,0.346,0,0.524,0c-0.437-0.012-0.822,0.08-1.114,0.252
									c0.22-0.459,4.619,1.938,4.975,2.037c1.828,0.512,2.385-1.217,2.45-1.715c-0.25,2.035,6.524,0.992,8.912,1.811
									c2.531,0.896,3.842,0.787,4.258,2.68c0.178,0.945,0.05,2.672,1.922,1.09c1.552-0.418,2.442-0.566,3.75,0.982
									c1.195,1.385-1.659,1.361-1.217,0.563c-0.489-0.58,1.255-1.416-1.37-1.305c-1.133,0.033-1.845,0.82-1.85,1.408
									c-0.03,1.041,2.239,0.641,2.239,1.014c0,0.988-1.405,0.939-0.564,2.166c0.585,0.875,1.15,1.252,2.817,1.465
									c-1.059-0.158-0.271,0.873-0.212,0.959c0.876,1.039,2.719,1.367,4.013,2.207c0.807,0.521,2.748-0.064,2.832,0.086
									c0.491,0.875,1.037,1.252,2.629,0.705c0.185-0.125,1.208-0.881,1.315-1.035c-0.013-0.469,0.072-0.936,0.286-1.418
									c0.799-0.291,1.923,0.268,1.783-0.682c-0.212-1.633,3.004-2.145,5.737-2.031c2.881,0.137,2.342-2.008,5.693-1.881
									c2.403,0.088,4.059-0.41,6.237-0.914c1.068-0.246,3.143,0.254,1.739-0.744c0.108,0,0.237,0,0.335,0
									c0.096,0.037-4.306-2.254-2.873-2.254c1.826,0,2.328,0.924,2.824,1.674C202.767,248.838,205.584,247.793,204.612,246.717
									C204.612,246.717,204.674,246.777,204.612,246.717z"/>
							</g>
						</g>
					</g>
				</g>
			</g>
		</g>
		<g>
			<g>
				<g>
					<g>
						<g>
							<g>
								<path fill="#C0912D" d="M22.197,250.82C22.777,250.744,22.411,250.795,22.197,250.82L22.197,250.82z"/>
							</g>
						</g>
					</g>
				</g>
			</g>
		</g>
		<g>
			<g>
				<g>
					<g>
						<g>
							<g>
								<path fill="#C0912D" d="M373.012,304.586c-0.233-0.262-2.142-1.861-2.789-1.715c-2.579,0.227,0.703,2.119,0.986,2.395
									c1.164,1.26,1.536,2.826,2.612,4.145c0.389,0.471,3.851,2.664,4.54,1.369c-1.255-0.77-1.737-2.406-2.702-3.596
									C375.38,306.822,373.271,304.957,373.012,304.586C372.625,304.176,373.017,304.609,373.012,304.586z"/>
							</g>
						</g>
					</g>
				</g>
			</g>
		</g>
		<g>
			<g>
				<g>
					<g>
						<g>
							<g>
								<path fill="#C0912D" d="M405.102,319.42c-2.001,1.162-2.792,2.35,0.063,1.625c0.583-0.289,2.214-0.352,2.214-0.916
									C407.378,319.936,406.142,318.467,405.102,319.42C405.102,319.42,405.771,318.814,405.102,319.42z"/>
							</g>
						</g>
					</g>
				</g>
			</g>
		</g>
		<g>
			<g>
				<g>
					<g>
						<g>
							<g>
								<path fill="#C0912D" d="M305.963,323.602c-1.936-1.047-2.618,0.873-3.521,1.574c-1.065,0.789-4.768,1.646-5.062,2.564
									c-0.25,0.709,0.699,1.514,0.666,2.277c-0.039,0.869-1.096,1.355-0.768,2.25c0.318,0.939,0.089,2.598,1.643,3.113
									C303.748,336.568,307.752,325.469,305.963,323.602C305.963,323.602,306.332,323.98,305.963,323.602z"/>
							</g>
						</g>
					</g>
				</g>
			</g>
		</g>
		<g>
			<g>
				<g>
					<g>
						<g>
							<g>
								<path fill="#C0912D" d="M405.475,310.779c-0.835-0.051-6.335,0.131-6.458,0.266c-0.836-0.104-0.553,0.74-0.147,0.881
									c0.718,0.273,2.15,0.023,2.906-0.033C403.059,311.799,405.306,311.877,405.475,310.779
									C405.475,310.779,405.437,310.986,405.475,310.779z"/>
							</g>
						</g>
					</g>
				</g>
			</g>
		</g>
	</g>
	<rect x="77.324" y="62.547" fill="#FFCE09" width="1.593" height="196.953"/>
	<rect x="142.524" y="104.102" fill="#BE1B88" width="1.593" height="158.898"/>
	<rect x="437.674" y="128.639" fill="#3873B8" width="1.594" height="121.861"/>
	<rect x="369.396" y="88.611" fill="#BBD432" width="1.594" height="158.389"/>
	<rect x="197.634" y="61.269" fill="#3FB8EA" width="1.593" height="172.581"/>
	<rect x="263.809" y="155.98" fill="#7E3E1C" width="1.594" height="159.02"/>
	<circle fill="#FFCE09" cx="79.714" cy="37.85" r="35.85"/>
	<circle fill="#BE1B88" cx="143.511" cy="91.131" r="31.643"/>
	<circle fill="#FFFFFF" cx="143.511" cy="91.131" r="28.138"/>
	<circle fill="#3873B8" cx="438.662" cy="131.093" r="26.035"/>
	<circle fill="#FFFFFF" cx="438.662" cy="131.093" r="23.932"/>
	<circle fill="#3FB8EA" cx="198.896" cy="46.964" r="26.035"/>
	<circle fill="#FFFFFF" cx="198.896" cy="46.964" r="23.23"/>
	<circle fill="#BBD432" cx="370.681" cy="76.408" r="35.851"/>
	<circle fill="#FFFFFF" cx="370.681" cy="76.408" r="33.046"/>
	<circle fill="#7E3E1C" cx="265.498" cy="144.413" r="35.85"/>
	<circle fill="#FFFFFF" cx="265.498" cy="144.413" r="32.345"/>
	<g>
		<path fill="#FFCE09" d="M77.654,80.966l0.127-7.361l-5.726-0.818C72.056,72.787,76.763,75.825,77.654,80.966z"/>
		<path fill="#FFCE09" d="M78.716,73.605l0.127,7.361c0.891-5.142,5.598-8.179,5.598-8.179L78.716,73.605z"/>
	</g>
	<g>
		<path fill="#BE1B88" d="M142.853,129.574l0.127-7.361l-5.726-0.818C137.255,121.395,141.962,124.433,142.853,129.574z"/>
		<path fill="#BE1B88" d="M143.915,122.212l0.127,7.361c0.891-5.141,5.598-8.179,5.598-8.179L143.915,122.212z"/>
	</g>
	<g>
		<path fill="#7E3E1C" d="M263.788,187.412l0.127-7.361l-5.726-0.817C258.189,179.233,262.897,182.271,263.788,187.412z"/>
		<path fill="#7E3E1C" d="M264.85,180.05l0.128,7.361c0.891-5.141,5.598-8.179,5.598-8.179L264.85,180.05z"/>
	</g>
	<g>
		<path fill="#BBD432" d="M369.649,118.707l0.127-7.361l-5.725-0.817C364.052,110.528,368.759,113.566,369.649,118.707z"/>
		<path fill="#BBD432" d="M370.711,111.346l0.128,7.361c0.891-5.141,5.598-8.179,5.598-8.179L370.711,111.346z"/>
	</g>
	<g>
		<path fill="#3873B8" d="M437.887,164.043l0.128-7.361l-5.726-0.818C432.289,155.864,436.996,158.901,437.887,164.043z"/>
		<path fill="#3873B8" d="M438.949,156.682l0.127,7.361c0.891-5.142,5.598-8.179,5.598-8.179L438.949,156.682z"/>
	</g>
	<g>
		<path fill="#3FB8EA" d="M198.004,80.031l0.127-7.361l-5.725-0.817C192.406,71.853,197.113,74.89,198.004,80.031z"/>
		<path fill="#3FB8EA" d="M199.066,72.67l0.127,7.361c0.891-5.141,5.598-8.179,5.598-8.179L199.066,72.67z"/>
	</g>
	<ellipse fill="#FFCE09" cx="78.073" cy="259.563" rx="5.083" ry="1.928"/>
	<ellipse fill="#BE1B88" cx="143.273" cy="263.418" rx="5.083" ry="1.928"/>
	<ellipse fill="#BBD432" cx="370.27" cy="247.498" rx="5.083" ry="1.928"/>
	<ellipse fill="#3873B8" cx="438.62" cy="249.602" rx="5.083" ry="1.928"/>
	<ellipse fill="#3FB8EA" cx="198.165" cy="233.828" rx="5.083" ry="1.928"/>
	<ellipse fill="#7E3E1C" cx="264.558" cy="314.947" rx="5.083" ry="1.928"/>
	<rect x="338.823" y="177.713" fill="#EE2C28" width="1.594" height="112.287"/>
	<circle fill="#EE2C28" cx="340.512" cy="150.021" r="28.138"/>
	<circle fill="#FFFFFF" cx="340.512" cy="150.021" r="25.387"/>
	<g>
		<path fill="#EE2C28" d="M338.803,184.608l0.127-7.361l-5.726-0.818C333.204,176.428,337.912,179.466,338.803,184.608z"/>
		<path fill="#EE2C28" d="M339.864,177.247l0.127,7.361c0.891-5.142,5.599-8.18,5.599-8.18L339.864,177.247z"/>
	</g>
	<ellipse fill="#EE2C28" cx="339.397" cy="290.234" rx="5.083" ry="1.928"/>
	<circle fill="#FFFFFF" cx="79.364" cy="37.149" r="31.644"/>
	<g>
		<path fill="#8D6839" d="M149.781,99.946c-0.723,0-1.187-0.98-1.483-2.433c-0.033-0.158-0.064-0.322-0.089-0.498v-0.008
			c-0.065-0.391-0.113-0.808-0.162-1.249c-0.024-0.249-0.047-0.506-0.072-0.764c-0.104-1.285-0.135-2.672-0.135-3.995
			c0,0-1.548,0.151-2.794,0.151h-0.021l0,0c-1.244,0-2.786-0.152-2.786-0.152c0,1.33-0.03,2.735-0.139,4.029
			c-0.023,0.265-0.048,0.522-0.07,0.774c-0.041,0.429-0.095,0.838-0.16,1.221c-0.033,0.233-0.072,0.451-0.12,0.662
			c-0.298,1.363-0.748,2.26-1.444,2.26c0,0-7.009,0.842-7.009,12.131c0,0,0.098,0.04,0.285,0.123h11.442l0,0h11.49
			c0.167-0.083,0.272-0.123,0.272-0.123C156.786,100.788,149.781,99.946,149.781,99.946z"/>
		<path fill="#554222" d="M148.208,97.007v0.009c-0.283,0.449-1.253,1.726-3.17,1.726h-0.014c-1.822-0.008-2.882-1.331-3.154-1.718
			c0.064-0.383,0.12-0.792,0.16-1.221c0.023-0.252,0.047-0.509,0.07-0.775c0.892,0.224,1.854,0.36,2.891,0.375h0.034
			c1.057-0.016,2.036-0.16,2.951-0.409c0.024,0.257,0.047,0.515,0.072,0.764C148.096,96.2,148.143,96.616,148.208,97.007"/>
		<path fill="#C58B8E" d="M156.804,112.082c0,0-0.105,0.041-0.276,0.123h-22.957c-0.185-0.083-0.283-0.123-0.283-0.123
			c0-8.602,4.072-11.135,6.009-11.857c1.261,1.388,3.759,3.298,5.688,3.392h0.039h0.007h0.008c0.009,0,0.025,0.008,0.041,0
			c1.938-0.094,4.436-2.012,5.7-3.4C152.705,100.93,156.804,103.457,156.804,112.082"/>
		<path fill="#FFFFFF" d="M138.217,100.726c1.495,1.65,4.465,3.915,6.749,4.03h0.049h0.009h0.009c0.011,0,0.032,0.007,0.047,0
			c2.294-0.115,5.253-2.38,6.754-4.03c-0.398-0.224-0.769-0.395-1.081-0.509c-1.261,1.388-3.758,3.306-5.694,3.4
			c-0.016,0.008-0.035,0-0.04,0h-0.009h-0.007h-0.041c-1.927-0.094-4.425-2.004-5.686-3.392
			C138.968,100.339,138.605,100.505,138.217,100.726"/>
		<path fill="#4E4C49" d="M138.08,76.286c0,0-0.146,4.02-0.888,5.294c-0.739,1.269-0.351,2.22-5.066,3.444
			c-2.91,0.755-7.671,0.151-9.303-4.115c-0.431-1.121-1.672-3.673,3.196-3.987C130.888,76.604,138.08,76.286,138.08,76.286"/>
		<path fill="#554222" d="M144.855,67.012c-12.115,0-12.186,10.146-11.648,16.788c-0.832-1.575-3.289-1.089-3.089,1.392
			c0.197,2.388,3.67,3.62,3.62,3.343c0.994,5.465,6.7,8.621,11.118,8.621h0.095V67.012H144.855"/>
		<path fill="#342A18" d="M130.894,84.143c0.599-0.959,1.522-0.546,1.75-0.334c0.24,0.229,0.434,0.535,0.283,1.101
			c-0.084,0.319-0.419,0.339-0.339,0.826c0.092,0.542,0.343,0.58,0.487,0.702c0.141,0.123,0.319,0.222,0.409,0.449
			c0.086,0.229,0.1,0.473,0.053,0.681c-0.091,0.393-0.662,0.082-1.046-0.088c-0.251-0.12-1.05-0.792-1.255-1.021
			C130.728,85.88,130.494,84.779,130.894,84.143"/>
		<path fill="#554222" d="M144.918,67.012c12.119,0,12.187,10.146,11.65,16.788c0.831-1.575,3.291-1.089,3.087,1.392
			c-0.195,2.388-3.668,3.62-3.62,3.343c-0.994,5.465-6.696,8.621-11.118,8.621h-0.092V67.012H144.918"/>
		<path fill="#342A18" d="M158.884,84.143c-0.599-0.959-1.523-0.546-1.753-0.334c-0.24,0.229-0.429,0.535-0.283,1.101
			c0.084,0.319,0.421,0.339,0.341,0.826c-0.09,0.542-0.345,0.58-0.487,0.702c-0.142,0.123-0.321,0.222-0.41,0.449
			c-0.083,0.229-0.101,0.473-0.051,0.681c0.089,0.393,0.66,0.082,1.045-0.088c0.25-0.12,1.049-0.792,1.255-1.021
			C159.05,85.88,159.282,84.779,158.884,84.143"/>
		<path fill="#8D6839" d="M153.609,73.322c-1.753-2.273-4.639-3.429-8.565-3.448h-0.089c-3.992,0-6.905,1.154-8.676,3.445
			c-2.466,3.191-2.372,8.068-1.46,11.566c0.275,1.074,0.419,3.956,0.611,5.016c0.862,4.736,6.085,7.254,9.526,7.254
			c0.028,0,0.061-0.004,0.089-0.004c3.93-0.041,8.625-2.804,9.433-7.25c0.189-1.061,0.334-3.942,0.614-5.016
			C155.994,81.396,156.086,76.526,153.609,73.322z"/>
		<path fill="#ED1C24" d="M133.336,75.662c0,0,0.423-6.939,2.645-7.649c2.223-0.712,6.577-2.218,10.051-1.404
			c3.647,0.848,10.067,1.901,10.795,7.992c0.354,2.975-0.26,9.199-0.26,9.199s-0.056-3.061-2.383-4.967
			c-2.331-1.903-4.977-4.114-9.528-3.804C140.109,75.343,133.336,75.662,133.336,75.662"/>
		<path fill="#ED1C24" d="M133.385,75.085c-1.271,0.627-1.365,0.731-2.431,0.894c-2.322,0.363-4.707,0.833-6.292,0.788
			c-1.588-0.049-2.215,0.057-2.326,1.539c-0.109,1.482,0,0.632,0,0.632s-0.109-0.845,1.476-1.162
			c1.589-0.319,5.613,1.725,11.009,1.304c5.394-0.422,12.533-3.921,12.533-3.921s-3.117-1.02-5.447-1.105
			C139.577,73.967,133.385,75.085,133.385,75.085"/>
	</g>
	<g>
		<polygon fill="#EDD9B4" points="358.021,98.924 358.563,102.93 382.707,102.93 383.465,98.708 		"/>
		<path fill="#BC9F82" d="M364.95,82.792c0,0,2.707,4.006,2.599,7.47c0,0,4.006,2.274,6.604-0.216c0,0-0.216-4.872,1.732-7.362
			C375.886,82.684,371.879,86.798,364.95,82.792z"/>
		<path fill="#13150E" d="M371.539,94.6v0.146c-0.022,2.43-0.04,6.937-0.044,8.309h-11.014l-0.241-2.883
			c0,0-1.412-0.093-2.172-0.127c-0.035,0-0.106-0.144-0.175-0.379c-0.023-0.062-0.044-0.136-0.063-0.226
			c-0.366-1.382-0.802-4.875,0.831-7.424c0.539-0.84,2.288-1.285,2.288-1.285s1.051-0.742,2.981-0.902
			c1.106-0.085,1.579-0.093,1.867-0.252c0.071-0.032,0.12-0.076,0.175-0.138c0.096-0.098,0.165-0.236,0.263-0.422
			c0.243-0.498,0.407-1.063,0.537-1.485c0.037-0.111,0.064-0.218,0.1-0.311v-0.013c0.061-0.183,0.114-0.294,0.164-0.294h0.134
			l-0.047,0.227c0.219,0.262,0.377,0.75,1.362,1.265c0.99,0.525,1.32,0.462,1.752,1.311c0.278,0.561,0.388,1.729,0.427,2.569
			c0.009,0.191,0.017,0.364,0.017,0.515c0.01,0.094,0.01,0.174,0.01,0.245c0,0.059-0.01,0.102-0.01,0.138
			c0,0.08,0.769,0.56,0.849,1.284C371.539,94.511,371.539,94.555,371.539,94.6"/>
		<path fill="#13150E" d="M383.245,100.044c-0.758,0.031-2.179,0.126-2.179,0.126l-0.233,2.884h-11.01
			c-0.007-1.163-0.017-4.571-0.034-7.06v-0.271c0-0.409-0.009-0.795-0.009-1.124c-0.01-0.794,0.856-1.328,0.856-1.417
			c-0.01-0.129-0.01-0.472,0.012-0.897c0.036-0.84,0.153-2.008,0.433-2.569c0.426-0.849,0.761-0.786,1.746-1.311
			c0.985-0.515,1.144-1.003,1.36-1.265l-0.046-0.227h0.133c0.157,0,0.354,1.169,0.803,2.102c0.097,0.187,0.176,0.325,0.265,0.422
			c0.05,0.062,0.099,0.102,0.165,0.138c0.285,0.159,0.76,0.167,1.875,0.252c1.93,0.16,2.975,0.902,2.975,0.902
			s1.757,0.444,2.296,1.285C384.724,95.252,383.462,100.021,383.245,100.044"/>
		<path fill="#E6B821" d="M360.157,99.577l-0.017,0.217l-2.289-0.129c-0.023-0.062-0.041-0.136-0.06-0.226L360.157,99.577z"/>
		<path fill="#E6B821" d="M381.154,99.577l0.016,0.217l2.288-0.129c0.028-0.062,0.042-0.136,0.062-0.226L381.154,99.577z"/>
		<path fill="#E6B821" d="M370.273,92.369v0.24l-0.125-0.022c-0.607-0.092-3.282-1.097-4.392-3.012
			c0.071-0.031,0.125-0.075,0.176-0.137c0.952,1.675,3.282,2.714,4.121,2.909c0-0.812,0-1.817-0.368-2.584
			c-0.137-0.281-0.725-0.562-1.25-0.814c-0.386-0.183-0.749-0.351-0.993-0.543c-0.288-0.216-0.536-0.533-0.707-0.875
			c0.034-0.111,0.062-0.218,0.097-0.311c0.141,0.382,0.417,0.76,0.745,1.013c0.226,0.173,0.598,0.347,0.959,0.524
			c0.601,0.286,1.176,0.556,1.355,0.916C370.273,90.485,370.273,91.535,370.273,92.369"/>
		<path fill="#E6B821" d="M371.081,92.369v0.24l0.12-0.022c0.613-0.092,3.284-1.097,4.393-3.012
			c-0.069-0.031-0.118-0.075-0.172-0.137c-0.956,1.675-3.282,2.714-4.121,2.909c0-0.812,0-1.817,0.366-2.584
			c0.14-0.281,0.728-0.562,1.25-0.814c0.381-0.183,0.75-0.351,0.996-0.543c0.286-0.216,0.542-0.533,0.704-0.875
			c-0.034-0.111-0.063-0.218-0.095-0.311c-0.14,0.382-0.419,0.76-0.745,1.013c-0.226,0.173-0.6,0.347-0.958,0.524
			c-0.607,0.286-1.179,0.556-1.356,0.916C371.081,90.485,371.081,91.535,371.081,92.369"/>
		<path fill="#E6B821" d="M370.606,92.875c-0.574,0-1.046-0.235-1.293-0.445l0.552-0.674c0.076,0.062,0.757,0.568,1.604-0.075
			l0.53,0.692C371.517,92.743,371.031,92.875,370.606,92.875"/>
		<path fill="#E6B821" d="M371.842,92.369c-0.372,0.218-0.761,0.44-1.151,0.676c-3.591,2.115-7.916,4.963-9.383,9.153
			c-0.105,0.289-0.174,0.57-0.234,0.857h-0.219c0.062-0.305,0.141-0.621,0.242-0.929c1.507-4.305,5.94-7.188,9.585-9.326
			c0.354-0.213,0.714-0.409,1.053-0.612L371.842,92.369z"/>
		<path fill="#CCAE8B" d="M370.648,55.521c-12.999-0.021-13.071,10.425-12.494,17.235c-0.891-1.599-3.529-1.003-3.313,1.556
			c0.212,2.453,3.935,3.563,3.883,3.292c1.062,5.549,7.188,8.632,11.924,9.072h0.101V55.526
			C370.719,55.526,370.685,55.521,370.648,55.521"/>
		<path fill="#BC9F82" d="M355.495,73.233c0.653-0.991,1.656-0.565,1.908-0.348c0.261,0.237,0.469,0.552,0.306,1.137
			c-0.091,0.329-0.456,0.351-0.369,0.854c0.101,0.564,0.374,0.6,0.532,0.729c0.152,0.125,0.347,0.222,0.445,0.462
			c0.094,0.234,0.109,0.489,0.057,0.707c-0.099,0.404-0.723,0.083-1.137-0.099c-0.272-0.116-1.145-0.818-1.365-1.053
			C355.315,75.032,355.063,73.89,355.495,73.233"/>
		<path fill="#D9BF9F" d="M370.719,55.521c12.996-0.021,13.069,10.425,12.491,17.235c0.896-1.599,3.524-1.003,3.31,1.556
			c-0.206,2.453-3.933,3.563-3.878,3.292c-1.063,5.549-7.189,8.632-11.923,9.072h-0.104V55.526
			C370.648,55.526,370.685,55.521,370.719,55.521"/>
		<path fill="#BC9F82" d="M385.962,73.233c-0.653-0.991-1.658-0.565-1.903-0.348c-0.263,0.237-0.47,0.552-0.31,1.137
			c0.091,0.329,0.459,0.351,0.368,0.854c-0.101,0.564-0.376,0.6-0.528,0.729c-0.157,0.125-0.348,0.222-0.446,0.462
			c-0.093,0.234-0.107,0.489-0.055,0.707c0.095,0.404,0.718,0.083,1.136-0.099c0.271-0.116,1.146-0.818,1.364-1.053
			C386.141,75.032,386.395,73.89,385.962,73.233"/>
		<g>
			<path fill="#EDD9B4" d="M361.142,62.041c-2.685,3.302-2.584,8.344-1.593,11.961c0.301,1.105,0.461,4.088,0.668,5.18
				c0.936,4.896,6.623,7.5,10.366,7.5c0.031,0,0.065-0.005,0.099-0.005V58.485c-0.033,0-0.063-0.003-0.099-0.003
				C366.24,58.481,363.067,59.677,361.142,62.041z"/>
			<path fill="#EDD9B4" d="M380.001,62.045c-1.91-2.346-5.045-3.541-9.316-3.56v28.192c4.275-0.044,9.385-2.896,10.264-7.495
				c0.21-1.093,0.359-4.075,0.668-5.181C382.604,70.393,382.698,65.359,380.001,62.045z"/>
		</g>
		<path fill="#B47070" d="M372.869,82.261c0,0-0.979,1.048-2.191,1.048c-1.209,0-2.133-1.025-2.133-1.025s0.924-0.161,2.133-0.161
			C371.891,82.123,372.869,82.261,372.869,82.261"/>
		<path fill="#C07874" d="M371.301,81.777c-0.346,0-0.616,0.208-0.623,0.476c-0.004-0.267-0.275-0.476-0.616-0.476
			c-0.345,0-1.576,0.485-1.576,0.485s1.201,0.124,1.54,0.124c0.346,0,0.648,0.134,0.652-0.12c0.007,0.253,0.253,0.154,0.594,0.154
			c0.343,0,1.598-0.159,1.598-0.159S371.641,81.777,371.301,81.777"/>
		<path fill="#221A15" d="M380.131,60.178c0.901-0.33,2.036-0.595,2.082-2.143c0.051-1.547,1.185-2.731-0.282-4.387
			c-1.468-1.658-3.218-2.557-3.218-2.557s-1.608-0.757-2.794-1.041c-1.181-0.285-1.552-0.477-2.603,0
			c-1.832,0.829-2.08,1.087-2.934,2.651c-0.854,1.561-1.23,1.512-1.378,2.458c-0.137,0.951-1.036,1.47,0,1.848
			c1.049,0.378,1.237,1.658,2.326,1.939c1.088,0.284,8.657,1.231,8.657,1.231H380.131z"/>
		<path fill="#221A15" d="M383.783,71.624c-0.271,0.257-0.573,0.59-0.779,1.123c-0.42,1.093-0.585,0.908-0.585,0.908
			s0.665-4.267,0.665-5.458c0-1.177-3.799-6.379-5.924-7.087c-2.128-0.696-4.091,0.77-6.37,0.77h-0.184
			c-2.236-0.045-4.17-1.458-6.263-0.77c-2.119,0.708-5.924,5.91-5.924,7.087c0,1.19,0.662,5.458,0.662,5.458
			s-0.16,0.185-0.581-0.908c-0.245-0.63-0.631-0.989-0.938-1.249c-0.563-7.393-0.239-18.283,13.083-18.283h0.074
			C384.107,53.215,384.371,64.23,383.783,71.624"/>
	</g>
	<g>
		<rect x="261.355" y="151.779" fill="#EDD9B4" width="6.528" height="7.446"/>
		<path fill="#83C2E1" d="M276.457,168.739c0,0-0.105,0.033-0.272,0.12H253.08c-0.187-0.087-0.293-0.12-0.293-0.12
			c0-8.745,4.173-11.265,6.107-11.968c1.113,0.554,2.914,1.459,3.563,1.752c0.5,0.217,1.223,0.749,2.164,0.74
			c0.87-0.017,1.926-0.546,3.187-0.941c1.163-0.366,2.208-0.897,3.046-1.356C272.923,157.909,276.457,160.688,276.457,168.739"/>
		<path fill="#010101" d="M273.881,168.859H255.37c0.055-0.904,0.111-2.547,0.085-4.758v-0.415
			c-0.007-0.153-0.007-0.313-0.021-0.485c-0.009-0.11-0.02-0.235-0.026-0.354c-0.07-0.888-0.219-1.941-0.396-3.037
			c0.542-0.803,1.121-1.415,1.699-1.88c0.05-0.053,0.105-0.095,0.153-0.127c0.749-0.595,1.479-0.946,2.02-1.147
			c0.104-0.042,0.201-0.074,0.291-0.099c0.421-0.127,0.678-0.161,0.678-0.161c0.22,0,0.413-0.09,0.582-0.241
			c0,0,0-0.009,0.009-0.009c0.059-0.057,0.114-0.127,0.173-0.201c0.021,0.016,0.063,0.082,0.101,0.209
			c0.22,0.575,2.404,2.269,3.906,3.749c1.501-1.48,3.685-3.174,3.901-3.749c0.044-0.128,0.084-0.193,0.109-0.209
			c0.055,0.073,0.111,0.144,0.169,0.201c0.007,0,0.007,0.009,0.007,0.009c0.17,0.151,0.365,0.241,0.582,0.241
			c0,0,0.244,0.025,0.641,0.144c0.088,0.034,0.184,0.065,0.291,0.107c0.541,0.193,1.275,0.535,2.044,1.14
			c0.05,0.04,0.106,0.082,0.152,0.131c0.582,0.469,1.172,1.082,1.715,1.893c-0.187,1.129-0.332,2.203-0.396,3.1
			c-0.017,0.123-0.025,0.242-0.032,0.356c-0.008,0.119-0.008,0.243-0.016,0.346v0.416
			C273.757,166.271,273.822,167.946,273.881,168.859"/>
		<polygon fill="#FFFFFF" points="259.9,161.318 259.908,161.305 259.895,161.305 258.72,159.291 257.553,157.25 256.386,159.291 
			255.208,161.305 255.195,161.305 255.204,161.318 255.195,161.325 255.208,161.325 256.386,163.344 257.553,165.38 
			258.72,163.344 259.895,161.325 259.908,161.325 		"/>
		<polygon fill="#FFFFFF" points="264.612,161.318 264.618,161.305 264.604,161.305 263.433,159.291 262.266,157.25 
			261.098,159.291 259.922,161.305 259.908,161.305 259.915,161.318 259.908,161.325 259.922,161.325 261.098,163.344 
			262.263,165.38 263.433,163.344 264.604,161.325 264.618,161.325 		"/>
		<polygon fill="#FFFFFF" points="269.324,161.318 269.328,161.305 269.316,161.305 268.142,159.291 266.978,157.25 
			265.808,159.291 264.633,161.305 264.621,161.305 264.624,161.318 264.621,161.325 264.633,161.325 265.808,163.344 
			266.973,165.38 268.142,163.344 269.316,161.325 269.328,161.325 		"/>
		<polygon fill="#FFFFFF" points="274.033,161.318 274.04,161.305 274.027,161.305 272.852,159.291 271.687,157.25 270.517,159.291 
			269.343,161.305 269.331,161.305 269.337,161.318 269.331,161.325 269.343,161.325 270.517,163.344 271.684,165.38 
			272.852,163.344 274.027,161.325 274.04,161.325 		"/>
		<polygon fill="#FFFFFF" points="259.564,168.859 255.536,168.859 256.385,167.417 257.551,165.375 258.723,167.417 		"/>
		<polygon fill="#FFFFFF" points="264.275,168.859 260.25,168.859 261.1,167.417 262.263,165.375 263.426,167.417 		"/>
		<polygon fill="#FFFFFF" points="268.987,168.859 264.962,168.859 265.811,167.417 266.978,165.375 268.14,167.417 		"/>
		<polygon fill="#FFFFFF" points="273.691,168.859 269.672,168.859 270.516,167.417 271.687,165.375 272.853,167.417 		"/>
		<path fill="#1E1F18" d="M262.248,167.695l-1.254-2.187l-1.145-1.966h-0.122l0.059-0.111l-0.063-0.103l0.123-0.009l1.147-1.969
			l1.258-2.187l1.252,2.187l1.144,1.965h0.113l-0.052,0.111l0.059,0.103l-0.118,0.008l-1.146,1.97L262.248,167.695z
			 M260.016,163.427l1.155,1.977l1.077,1.884l1.082-1.884l1.151-1.977l-1.151-1.973l-1.078-1.883l-1.081,1.883L260.016,163.427z"/>
		<polygon fill="#1E1F18" points="262.248,167.284 261.352,168.859 261.584,168.859 262.248,167.687 262.919,168.859 
			263.151,168.859 		"/>
		<path fill="#1E1F18" d="M266.961,167.695l-1.255-2.187l-1.148-1.966h-0.118l0.058-0.111l-0.062-0.103l0.122-0.009l1.148-1.969
			l1.256-2.187l1.252,2.187l1.147,1.965h0.109l-0.048,0.111l0.054,0.103l-0.115,0.008l-1.147,1.97L266.961,167.695z
			 M264.728,163.427l1.154,1.977l1.079,1.884l1.08-1.884l1.152-1.977l-1.152-1.973l-1.079-1.883l-1.08,1.883L264.728,163.427z"/>
		<polygon fill="#1E1F18" points="266.961,167.284 266.062,168.859 266.298,168.859 266.961,167.687 267.631,168.859 
			267.865,168.859 		"/>
		<path fill="#1E1F18" d="M260,163.427l0.047-0.111h-0.103l-1.148-1.965l-1.253-2.191l-1.261,2.191l-0.875,1.497
			c0.007,0.119,0.018,0.244,0.027,0.354l1.024-1.747l1.084-1.891l1.074,1.891l1.155,1.973l-1.155,1.981l-1.082,1.884l-1.076-1.884
			l-1.004-1.722v0.415l0.827,1.402l1.253,2.192l1.261-2.192l1.148-1.96l0.114-0.009L260,163.427z"/>
		<polygon fill="#1E1F18" points="257.535,167.284 256.636,168.859 256.874,168.859 257.535,167.687 258.217,168.859 
			258.447,168.859 		"/>
		<path fill="#1E1F18" d="M258.883,156.655l-1.34,2.327l-0.679-1.18c-0.049,0.032-0.104,0.074-0.154,0.127l0.833,1.455l1.631-2.828
			C259.085,156.581,258.988,156.613,258.883,156.655"/>
		<path fill="#1E1F18" d="M271.672,159.563l1.084,1.891l1.051,1.811c0.007-0.114,0.016-0.233,0.031-0.356l-0.916-1.558l-1.25-2.192
			l-1.253,2.192l-1.147,1.965l-0.131,0.017l0.063,0.095l-0.056,0.115h0.123l1.147,1.96l1.253,2.191l1.25-2.191l0.868-1.475v-0.416
			l-1.034,1.796l-1.084,1.884l-1.076-1.884l-1.156-1.98l1.156-1.973L271.672,159.563z"/>
		<polygon fill="#1E1F18" points="271.672,167.284 270.766,168.859 270.994,168.859 271.672,167.687 272.333,168.859 
			272.576,168.859 		"/>
		<path fill="#1E1F18" d="M272.367,157.786l-0.688,1.197l-1.356-2.336c-0.107-0.042-0.203-0.073-0.292-0.107l1.648,2.845l0.84-1.467
			C272.474,157.868,272.417,157.827,272.367,157.786"/>
		<path fill="#83C2E1" d="M269.036,155.755c-0.177-0.449-0.596-0.869-0.75-1.225c-0.254-0.592-0.485-1.114-0.485-1.114
			c-0.061,0.563-0.935,3.079-0.935,3.079s-2.744,2.932-2.316,3.025c0.435,0.095,2.467,1.042,3.047,1.719
			c0.589,0.679,0.488,1.312,0.642,0.395C268.391,160.714,269.505,156.96,269.036,155.755"/>
		<path fill="#83C2E1" d="M262.385,156.494c0,0-0.875-2.516-0.934-3.079c0,0-0.236,0.522-0.49,1.115
			c-0.152,0.356-0.574,0.776-0.753,1.225c-0.463,1.205,0.651,4.959,0.803,5.878c0.151,0.918,0.052,0.285,0.637-0.395
			c0.583-0.677,2.545-1.608,2.976-1.703C265.052,159.446,262.385,156.494,262.385,156.494"/>
		<path fill="#CCAE8B" d="M264.392,123.339c-12.209,0-12.28,10.217-11.737,16.907c-0.834-1.583-3.313-1.094-3.111,1.401
			c0.198,2.406,3.694,3.651,3.646,3.372c1.003,5.506,6.748,8.684,11.202,8.684c0.031,0,0.065-0.004,0.094-0.004v-30.36H264.392"/>
		<path fill="#BC9F82" d="M250.324,140.592c0.604-0.963,1.534-0.547,1.762-0.333c0.247,0.229,0.438,0.535,0.285,1.106
			c-0.081,0.319-0.42,0.345-0.337,0.833c0.09,0.548,0.345,0.584,0.487,0.708c0.14,0.124,0.322,0.217,0.412,0.453
			c0.087,0.23,0.102,0.477,0.056,0.687c-0.096,0.393-0.671,0.082-1.052-0.097c-0.258-0.114-1.062-0.796-1.267-1.023
			C250.159,142.348,249.921,141.237,250.324,140.592"/>
		<path fill="#D9BF9F" d="M264.451,123.339c12.211,0,12.281,10.217,11.737,16.907c0.837-1.583,3.317-1.094,3.112,1.401
			c-0.197,2.406-3.698,3.651-3.649,3.372c-0.999,5.506-6.743,8.684-11.2,8.684c-0.028,0-0.06-0.004-0.092-0.004v-30.36H264.451"/>
		<path fill="#BC9F82" d="M278.522,140.592c-0.605-0.963-1.536-0.547-1.765-0.333c-0.242,0.229-0.436,0.535-0.289,1.106
			c0.088,0.319,0.425,0.345,0.344,0.833c-0.092,0.548-0.345,0.584-0.49,0.708c-0.141,0.124-0.322,0.217-0.412,0.453
			c-0.085,0.23-0.103,0.477-0.053,0.687c0.093,0.393,0.665,0.082,1.052-0.097c0.255-0.114,1.06-0.796,1.263-1.023
			C278.685,142.348,278.924,141.237,278.522,140.592"/>
		<path fill="#EDD9B4" d="M273.25,129.692c-1.769-2.287-4.675-3.45-8.627-3.471v0c-0.032,0-0.062-0.004-0.092-0.004
			c-4.02,0-6.957,1.167-8.738,3.47c-2.487,3.214-2.392,8.127-1.475,11.656c0.279,1.076,0.422,3.984,0.616,5.048
			c0.867,4.774,6.128,7.311,9.597,7.311c0.026,0,0.06-0.004,0.092-0.004l0,0c3.955-0.041,8.687-2.825,9.498-7.307
			c0.194-1.063,0.338-3.972,0.619-5.047C275.652,137.829,275.742,132.92,273.25,129.692z"/>
		<path fill="#B65528" d="M253.751,144.065c-0.233,0,0.018-1.501-0.77-2.535c-0.789-1.037-1.987-4.522-1.987-8
			c0-3.48,1.027-6.577,3.702-9.865c2.679-3.291,6.614-4.889,6.614-4.889l-1.81,1.972c0,0,0.975-1.601,4.479-2.884
			c2.77-1.009,4.557,0.116,4.557,0.116s-1.821-0.074-2.377,0.874c-0.139,0.241-0.648,0.604-0.648,0.604s0.847-2.27,4.784-0.387
			c3.937,1.881,3.863,5.25,6.602,6.285c2.803,1.061,3.616-0.3,3.616-0.3s-1.216,2.384-3.376,2.39c-0.414,0-0.386-0.011-0.386-0.011
			s0.807,2.555,0.965,4.462c0.157,1.946-0.337,3.276-0.49,6.917c-0.131,3.109-0.842,1.516-1.688,3.809
			c-0.284,0.77-0.297,1.635-0.297,1.635c-0.314,0.091-1.139-1.867-0.548-5.269c0.388-2.209-1.518-10.58-6.105-8.948
			c-2.806,1-3.515,3.032-5.613,1.227c-1.812-1.559-4.339-2.453-6.228-1.222c-1.891,1.232-2.955,4.001-2.628,8.417
			C254.539,144.106,253.751,144.065,253.751,144.065"/>
	</g>
	<g>
		<rect x="338.579" y="155.644" fill="#CCB393" width="6.193" height="7.829"/>
		<g>
			<defs>
				<rect id="SVGID_1_" x="338.879" y="155.27" width="5.487" height="3.242"/>
			</defs>
			<clipPath id="SVGID_2_">
				<use xlink:href="#SVGID_1_"  overflow="visible"/>
			</clipPath>
			<path clip-path="url(#SVGID_2_)" fill="#BC9F82" d="M344.366,157.012v0.008c-0.244,0.388-1.086,1.493-2.741,1.493h-0.015
				c-1.576-0.006-2.493-1.155-2.729-1.486c0.055-0.333,0.104-0.69,0.139-1.057c0.02-0.223,0.039-0.444,0.062-0.671
				c0.769,0.19,1.604,0.311,2.498,0.325h0.03c0.917-0.014,1.763-0.138,2.556-0.354c0.02,0.218,0.039,0.442,0.061,0.657
				C344.27,156.312,344.309,156.673,344.366,157.012"/>
		</g>
		<path fill="#3B7FC2" d="M351.781,170.055c0,0-0.093,0.029-0.236,0.104H331.7c-0.162-0.074-0.253-0.104-0.253-0.104
			c0-7.513,3.584-9.677,5.244-10.282c0.956,0.478,2.505,1.255,3.063,1.506c0.43,0.186,1.051,0.643,1.86,0.634
			c0.746-0.014,1.651-0.469,2.735-0.808c0.999-0.313,1.896-0.77,2.618-1.167C348.745,160.752,351.781,163.139,351.781,170.055"/>
		<path fill="#0F4669" d="M349.567,170.159h-15.903c0.047-0.777,0.097-2.186,0.075-4.087v-0.357
			c-0.009-0.131-0.009-0.268-0.021-0.417c-0.008-0.094-0.015-0.202-0.022-0.303c-0.06-0.764-0.188-1.668-0.339-2.61
			c0.466-0.69,0.965-1.216,1.459-1.615c0.042-0.045,0.091-0.083,0.132-0.109c0.646-0.514,1.271-0.814,1.736-0.986
			c0.088-0.036,0.175-0.063,0.25-0.084c0.362-0.11,0.582-0.139,0.582-0.139c0.189,0,0.355-0.077,0.5-0.208c0,0,0-0.008,0.006-0.008
			c0.049-0.049,0.101-0.109,0.15-0.172c0.019,0.013,0.055,0.07,0.088,0.18c0.186,0.493,2.063,3.541,3.354,4.812
			c1.289-1.271,3.165-4.318,3.353-4.812c0.036-0.11,0.071-0.167,0.092-0.18c0.046,0.063,0.096,0.123,0.146,0.172
			c0.007,0,0.007,0.008,0.007,0.008c0.145,0.13,0.313,0.208,0.5,0.208c0,0,0.211,0.022,0.55,0.125
			c0.075,0.029,0.157,0.057,0.249,0.091c0.465,0.167,1.097,0.459,1.756,0.98c0.043,0.034,0.091,0.07,0.13,0.111
			c0.504,0.403,1.009,0.929,1.474,1.626c-0.157,0.97-0.287,1.894-0.338,2.664c-0.016,0.105-0.021,0.207-0.028,0.306
			c-0.007,0.102-0.007,0.209-0.015,0.297v0.356C349.462,167.937,349.517,169.375,349.567,170.159"/>
		<path fill="#CCB393" d="M351.475,142.773c-1.562-5.825,0.749-9.226-9.712-9.242l0.526,0.087l-0.613-0.525l-0.264,0.35l0.526-0.525
			l-0.789,0.175c-10.459,0.016-8.588,4.469-9.891,9.68c-0.721-1.36-2.849-0.938-2.676,1.206c0.171,2.065,3.176,3.135,3.134,2.895
			c0.861,4.73,5.78,9.705,9.608,9.705c0.009,0,1.799,1.72,1.139-0.438c0.009,0.001,0.255,0.263,0.263,0.263
			c3.828,0,7.428-4.799,8.288-9.53c-0.041,0.24,2.967-0.83,3.13-2.895C354.321,141.834,352.191,141.413,351.475,142.773z"/>
		<path fill="#BC9F82" d="M329.255,143.071c0.52-0.827,1.316-0.47,1.516-0.287c0.208,0.198,0.373,0.459,0.243,0.95
			c-0.069,0.276-0.363,0.297-0.29,0.718c0.079,0.469,0.295,0.5,0.419,0.607c0.121,0.105,0.276,0.188,0.354,0.389
			c0.075,0.198,0.087,0.409,0.048,0.589c-0.082,0.338-0.575,0.071-0.906-0.081c-0.217-0.1-0.91-0.685-1.085-0.879
			C329.116,144.579,328.907,143.624,329.255,143.071"/>
		<path fill="#BC9F82" d="M353.48,142.983c-0.522-0.827-1.322-0.47-1.518-0.287c-0.209,0.198-0.374,0.46-0.248,0.951
			c0.075,0.276,0.364,0.296,0.295,0.718c-0.078,0.469-0.295,0.5-0.421,0.607c-0.122,0.105-0.275,0.188-0.353,0.389
			c-0.074,0.198-0.089,0.409-0.046,0.589c0.077,0.339,0.569,0.071,0.902-0.081c0.22-0.099,0.91-0.685,1.087-0.879
			C353.621,144.492,353.822,143.537,353.48,142.983"/>
		<path fill="#15150E" d="M351.585,145.44c-0.21,0.204-0.445,0.466-0.604,0.893c-0.329,0.863-0.452,0.714-0.452,0.714
			s0.515-3.377,0.515-4.316c0-0.932-2.938-7.88-4.578-8.438c-1.644-0.552-3.119,1.317-4.881,1.317h-0.14
			c-1.728-0.036-3.261-1.862-4.88-1.317c-1.638,0.558-4.579,7.506-4.579,8.438c0,0.938,0.517,4.316,0.517,4.316
			s-0.127,0.149-0.452-0.714c-0.187-0.505-0.486-0.788-0.724-0.993c-0.436-5.85-0.187-14.464,10.106-14.464h0.055
			C351.836,130.876,352.035,139.59,351.585,145.44"/>
		<path fill="#15150E" d="M332.123,146.676c0,0-1.051,4.995,2.104,7.449c0,0,2.19,2.629,6.923,3.155c0,0,6.66-0.263,8.938-5.083
			c0,0,1.753-2.454,0.438-5.608c0,0,0.789,6.046-5.608,7.711c0,0-11.013,3.521-12.867-7.967"/>
		<path fill="#15150E" d="M340.448,148.867c0,0-5.959,0.526-2.278,6.572c0,0-2.016-5.608,2.717-6.046c0,0,6.66-1.314,3.593,6.222
			C344.479,155.614,349.65,147.903,340.448,148.867z"/>
		<path fill="#292321" d="M348.114,144.422c-0.036-0.046-0.741-0.108-1.657-0.163c-0.776-0.044-2.021-0.015-2.51,0.029
			c-0.198,0.016-0.564,0.059-0.926,0.119c-0.405,0.067-0.803,0.153-0.971,0.175c-0.159,0.021-0.285,0.028-0.415,0.025v-0.001
			c-0.011,0-0.021,0-0.029,0c-0.011,0-0.021,0-0.031,0v0.001c-0.132,0.003-0.257-0.004-0.417-0.025
			c-0.168-0.022-0.565-0.108-0.971-0.175c-0.36-0.06-0.728-0.103-0.928-0.119c-0.488-0.044-1.734-0.073-2.509-0.029
			c-0.918,0.055-1.62,0.117-1.657,0.163c-0.024,0.031-0.081,0.449-0.007,0.493s0.333,0.134,0.397,0.281
			c0.063,0.147,0.317,1.208,0.885,1.497c0.936,0.477,4.077,0.499,4.621-1.241c0.072-0.237,0.171-0.377,0.341-0.416
			c0.068-0.014,0.169-0.025,0.274-0.027c0.103,0.002,0.203,0.014,0.273,0.027c0.17,0.039,0.268,0.178,0.343,0.416
			c0.541,1.739,3.681,1.718,4.618,1.241c0.567-0.289,0.819-1.349,0.886-1.497c0.063-0.147,0.321-0.237,0.394-0.281
			C348.193,144.871,348.14,144.453,348.114,144.422 M340.495,145.609c-0.488,1.362-2.856,1.205-3.428,1.097
			c-0.252-0.047-0.986-0.225-1.105-1.334c-0.083-0.768,0.512-0.815,1.354-0.882c0.683-0.052,1.29-0.029,1.701,0.002
			c0.411,0.034,1.368,0.157,1.465,0.366C340.577,145.069,340.602,145.31,340.495,145.609 M347.247,145.372
			c-0.118,1.109-0.854,1.287-1.104,1.334c-0.572,0.108-2.941,0.265-3.43-1.097c-0.105-0.299-0.082-0.54,0.016-0.751
			c0.094-0.209,1.051-0.333,1.464-0.366c0.41-0.031,1.017-0.054,1.7-0.002C346.735,144.557,347.329,144.604,347.247,145.372"/>
		<polygon fill="#292321" points="335.419,144.688 332.053,142.094 334.969,144.89 		"/>
		<polygon fill="#292321" points="347.681,144.678 351.106,142.164 348.126,144.89 		"/>
		<path fill="#15150E" d="M332.123,147.114c0,0,0.701,2.542,2.016,1.665l-0.351,0.876l0.789-0.613l-0.175,1.402l0.525-0.701
			l0.263,1.928l0.088-1.139c0,0,0.525,2.278,2.804,4.207C338.082,154.738,333.525,154.738,332.123,147.114z"/>
		<path fill="#15150E" d="M350.529,147.047c0,0,0.698,2.696-1.229,1.469l0.088,0.789l-0.965-0.613l0.176,1.139l-0.526,0.175
			l0.176,1.139l-0.701-0.526c0,0,0.964,3.243-1.402,4.207C346.145,154.826,351.76,151.712,350.529,147.047z"/>
	</g>
	<path fill="#EDD9B4" d="M202.847,55.372c-0.584,0-0.961-0.794-1.2-1.97c-0.028-0.129-0.054-0.261-0.074-0.403v-0.007
		c-0.053-0.317-0.089-0.655-0.128-1.012c-0.021-0.203-0.04-0.411-0.059-0.619c-0.084-1.041-0.109-2.165-0.109-3.236
		c0,0-1.255,0.123-2.265,0.123h-0.018c-1.009,0-2.257-0.123-2.257-0.123c0,1.077-0.025,2.215-0.111,3.263
		c-0.02,0.215-0.039,0.423-0.057,0.628c-0.033,0.348-0.077,0.679-0.129,0.989c-0.029,0.188-0.06,0.363-0.097,0.536
		c-0.242,1.104-0.604,1.831-1.17,1.831c0,0-5.678,0.682-5.678,9.828c0,0,0.078,0.033,0.23,0.099h9.27l0,0h9.308
		c0.135-0.066,0.222-0.099,0.222-0.099C208.525,56.054,202.847,55.372,202.847,55.372z"/>
	<path fill="#BC9F82" d="M201.573,52.992v0.006c-0.228,0.364-1.014,1.398-2.567,1.398h-0.012c-1.476-0.006-2.334-1.077-2.555-1.391
		c0.053-0.312,0.097-0.642,0.129-0.989c0.019-0.205,0.037-0.414,0.057-0.629c0.722,0.182,1.503,0.292,2.341,0.306h0.027
		c0.856-0.014,1.65-0.13,2.391-0.332c0.02,0.208,0.038,0.416,0.059,0.619C201.484,52.337,201.521,52.674,201.573,52.992"/>
	<path fill="#0F100B" d="M208.538,65.203c0,0-0.087,0.033-0.222,0.1h-18.599c-0.151-0.067-0.23-0.1-0.23-0.1
		c0-6.967,3.3-9.02,4.869-9.605c1.022,1.125,3.046,2.673,4.609,2.748h0.031h0.006h0.005c0.007,0,0.021,0.007,0.034,0
		c1.57-0.075,3.593-1.629,4.617-2.755C205.216,56.169,208.538,58.216,208.538,65.203"/>
	<path fill="#C58B8E" d="M193.48,56.004c1.211,1.336,3.616,3.17,5.468,3.264h0.042h0.005h0.009c0.009,0,0.024,0.006,0.037,0
		c1.859-0.094,4.256-1.928,5.472-3.264c-0.322-0.182-0.624-0.32-0.875-0.414c-1.021,1.125-3.044,2.68-4.614,2.755
		c-0.011,0.007-0.027,0-0.031,0h-0.006h-0.007h-0.033c-1.559-0.076-3.584-1.624-4.607-2.748
		C194.089,55.689,193.795,55.826,193.48,56.004"/>
	<path fill="#CCAE8B" d="M208.347,42.292c0.435-5.376,0.378-13.584-9.412-13.6v0h-0.025h-0.05h-0.027v0.001
		c-9.792,0.016-9.846,8.224-9.41,13.599c-0.676-1.276-2.666-0.882-2.502,1.127c0.157,1.934,2.971,2.933,2.932,2.707
		c0.803,4.418,5.403,6.972,8.981,6.984v0.001h0.027h0.05h0.025v-0.001c3.578-0.012,8.178-2.566,8.981-6.985
		c-0.04,0.226,2.776-0.772,2.931-2.707C211.012,41.41,209.02,41.016,208.347,42.292z"/>
	<path fill="#EDD9B4" d="M205.948,33.805c-1.418-1.842-3.757-2.778-6.937-2.794v0h-0.074c-3.234,0-5.594,0.935-7.03,2.79
		c-1.998,2.586-1.921,6.537-1.183,9.371c0.225,0.869,0.34,3.204,0.497,4.064c0.696,3.834,4.929,5.876,7.716,5.876
		c0.023,0,0.051-0.004,0.074-0.004c3.183-0.033,6.985-2.271,7.641-5.872c0.152-0.86,0.27-3.195,0.496-4.064
		C207.882,40.344,207.955,36.4,205.948,33.805z"/>
	<path fill="#15150E" d="M208.607,34.474c0.02-1.659-0.764-2.198-1.261-3.007s-1.604-1.772-2.101-2.172
		c-0.497-0.398-1.031-0.903-1.031-0.903s-0.84-0.586-1.986-0.819c-1.146-0.23-1.49,0.04-2.56,0.418
		c-0.133,0.048-0.252,0.097-0.355,0.145c-0.664-0.563-0.654-0.613-1.389-0.878c-1.374-0.499-2.174,0.24-2.174,0.24l0.801,0.109
		c0,0-1.298-0.159-2.367,0.496c-1.071,0.656-1.441,1.191-1.441,1.191s1.54-0.319,0.548,0c-0.995,0.323-1.872,0.822-2.673,1.479
		c-0.802,0.656-1.644,1.579-2.027,2.544c-0.381,0.964,0.191-0.502,0.956-1.041c0.762-0.541,1.376-0.732,1.376-0.732
		s-1.045,0.949-1.949,2.891c-0.552,1.186-1.122,2.753-0.938,5.31c0.285,4.082,2.395,5.571,2.395,5.571s-0.489-0.474-0.685-1.107
		c-0.198-0.634-0.103-1.427-0.083-1.33c0.041,0.192,2.118,3.006,2.118,3.006s-1.665-2.191-1.043-5.025
		c0.224-1.024,0.84-1.637,1.103-1.953c0.081-0.097,0.148-0.194,0.22-0.289c1.007,1.179,2.913,1.677,2.913,1.677
		s-1.229-1.211-1.384-2.098c-0.151-0.887-0.085-2.727,0.985-3.767c0.146-0.142,0.315-0.288,0.498-0.432
		c-0.495,1.02-0.46,1.967,0.011,2.944c0.235,0.483,0.661,0.861,1.066,1.133c1.084,0.853,2.733,1.397,4.579,1.397
		c0.891,0,1.734-0.127,2.49-0.353c0,0,0.004-0.002,0.006-0.002c0.129-0.039,0.254-0.078,0.376-0.123
		c1.311-0.387,5.452-1.202,3.479,4.693l-0.017,0.088l-0.003-0.002c-0.285,1.317-1.546,2.152-1.546,2.152s1.48-0.886,2.319-2.274
		c0.842-1.388,0.944-2.682,0.868-4.443c-0.016-0.361-0.046-0.677-0.087-0.974c0.092,0.118,0.188,0.222,0.287,0.3
		c0.688,0.538,1.236,0.529,1.236,0.529S208.562,38.229,208.607,34.474"/>
	<g>
		<rect x="436.495" y="134.948" fill="#EDD9B4" width="4.907" height="9.64"/>
		<g>
			<path fill="#263171" d="M438.961,145.97v1.652h-8.099c-0.127-0.061-0.195-0.083-0.195-0.083c0-7.987,4.956-8.591,4.956-8.591
				c0.056,0,0.106-0.003,0.15-0.02c0.134,0.3,0.497,0.3,1.107,0.823c0.804,0.694,1.953,2.345,2.022,3.564
				C438.938,143.94,438.952,145.029,438.961,145.97"/>
			<path fill="#263171" d="M438.938,145.97v1.652h8.165c0.131-0.061,0.201-0.083,0.201-0.083c0-7.987-5-8.591-5-8.591
				c-0.057,0-0.11-0.003-0.152-0.02c-0.133,0.3-0.499,0.3-1.118,0.823c-0.809,0.694-1.969,2.345-2.038,3.564
				C438.961,143.94,438.943,145.029,438.938,145.97"/>
			<path fill="#17224E" d="M433.92,139.395c-0.858,1.135-1.785,1.005-1.785,1.005s1.563,1.317,2.164,1.314
				c3.299-0.011,4.346,1.167,4.604,1.6c0.072,0.123,0.137-0.092,0.035-0.451c-0.251-0.897-1.076-2.81-1.928-3.317
				c-1.042-0.618-0.503-1.664-0.503-1.664s-1.364,0.448-1.76,0.687C434.535,138.697,434.07,139.196,433.92,139.395"/>
			<path fill="#17224E" d="M443.997,139.395c0.858,1.135,1.787,1.005,1.787,1.005s-1.567,1.317-2.165,1.314
				c-3.298-0.011-4.346,1.167-4.602,1.6c-0.074,0.126-0.133-0.076-0.028-0.442c0.26-0.903,1.071-2.818,1.922-3.326
				c1.041-0.618,0.501-1.664,0.501-1.664s1.362,0.448,1.759,0.687C443.385,138.697,443.846,139.196,443.997,139.395"/>
			<path fill="#D9BF9F" d="M447.124,127.528c0.381-4.694,0.332-11.859-8.219-11.873v0h-0.023h-0.042h-0.022v0
				c-8.552,0.013-8.601,7.179-8.223,11.873c-0.587-1.112-2.325-0.768-2.185,0.984c0.139,1.69,2.598,2.565,2.563,2.368
				c0.703,3.867,4.735,6.098,7.866,6.098c0.006,0,0.015,0,0.021,0c0.007,0,0.013,0,0.021,0c3.128,0,7.166-2.231,7.866-6.098
				c-0.034,0.197,2.422-0.678,2.561-2.368C449.448,126.76,447.712,126.416,447.124,127.528z"/>
			<path fill="#BC9F82" d="M428.961,127.771c0.423-0.676,1.076-0.384,1.237-0.234c0.171,0.161,0.307,0.375,0.2,0.776
				c-0.059,0.225-0.295,0.242-0.238,0.585c0.063,0.385,0.242,0.41,0.342,0.498c0.101,0.087,0.228,0.152,0.29,0.318
				c0.061,0.162,0.07,0.334,0.037,0.482c-0.064,0.276-0.468,0.057-0.738-0.068c-0.178-0.08-0.744-0.56-0.886-0.721
				C428.843,129.003,428.678,128.224,428.961,127.771"/>
			<path fill="#BC9F82" d="M448.761,127.771c-0.421-0.676-1.077-0.384-1.237-0.234c-0.172,0.161-0.305,0.375-0.202,0.776
				c0.062,0.225,0.298,0.242,0.241,0.585c-0.063,0.385-0.243,0.41-0.344,0.498c-0.101,0.087-0.229,0.152-0.292,0.318
				c-0.058,0.162-0.068,0.334-0.034,0.482c0.063,0.276,0.468,0.057,0.739-0.068c0.177-0.08,0.741-0.56,0.887-0.721
				C448.879,129.003,449.043,128.224,448.761,127.771"/>
			<path fill="#EDD9B4" d="M445.031,120.132c-1.239-1.605-3.281-2.426-6.061-2.44l0,0h-0.062c-2.824,0-4.888,0.82-6.139,2.437
				c-1.746,2.258-1.68,5.709-1.035,8.184c0.195,0.759,0.299,2.798,0.435,3.549c0.607,3.349,4.303,5.134,6.739,5.134
				c0.02,0,0.042-0.003,0.062-0.003v0c2.779-0.033,6.104-1.988,6.675-5.131c0.133-0.749,0.233-2.791,0.434-3.549
				C446.718,125.844,446.783,122.396,445.031,120.132z"/>
			<path fill="#221A15" d="M447.434,122.194c-0.136-1.227-0.229-0.993-0.32-1.708c0.471-0.874,0.881-2.644-0.043-3.951
				c-0.784-1.11-1.396-1.75-1.563-1.922c0.111,0.13,0.389,0.571,0.521,1.869c0.021,0.214,0.027,0.407,0.021,0.583
				c-0.086-0.099-0.171-0.197-0.261-0.291l-1.255,1.467c-0.008-0.561-0.18-1.049-0.524-1.612c-0.575-0.941-0.165-1.857-2.512-3.133
				c-1.076-0.586-2.283-0.197-2.805,0.027c-0.767-0.083-1.213,0.08-1.213,0.08c0.442-0.017,0.653-0.023,1.129,0.358
				c0.501,0.396,0.422,0.659,0.481,0.914c-0.467-0.57-1.803-1.686-4.083-1.062c-1.648,0.455-2.036,0.806-2.036,0.806
				s0.897-0.181,1.5-0.181c0.604,0,0.816-0.003,2.225,0.675c1.411,0.679-3.905-1.456-6.003,0.335c-0.689,0.586-0.8,1.187-0.8,1.187
				s1.122-1.246,2.527-0.377c-0.415,0.322-0.886,0.841-1.198,1.311c-0.643,0.961-0.53,1.14-0.638,2.452
				c-0.104,1.31-0.207,0.736-0.366,2.174c-0.155,1.435-0.32,0.748-0.164,3.046c0.155,2.299,0.971,3.393,0.971,3.393l0.589,0.371
				c0,0-0.234-1.139-0.257-1.829c-0.052-1.568,0.287-1.499,0.909-2.328c0.557-0.744,0.758-0.537,0.768-1.475
				c0.047-4.519,4.843-2.443,5.784-2.443c0.942,0,1.73-0.401,1.99-0.557s0.488,0.228,1.166,0.228c0.245,0,0.568,0.012,0.901-0.026
				c0.967,0.261,1.725,1.014,1.743,2.798c0.01,0.938,0.214,0.73,0.769,1.475c0.62,0.829,0.96,0.76,0.908,2.328
				c-0.022,0.69-0.259,1.829-0.259,1.829l0.595-0.371c0,0,0.812-1.094,0.968-3.393C447.753,122.942,447.589,123.629,447.434,122.194
				 M441.066,115.654c0,0-1.009-1.88-2.002-2.073c-0.083-0.017-0.157-0.026-0.233-0.037c0.409-0.067,1.061-0.058,1.599,0.467
				C441.291,114.846,441.066,115.654,441.066,115.654"/>
		</g>
	</g>
	<g>
		<rect x="75.836" y="43.021" fill="#EDD9B4" width="6.485" height="10.867"/>
		<path fill="#E2434A" d="M89.894,58.75c0,0-0.093,0.027-0.253,0.109H68.597c-0.163-0.082-0.255-0.109-0.255-0.109
			c0-1.711,0.177-3.16,0.458-4.393l0.007-0.03c0.041-0.173,0.088-0.341,0.133-0.505c0.043-0.157,0.086-0.312,0.131-0.468
			c0.096-0.304,0.196-0.589,0.311-0.861c0.076-0.192,0.153-0.379,0.244-0.556c0.175-0.396,0.374-0.752,0.578-1.078
			c0.055-0.083,0.108-0.165,0.156-0.24c0.385-0.573,0.797-1.041,1.208-1.419c0.275-0.254,0.54-0.468,0.795-0.636
			c0.052-0.038,0.097-0.076,0.142-0.109c0.198-0.124,0.382-0.236,0.559-0.322h0.006c0.073-0.054,0.147-0.09,0.213-0.121
			c0.03-0.014,0.067-0.029,0.093-0.044c0.386-0.188,0.716-0.3,0.959-0.363h0.007c0.162-0.045,0.281-0.067,0.352-0.075h0.015
			c0.045-0.015,0.06-0.015,0.06-0.015c0.2,0,0.375-0.082,0.533-0.225c0,0,0-0.008,0.009-0.008c0.077-0.015,0.167-0.015,0.246,0.008
			c0.686,0.194,1.393,1.651,2.116,2.756c0.102,0.15,0.195,0.292,0.293,0.427c0.371,0.502,0.751,0.861,1.133,0.861h0.014
			c1.333,0,2.622-4.311,3.835-4.044c0.157,0.15,0.325,0.225,0.519,0.225C83.467,47.515,89.894,48.294,89.894,58.75"/>
		<path fill="#15150E" d="M75.226,56.114l-0.433-0.421l-0.353-0.396l-0.348-0.478l-0.404-0.177L73.327,54.2l-0.341-0.61
			l-0.425-0.106L72.42,53.21l-0.203-0.389l-0.443-0.101l-0.392-0.375l-0.4-0.386l-0.153-0.274h-0.007l-0.207-0.36l-0.405-0.396
			h-0.009c0.055-0.08,0.108-0.162,0.156-0.237c0.385-0.565,0.797-1.029,1.208-1.407c0.275-0.247,0.54-0.46,0.795-0.629l0.143-0.104
			c0.198-0.124,0.382-0.237,0.559-0.323h0.006l0.212-0.118c0.031-0.017,0.067-0.031,0.093-0.046l0.025,0.068l0.042,0.126
			l0.016,0.484l0.404,0.61l-0.125,0.445l0.214,0.345l0.161,0.255l-0.039,0.471l0.251,0.571l0.098,0.508v0.47l0.19,0.545l0.088,0.505
			l0.172,0.539l-0.113,0.42l0.021,0.471l0.259,0.581L75.226,56.114z"/>
		<path fill="#15150E" d="M82.997,56.114l0.435-0.421l0.356-0.396l0.345-0.478l0.404-0.177l0.36-0.441l0.341-0.61l0.425-0.106
			l0.139-0.273l0.206-0.389l0.441-0.101l0.392-0.375l0.396-0.386l0.156-0.274h0.008l0.206-0.36l0.404-0.396h0.007
			c-0.052-0.08-0.106-0.162-0.157-0.237c-0.384-0.565-0.794-1.029-1.205-1.407c-0.275-0.247-0.536-0.46-0.796-0.629l-0.143-0.104
			c-0.196-0.124-0.38-0.237-0.555-0.323h-0.008l-0.214-0.118c-0.029-0.017-0.063-0.031-0.093-0.046l-0.021,0.068l-0.044,0.126
			l-0.016,0.484l-0.407,0.61l0.126,0.445l-0.215,0.345l-0.16,0.255l0.036,0.471l-0.251,0.571l-0.097,0.508v0.47l-0.189,0.545
			l-0.085,0.505l-0.175,0.539l0.111,0.42l-0.019,0.471l-0.26,0.581L82.997,56.114z"/>
		<path fill="#292413" d="M82.739,46.908l-0.222-0.138c0.193,0.928-0.371,1.659-1.014,2.307c-0.319,0.326-0.651,0.66-0.875,1.041
			c-0.465,0.782-0.957,1.359-1.506,2.004c-0.09-0.255-0.282-0.484-0.453-0.667c-0.543-0.573-0.87-1.032-1.316-1.673l-0.079-0.116
			c-0.182-0.259-0.435-0.51-0.677-0.749c-0.524-0.521-1.034-1.217-0.984-1.942l-0.221,0.081c-0.056,0.809,0.521,1.442,1.078,1.993
			c0.248,0.244,0.483,0.479,0.657,0.723l0.078,0.116c0.454,0.648,0.775,1.112,1.33,1.698c0.187,0.198,0.389,0.453,0.436,0.714
			l-0.104,0.104l0.118-0.026c-0.106,0.026,0.003,0.011,0.003,0.014h0.016l0.123,0.004l0.119,0.003c0-0.015-0.029-0.104-0.033-0.119
			c0,0,1.074-1.228,1.573-2.067c0.217-0.364,0.54-0.689,0.85-1.008C82.279,48.553,82.955,47.935,82.739,46.908"/>
		<path fill="#15150E" d="M79.975,52.958c0,0.491-0.399,0.891-0.891,0.891c-0.492,0-0.892-0.399-0.892-0.891
			c0-0.494,0.399-0.893,0.892-0.893C79.576,52.065,79.975,52.464,79.975,52.958"/>
		<path fill="#CCAE8B" d="M89.871,32.797c0.497-6.084,0.429-15.383-10.66-15.4v0h-0.029h-0.057h-0.028v0
			c-11.09,0.017-11.154,9.315-10.659,15.4c-0.761-1.442-3.02-0.997-2.836,1.277c0.18,2.194,3.368,3.326,3.323,3.07
			c0.915,5.015,6.146,7.91,10.201,7.91c0.01,0,0.019,0,0.028-0.001c0.01,0,0.02,0.001,0.029,0.001c4.059,0,9.292-2.895,10.203-7.91
			c-0.048,0.256,3.145-0.876,3.321-3.07C92.892,31.8,90.634,31.355,89.871,32.797z"/>
		<path fill="#BC9F82" d="M91.996,33.116c-0.549-0.881-1.401-0.503-1.605-0.308c-0.222,0.208-0.397,0.491-0.263,1.011
			c0.078,0.288,0.385,0.31,0.312,0.756c-0.083,0.498-0.314,0.532-0.446,0.646c-0.131,0.111-0.291,0.198-0.374,0.412
			c-0.079,0.209-0.094,0.435-0.05,0.624c0.086,0.36,0.607,0.076,0.96-0.082c0.231-0.105,0.963-0.725,1.152-0.937
			C92.146,34.714,92.364,33.699,91.996,33.116"/>
		<path fill="#BC9F82" d="M66.413,33.116c0.549-0.881,1.401-0.503,1.605-0.308c0.222,0.208,0.398,0.491,0.263,1.011
			c-0.077,0.288-0.385,0.31-0.312,0.756c0.083,0.498,0.314,0.532,0.447,0.646c0.13,0.111,0.292,0.198,0.373,0.412
			c0.079,0.209,0.093,0.435,0.051,0.624c-0.088,0.36-0.607,0.076-0.96-0.082c-0.232-0.105-0.964-0.725-1.152-0.937
			C66.263,34.714,66.046,33.699,66.413,33.116"/>
		<path fill="#EDD9B4" d="M86.97,23.187c-1.604-2.085-4.253-3.146-7.856-3.166l0,0c-0.025,0-0.056-0.003-0.082-0.003
			c-3.66,0-6.336,1.064-7.963,3.165c-2.262,2.925-2.174,7.402-1.341,10.613c0.256,0.985,0.386,3.629,0.562,4.603
			c0.791,4.339,5.585,6.654,8.742,6.654h0.082V45.05c3.607-0.037,7.913-2.572,8.655-6.65c0.176-0.974,0.308-3.618,0.563-4.603
			C89.162,30.594,89.244,26.124,86.97,23.187z"/>
		<polygon fill="#15150E" points="78.638,44.234 79.105,43.414 79.585,44.231 80.062,45.046 79.113,45.051 78.171,45.054 		"/>
		<path fill="#24323D" d="M75.838,16.529c-0.569-0.334-3.01-1.35-3.01-1.35s0.831,0.537,0.933,1.016
			c0.105,0.479-5.51,2.717-6.292,8.823c-0.775,6.107,1.208,8.542,1.208,8.542s-0.368-4.274-0.368-4.263
			c0,0.011-1.506,1.912-1.351,3.412c0.156,1.492,0.505,1.338,1.574,3.017c0.977,1.531-0.025-0.799-0.025-0.799
			s0.775,2.767,1.138,1.591c0.623-2.039,0.371-2.887,0.581-4.025c0.208-1.136,0.369-4.201,0.369-4.201s-0.928,2.476,0.156,4.904
			c0.328,0.74,0.754,1.26,0.754,1.26s-0.654-1.541-0.528-3.169c0.083-1.021,0.67-1.179,1.968-4.921
			c0.615-1.775,0.092-5.187-0.014-4.355c-0.102,0.828-0.177,2.904,0.469,3.944c0.979,1.571,2.4,2.088,2.4,2.088
			s-1.551-1.249-1.569-3.466c-0.011-1.2,0.415-2.155,0.415-2.155s-0.397,2.496,3.198,3.99c1.035,0.431,1.839,0.143,1.839,0.143
			s-1.493-0.92-1.504-2.514c0,0,2.264,3.057,6.386,4.069c1.595,0.388,2.677,0.281,2.677,0.281s0.165-0.362,0.114,1.326
			c-0.054,1.689-0.333,2.408-0.714,2.992c-0.151,0.233-0.623,0.669-0.623,0.669s1.194-0.463,1.939-2.053
			c0.511-1.089,0.346-2.557,0.346-2.557s0.151,1.792,0,4.251c-0.222,3.554-1.403,5.101-1.403,5.101s1.153-0.67,1.894-2.749
			c0.022-0.066-0.083,1.258,0.025,0.359c0,0,1.049,0.154,1.802-2.033c0,0,0.487,2.333,0.12-0.439
			c-0.467-3.523,0.335-6.269-0.287-9.022c-0.625-2.753-0.792-3.022-1.833-4.517c-1.035-1.499-2.036-2.701-4.841-3.691
			c-2.8-0.992-3.396-0.655-4.468-0.64c-1.707,0.024-2.799,0.866-2.799,0.866s-0.157-0.618,0.103-1.458
			c0.259-0.838,0.47-1.235,0.47-1.235s-0.684,1.1-0.83,1.377C75.646,16.075,75.838,16.529,75.838,16.529"/>
	</g>
</g>
</svg>
