<?xml version="1.0" encoding="utf-8"?>
<!-- Generator: Adobe Illustrator 16.0.0, SVG Export Plug-In . SVG Version: 6.00 Build 0)  -->
<!DOCTYPE svg PUBLIC "-//W3C//DTD SVG 1.1//EN" "http://www.w3.org/Graphics/SVG/1.1/DTD/svg11.dtd">
<svg version="1.1"
	 id="Layer_1" xmlns:cc="http://creativecommons.org/ns#" xmlns:dc="http://purl.org/dc/elements/1.1/" xmlns:rdf="http://www.w3.org/1999/02/22-rdf-syntax-ns#"
	 xmlns="http://www.w3.org/2000/svg" xmlns:xlink="http://www.w3.org/1999/xlink" x="0px" y="0px" width="45px" height="65px"
	 viewBox="0 0 45 65" enable-background="new 0 0 45 65" xml:space="preserve">
<g>
	<path fill="#0000FF" d="M6.194,32.864c-0.247-0.36-0.525-0.812-0.79-1.269c-1.656-2.905-2.531-6.167-2.531-9.436
		c0-10.646,8.805-19.307,19.63-19.307c10.823,0,19.632,8.661,19.632,19.307c0,3.268-0.875,6.531-2.536,9.432l-0.195,0.301
		l-0.121,0.212c-0.173,0.287-0.339,0.577-0.533,0.852l-16.243,27.83L6.194,32.864z"/>
	<path fill="#0097D7" d="M22.503,4.204c10.077,0,18.256,8.04,18.256,17.955c0,3.19-0.875,6.176-2.356,8.771l-0.144,0.208
		c-0.212,0.354-0.407,0.714-0.643,1.055l-15.11,25.88L7.389,32.194c-0.284-0.413-0.542-0.837-0.79-1.266
		c-1.481-2.596-2.352-5.581-2.352-8.769C4.249,12.244,12.42,4.204,22.503,4.204 M22.503,1.5C10.921,1.5,1.5,10.766,1.5,22.16
		c0,3.502,0.935,6.992,2.705,10.094c0.271,0.467,0.547,0.923,0.843,1.36l15.067,25.804L22.5,63.5l2.382-4.082l15.063-25.797
		c0.183-0.275,0.354-0.56,0.518-0.844l0.121-0.205l0.091-0.136l0.061-0.088l0.056-0.095C42.567,29.15,43.5,25.659,43.5,22.16
		C43.506,10.766,34.083,1.5,22.503,1.5L22.503,1.5z"/>
</g>
</svg>
